<svg xmlns="http://www.w3.org/2000/svg" xmlns:xlink="http://www.w3.org/1999/xlink" width="119.91" height="124.43" viewBox="0 0 119.91 124.43"><defs><style>.cls-1{fill:none;}.cls-2{fill:#fbd4a1;}.cls-3{fill:#f5a0c5;}.cls-4{fill:#85642b;}.cls-5{fill:#fff;}.cls-6{fill:#da9a3d;}.cls-7{fill:#1a2954;}.cls-8{clip-path:url(#clip-path);}</style><clipPath id="clip-path" transform="translate(0 0)"><rect class="cls-1" width="119.91" height="124.43"/></clipPath></defs><title>Asset 3</title><g id="Layer_2" data-name="Layer 2"><g id="BG"><g id="Icons"><path class="cls-2" d="M100.35,100.36a.49.49,0,0,1,0-1,.49.49,0,0,1,0,1Zm-.48-7.21a.48.48,0,0,1,0,1,.48.48,0,0,1,0-1Zm0-5.77a.48.48,0,0,1,0,1,.48.48,0,0,1,0-1Zm-2.4,10.09a.48.48,0,0,1,0-1,.48.48,0,0,1,0,1ZM97,91.71a.48.48,0,0,1,0,1,.48.48,0,0,1,0-1Zm2.62-14.92c-1.21-.27-1.43.12-1.87.9a2.41,2.41,0,0,1-2.53,1.6c-1.69-.17-1.89-1.58-2-2.52-.17-1.14-.32-1.8-1.46-2.07s-1.53.13-2,.94A2.49,2.49,0,0,1,86.29,77a2.57,2.57,0,0,1-1.79-2.56c-.11-1-.2-1.73-1.9-2.24.08,4.24.11,7.46.11,8.71,7.62,1.94,7.89,15.27,7.67,20.68A27,27,0,0,1,103,102c0-14-1.43-24.81-3.38-25.25Z" transform="translate(0 0)"/><path class="cls-3" d="M81.6,48.35c5-2.76,14-9.64,9.55-22.16a8,8,0,0,0-1.75-2.82A12.82,12.82,0,0,0,79.3,19.7,3.19,3.19,0,0,0,76.8,21c-.18.35.34,1.58,2,2.77a9.61,9.61,0,0,0,5.32,1.71,9.31,9.31,0,0,0,2.52-.34l.39,1.39a10.55,10.55,0,0,1-1.72.31,8.47,8.47,0,0,1,.27,5c-.68,3.3-2.79,7-4.76,8.43.28,2.45.53,5.19.74,8.16Z" transform="translate(0 0)"/><path class="cls-2" d="M86.42,95.55a.48.48,0,0,1,0-1,.48.48,0,0,1,0,1ZM84.5,91.71a.48.48,0,0,1,0-1,.48.48,0,0,1,0,1Zm-1-3.85a.48.48,0,0,1,0-1,.48.48,0,0,1,0,1Zm-1.92,7.21a.48.48,0,0,1,0-1,.48.48,0,0,1,0,1Zm.26-12.86-.69-.08a5.89,5.89,0,0,0-4.57,1.5c-3.49,3.25-3.6,11.17-3.67,16.42,0,1.17,0,2.2-.08,3.08A7,7,0,0,1,76,105.25a10.72,10.72,0,0,1,1.54-.3c-.06-1-.17-4.65,1.42-6.21A2.54,2.54,0,0,1,81,98c2.9.3,3.37,3.52,3.41,5.23a35.18,35.18,0,0,1,4.54-1.37c.24-5,.2-18.47-7-19.68Z" transform="translate(0 0)"/><path class="cls-4" d="M80.82,99.47a1,1,0,0,0-.9.3c-.91.89-1.09,3.51-1,5.08a10.43,10.43,0,0,1,1.78.15,16.6,16.6,0,0,1,2.22-1.15c0-1,0-4.17-2.11-4.38Z" transform="translate(0 0)"/><path class="cls-2" d="M50.33,55.89l-.1.66L41.93,56l-.07-.58c-.26-2,0-7,1.85-9.16a2.77,2.77,0,0,1,2-1.1,3.74,3.74,0,0,1,3.06,1.27c1.63,1.78,2.17,5.14,1.54,9.48Zm-8.6-15.6a.48.48,0,0,1,0,1,.48.48,0,0,1,0-1Zm-2.88-2.88a.48.48,0,0,1,0-1,.48.48,0,0,1,0,1Zm-.48,6.73a.48.48,0,0,1,0-1,.48.48,0,0,1,0,1Zm0,28.83a.48.48,0,0,1,0-1,.48.48,0,0,1,0,1Zm-2.88,3.84a.48.48,0,0,1,0-1,.48.48,0,0,1,0,1Zm-.73-7a.49.49,0,0,1,0,1,.49.49,0,0,1,0-1ZM70.08,67.2a.48.48,0,0,1,0,1,.48.48,0,0,1,0-1Zm1.44-10.57a.48.48,0,0,1,0,1,.48.48,0,0,1,0-1Zm1,5.29a.48.48,0,0,1,0,1,.48.48,0,0,1,0-1Zm1.44,8.16a.49.49,0,0,1,0,1,.49.49,0,0,1,0-1ZM76.33,73a.48.48,0,0,1,0,1,.48.48,0,0,1,0-1Zm.48-22.11a.49.49,0,0,1,0,1,.49.49,0,0,1,0-1Zm.48,6.25a.48.48,0,0,1,0-1,.48.48,0,0,1,0,1Zm.48,8.17a.48.48,0,0,1,0-1,.48.48,0,0,1,0,1Zm-6.33,37.37c0-.77,0-1.65.06-2.62.08-5.82.19-13.78,4.13-17.45a7.31,7.31,0,0,1,5.64-1.88c0-1.5,0-5-.13-9.4-.12-5.57-.36-13.86-.9-21.75-.24-3.56-.53-6.8-.86-9.63C78,28.36,76.4,28,76.21,28c-2.09,0-2.44,1-2.93,2.45-.39,1.15-.88,2.57-2.58,3a4.52,4.52,0,0,1-1.16.13c-2.75,0-3.3-1.89-3.71-3.28S65.15,28,63.36,28c-2,0-2.59,1.31-3.29,2.82S58.65,34,56.5,34s-2.71-1.46-3.06-2.53-.69-2.07-2.67-2.28c-1.64-.17-1.94.57-2.42,2.13s-1.1,3.52-4.07,3.31S41,32.88,40.62,31.76a3.4,3.4,0,0,0-.42-1c-.13-.18-.51-.67-2.19-.62,0,0-1.13.11-2.42,6.77l-.71-.14h0l.7.13c-.62,3.22-1.22,7.61-1.77,13,1.6-.71,3.12-1.19,3.91-.13a2.23,2.23,0,0,1,.4,1.89c-.37,1.53-2.32,2.9-4.16,3.89.33.34.74.72,1.18,1.12,1.7,1.56,3.81,3.49,3.79,5.66a3.82,3.82,0,0,1-1.48,2.83,5.55,5.55,0,0,1-3.68,1.48,4.93,4.93,0,0,1-1.25-.16c-.43,7-.64,12.65-.68,13.87a5.72,5.72,0,0,1,.88,1.88c.36,1.14.53,1.53,1.54,1.53s1.45-.81,2.06-2.25c.7-1.64,1.57-3.68,4.35-3.68s3.26,2,3.64,3.38.67,2.23,2.12,2.23,1.72-.7,2.19-2.17,1.09-3.44,4.06-3.44a2.42,2.42,0,0,1,1.76.8c3,3.1,3.16,15.94,2.94,24a32.11,32.11,0,0,1,14.06,0Z" transform="translate(0 0)"/><path class="cls-3" d="M51,19.56c2.1,0,3.34,2.12,3.44,4.12L53,23.75c-.06-1.14-.71-2.75-2-2.75s-1.72,1.72-1.77,2.75l-1.44-.07c.12-2.58,1.32-4.12,3.21-4.12Zm13.92-1.17c2.11,0,3.35,2.13,3.44,4.13l-1.44.07c0-1.15-.71-2.76-2-2.76-1.48,0-1.72,1.93-1.76,2.75l-1.44-.06c.11-2.58,1.31-4.13,3.2-4.13ZM42,31.33c.32,1,.53,1.71,2.37,1.82s2.11-.7,2.6-2.29,1.06-3.44,4-3.14A4,4,0,0,1,54.81,31c.35,1.06.51,1.55,1.69,1.55s1.6-.82,2.26-2.27c.75-1.63,1.68-3.66,4.6-3.66S66.8,28.53,67.21,30s.73,2.24,2.33,2.24h.24c1.09-7.93-.64-17.39-3.5-19.36a20.72,20.72,0,0,1-6.05,1.54c.41,2.53,1.28,9-.22,11a1.64,1.64,0,0,1-1.18.69h-.24c-2.57,0-3.08-4-3.67-8.68-.12-1-.25-2-.4-3a23.1,23.1,0,0,1-9.14-2.65A11.19,11.19,0,0,1,43.45,22a4.19,4.19,0,0,1,.33.26l-.94,1.09a3.72,3.72,0,0,0-.77-.52,3,3,0,0,0-2.45-.12,1.19,1.19,0,0,0-.8,1,2.63,2.63,0,0,0,2.11,2.75,4,4,0,0,0,2.28-.24l.51,1.35a5.88,5.88,0,0,1-2.09.41H41.5v2.13a5.17,5.17,0,0,1,.5,1.21Z" transform="translate(0 0)"/><path class="cls-5" d="M56,14.48q.19,1.37.36,2.7c.45,3.54,1,7.55,2.35,7.42,0,0,.08,0,.17-.12.94-1.24.48-6.54-.08-10a26.15,26.15,0,0,1-2.8,0Z" transform="translate(0 0)"/><path class="cls-2" d="M23.47,93.15a.48.48,0,0,1,0-1,.48.48,0,0,1,0,1ZM48,98a.48.48,0,0,1,0,1,.48.48,0,0,1,0-1Zm3.36-3.84a.48.48,0,0,1,0,1,.48.48,0,0,1,0-1Zm1.44,4.8a.49.49,0,0,1,0,1,.49.49,0,0,1,0-1Zm-1.91,7.78a21.3,21.3,0,0,1,5-1c0-.44.05-1.12.08-2,.42-13-.52-22-2.51-24a1,1,0,0,0-.72-.37c-1.91,0-2.24,1-2.69,2.44s-1,3.17-3.56,3.17S43.3,83,42.92,81.6s-.69-2.31-2.25-2.31-2.28,1.06-3,2.81c-.63,1.46-1.34,3.12-3.39,3.12s-2.58-1.47-2.91-2.54a3.84,3.84,0,0,0-.76-1.57,2.65,2.65,0,0,0-1.7-.7c-1.48-.16-1.74.53-2.2,2.12s-1,3.54-3.85,3.33A3.33,3.33,0,0,1,19.38,83c-.32-1.09-.51-1.69-2.4-1.62a.84.84,0,0,0-.61.34c-2.64,2.83-2.75,17.68-2.55,23.93a41.26,41.26,0,0,1,5.09.1c-.11-1.92.2-4.83,1.58-6.48A3.28,3.28,0,0,1,22.85,98a3.83,3.83,0,0,1,3,1.24c1.49,1.6,2.08,4.56,1.7,8.34l0,0c5.11-2.7,15.4-4.69,23.25-.94Z" transform="translate(0 0)"/><path class="cls-4" d="M45.81,46.58a1.41,1.41,0,0,0-1,.58c-1.22,1.46-1.71,5.2-1.58,7.47L49,55c.42-3.53,0-6.29-1.26-7.64a2.32,2.32,0,0,0-1.92-.8Z" transform="translate(0 0)"/><path class="cls-6" d="M39.68,21.23a4.5,4.5,0,0,1,2.46.13c.78-.88,4.23-5.25.93-11.4L44.2,9.1c2.15,2.06,6.37,3.56,11,3.91a26,26,0,0,0,4.14,0,19.17,19.17,0,0,0,6.71-1.66c3.15-1.51,5-3.8,5.46-6.8a2.39,2.39,0,0,0-.71-2.48c-1.38-1.06-4.36-.65-6.46.28a27.45,27.45,0,0,0-3.82,2.21,30.87,30.87,0,0,1-3.66,2.16,11.14,11.14,0,0,1-6.19,1.06l.17-1.43a9.3,9.3,0,0,0,4-.39c-.22-.14-.44-.3-.67-.46-2.41-1.7-5.4-3.82-11.94.49a10.06,10.06,0,0,0-3.54,3.84c-2.27,4.57.21,9.9,1,11.4Z" transform="translate(0 0)"/><path class="cls-3" d="M32.14,64.86a3.84,3.84,0,0,0,4.36-.77,2.39,2.39,0,0,0,1-1.75c0-1.53-1.84-3.22-3.33-4.59a20.38,20.38,0,0,1-1.54-1.51l-.5.21-.53-1.33L31.9,55l0-.28.49,0,.08,0c2.44-1.19,4-2.44,4.23-3.36a.77.77,0,0,0-.16-.69c-.15-.22-1.2.12-3.08,1l-.2.1a16,16,0,0,1-1.7.71l-.41-1.38a9.14,9.14,0,0,0,1.12-.47c.49-4.88,1-8.85,1.52-12-6.3,5.67-7.75,12.48-7.56,15.79.26,4.48,2.9,9.18,5.89,10.49Z" transform="translate(0 0)"/><path class="cls-4" d="M24.83,100.26a2.31,2.31,0,0,0-1.9-.79,1.85,1.85,0,0,0-1.33.72c-1,1.21-1.4,3.78-1.23,5.71a31.2,31.2,0,0,1,5.81,1.23c.27-3.17-.21-5.65-1.35-6.87Z" transform="translate(0 0)"/><path class="cls-7" d="M49,55l-5.76-.39c-.13-2.27.36-6,1.58-7.47a1.41,1.41,0,0,1,1-.58,2.32,2.32,0,0,1,1.92.8C49,48.73,49.41,51.49,49,55Zm-3.26-9.88a2.77,2.77,0,0,0-2,1.1c-1.83,2.19-2.11,7.12-1.85,9.16l.07.58,8.3.57.1-.66c.63-4.34.09-7.7-1.54-9.48a3.74,3.74,0,0,0-3.06-1.27Z" transform="translate(0 0)"/><path class="cls-7" d="M83.42,121.21c-4-2.73-6.93-1.89-10-.58l.56,1.33c2.77-1.17,5-1.84,8.21.13a4.71,4.71,0,0,0-1.36,1.84l1.35.5a4,4,0,0,1,1.64-1.77,15.18,15.18,0,0,1,9.59-1.87l.21-1.43a17,17,0,0,0-10.16,1.85Z" transform="translate(0 0)"/><g class="cls-8"><path class="cls-7" d="M25.13,116.08c-2.78-2.88-8.22-2.17-11.37-.65l.63,1.3c2.52-1.22,6.93-1.91,9.35,0a6.07,6.07,0,0,0-2.12,2l1.26.71a5.5,5.5,0,0,1,2.37-1.9,6.47,6.47,0,0,1,6-.11l.73-1.25a7.76,7.76,0,0,0-6.85-.15Z" transform="translate(0 0)"/><path class="cls-7" d="M90.38,101.6c.22-5.41,0-18.74-7.67-20.68,0-1.25,0-4.47-.11-8.71,1.7.51,1.79,1.29,1.9,2.24A2.57,2.57,0,0,0,86.29,77a2.49,2.49,0,0,0,3.43-1.37c.47-.81.73-1.25,2-.94s1.29.93,1.46,2.07c.14.94.34,2.35,2,2.52a2.41,2.41,0,0,0,2.53-1.6c.44-.78.66-1.17,1.87-.9C101.56,77.23,103,88,103,102a27,27,0,0,0-12.61-.44ZM85.62,31.76a8.47,8.47,0,0,0-.27-5,10.55,10.55,0,0,0,1.72-.31l-.39-1.39a9.31,9.31,0,0,1-2.52.34,9.61,9.61,0,0,1-5.32-1.71c-1.7-1.19-2.22-2.42-2-2.77a3.19,3.19,0,0,1,2.5-1.27,12.82,12.82,0,0,1,10.1,3.67,8,8,0,0,1,1.75,2.82c4.4,12.52-4.52,19.4-9.55,22.16-.21-3-.46-5.71-.74-8.16,2-1.43,4.08-5.13,4.76-8.43ZM58.87,24.48c-.09.12-.15.12-.17.12-1.38.13-1.9-3.88-2.35-7.42q-.16-1.34-.36-2.7a26.15,26.15,0,0,0,2.8,0c.56,3.46,1,8.76.08,10ZM42.21,6c6.54-4.31,9.53-2.19,11.94-.49.23.16.45.32.67.46a9.3,9.3,0,0,1-4,.39l-.17,1.43a11.14,11.14,0,0,0,6.19-1.06,30.87,30.87,0,0,0,3.66-2.16,27.45,27.45,0,0,1,3.82-2.21c2.1-.93,5.08-1.34,6.46-.28a2.39,2.39,0,0,1,.71,2.48c-.47,3-2.31,5.29-5.46,6.8A19.17,19.17,0,0,1,59.34,13a26,26,0,0,1-4.14,0c-4.63-.35-8.85-1.85-11-3.91L43.07,10c3.3,6.15-.15,10.52-.93,11.4a4.5,4.5,0,0,0-2.46-.13c-.8-1.5-3.28-6.83-1-11.4A10.06,10.06,0,0,1,42.21,6Zm-.58,22a5.88,5.88,0,0,0,2.09-.41l-.51-1.35a4,4,0,0,1-2.28.24,2.63,2.63,0,0,1-2.11-2.75,1.19,1.19,0,0,1,.8-1,3,3,0,0,1,2.45.12,3.72,3.72,0,0,1,.77.52l.94-1.09a4.19,4.19,0,0,0-.33-.26,11.19,11.19,0,0,0,1.93-10.29,23.1,23.1,0,0,0,9.14,2.65c.15,1,.28,2,.4,3,.59,4.65,1.1,8.68,3.67,8.68h.24A1.64,1.64,0,0,0,60,25.35c1.5-2,.63-8.46.22-11a20.72,20.72,0,0,0,6.05-1.54c2.86,2,4.59,11.43,3.5,19.36h-.24c-1.6,0-1.9-.77-2.33-2.24s-1-3.36-3.85-3.36-3.85,2-4.6,3.66c-.66,1.45-1.09,2.27-2.26,2.27S55.16,32,54.81,31a4,4,0,0,0-3.89-3.25c-2.89-.3-3.5,1.69-4,3.14s-.81,2.42-2.6,2.29-2-.79-2.37-1.82a5.17,5.17,0,0,0-.5-1.21V28ZM54.44,78.65a2.42,2.42,0,0,0-1.76-.8c-3,0-3.6,2-4.06,3.44s-.76,2.17-2.19,2.17-1.71-.72-2.12-2.23-.91-3.38-3.64-3.38-3.65,2-4.35,3.68c-.61,1.44-1,2.25-2.06,2.25s-1.18-.39-1.54-1.53a5.72,5.72,0,0,0-.88-1.88c0-1.22.25-6.84.68-13.87a4.93,4.93,0,0,0,1.25.16,5.55,5.55,0,0,0,3.68-1.48,3.82,3.82,0,0,0,1.48-2.83c0-2.17-2.09-4.1-3.79-5.66-.44-.4-.85-.78-1.18-1.12,1.84-1,3.79-2.36,4.16-3.89a2.23,2.23,0,0,0-.4-1.89c-.79-1.06-2.31-.58-3.91.13.55-5.43,1.15-9.82,1.77-13l-.7-.13h0l.71.14C36.88,30.23,38,30.12,38,30.12c1.68-.05,2.06.44,2.19.62a3.4,3.4,0,0,1,.42,1c.35,1.12.83,2.65,3.66,2.83s3.61-1.83,4.07-3.31.78-2.3,2.42-2.13c2,.21,2.28,1.12,2.67,2.28S54.28,34,56.5,34s2.91-1.65,3.57-3.11S61.36,28,63.36,28c1.79,0,2.06.93,2.47,2.32s1,3.28,3.71,3.28a4.52,4.52,0,0,0,1.16-.13c1.7-.45,2.19-1.87,2.58-3,.49-1.42.84-2.45,2.93-2.45.19,0,1.81.33,3.17,11.89.33,2.83.62,6.07.86,9.63.54,7.89.78,16.18.9,21.75.09,4.44.12,7.9.13,9.4a7.31,7.31,0,0,0-5.64,1.88c-3.94,3.67-4,11.63-4.13,17.45,0,1,0,1.85-.06,2.62a32.11,32.11,0,0,0-14.06,0c.22-8.09.06-20.93-2.94-24ZM33.81,38.58c-.53,3.19-1,7.16-1.52,12a9.14,9.14,0,0,1-1.12.47l.41,1.38a16,16,0,0,0,1.7-.71l.2-.1c1.88-.89,2.93-1.23,3.08-1a.77.77,0,0,1,.16.69c-.22.92-1.79,2.17-4.23,3.36l-.08,0-.49,0,0,.28-.31.14.53,1.33.5-.21a20.38,20.38,0,0,0,1.54,1.51c1.49,1.37,3.34,3.06,3.33,4.59a2.39,2.39,0,0,1-1,1.75,3.84,3.84,0,0,1-4.36.77c-3-1.31-5.63-6-5.89-10.49-.19-3.31,1.26-10.12,7.56-15.79Zm-6.19,69.05,0,0c.38-3.78-.21-6.74-1.7-8.34a3.83,3.83,0,0,0-3-1.24,3.28,3.28,0,0,0-2.36,1.24c-1.38,1.65-1.69,4.56-1.58,6.48a41.26,41.26,0,0,0-5.09-.1c-.2-6.25-.09-21.1,2.55-23.93a.84.84,0,0,1,.61-.34c1.89-.07,2.08.53,2.4,1.62a3.33,3.33,0,0,0,3.46,2.86c2.85.21,3.42-1.84,3.85-3.33s.72-2.28,2.2-2.12a2.65,2.65,0,0,1,1.7.7,3.84,3.84,0,0,1,.76,1.57c.33,1.07.79,2.54,2.91,2.54S37,83.56,37.65,82.1c.74-1.75,1.32-2.81,3-2.81s1.84.79,2.25,2.31.9,3.3,3.51,3.3,3.13-1.83,3.56-3.17.78-2.44,2.69-2.44a1,1,0,0,1,.72.37c2,2,2.93,11,2.51,24,0,.87-.06,1.55-.08,2a21.3,21.3,0,0,0-5,1c-7.85-3.75-18.14-1.76-23.25.94Zm-6-7.44a1.85,1.85,0,0,1,1.33-.72,2.31,2.31,0,0,1,1.9.79c1.14,1.22,1.62,3.7,1.35,6.87a31.2,31.2,0,0,0-5.81-1.23c-.17-1.93.22-4.5,1.23-5.71Zm62.78,3.07c0-1.71-.51-4.93-3.41-5.23a2.54,2.54,0,0,0-2.06.71c-1.59,1.56-1.48,5.24-1.42,6.21a10.72,10.72,0,0,0-1.54.3,7,7,0,0,0-3.09-2.12c0-.88.06-1.91.08-3.08.07-5.25.18-13.17,3.67-16.42a5.89,5.89,0,0,1,4.57-1.5l.69.08c7.25,1.21,7.29,14.73,7,19.68a35.18,35.18,0,0,0-4.54,1.37ZM80.71,105a10.43,10.43,0,0,0-1.78-.15c-.1-1.57.08-4.19,1-5.08a1,1,0,0,1,.9-.3c2.08.21,2.15,3.35,2.11,4.38A16.6,16.6,0,0,0,80.71,105Zm24.8-2-.72-.31c3.17-3.4,11.71-3.45,11.8-3.45V97.75c-.38,0-8.22,0-12.16,3.27,0-8.65-.63-24.76-4.5-25.63A2.72,2.72,0,0,0,96.48,77c-.38.7-.52.91-1.13.85s-.59-.21-.75-1.29-.4-2.74-2.54-3.27a2.83,2.83,0,0,0-3.59,1.63c-.46.8-.64,1.1-1.72.73-.66-.22-.72-.51-.82-1.37-.17-1.48-.57-2.87-3.37-3.58-.11-5.45-.35-13.26-.85-20.77C87,47.2,97.44,39.77,92.51,25.72a9.32,9.32,0,0,0-2.05-3.33,14.2,14.2,0,0,0-11.35-4.12,4.46,4.46,0,0,0-3.58,2c-.66,1.26.34,3.12,2.48,4.62a11.09,11.09,0,0,0,5.74,1.95,6.49,6.49,0,0,1,.46,4.6,15.15,15.15,0,0,1-3.55,7c-1.34-10.43-3-11.88-4.45-11.88-3.12,0-3.8,2-4.29,3.42a6.19,6.19,0,0,1-.6,1.39c.78-7.25-.57-16.23-3.65-19.29a10.16,10.16,0,0,0,5.26-7.34A3.73,3.73,0,0,0,71.68.92c-1.92-1.48-5.46-1-7.92.11a28.94,28.94,0,0,0-4,2.32,29.89,29.89,0,0,1-3.21,1.92A9.11,9.11,0,0,1,55,4.32c-2.47-1.74-6.2-4.39-13.57.47a11.45,11.45,0,0,0-4,4.4c-2.55,5.13,0,10.82,1,12.63a2.44,2.44,0,0,0-1,1.89,4.06,4.06,0,0,0,2.68,4v1.22a5.69,5.69,0,0,0-2.1-.26c-1.56,0-2.68,2.35-3.73,7.67-6.9,5.46-9.71,13-9.42,18.1.28,4.83,3,9.74,6.3,11.5-.37,6-.59,11.11-.68,13.37A5,5,0,0,0,29.05,79c-2.76-.31-3.33,1.69-3.75,3.15s-.78,2.41-2.36,2.29-1.88-.8-2.18-1.82-.81-2.77-3.82-2.66a2.32,2.32,0,0,0-1.63.8c-2.76,3-3.05,15-3,21.48-4.07-1.39-12-.69-12.31-.66L.13,103c2.51-.23,9.35-.51,12.2.77,0,.83,0,1.5.05,2a21.33,21.33,0,0,0-8.77,2.33l.75,1.24c1.89-1.15,5.1-1.94,8.81-2.19a39.27,39.27,0,0,1,6.41.13,28.92,28.92,0,0,1,7,1.53c.27.09.55.2.82.31a16.82,16.82,0,0,1,2.41,1.18l.73-1.24c-.38-.23-.78-.44-1.18-.64,4.71-2.08,13-3.47,19.58-1a18.79,18.79,0,0,0-3.07,1.62l.8,1.2a20.38,20.38,0,0,1,9.89-3.17,10.67,10.67,0,0,1,6.38,1.51l.78-1.21a11.7,11.7,0,0,0-6.44-1.75c0-.35,0-.84.06-1.43,2.3-.81,9.9-1.49,14.54.09a6.62,6.62,0,0,1,2.56,1.43,7.71,7.71,0,0,0-1.14.54l.72,1.25a9.79,9.79,0,0,1,1.75-.73,10.34,10.34,0,0,1,2.54-.49,8.83,8.83,0,0,1,2.43.17,8,8,0,0,1,2.53,1l.77-1.22a10,10,0,0,0-1.38-.71c.36-.17.78-.37,1.28-.58a34.56,34.56,0,0,1,4.88-1.59c0,.15,0,.25,0,.26l1.43.15s0-.27.06-.73a25.5,25.5,0,0,1,13.19.62,16.9,16.9,0,0,1,1.7.69,18.62,18.62,0,0,1,3.37,2l.85-1.16a19.94,19.94,0,0,0-2-1.28c3.94-.91,7.93.08,11.63,2.89l.88-1.15c-4.55-3.45-9.52-4.38-14.4-2.69Z" transform="translate(0 0)"/></g><path class="cls-7" d="M51,21c1.29,0,1.94,1.61,2,2.75l1.44-.07c-.1-2-1.34-4.12-3.44-4.12-1.89,0-3.09,1.54-3.21,4.12l1.44.07c.05-1,.34-2.75,1.77-2.75Z" transform="translate(0 0)"/><path class="cls-7" d="M64.92,19.83c1.29,0,2,1.61,2,2.76l1.44-.07c-.09-2-1.33-4.13-3.44-4.13-1.89,0-3.09,1.55-3.2,4.13l1.44.06c0-.82.28-2.75,1.76-2.75Z" transform="translate(0 0)"/><path class="cls-7" d="M51.34,95.07a.48.48,0,0,0,0-1,.48.48,0,0,0,0,1Z" transform="translate(0 0)"/><path class="cls-7" d="M48,98.91a.48.48,0,0,0,0-1,.48.48,0,0,0,0,1Z" transform="translate(0 0)"/><path class="cls-7" d="M52.78,99.88a.49.49,0,0,0,0-1,.49.49,0,0,0,0,1Z" transform="translate(0 0)"/><path class="cls-7" d="M76.33,73.93a.48.48,0,0,0,0-1,.48.48,0,0,0,0,1Z" transform="translate(0 0)"/><path class="cls-7" d="M70.08,68.16a.48.48,0,0,0,0-1,.48.48,0,0,0,0,1Z" transform="translate(0 0)"/><path class="cls-7" d="M77.77,65.28a.48.48,0,0,0,0-1,.48.48,0,0,0,0,1Z" transform="translate(0 0)"/><path class="cls-7" d="M71.52,57.59a.48.48,0,0,0,0-1,.48.48,0,0,0,0,1Z" transform="translate(0 0)"/><path class="cls-7" d="M76.81,51.83a.49.49,0,0,0,0-1,.49.49,0,0,0,0,1Z" transform="translate(0 0)"/><path class="cls-7" d="M77.29,57.11a.48.48,0,0,0,0-1,.48.48,0,0,0,0,1Z" transform="translate(0 0)"/><path class="cls-7" d="M72.48,62.88a.48.48,0,0,0,0-1,.48.48,0,0,0,0,1Z" transform="translate(0 0)"/><path class="cls-7" d="M73.92,71.05a.49.49,0,0,0,0-1,.49.49,0,0,0,0,1Z" transform="translate(0 0)"/><path class="cls-7" d="M99.87,88.34a.48.48,0,0,0,0-1,.48.48,0,0,0,0,1Z" transform="translate(0 0)"/><path class="cls-7" d="M97,91.71a.48.48,0,0,0,0,1,.48.48,0,0,0,0-1Z" transform="translate(0 0)"/><path class="cls-7" d="M99.87,93.15a.48.48,0,0,0,0,1,.48.48,0,0,0,0-1Z" transform="translate(0 0)"/><path class="cls-7" d="M97.47,96.51a.48.48,0,0,0,0,1,.48.48,0,0,0,0-1Z" transform="translate(0 0)"/><path class="cls-7" d="M100.35,99.39a.49.49,0,0,0,0,1,.49.49,0,0,0,0-1Z" transform="translate(0 0)"/><path class="cls-7" d="M84.5,90.75a.48.48,0,0,0,0,1,.48.48,0,0,0,0-1Z" transform="translate(0 0)"/><path class="cls-7" d="M81.61,94.11a.48.48,0,0,0,0,1,.48.48,0,0,0,0-1Z" transform="translate(0 0)"/><path class="cls-7" d="M83.53,86.9a.48.48,0,0,0,0,1,.48.48,0,0,0,0-1Z" transform="translate(0 0)"/><path class="cls-7" d="M86.42,94.59a.48.48,0,0,0,0,1,.48.48,0,0,0,0-1Z" transform="translate(0 0)"/><path class="cls-7" d="M38.85,36.45a.48.48,0,0,0,0,1,.48.48,0,0,0,0-1Z" transform="translate(0 0)"/><path class="cls-7" d="M41.73,40.29a.48.48,0,0,0,0,1,.48.48,0,0,0,0-1Z" transform="translate(0 0)"/><path class="cls-7" d="M38.37,43.18a.48.48,0,0,0,0,1,.48.48,0,0,0,0-1Z" transform="translate(0 0)"/><path class="cls-7" d="M23.47,92.19a.48.48,0,0,0,0,1,.48.48,0,0,0,0-1Z" transform="translate(0 0)"/><path class="cls-7" d="M38.37,72a.48.48,0,0,0,0,1,.48.48,0,0,0,0-1Z" transform="translate(0 0)"/><path class="cls-7" d="M35.49,75.85a.48.48,0,0,0,0,1,.48.48,0,0,0,0-1Z" transform="translate(0 0)"/><path class="cls-7" d="M34.76,69.84a.49.49,0,0,0,0,1,.49.49,0,0,0,0-1Z" transform="translate(0 0)"/></g></g></g></svg>