<svg id="Layer_1" data-name="Layer 1" xmlns="http://www.w3.org/2000/svg" width="411.98" height="215.77" viewBox="0 0 411.98 215.77"><defs><style>.cls-1{fill:#994708;}.cls-2{fill:#f89728;}.cls-3{fill:#fdbb30;}</style></defs><title>sunscape-notag_cmyk</title><path class="cls-1" d="M74.33,201.68c0-4.56,0-5.37-.07-6.31s-.3-1.45-1.32-1.66a6,6,0,0,0-1-.09c-.13,0-.25-.05-.25-.17s.15-.24.49-.24c1.39,0,3.34.09,3.5.09.34,0,2.69-.09,3.65-.09a10,10,0,0,1,5.66,1.29,5,5,0,0,1,2.13,4c0,2.16-1,4.32-3.74,6.74,2.54,3.06,4.64,5.66,6.43,7.47a6.57,6.57,0,0,0,3.78,2.1,7.67,7.67,0,0,0,1.21.09c.15,0,.27.09.27.17s-.18.24-.74.24H92.09a6.56,6.56,0,0,1-3.31-.56c-1.34-.67-2.42-2.1-4.18-4.29-1.3-1.6-2.75-3.56-3.38-4.31a.49.49,0,0,0-.4-.18l-3.8-.06c-.16,0-.22.09-.22.24v.69c0,2.81,0,5.11.16,6.33.09.85.28,1.49,1.2,1.61.44.06,1.12.12,1.4.12s.25.09.25.17-.16.24-.5.24c-1.7,0-3.65-.09-3.81-.09s-2,.09-2.9.09c-.34,0-.5-.06-.5-.24s.06-.17.25-.17a4.94,4.94,0,0,0,.93-.12c.61-.12.77-.76.89-1.61.16-1.22.16-3.52.16-6.33v-5.13m2.47,2.54a.38.38,0,0,0,.22.35,9.08,9.08,0,0,0,3.25.46,4.17,4.17,0,0,0,2.32-.55c1.08-.7,1.88-2.28,1.88-4.49,0-3.65-2-5.84-5.35-5.84a10.51,10.51,0,0,0-2.07.17.37.37,0,0,0-.25.35Z"/><path class="cls-1" d="M96.94,203.69c0-3.85,0-4.55-.06-5.34s-.22-1.26-1.12-1.37a8.89,8.89,0,0,0-.92-.06.26.26,0,0,1-.22-.2c0-.15.13-.21.43-.21,1.24,0,3,.06,3.16.06s5.88,0,6.5,0,1-.12,1.23-.14a1.45,1.45,0,0,1,.37-.12c.1,0,.13.12.13.23a11.36,11.36,0,0,0-.22,1.17c0,.23-.09,1.34-.15,1.63,0,.12-.13.27-.25.27s-.22-.12-.22-.32a2.65,2.65,0,0,0-.15-.88c-.19-.41-.47-.58-2-.76-.46-.06-3.62-.09-3.93-.09-.12,0-.15.09-.15.27v6.74c0,.17,0,.26.15.26.34,0,3.93,0,4.55-.06s1-.09,1.33-.35.31-.32.4-.32.15.06.15.2a13.73,13.73,0,0,0-.21,1.37c-.06.5-.13,1.43-.13,1.61s-.06.47-.24.47-.19-.09-.19-.24a2.12,2.12,0,0,0-.12-.81c-.1-.35-.34-.65-1.4-.76-.74-.09-3.64-.12-4.11-.12a.16.16,0,0,0-.18.18v2.07c0,.85,0,3.73,0,4.23.06,1.66.55,2,3.24,2a9.73,9.73,0,0,0,2.73-.26,1.88,1.88,0,0,0,1.23-1.72c.06-.29.13-.38.28-.38s.19.2.19.38a20.34,20.34,0,0,1-.37,2.39c-.19.64-.47.64-1.52.64-2,0-3.62-.05-4.73-.08s-1.86-.06-2.26-.06c-.06,0-.59,0-1.17,0s-1.15.06-1.58.06c-.28,0-.44-.06-.44-.21a.2.2,0,0,1,.22-.2,7.54,7.54,0,0,0,.83-.12c.53-.09.59-.58.72-1.31a49.3,49.3,0,0,0,.15-5.37v-4.38"/><path class="cls-1" d="M111.69,214.93c-.37-.18-.4-.27-.4-.94,0-1.22.13-2.22.16-2.62s.06-.41.22-.41.24.09.24.29a3.22,3.22,0,0,0,.1.9c.43,1.81,2.47,2.45,4.3,2.45,2.69,0,4.08-1.43,4.08-3.29s-1-2.63-3.44-4.32l-1.23-.87c-2.94-2.08-3.9-3.59-3.9-5.32,0-2.92,2.44-4.67,6-4.67a13.65,13.65,0,0,1,2.82.3,3.9,3.9,0,0,0,1,.11c.22,0,.29,0,.29.18a23.35,23.35,0,0,0-.13,2.62c0,.38,0,.56-.21.56s-.22-.12-.25-.32a4.54,4.54,0,0,0-.4-1.23c-.19-.29-1.09-1.23-3.53-1.23-2,0-3.62.94-3.62,2.69,0,1.58.83,2.48,3.52,4.2l.78.5c3.31,2.13,4.45,3.85,4.45,6a4.78,4.78,0,0,1-2.53,4.23,8.79,8.79,0,0,1-4.33.88,10.73,10.73,0,0,1-4-.67"/><path class="cls-1" d="M137.9,196.16c6.12,0,10.76,3.53,10.76,9.31,0,5.54-4.36,10.13-10.92,10.13-7.45,0-10.64-5.28-10.64-9.75,0-4,3.28-9.69,10.8-9.69m.62,18.42c2.44,0,7.36-1.23,7.36-8.41,0-5.95-3.84-9.08-8.14-9.08-4.54,0-7.82,2.69-7.82,8.09C129.92,211,133.6,214.58,138.52,214.58Z"/><path class="cls-1" d="M154.35,203.69c0-3.85,0-4.55-.06-5.34s-.21-1.26-1.11-1.37a9.09,9.09,0,0,0-.93-.06.24.24,0,0,1-.21-.2c0-.15.12-.21.43-.21,1.24,0,3.06.06,3.21.06s2.57-.06,3.41-.06a9.37,9.37,0,0,1,5.07,1.08,4.3,4.3,0,0,1,1.89,3.39c0,1.83-.81,3.62-3.34,5.66,2.22,2.62,4.11,4.87,5.69,6.42a5.07,5.07,0,0,0,3,1.72,5.22,5.22,0,0,0,1,.09.24.24,0,0,1,.25.2c0,.15-.16.21-.65.21h-1.7a5.76,5.76,0,0,1-2.91-.5c-1.18-.58-2.17-1.78-3.72-3.65-1.14-1.34-2.34-2.94-2.93-3.62a.46.46,0,0,0-.38-.14l-3.46-.06c-.12,0-.18.06-.18.2v.59c0,2.39,0,4.32.12,5.34.09.73.25,1.19,1.08,1.31a10.24,10.24,0,0,0,1.21.12c.18,0,.22.11.22.2s-.13.21-.44.21c-1.48,0-3.22-.09-3.34-.09s-1.85.09-2.69.09c-.28,0-.43-.06-.43-.21a.2.2,0,0,1,.21-.2,4.05,4.05,0,0,0,.84-.12c.52-.12.59-.58.71-1.31a49.3,49.3,0,0,0,.15-5.37v-4.38m2.36,2.1a.39.39,0,0,0,.18.33,10,10,0,0,0,3,.37,3.69,3.69,0,0,0,2-.44,4.3,4.3,0,0,0,1.64-3.79c0-3.09-1.79-4.87-4.7-4.87a14.07,14.07,0,0,0-2,.14.33.33,0,0,0-.21.3Z"/><path class="cls-1" d="M179.66,208.07c0,2.39,0,4.35.12,5.37.1.73.22,1.19,1.06,1.31a10.75,10.75,0,0,0,1.23.12c.19,0,.22.11.22.2s-.13.21-.44.21c-1.48,0-3.21-.09-3.37-.09s-2,.09-2.81.09c-.31,0-.43-.06-.43-.21s.06-.17.21-.17a3.78,3.78,0,0,0,.81-.12c.55-.12.71-.61.8-1.34.12-1,.12-3,.12-5.37V197.65l-3.92.06c-1.71,0-2.36.2-2.75.79a3.2,3.2,0,0,0-.44.79c-.06.2-.16.23-.28.23a.2.2,0,0,1-.18-.21c0-.26.55-2.48.58-2.68s.19-.47.28-.47a8.67,8.67,0,0,0,1.21.29c.77.09,1.82.12,2.13.12h10.27a13.9,13.9,0,0,0,1.95-.12c.4-.06.65-.11.78-.11s.12.14.12.29c0,.76-.09,2.54-.09,2.83a.29.29,0,0,1-.25.32c-.13,0-.19-.09-.22-.44l0-.26c-.09-.76-.68-1.31-3.28-1.37l-3.4-.06v10.42"/><path class="cls-1" d="M190,214.93c-.37-.18-.4-.27-.4-.94,0-1.22.12-2.22.15-2.62s.06-.41.22-.41.25.09.25.29a3.57,3.57,0,0,0,.09.9c.43,1.81,2.47,2.45,4.3,2.45,2.69,0,4.08-1.43,4.08-3.29s-1-2.63-3.43-4.32l-1.24-.87c-2.94-2.08-3.9-3.59-3.9-5.32,0-2.92,2.45-4.67,6-4.67a13.54,13.54,0,0,1,2.81.3,4,4,0,0,0,1,.11c.21,0,.28,0,.28.18a23.35,23.35,0,0,0-.13,2.62c0,.38,0,.56-.21.56s-.22-.12-.25-.32a4.54,4.54,0,0,0-.4-1.23c-.19-.29-1.08-1.23-3.53-1.23-2,0-3.62.94-3.62,2.69,0,1.58.84,2.48,3.53,4.2l.77.5c3.31,2.13,4.46,3.85,4.46,6a4.77,4.77,0,0,1-2.54,4.23,8.77,8.77,0,0,1-4.33.88,10.64,10.64,0,0,1-4-.67"/><path class="cls-1" d="M215.54,208.16c0-4,2.74-6.72,5.59-8.3a7.46,7.46,0,0,1-1.79-4.76c0-2.72,3-6.34,7.85-6.34a10,10,0,0,1,4.42.86.78.78,0,0,1,.48.87,36.36,36.36,0,0,1-.26,4c-.11.52-.22.58-.36.58s-.22-.13-.22-.65a4,4,0,0,0-1.13-2.93,5.21,5.21,0,0,0-3.66-1.52,4.33,4.33,0,0,0-4.63,4.52c0,2.69,2,4.93,5.77,8.82,1.24,1.27,5.73,5.23,6.9,6.16a10.07,10.07,0,0,0,1.86-5.71,2.25,2.25,0,0,0-.69-1.69,2.69,2.69,0,0,0-1.79-.55c-.22,0-.44-.07-.44-.24s.29-.25.58-.25a43.23,43.23,0,0,1,4.39.25c.55.07.65.34.65.68,0,2.79-2,6.28-3.61,8.13a31.61,31.61,0,0,0,5,3.41,10.38,10.38,0,0,0,4.34,1.35c.33,0,.51,0,.51.24s-.29.24-.62.24h-3.57c-2.71,0-3.58-.24-7.6-3.24a12.58,12.58,0,0,1-9.13,3.72c-6.39,0-8.88-4.61-8.88-7.61m17.06,3.24c-2-1.59-5.66-4.86-6.61-5.82a59.81,59.81,0,0,1-4.31-4.83,6.51,6.51,0,0,0-3.29,5.79,7.19,7.19,0,0,0,7.31,7.4A9.69,9.69,0,0,0,232.6,211.4Z"/><path class="cls-1" d="M255.6,214.9c-.43-.21-.46-.32-.46-1.11,0-1.46.12-2.63.15-3.09s.09-.47.25-.47.22.09.22.32a5,5,0,0,0,.09,1.08c.47,2.16,2.51,3,4.57,3,3,0,4.43-2,4.43-3.87,0-2-.9-3.19-3.55-5.26l-1.4-1.08c-3.28-2.54-4-4.35-4-6.33,0-3.12,2.48-5.26,6.4-5.26a12.34,12.34,0,0,1,2.88.3,5.71,5.71,0,0,0,1.08.14c.25,0,.31.06.31.21s-.12,1.11-.12,3.09c0,.47-.07.67-.22.67s-.22-.14-.24-.38a5.47,5.47,0,0,0-.4-1.46c-.19-.32-1-1.54-3.87-1.54-2.14,0-3.81,1.25-3.81,3.38,0,1.67.81,2.72,3.78,4.9l.86.65c3.65,2.71,4.52,4.52,4.52,6.86a5.94,5.94,0,0,1-2.63,4.84,8.54,8.54,0,0,1-4.67,1.22,9.93,9.93,0,0,1-4.15-.78"/><path class="cls-1" d="M274.5,203.69c0-3.85,0-4.55-.06-5.34s-.22-1.26-1.11-1.37a9.09,9.09,0,0,0-.93-.06.26.26,0,0,1-.22-.2c0-.15.13-.21.43-.21,1.25,0,2.94.06,3.16.06.59,0,2.63-.06,3.87-.06,3.49,0,4.73,1,5.19,1.4a4.1,4.1,0,0,1,1.37,3c0,3.56-2.85,5.92-7,5.92a6.61,6.61,0,0,1-.77,0c-.13,0-.28-.11-.28-.23s.15-.26.71-.26c2.94,0,5.05-1.75,5.05-4a4.88,4.88,0,0,0-1.55-3.76,4.79,4.79,0,0,0-3.68-1.2,10.94,10.94,0,0,0-1.52.17c-.16,0-.21.21-.21.47v10.1c0,2.39,0,4.35.12,5.37.09.73.25,1.19,1.08,1.31a10.24,10.24,0,0,0,1.21.12.19.19,0,0,1,.21.2c0,.12-.12.21-.43.21-1.48,0-3.28-.09-3.4-.09s-1.85.09-2.69.09c-.28,0-.44-.06-.44-.21a.21.21,0,0,1,.22-.2,4.05,4.05,0,0,0,.84-.12c.52-.12.58-.58.71-1.31a49.3,49.3,0,0,0,.15-5.37v-4.38"/><path class="cls-1" d="M295.51,197c.34-.82.46-1,.65-1s.37.34.64.9c.5,1.05,4.86,11.29,6.53,15.06,1,2.22,1.74,2.53,2.32,2.71a3.9,3.9,0,0,0,1.08.15c.16,0,.35.06.35.2s-.31.21-.62.21-2.42,0-4.31-.06c-.52,0-.95,0-.95-.18s.06-.11.18-.17a.46.46,0,0,0,.25-.67l-2.44-5.7c-.06-.11-.1-.14-.25-.14h-6.28a.29.29,0,0,0-.28.2l-1.55,4a5.06,5.06,0,0,0-.4,1.67c0,.49.47.67.93.67h.25c.22,0,.28.09.28.2s-.16.21-.4.21c-.66,0-2.14-.09-2.45-.09s-1.64.09-2.75.09c-.34,0-.53-.06-.53-.21s.13-.2.25-.2a7.55,7.55,0,0,0,.8-.06c1.24-.15,1.77-1,2.29-2.28L295.51,197m3,10.33c.12,0,.12-.06.09-.18l-2.69-6.8c-.15-.37-.31-.37-.46,0l-2.54,6.8q0,.18.09.18Z"/><path class="cls-1" d="M308.65,214.93c-.37-.18-.4-.27-.4-.94,0-1.22.13-2.22.16-2.62s0-.41.21-.41.25.09.25.29a3.57,3.57,0,0,0,.09.9c.44,1.81,2.48,2.45,4.3,2.45,2.7,0,4.09-1.43,4.09-3.29s-1-2.63-3.44-4.32l-1.24-.87c-2.93-2.08-3.89-3.59-3.89-5.32,0-2.92,2.44-4.67,6-4.67a13.46,13.46,0,0,1,2.81.3,4,4,0,0,0,1,.11c.22,0,.28,0,.28.18a25.28,25.28,0,0,0-.12,2.62c0,.38,0,.56-.22.56s-.22-.12-.25-.32a4.22,4.22,0,0,0-.4-1.23c-.19-.29-1.08-1.23-3.52-1.23-2,0-3.62.94-3.62,2.69,0,1.58.83,2.48,3.52,4.2l.78.5c3.3,2.13,4.45,3.85,4.45,6a4.78,4.78,0,0,1-2.53,4.23,8.81,8.81,0,0,1-4.34.88,10.71,10.71,0,0,1-4-.67"/><path class="cls-2" d="M228.06,57.35c.85,1,.5,3.95-.28,4.93s-2.11-.48-2.35-1.26c-.38-1.25,1.1-5.46,2.63-3.67"/><path class="cls-2" d="M174.34,68.3s0-.06,0-.09c0-.33,0-.67,0-1s-.28-.52-.2-.91a1,1,0,0,1,.09-.34l.05-.1a1.79,1.79,0,0,1,1.29-.51c1,0,1.55.86,2,1.69s.58,1,.27,1.76a10.09,10.09,0,0,1-.54,1c-.12.22-.23.64-.49.73a.91.91,0,0,1-.61.08,2.31,2.31,0,0,1-.52-.19,2.63,2.63,0,0,1-.72-.73,2.18,2.18,0,0,1-.56-.87,3.52,3.52,0,0,1,0-.56"/><path class="cls-2" d="M215.08,82.91c.85.09,1.53.65,1.3,1.62a2.25,2.25,0,0,1-1.14,1.63,2,2,0,0,1-1.75-.18,4.79,4.79,0,0,1-.69-.49c-.08-.07-.29-.22-.33-.32s.2-.34.27-.47a5.36,5.36,0,0,1,.93-1.34,1.63,1.63,0,0,1,1.41-.45"/><path class="cls-2" d="M209.28,86.56a1.59,1.59,0,0,0-.25.6c0,.1,0,.21,0,.31s-.08.17-.11.27,0,.18,0,.27-.16.35-.21.54a.74.74,0,0,0,.14.76c1.09.86,3.14,1.18,4-.18.71-1.13.21-1.62-.55-2.43s-2.08-1.62-3-.14"/><path class="cls-2" d="M172.19,63.61c-.06-.1-.11-.2-.16-.3a3.25,3.25,0,0,1-.3-1.53,3.62,3.62,0,0,1,.17-1.7c.25-.56.59-1.12,1.29-1.11s1.16.69,1.46,1.22a6.31,6.31,0,0,1,.42,1.06,3.35,3.35,0,0,1,.39,1.28,2.19,2.19,0,0,1-.27,1.36,1.7,1.7,0,0,1-1,.56,2,2,0,0,1-.64.08,1.28,1.28,0,0,1-1-.35,2.87,2.87,0,0,1-.39-.57"/><path class="cls-2" d="M190.21,86.9a10.86,10.86,0,0,1,.17,1.6,1.91,1.91,0,0,1-.25.74,1.84,1.84,0,0,1-.26.4,1.19,1.19,0,0,1-.49.17,1.87,1.87,0,0,1-1.17,0,2.3,2.3,0,0,1-.81-.8,3.51,3.51,0,0,1-.55-2.61,2.25,2.25,0,0,1,2.23-1.66c1.82-.13,1,.91,1.13,2.18"/><path class="cls-2" d="M195.3,90.42h-.2c-.56,0-.76.69-.92,1.13a2.33,2.33,0,0,0-.22.87,1.81,1.81,0,0,0,.77,1.37c.17.1.32.18.48.29s.36.21.54.32a4,4,0,0,0,1.1.57c.67.16,1.39,0,1.53-.62.09-.41-.15-.8-.22-1.22a2.37,2.37,0,0,0-1.14-1.6c-.53-.35-1.05-1-1.72-1.1"/><path class="cls-2" d="M204.37,93.75a2.59,2.59,0,0,0-1.46-2.66,1.85,1.85,0,0,0-1.7.49,4.15,4.15,0,0,1-.51.43c-.27.16-.57.26-.83.42a2.05,2.05,0,0,0-.4.38c-.13.14-.07.37-.11.56s-.08.2-.1.3a2.13,2.13,0,0,0,0,.5,1.08,1.08,0,0,0,.17.73s0,0,0-.06.07.21.2.3a3.62,3.62,0,0,0,2.24.21c.31,0,.62-.1.91-.11a1.61,1.61,0,0,0,.95-.37,2.23,2.23,0,0,0,.71-1.12"/><path class="cls-2" d="M202.16,31.26a4.79,4.79,0,0,0-4.31-.63,4.31,4.31,0,0,0,.11.88c0,.34.08.69.15,1a5.34,5.34,0,0,0,.65,1.91A1.53,1.53,0,0,0,201,35a3.6,3.6,0,0,1,.52-.43c.18-.1.36-.21.52-.32a2.79,2.79,0,0,0,.8-.73c.51-.74.06-1.51-.49-2.07,0-.05-.1-.11-.16-.16"/><path class="cls-2" d="M221.37,75.31c.85.09,1.53.63,1.3,1.62a2.26,2.26,0,0,1-1.14,1.63,2,2,0,0,1-1.75-.18,4,4,0,0,1-.87-.65c-.16-.16-.18-.22-.09-.44a4.65,4.65,0,0,1,.56-.78c.16-.23.32-.46.5-.68a1.63,1.63,0,0,1,1.49-.52"/><path class="cls-2" d="M225.7,71.1A5.12,5.12,0,0,0,224,69.4c-1.79,1.37-4.31,3.15-1.54,5.1,2,1.42,3.15-1.6,3.39-3.14"/><path class="cls-2" d="M220.28,44.74c-.46-.43-1.26-.4-1.82-.82a2,2,0,0,1-1-1.39c-.24-1.33,1.12-3.15,2.62-2.87,2.33.45,2.92,5.48.19,5.22"/><path class="cls-2" d="M207.62,89.35a7.08,7.08,0,0,1,.64.7c.18.21.48.43.47.74a1.58,1.58,0,0,1,0,.38,1.41,1.41,0,0,1-.62.8,6.65,6.65,0,0,1-1,.72,1.56,1.56,0,0,1-2.12-.26,7.14,7.14,0,0,1-.43-3.25c.44-1.71,2.4-.46,3.15.17"/><path class="cls-2" d="M219.52,79.67c.57.87,0,2.63-.36,3.47-.06.13-1.44-.54-1.55-.6a2.5,2.5,0,0,1-1.25-1.21c-.14-.45.18-.67.33-1a1,1,0,0,1,.14-.23c.11-.15.17-.32.28-.47a1.8,1.8,0,0,1,.28-.27,2.13,2.13,0,0,1,.69-.38,1.35,1.35,0,0,1,1.44.74"/><path class="cls-2" d="M227.81,53.46c-.09.45-.63,2-1.28,1.61-.32-.2-.62-.44-.94-.65a5.27,5.27,0,0,1-.82-.66,1.57,1.57,0,0,1-.24-1.91c.37-.79,1.85-3.08,2.84-1.91a4.16,4.16,0,0,1,.28,1.56,6.76,6.76,0,0,1,.16,2"/><path class="cls-2" d="M180.39,75.31c1.61-.62,1.49.49,2,1.7s.7,2.76-.94,3.26a3.34,3.34,0,0,1-1.69,0,1.17,1.17,0,0,1-.66-.39.83.83,0,0,1-.13-.63,2.19,2.19,0,0,0,0-.36,1.42,1.42,0,0,0-.12-.25,2.91,2.91,0,0,1-.17-1.13,2.52,2.52,0,0,1,1-1.9,2.79,2.79,0,0,1,.66-.35"/><path class="cls-2" d="M185.39,81.87a4.08,4.08,0,0,1,.87.57c.14.12.25.25.38.38s.3.19.38.37a.44.44,0,0,1,0,.3.92.92,0,0,1-.15.25c-.68,1-1.88,2.9-3.29,1.85a7.28,7.28,0,0,1-1.3-3c0-1.78,2.18-1.09,3.08-.69"/><path class="cls-2" d="M225.92,63.67a5,5,0,0,0-1.4,1.42,3.39,3.39,0,0,0-.73,1.6,3.71,3.71,0,0,0,.32,1.3,1.6,1.6,0,0,0,.73,1c.88.45,1.69-.15,2.23-.84,1.19-1.49.2-3.29-1.15-4.44"/><path class="cls-2" d="M196.33,35.2c-.58.06-1,.65-1.65.79a1.84,1.84,0,0,1-1.57-.18c-1.09-.67-1.6-2.82-.52-3.72,1.67-1.39,5.62,1.38,3.84,3.19"/><path class="cls-2" d="M177.1,71.88c.59-1.46,1.44-.77,2.31.07.73.69,1.18,1.46.67,2.41a3.17,3.17,0,0,1-1,1,2.21,2.21,0,0,1-.65.33.49.49,0,0,1-.29,0c-.16-.07-.17-.29-.25-.41s-.24-.25-.33-.38a2.89,2.89,0,0,1-.48-1,3.29,3.29,0,0,1,0-2.08"/><path class="cls-2" d="M216.67,40.5c-.17.17-.25.3-.52.31a1.53,1.53,0,0,1-.57-.12l-1-.38a4.19,4.19,0,0,1-1.61-1,1.45,1.45,0,0,1-.17-1.67c.66-1.45,2.08-2.36,3.53-1.41,1,.64,2.14,1.72,1.49,2.93a8.92,8.92,0,0,1-1.16,1.3"/><path class="cls-2" d="M212.17,33.59c.51.49,1.78,1.24,1.18,2.09a3.58,3.58,0,0,1-.95.71c-.36.23-.72.47-1.1.68-.54.28-1.39.7-2,.26-1.16-.93-.62-2.92,0-3.87,1-1.57,1.81-.82,2.81.13"/><path class="cls-2" d="M205.94,30.83a4.57,4.57,0,0,1,2.4,2.69,2.53,2.53,0,0,1-1.05,1.66c-.55.27-.9,0-1.47,0a6.86,6.86,0,0,1-1.4.3.72.72,0,0,1-.59-.29.88.88,0,0,1-.17-.41,1.16,1.16,0,0,1,.24-.61,1.2,1.2,0,0,0,.08-.5,5.86,5.86,0,0,1,.2-1,2.88,2.88,0,0,1,1-1.71,1,1,0,0,1,.76-.14"/><path class="cls-2" d="M171.6,54.74a1.38,1.38,0,0,1,1.91-.8,1.62,1.62,0,0,1,1,2,2.79,2.79,0,0,1-.8,1.06,4.71,4.71,0,0,1-.65.45c-.3.18-.45.21-.67-.07l0,0c-.09-.11-.1-.25-.17-.36a1.78,1.78,0,0,0-.22-.26,3.3,3.3,0,0,1-.41-.57,1.44,1.44,0,0,1,0-1.43"/><path class="cls-2" d="M177,43.07c1.43-.68,1.6.39,1.69,1.58.09,1-.08,1.85-1.11,2.2a3.41,3.41,0,0,1-1.49,0,2.26,2.26,0,0,1-.73-.2c-.32-.17-.12-.53-.12-.8a2.76,2.76,0,0,1,.22-1.14A3.15,3.15,0,0,1,177,43.07"/><path class="cls-2" d="M173.44,48.44c-.68.73-1.36,2.5-.38,3.24,1.37,1,1.73-.34,2-1.22s1-2.36-.39-2.92c-.84-.33-1.91.83-1.5,1.88"/><path class="cls-2" d="M190.81,35.53c.43,1.43-.95,1.93-1,3.29-2.24.38-3.65-3.2-1.63-4.45,1.36-.85,2.21-.12,2.59,1.16"/><path class="cls-2" d="M191.5,91.61c2.62,2,2.66-4.44.26-3-.74.43-.92,2.52-.26,3"/><path class="cls-2" d="M186.68,70.3c-1.39,1.06-3,1.84-4.09,1.51-2.07-.61-2-2.55-2.93-4-1.06-1.67-2.3-2.66-1-4.82,1.83-3.05,5.22-4.74,8.2-2.29,2.05,1.69,4.32,4.36,2.59,6.89a14.24,14.24,0,0,1-2.76,2.75"/><path class="cls-2" d="M203.7,74.07c-1.19,1.85-3.74,1.94-5.52,1-1.42-.77-2.13-2.71-3-4-1.26-1.86-2.44-4.38-.8-6.45,1.49-1.88,6.05-1.08,8.32-1.22s4-.23,4.19,2.44c.17,2-2.13,6.58-3.2,8.24"/><path class="cls-2" d="M206.15,81.89c-.35-5-4.67-4.45-8.14-3a3.82,3.82,0,0,0-2.61,2.84c-.6,2.68-1.22,6,1.33,7.72,4.17,2.81,9.72-3.44,9.42-7.6"/><path class="cls-2" d="M215.92,74a6.87,6.87,0,0,1-1.17,5.59,12.82,12.82,0,0,0-1.49,2,3.89,3.89,0,0,1-1.53,1.75,2.57,2.57,0,0,1-3.7-1c-.32-.64-.26-1.49-.57-2.16a18.76,18.76,0,0,0-1.34-1.81,2,2,0,0,1-.48-2,24.43,24.43,0,0,1,1.42-2.24,25.71,25.71,0,0,1,1.56-2.56c.74-1.09,2-3.12,3.53-3,2.25.23,3.39,3.89,3.77,5.38"/><path class="cls-2" d="M189.74,48.08c1.57-.83,3.78-2.83,3.84-4.78.07-2.16-2.21-3-4-3.18-3-.39-5.86,2.63-5.62,5.63.13,1.48,1,1.9,2.18,2.57a3.56,3.56,0,0,0,3.55-.24"/><path class="cls-2" d="M206.56,45.29c1.4,1.08,4.14,2.26,5.94,1.51,2-.83,1.78-3.24,1.26-4.91-.9-2.92-4.82-4.25-7.46-2.78-1.29.72-1.31,1.7-1.43,3a3.58,3.58,0,0,0,1.69,3.14"/><path class="cls-2" d="M198.26,42.37c1.41-.1,3.75-.84,4.61-2.26s-.27-2.91-1.35-3.64c-1.9-1.29-5.1,0-6.19,2.3-.53,1.13-.11,1.73.41,2.61a2.49,2.49,0,0,0,2.52,1"/><path class="cls-2" d="M215.59,69.78c-1.36-1.68-3.09-2.25-4.08-4.34-1.71-3.54,1.24-8.21,5.57-6.4a10.9,10.9,0,0,0,2.77,1c.88.15,2.31.34,2.93,1,1.27,1.41.3,5.16-.71,6.48-.8,1-.61,3-2.06,3.58-1.3.52-3.18-.44-4.24-1.13"/><path class="cls-2" d="M211.54,55.07c-1.73-2-.95-3,.69-4.49,1.19-1.13,1.73-3.55,3.84-2.76a14,14,0,0,1,2.47,1,29.87,29.87,0,0,1,3.2,2.76c1.08.92,2.47,2.1,2.27,3.69-.35,2.81-3.88,2.1-5.77,2.07-2.33,0-5.09-.39-6.7-2.25"/><path class="cls-2" d="M192.64,74.63c1.29.88,4.21,2.21,3,4.34-.26.45-.79.75-1.09,1.24a9.72,9.72,0,0,0-.79,1.8c-.49,1.46-.69,2.39-2.48,2-3.4-.79-3.93-3.49-5.2-6.31a7.14,7.14,0,0,1-1-2.65c-.07-2.05,1.81-2.49,3.38-2.9,2.1-.55,2.46,1.37,4.14,2.49"/><path class="cls-2" d="M209,53.49c1,6.42-4.22,9.25-10.1,8.82a15.7,15.7,0,0,1-7.18-2c-2.83-1.79-1.4-3.49-.37-6,.67-1.59.58-3.36,1.43-4.93,1.08-2,4.62-5.08,6.89-5.53s4.81,1.49,6.71,3.06,2.19,3.77,2.62,6.56"/><path class="cls-2" d="M176.48,51.44A7.72,7.72,0,0,1,183.12,48a4.07,4.07,0,0,1,2.54,1.49c.84.88,2.48,1.38,2.89,2.58a3.37,3.37,0,0,1-.81,2.83,9.6,9.6,0,0,1-4.84,3.4c-1.44.39-2.78,1.41-4.29,1.48-1.84.1-2.07-1.34-2.25-2.82-.21-1.79-.86-3.73.12-5.47"/><path class="cls-2" d="M224.81,48.38c-.46,2-2.08.18-2.47-.31-.75-1-.87-1.72.06-3.31.37-.67.38-.82,1-.62,1,.3,1.68,2.93,1.39,4.24"/><path class="cls-2" d="M186.78,39.48a4.2,4.2,0,0,0-.91-3.77,4.2,4.2,0,0,0-.79.4,9.84,9.84,0,0,0-.9.5,3.55,3.55,0,0,0-1.39,1.3,1.22,1.22,0,0,0-.12.82,1.42,1.42,0,0,0,.6.9c.08,0,.17,0,.25,0a1.57,1.57,0,0,1,.21.17l.42.33a3.51,3.51,0,0,0,.84.48,1.23,1.23,0,0,0,1.53-.64,2.61,2.61,0,0,0,.26-.53"/><path class="cls-2" d="M180.83,39.66c1.44-.68,1.61.39,1.71,1.57.08,1-.08,1.85-1.11,2.2a3.16,3.16,0,0,1-1.37.08,2.74,2.74,0,0,1-.7-.16,1,1,0,0,1-.27-.13c-.13-.1-.06-.16,0-.3a1.09,1.09,0,0,0,0-.44,2.58,2.58,0,0,1,0-.48,3.29,3.29,0,0,1,.34-1,3.15,3.15,0,0,1,1.38-1.37"/><path class="cls-1" d="M178.1,90a10.43,10.43,0,0,0-1.71,2.46,21.57,21.57,0,0,0-1.68,5.15c-.2.91-.38,1.84-.57,2.76-.09.45-.18.92-.29,1.37a6.78,6.78,0,0,1-.15.68,5.44,5.44,0,0,0-.15.7c0,.14-.08.27-.1.42a2.24,2.24,0,0,1-.1.37,3.34,3.34,0,0,0-.25,1.08c0,.91.37,1.64,1.34,1.69a6.29,6.29,0,0,0,2.93-.78,13.49,13.49,0,0,0,2.39-1.36c3-2.19,7-6,6.51-11.46-.72-7.63-5.08-6.33-8.17-3.08"/><path class="cls-1" d="M215.21,100.19c-3-3.68-4.79-9.4.43-11.63,3.7-1.57,7.28,3.32,9.46,7a24.14,24.14,0,0,1,1.31,2.65,18.63,18.63,0,0,1,1.21,3.53c.16.73.4,1.9-.19,2.52-.46.47-1.12.26-1.65.07s-.9-.28-1.34-.39-.87-.21-1.29-.3c-.88-.2-1.75-.38-2.6-.62a13.33,13.33,0,0,1-5.23-2.73l-.11-.09"/><path class="cls-1" d="M242.32,39.09a12.9,12.9,0,0,1,1.17,1A21,21,0,0,1,246,42.92a6.27,6.27,0,0,1,1.4,2.91,1.48,1.48,0,0,1-.31,1.1,2.3,2.3,0,0,1-1.64.68c-.67.07-1.33.15-2,.27-2,.36-4,.91-6.11,1.1a10.53,10.53,0,0,1-6.12-1.14c-4.46-2.48-8-7.45-2.09-11.86,4.23-3.11,9.72.33,13.23,3.11"/><path class="cls-1" d="M198.9,2.13C193,6,193.71,14,194.81,19.31a20.14,20.14,0,0,0,.77,2.62A21.7,21.7,0,0,0,197,25.21a7.27,7.27,0,0,0,1.93,2.47,1.91,1.91,0,0,0,2.24.18,3.13,3.13,0,0,0,.59-.5c.11-.11.22-.22.31-.33s1.22-2,1.35-2.24.24-.36.36-.55c.25-.38.51-.75.77-1.12.52-.76,1.05-1.49,1.58-2.24a42.52,42.52,0,0,0,2.9-4.54,15.88,15.88,0,0,0,1.72-5,11.66,11.66,0,0,0,.12-2.21c-.2-6.33-3.7-12.54-12-7m8,5.75a1.6,1.6,0,0,1-.3,2.14,1.41,1.41,0,0,1-2.05,0,1.59,1.59,0,0,1,.31-2.14A1.39,1.39,0,0,1,206.91,7.88Z"/><path class="cls-1" d="M202.08,97.85a1.6,1.6,0,0,1,.12.35c.19.73-.19,1.21-.26,1.92s.1,1.62,0,2.35c-.33,2.41-2.42,1.32-3.23.25s-1.25-3.33-.45-4.49a4,4,0,0,1,2.21-1.18,1.32,1.32,0,0,1,1.61.8"/><path class="cls-1" d="M157.26,38.28c-.44.32-.84.66-1.24,1A22,22,0,0,0,153.4,42a6.27,6.27,0,0,0-1.54,2.85,1.46,1.46,0,0,0,.26,1.11,2.37,2.37,0,0,0,1.62.75c.67.09,1.33.21,2,.36,2,.44,4,1.09,6.12,1.36a10.66,10.66,0,0,0,6.22-.87c4.6-2.29,8.42-7.09,2.66-11.75-4.12-3.3-9.81-.11-13.47,2.51"/><path class="cls-2" d="M407.53,135.73a4.29,4.29,0,0,1-3.07-1.23,4,4,0,0,1,0-5.86,4.57,4.57,0,0,1,6.22,0,4,4,0,0,1,0,5.87,4.45,4.45,0,0,1-3.16,1.22m0-.6a3.65,3.65,0,0,0,2.93-1.28,3.35,3.35,0,0,0,0-4.55,3.88,3.88,0,0,0-5.76,0,3.44,3.44,0,0,0-.89,2.28,3.36,3.36,0,0,0,1.1,2.5A3.68,3.68,0,0,0,407.53,135.13Zm-1.39-1.3v-4.49h1.5a1.71,1.71,0,0,1,1.07.28,1,1,0,0,1,.36.82,1.32,1.32,0,0,1-.21.73,1.75,1.75,0,0,1-.61.56l1.43,2.1h-.89L407.51,132h-.6v1.88Zm.72-2.44h.22a1.6,1.6,0,0,0,.93-.22.74.74,0,0,0,.3-.65.58.58,0,0,0-.26-.53,1.44,1.44,0,0,0-.77-.17h-.42Z"/><path class="cls-2" d="M46.06,127.76h5.33v24.87a40.51,40.51,0,0,0,.22,5.51,7.83,7.83,0,0,0,1.86,4.07A10.84,10.84,0,0,0,57.94,165,17.44,17.44,0,0,0,64,166.07a15.25,15.25,0,0,0,5.09-.87,11.46,11.46,0,0,0,4.07-2.41,9.13,9.13,0,0,0,2.4-3.73,23.88,23.88,0,0,0,.55-6.43V127.76h5.33v24.85a23.85,23.85,0,0,1-1.4,8.92,12.86,12.86,0,0,1-5.6,5.92A19.37,19.37,0,0,1,64.3,170a23.88,23.88,0,0,1-11.08-2.38,12.37,12.37,0,0,1-6.18-6.3q-1-2.41-1-8.68V127.76"/><path class="cls-2" d="M64.3,170.54A24.59,24.59,0,0,1,53,168.1a12.89,12.89,0,0,1-6.45-6.6c-.69-1.69-1-4.6-1-8.89V127.19H52v25.44a36.2,36.2,0,0,0,.21,5.4,7.33,7.33,0,0,0,1.72,3.8,10.3,10.3,0,0,0,4.24,2.59,15.91,15.91,0,0,0,10.77.24,11.26,11.26,0,0,0,3.87-2.29,8.63,8.63,0,0,0,2.25-3.5c.23-.67.51-2.31.51-6.24V127.19H82v25.42a24.41,24.41,0,0,1-1.44,9.14,13.45,13.45,0,0,1-5.83,6.19,20,20,0,0,1-10.45,2.6m-17.66-42.2v24.27c0,4.09.32,6.93.94,8.46a11.84,11.84,0,0,0,5.9,6,23.55,23.55,0,0,0,10.82,2.31A18.92,18.92,0,0,0,74.16,167a12.3,12.3,0,0,0,5.35-5.64,23.13,23.13,0,0,0,1.36-8.7V128.34H76.69v24.29a24.05,24.05,0,0,1-.57,6.62,9.92,9.92,0,0,1-2.55,4,12.35,12.35,0,0,1-4.27,2.53,17,17,0,0,1-11.56-.24A11.49,11.49,0,0,1,53,162.59a8.58,8.58,0,0,1-2-4.35,40.29,40.29,0,0,1-.23-5.61V128.34Z"/><polyline class="cls-2" points="97.89 168.93 97.89 127.76 99.06 127.76 134.62 159.32 134.62 127.76 139.9 127.76 139.9 168.93 138.7 168.93 103.43 137.75 103.43 168.93 97.89 168.93"/><path class="cls-2" d="M140.48,169.51h-2l-.16-.15L104,139v30.48H97.32V127.19h2L134.05,158V127.19h6.43v42.32m-1.56-1.15h.4v-40H135.2v32.27L98.85,128.34h-.38v40h4.39V136.47Z"/><path class="cls-2" d="M152.83,161.24l4.64-2.1q4.89,6.81,11.3,6.8a13.84,13.84,0,0,0,5.16-1,8.54,8.54,0,0,0,3.67-2.58,5.52,5.52,0,0,0,1.26-3.44,6,6,0,0,0-1.85-4.05q-2.56-2.74-9.36-6.61t-8.5-5.63a8.85,8.85,0,0,1-2.89-6.29,7.84,7.84,0,0,1,1.71-4.9,11.35,11.35,0,0,1,4.8-3.48,17.5,17.5,0,0,1,6.73-1.27,18.14,18.14,0,0,1,7.22,1.44,23,23,0,0,1,7.1,5.33L179.37,136a19.76,19.76,0,0,0-5.25-4.07,11.21,11.21,0,0,0-4.72-1,9,9,0,0,0-5.4,1.52,4.47,4.47,0,0,0-2.09,3.72,5.11,5.11,0,0,0,.74,2.6,10.43,10.43,0,0,0,2.71,2.74q1.08.78,7,4.11,7.09,3.95,9.73,7a9.59,9.59,0,0,1,2.63,6.19q0,4.49-4.5,7.78a18.09,18.09,0,0,1-11,3.31,20,20,0,0,1-9-2,20.89,20.89,0,0,1-7.46-6.72"/><path class="cls-2" d="M169.3,170.54a20.72,20.72,0,0,1-9.27-2.06,21.67,21.67,0,0,1-7.67-6.9L152,161l5.71-2.59.27.38c3.14,4.36,6.78,6.57,10.84,6.57a13.27,13.27,0,0,0,4.94-.92,8,8,0,0,0,3.43-2.41,4.87,4.87,0,0,0,1.14-3.08,5.43,5.43,0,0,0-1.7-3.66c-1.66-1.77-4.76-4-9.21-6.5-4.64-2.64-7.46-4.51-8.63-5.73a9.39,9.39,0,0,1-3.06-6.69,8.45,8.45,0,0,1,1.83-5.25,11.94,11.94,0,0,1,5-3.66,18.15,18.15,0,0,1,6.95-1.32,18.77,18.77,0,0,1,7.45,1.49,23.89,23.89,0,0,1,7.29,5.45l.51.54-5.48,3.13-.31-.31a19.17,19.17,0,0,0-5.07-3.95,10.81,10.81,0,0,0-4.49-.94,8.49,8.49,0,0,0-5.06,1.4,3.91,3.91,0,0,0-1.86,3.26,4.55,4.55,0,0,0,.67,2.31,9.71,9.71,0,0,0,2.56,2.57c.68.49,3,1.86,7,4.07,4.83,2.69,8.07,5,9.89,7.15a10.13,10.13,0,0,1,2.77,6.56c0,3.17-1.6,5.94-4.74,8.25a18.75,18.75,0,0,1-11.31,3.41m-15.59-9.07a20.11,20.11,0,0,0,6.83,6,19.47,19.47,0,0,0,8.76,1.95,17.58,17.58,0,0,0,10.63-3.19c2.87-2.11,4.27-4.5,4.27-7.32a9,9,0,0,0-2.5-5.81c-1.7-2-4.92-4.31-9.57-6.9-4-2.25-6.37-3.61-7.11-4.14a11,11,0,0,1-2.86-2.92,5.63,5.63,0,0,1-.83-2.89,5.06,5.06,0,0,1,2.33-4.19,9.62,9.62,0,0,1,5.74-1.62,11.92,11.92,0,0,1,5,1,18.76,18.76,0,0,1,5.1,3.88l3.43-2a21.61,21.61,0,0,0-6.4-4.67,17.56,17.56,0,0,0-7-1.4,17,17,0,0,0-6.51,1.23,10.93,10.93,0,0,0-4.57,3.3,7.23,7.23,0,0,0-1.59,4.55,8.34,8.34,0,0,0,2.73,5.89c1.09,1.12,3.9,3,8.38,5.53s7.75,4.85,9.49,6.72a6.49,6.49,0,0,1,2,4.44,6,6,0,0,1-1.38,3.79,9.2,9.2,0,0,1-3.91,2.77,14.52,14.52,0,0,1-5.37,1c-4.32,0-8.19-2.24-11.49-6.67Z"/><path class="cls-2" d="M248.68,135.42l-4.22,2.49a22.94,22.94,0,0,0-8.38-5.31,30.7,30.7,0,0,0-10.75-1.81,29.53,29.53,0,0,0-11.85,2.36A20.48,20.48,0,0,0,205,139.5a14.55,14.55,0,0,0-3,9q0,7.53,6.71,12.56t16.93,5q11.24,0,18.8-6.77l4.22,2.46a27.07,27.07,0,0,1-10,6.06A39.43,39.43,0,0,1,225.33,170q-14,0-22.15-7.2a19,19,0,0,1-6.8-14.66q0-9,8.24-15.21t20.64-6.17A38.1,38.1,0,0,1,238.79,129a25.86,25.86,0,0,1,9.89,6.41"/><path class="cls-2" d="M225.33,170.54c-9.46,0-17-2.47-22.53-7.34a19.6,19.6,0,0,1-7-15.09c0-6.19,2.85-11.46,8.47-15.67s12.63-6.29,21-6.29A38.77,38.77,0,0,1,239,128.47,26.54,26.54,0,0,1,249.1,135l.49.52-5.22,3.08-.32-.31a22.37,22.37,0,0,0-8.17-5.18,30.25,30.25,0,0,0-10.55-1.77,29,29,0,0,0-11.63,2.31,20,20,0,0,0-8.22,6.17,14.07,14.07,0,0,0-2.88,8.62c0,4.8,2.18,8.87,6.47,12.1s9.94,4.92,16.59,4.92c7.31,0,13.5-2.23,18.41-6.62l.32-.28,5.23,3-.54.53a27.71,27.71,0,0,1-10.19,6.2,40.35,40.35,0,0,1-13.56,2.17m-.07-43.24c-8.1,0-14.93,2-20.3,6.06s-8,8.94-8,14.75a18.46,18.46,0,0,0,6.61,14.23c5.26,4.68,12.59,7,21.76,7a39,39,0,0,0,13.17-2.11,27,27,0,0,0,9.23-5.41l-3.2-1.87c-5.08,4.41-11.43,6.64-18.87,6.64-6.91,0-12.72-1.73-17.28-5.15s-6.94-7.84-6.94-13a15.16,15.16,0,0,1,3.12-9.31,21.18,21.18,0,0,1,8.69-6.54,30.19,30.19,0,0,1,12.08-2.41,31.34,31.34,0,0,1,10.95,1.85,23.65,23.65,0,0,1,8.27,5.13l3.21-1.89a25.84,25.84,0,0,0-9.18-5.75A37.59,37.59,0,0,0,225.26,127.3Z"/><polyline class="cls-2" points="293.94 151.41 284.81 136.45 264.85 168.93 258.88 168.93 284.18 127.76 285.47 127.76 310.41 168.93 304.65 168.93 296.27 155.39 293.94 151.41"/><path class="cls-2" d="M311.43,169.51h-7.1l-8.55-13.82-2.33-4-8.64-14.14-19.64,31.95h-7.32l26-42.32h1.94l.16.27,25.47,42.05M305,168.36h4.41l-24.23-40h-.65l-24.58,40h4.61l20.28-33,9.62,15.76,2.33,4Z"/><path class="cls-2" d="M324.57,127.76h10.66a79.16,79.16,0,0,1,12.36.62,14.79,14.79,0,0,1,7.49,3.56,9.44,9.44,0,0,1,.07,13.57,15,15,0,0,1-7.82,3.59q-3.65.69-13.61.68H329.9v19.15h-5.33V127.76m5.33,4v14l9.06.08a30.56,30.56,0,0,0,8-.76,8.27,8.27,0,0,0,4-2.49,5.81,5.81,0,0,0,1.45-3.85A5.69,5.69,0,0,0,351,135a7.93,7.93,0,0,0-3.84-2.45,29.76,29.76,0,0,0-7.8-.73Z"/><path class="cls-2" d="M330.48,169.51H324V127.19h11.23a81.15,81.15,0,0,1,12.47.62,15.49,15.49,0,0,1,7.78,3.71,10,10,0,0,1,.07,14.41,15.71,15.71,0,0,1-8.12,3.74c-2.47.46-7,.68-13.71.68h-3.24v19.16m-5.33-1.15h4.18V149.2h4.39a89.36,89.36,0,0,0,13.5-.66,14.66,14.66,0,0,0,7.54-3.45,8.4,8.4,0,0,0,2.65-6.36,8.24,8.24,0,0,0-2.72-6.36,14.28,14.28,0,0,0-7.21-3.43,79.84,79.84,0,0,0-12.25-.6H325.15ZM339,146.42l-9.63-.09V131.21h10a29.6,29.6,0,0,1,8,.75,8.52,8.52,0,0,1,4.11,2.62,6.36,6.36,0,0,1,1.59,4.16,6.43,6.43,0,0,1-1.59,4.22,8.85,8.85,0,0,1-4.27,2.67A30.8,30.8,0,0,1,339,146.42Zm-8.48-1.23,8.48.08a30.15,30.15,0,0,0,7.87-.74,7.65,7.65,0,0,0,3.73-2.32,5.16,5.16,0,0,0,1.32-3.47,5.11,5.11,0,0,0-1.32-3.41,7.37,7.37,0,0,0-3.57-2.27,29.45,29.45,0,0,0-7.63-.7h-8.88Z"/><path class="cls-3" d="M258.54,152c.38-.11.76-.34,1.13-.49,1-.43,2.1-.81,3.16-1.16a48.21,48.21,0,0,1,10.91-2.19,38.18,38.18,0,0,1,14.42,1.43c.94.29,1.88.59,2.81.94s3.32,1.27,3.7,1.45a19,19,0,0,0,6.08,1.44,22.78,22.78,0,0,0,7-.31,8.67,8.67,0,0,0,3.1-1.07,2,2,0,0,1-.19.12,13,13,0,0,1-2.74,1.19,29.62,29.62,0,0,1-6.44,1.27,53.43,53.43,0,0,1-10.65-.17c-2.36-.25-4.72-.62-7.06-1.09l-.86-.17a84.71,84.71,0,0,0-11.77-2c-4.18-.25-8.57-.34-12.64.84"/><path class="cls-3" d="M297.23,155a60.34,60.34,0,0,1-6.38-.36c-2.26-.24-4.64-.61-7.09-1.09l-.86-.18-2.24-.47a65.2,65.2,0,0,0-9.49-1.55c-1.22-.07-2.84-.16-4.49-.16a28.58,28.58,0,0,0-8.07,1h0l-.14-.48a5.21,5.21,0,0,0,.66-.28l.45-.21c1-.41,2-.79,3.18-1.16a48.77,48.77,0,0,1,11-2.2,38.75,38.75,0,0,1,14.51,1.44c.84.26,1.82.57,2.83.95.76.29,3.31,1.26,3.71,1.45a19.09,19.09,0,0,0,6,1.42,22.17,22.17,0,0,0,7-.31l.26-.06a9.72,9.72,0,0,0,2.37-.73l.2-.12.14-.09.13.2-.1-.22h0l.29.41h0l-.18-.18.14.21c-.12.08-.25.15-.38.22a14.1,14.1,0,0,1-2.57,1.09,29.51,29.51,0,0,1-6.49,1.27,43.17,43.17,0,0,1-4.32.2m-30.55-4.31c1.66,0,3.29.09,4.52.16a64.18,64.18,0,0,1,9.56,1.56l2.24.47.86.18c2.43.48,4.8.84,7,1.08a57,57,0,0,0,6.33.36c1.47,0,2.9-.06,4.27-.19a32.78,32.78,0,0,0,4.35-.69,24.47,24.47,0,0,1-5.13,0,19.2,19.2,0,0,1-6.16-1.46c-.37-.17-2.79-1.1-3.68-1.43s-2-.69-2.8-.94a38,38,0,0,0-14.32-1.42,47.91,47.91,0,0,0-10.85,2.18c-.54.18-1.06.35-1.56.53A34.38,34.38,0,0,1,266.68,150.73Z"/><polyline class="cls-2" points="370.17 127.76 400.82 127.76 400.82 131.74 375.5 131.74 375.5 144.67 392.78 144.67 392.78 148.7 375.5 148.7 375.5 164.85 400.82 164.85 400.82 168.9 370.17 168.9 370.17 127.76"/><path class="cls-2" d="M401.4,169.47H369.59V127.18H401.4v5.14H376.08v11.77h17.27v5.19H376.08v15H401.4v5.2m-30.65-1.15h29.5v-2.89H374.93v-17.3H392.2v-2.88H374.93V131.17h25.32v-2.83h-29.5Z"/><path class="cls-2" d="M.88,160.74l4.64-2.1q4.9,6.81,11.31,6.81a13.76,13.76,0,0,0,5.15-1,8.47,8.47,0,0,0,3.67-2.58,5.52,5.52,0,0,0,1.26-3.44,6,6,0,0,0-1.85-4.05q-2.56-2.74-9.35-6.61t-8.5-5.62a8.83,8.83,0,0,1-2.9-6.3A7.84,7.84,0,0,1,6,131a11.42,11.42,0,0,1,4.8-3.48,17.55,17.55,0,0,1,6.74-1.27,18.1,18.1,0,0,1,7.21,1.44A23.07,23.07,0,0,1,31.88,133l-4.46,2.55a19.53,19.53,0,0,0-5.24-4.07,11.26,11.26,0,0,0-4.73-1A9,9,0,0,0,12.06,132a4.46,4.46,0,0,0-2.1,3.72,5,5,0,0,0,.75,2.6,10.12,10.12,0,0,0,2.71,2.74q1.07.78,7,4.11,7.08,3.95,9.72,7a9.51,9.51,0,0,1,2.64,6.18q0,4.49-4.51,7.78a18,18,0,0,1-11,3.31,20,20,0,0,1-9-2,21,21,0,0,1-7.46-6.72"/><path class="cls-2" d="M17.36,170A20.66,20.66,0,0,1,8.09,168a21.62,21.62,0,0,1-7.68-6.9L0,160.51l5.71-2.59.28.38c3.13,4.36,6.78,6.57,10.84,6.57a13.31,13.31,0,0,0,4.94-.92,8.13,8.13,0,0,0,3.43-2.4,5,5,0,0,0,1.13-3.09,5.46,5.46,0,0,0-1.69-3.66c-1.66-1.77-4.76-4-9.22-6.5-4.64-2.63-7.46-4.51-8.63-5.72a9.46,9.46,0,0,1-3-6.7,8.39,8.39,0,0,1,1.83-5.25,12,12,0,0,1,5-3.66,18.24,18.24,0,0,1,7-1.32A18.9,18.9,0,0,1,25,127.14a23.82,23.82,0,0,1,7.29,5.46l.52.53-5.48,3.13L27,136A19,19,0,0,0,21.94,132a10.81,10.81,0,0,0-4.49-.94,8.46,8.46,0,0,0-5.06,1.41,3.9,3.9,0,0,0-1.85,3.25A4.54,4.54,0,0,0,11.2,138a10,10,0,0,0,2.56,2.57c.68.49,3,1.86,7,4.07,4.83,2.69,8.06,5,9.88,7.15a10.13,10.13,0,0,1,2.77,6.56c0,3.17-1.59,5.94-4.74,8.25A18.72,18.72,0,0,1,17.36,170M1.77,161a20.05,20.05,0,0,0,6.83,6,19.53,19.53,0,0,0,8.76,1.94A17.55,17.55,0,0,0,28,165.7c2.87-2.11,4.27-4.5,4.27-7.32a9.06,9.06,0,0,0-2.49-5.81c-1.71-2-4.93-4.31-9.58-6.9-4-2.25-6.37-3.61-7.1-4.14a10.92,10.92,0,0,1-2.87-2.92,5.59,5.59,0,0,1-.82-2.89,5,5,0,0,1,2.33-4.19,9.63,9.63,0,0,1,5.73-1.62,11.93,11.93,0,0,1,5,1,19.34,19.34,0,0,1,5.1,3.88l3.42-2a21.82,21.82,0,0,0-6.39-4.67,17.73,17.73,0,0,0-7-1.39A17.12,17.12,0,0,0,11,128a10.89,10.89,0,0,0-4.56,3.3,7.23,7.23,0,0,0-1.59,4.55,8.3,8.3,0,0,0,2.73,5.89c1.08,1.13,3.9,3,8.37,5.53s7.75,4.86,9.49,6.72a6.53,6.53,0,0,1,2,4.44,6.1,6.1,0,0,1-1.38,3.79A9.2,9.2,0,0,1,22.2,165a14.56,14.56,0,0,1-5.37,1c-4.33,0-8.2-2.24-11.5-6.66Z"/></svg>