<svg xmlns="http://www.w3.org/2000/svg" xmlns:xlink="http://www.w3.org/1999/xlink" width="344.16" height="179.62" viewBox="0 0 344.16 179.62"><defs><style>.cls-1{fill:url(#linear-gradient);}.cls-2{fill:#fff;}</style><linearGradient id="linear-gradient" x1="172.08" y1="179.62" x2="172.08" gradientUnits="userSpaceOnUse"><stop offset="0" stop-color="#262262"/><stop offset="1" stop-color="#2b3990" stop-opacity="0"/></linearGradient></defs><title>Asset 9</title><g id="Layer_2" data-name="Layer 2"><g id="Layer_1-2" data-name="Layer 1"><polygon class="cls-1" points="164.57 179.62 344.16 0.03 179.62 0 0 179.62 164.57 179.62"/><path class="cls-2" d="M117.9,153.29l-2.5,2.49.93,2.75-1.69,1.69-3.71-11.8,2-2,8.53,7L119.86,155Zm-1.46-1.3-2-1.71c-.5-.43-1-.85-1.39-1.28l-.19-.19c.27.57.52,1.21.77,1.91l1,3Z"/><path class="cls-2" d="M122.36,152.5l-6.09-9.36,1.62-1.61,5,7.72,2.7-2.71,1.07,1.64Z"/><path class="cls-2" d="M130.3,140.89l-2.5,2.5.93,2.74L127,147.82,123.33,136l2-2,8.53,7-1.57,1.57Zm-1.46-1.3-2-1.71c-.5-.42-1-.85-1.39-1.28l-.19-.19c.26.58.52,1.21.76,1.92l1,3Z"/><path class="cls-2" d="M137.19,133.1a3,3,0,0,1,1,2.53,4.57,4.57,0,0,1-1.48,2.76,4.64,4.64,0,0,1-2.35,1.4l-1.45-1.44a5.54,5.54,0,0,0,2.46-1.32,2.29,2.29,0,0,0,.7-1.15,1,1,0,0,0-.28-.95,1.55,1.55,0,0,0-.47-.33,1.52,1.52,0,0,0-.53-.11,6.31,6.31,0,0,0-1.19.11,5,5,0,0,1-2.06,0,3,3,0,0,1-1.4-.81,3.27,3.27,0,0,1-.89-1.54,3.07,3.07,0,0,1,.1-1.77,4.37,4.37,0,0,1,1.09-1.69,6.08,6.08,0,0,1,2.62-1.57l.66,1.8a5.09,5.09,0,0,0-1.91,1.13,1.52,1.52,0,0,0-.49,1,1.15,1.15,0,0,0,.35.91,1.41,1.41,0,0,0,.74.39,4.73,4.73,0,0,0,1.42-.15,4.47,4.47,0,0,1,1.89,0A3,3,0,0,1,137.19,133.1Z"/><path class="cls-2" d="M146.24,128.62l-1.79,1.79-4.24-2-.29,1,2.18,3.34-1.61,1.61L134.4,125,136,123.4l2.9,4.51-.25-1.92-.46-4.78,1.91-1.91.56,6.83Z"/><path class="cls-2" d="M149.45,121.73l-2.5,2.5.93,2.75-1.69,1.69-3.71-11.8,2-2,8.53,7-1.56,1.57ZM148,120.44l-2-1.71c-.5-.43-1-.86-1.39-1.29l-.19-.19c.27.58.52,1.22.77,1.92l1,3Z"/></g></g></svg>