<svg xmlns="http://www.w3.org/2000/svg" width="54.73" height="54.73" viewBox="0 0 54.73 54.73"><defs><style>.cls-1{fill:#0356a1;opacity:0.25;}.cls-2{fill:#fff;}.cls-3{fill:#e6e9ed;}.cls-4{fill:#0ea7e0;}.cls-5{fill:#1abff1;}.cls-6{fill:#ec2227;}</style></defs><title>Asset 8</title><g id="Layer_2" data-name="Layer 2"><g id="Desktop"><g id="Layer_3" data-name="Layer 3"><g id="Map_Icons" data-name="Map Icons"><circle class="cls-1" cx="27.37" cy="27.37" r="27.37"/><polygon class="cls-2" points="19.95 40.83 8.19 36.73 16.26 19.49 22.96 20.71 19.95 40.83"/><polygon class="cls-3" points="19.95 40.83 32.37 36.71 30.03 19.49 22.96 20.71 19.95 40.83"/><polygon class="cls-2" points="47.22 40.83 32.37 36.71 30.03 19.49 37.46 20.71 47.22 40.83"/><polygon class="cls-4" points="35.4 22.52 30.31 21.59 31.96 33.72 41.48 36.27 35.4 22.52"/><polygon class="cls-4" points="17.36 21.86 11.39 34.94 20.33 37.71 22.61 22.81 17.36 21.86"/><polygon class="cls-5" points="30.31 21.59 22.61 22.81 20.33 37.71 31.96 33.72 30.31 21.59"/><path class="cls-6" d="M36,15.19c0,4.89-8.85,15.57-8.85,15.57s-8.85-10.68-8.85-15.57a8.85,8.85,0,0,1,17.7,0Z"/><circle class="cls-2" cx="27.17" cy="14.47" r="4.49"/></g></g></g></g></svg>