<svg xmlns="http://www.w3.org/2000/svg" xmlns:xlink="http://www.w3.org/1999/xlink" version="1.0" x="0px" y="0px" viewBox="0 0 32 32" enable-background="new 0 0 32 32" xml:space="preserve" width="32px" height="32px"><path d="M30,31.999c1.105,0,2-0.895,2-2V2c0-1.104-0.895-2-2-2H2C0.895,0,0,0.896,0,2v27.999c0,1.105,0.895,2,2,2H30z   M12.535,23.456c-0.746-0.746-0.746-1.954,0-2.698l4.801-4.746l-4.801-4.746c-0.746-0.746-0.746-1.953,0-2.699  c0.754-0.744,1.973-0.746,2.727,0l6.156,6.096c0.746,0.744,0.746,1.953,0,2.698l-6.156,6.095  C14.508,24.202,13.289,24.202,12.535,23.456z"/></svg>