<?xml version="1.0" encoding="utf-8"?>
<!-- Generator: Adobe Illustrator 23.0.2, SVG Export Plug-In . SVG Version: 6.00 Build 0)  -->
<svg version="1.1" xmlns="http://www.w3.org/2000/svg" xmlns:xlink="http://www.w3.org/1999/xlink" x="0px" y="0px"
	 viewBox="0 0 1063.41 1103.31" style="enable-background:new 0 0 1063.41 1103.31;" xml:space="preserve">
<style type="text/css">
	.st0{fill:#136FB7;}
	.st1{fill:none;stroke:#136FB7;stroke-width:3;stroke-miterlimit:10;}
</style>
<g id="svg1" inkscape:version="0.91 r13725" sodipodi:docname="Flag_of_Bermuda.svg" sodipodi:version="0.32" xmlns:cc="http://creativecommons.org/ns#" xmlns:dc="http://purl.org/dc/elements/1.1/" xmlns:inkscape="http://www.inkscape.org/namespaces/inkscape" xmlns:rdf="http://www.w3.org/1999/02/22-rdf-syntax-ns#" xmlns:sodipodi="http://sodipodi.sourceforge.net/DTD/sodipodi-0.dtd" xmlns:svg="http://www.w3.org/2000/svg">
	<path id="polygon13" inkscape:connector-curvature="0" class="st0" d="M656.7,575.41l-3.56,0.06l0.04,2.68l-4.47-1.28l-1.78,1.39
		l1.88,4.45l-3.55,0.03l0.84-4.47l-7.07,3.71l0.04,1.77l3.1,0.84l-0.42,1.8l-1.78-0.42l-8.79,5.93l0.02,1.78l-1.78,0.04l0.06,1.76
		l-2.66,0.94l-0.82,3.58l-2.68,0.07l-1.68,4.47l-3.56,0.94l-1.7,3.61l-17.6,10.1l0.02,1.76l-6.15,2.79l0.02,1.76l-4.47,0.52
		l-6.97,5.03v1.78l-2.66,0.07l0.02,1.77l-5.26,2.77v1.78l-2.64,0.93l0.02,1.77l-5.27,0.97v1.8l-9.71,4.62l0.04,1.76l-1.8-0.42
		l-14.04,9.65l-0.82,4.41l3.59,1.28l0.9,2.23l-4.4,1.42l-0.9-0.88l-2.66,0.48l-0.8,4.48h-1.78l-0.84,2.74l2.66,0.39l1.76-1.85
		l7.97-0.54l0.4-1.81l3.98-1.84l-0.02-0.9l-2.66,0.04l1.7-5.38l3.54,0.42l2.6-3.22l4.47-0.04l0.02,1.8l4.4-1.87l-0.94-2.63
		l4.44-0.07l-0.02-1.81l17.7-5.17l1.7-4.05l1.76,0.41l0.94,2.22l2.64-0.93l-0.04-1.77l2.66,0.38l3.5-4.06l3.54,0.39l0.84-2.23
		l3.12-0.94l0.4-2.7l3.15,1.73l0.46,2.22l5.74-1.42l-0.94-2.63l-1.4-6.25l-7.09,1.01l0.02,1.77l-9.81-2.95l-1.82-4.89l4.36-1.39
		l0.88-2.25l4.42,0.83l-0.82,2.68l-4.47,0.06l0.04,1.81l2.66,0.83v-1.77l11.55,2.04l5.31-2.77l3.54,0.41l-1.84-4.44l6.19-1.46
		l5.33,0.39l0.86-2.26l11.45-4.2l0.86-2.21l6.27,1.21l-0.02-1.77l2.62-1.84l-1.78,0.03v-0.88l3.55-0.1l-0.02-1.78l7.99,1.22
		l1.82,1.76l6.69,2.12l0.46,1.76l9.85,4.75l2.64-0.9l3.26,0.7l-0.1,3.26l4.6,1.11l0.32,1.48l-5.3,0.07l-0.82,4.48l8.01,1.67
		l0.06,2.67l12.45,2.47l-2.82-8.86l-4.42-0.83l-0.02-1.8l-6.83-1.98l-0.36-3.3l-4.16-1.08l1-1.49l-0.56-5.34l-1.72,0.03l-0.94-2.68
		l-5.33,0.07l0.4-1.76l-1.32-1.77l-1.82,0.03l-0.48-3.58l-4.08-6.17l-4.48-1.71l-0.02-2.7l-4.42,0.07l-1.88-5.31l-2.66-0.84
		l-3.66-6.21h0.9v-0.9h0.82L656.7,575.41L656.7,575.41z M685.83,620.45l-3.54,0.97l0.02,1.78l3.54-0.07L685.83,620.45L685.83,620.45
		z M661,624.41l0.06,3.58l6.25,1.7l-0.94-3.57l-1.76,0.94l-0.94-2.64H661L661,624.41z M667.33,630.55l-1.78,0.03l0.02,1.81
		l0.88-0.03v-0.86h0.88L667.33,630.55L667.33,630.55z M592.75,630.87l0.88,0.86h-0.88V630.87z M680.65,633.02l0.06,1.81l0.9-0.03
		l-0.02-1.78H680.65L680.65,633.02z M670.04,633.2l-4.42,0.97l1.34,1.77l1.44,6.21l1.78-0.02l0.02,1.8l8.89,1.62l0.04,1.78
		l2.66-0.03l-0.86,2.7l-2.62,0.03l-0.04-1.76l-10.69-1.6l0.06,2.64l-7.13-0.77l-0.06-4.47l-5.35,0.51l-1.78-1.28l1.76-0.03v-2.67
		l-3.52,3.6l1.82,0.86l-8.89,1.91l-0.02-1.77l-3.54,0.52l-14.21-1.57l-8.07-3.01l1.44,4.43l-2.2,3.61l-5.3,1.01l-0.02-1.8
		L601,647.22l-6.17,3.22l-0.84,3.58l-14.98,7.85l-19.42,6.97l0.6,8.92l2.78,7.98l-1.26,4.48h0.88l0.28-2.36l2.32-0.83l0.94,2.25
		l11.49-2.43l3.52-2.29l0.02,1.8l3.1-0.94l0.38-2.7l1.8,0.41l3.92-4.06l-0.54-5.34l-1.74,0.03l-0.04-0.9l7.09-1.91l-0.02-1.76
		l5.31-1.44l13.81,3.79l2.72,3.53l2.68,30.3l5.31-0.56l2.14-5.83l-0.34-22.28l1.28-2.7l19.52-0.77l18.7,5.07l0.94,2.22l2.66,0.42
		l1.86,3.06l12.47,5.62l3.64,5.76h-1.76l1,6.25l3.52-0.9l7.79,16.79l-0.38,4.44l3.58-0.07l0.84-4.43l4.4,0.8l-0.74,8.95l4.4-1.87
		l-0.04-1.77l1.78,0.42l2.64-1.39l0.1,6.25l1.78-0.9l0.9,2.22l1.8,0.42l0.78-5.37l-1.76,0.03l-2.74-6.22l-7.17-2.56l-0.1-7.12
		l1.78-0.06l-1.82-2.61l2.2-0.94l-0.46-2.68l-4.47,0.52l-1.78-1.32l0.84-1.8l-7.15-3.44l-1.38-2.68l1.58-12.49l6.63-3.67l0.02,1.76
		l9.75-2.36l5.79,3.89l0.5,1.8l1.76-0.04l0.86-3.57l3.06-1.84l2.58-5.38l1.12-13.4l4.82-2.77l-0.46-2.67l-1.78,0.03l0.4-2.68
		l-2.3-3.53l-3.5,1.84l3.06-3.61l-0.5-3.53l-2.68-1.33l-9.75,0.59l-0.04-1.77l-8.85,1.91l-0.38,5.35l2.26,0.86l-0.88,1.8l-4.42,0.07
		l0.06,3.61l1.76-0.07l0.94,2.22l2.66-0.04l0.84-2.25l7.95-1.87l-0.82,2.67l-9.71,4.17l-2.68-0.43v-1.8l-2.64,2.29l-6.21,0.56
		L697,655.1l-1.76,0.03l0.72,9.47l-8.61-2.67l-5.3,1.42l-0.02-1.81l-1.5-0.24l-0.32-2.4l4.42-0.07l2.1-7.18l-1.34-3.55l2.64,1.32
		l14.16-3.37l0.84-2.22l2.68-0.48l-0.04-2.68l-2.66,0.04l0.02,1.78l-8.03-1.67l-0.94-3.53l-5.31,1.42l-8.91-2.09l-0.06-1.8
		l-3.51,0.06l0.04,3.58l-4.45-1.28l-1.76,1.39L670.04,633.2L670.04,633.2z M705.73,645.13v0.9l0.9-0.04l-0.02-0.86H705.73
		L705.73,645.13z M690.82,656.07l0.02,1.8h-0.9l0.02,0.86l5.36,2.61l-0.96-4.45L690.82,656.07L690.82,656.07z M678.46,661.62
		l1.8,0.87l-1.8,0.03C678.46,662.52,678.46,661.62,678.46,661.62z M697.14,664.88l0.02,0.91l-0.86,0.06L697.14,664.88L697.14,664.88
		z M555.11,666.24l0.04,1.8l0.9-0.04l-0.06-1.76L555.11,666.24L555.11,666.24z M541.06,675.4l-2.64,0.07l0.02,1.77l2.64,0.83
		L541.06,675.4L541.06,675.4z M539.42,682.55l-1.76,1.39l-4.46-0.38l0.04,1.77l-1.76,0.03l-0.38,5.38l1.08,2.36l-1.72,0.9l-2.4-0.56
		l-2.14,4.51l0.52,6.21l-5.27,2.77l0.06,2.68l-9.75,2.85l0.5,3.54l4.04,3.49l-2.62-0.38l-2.68,0.94l-10.61,5.07l-1.66,3.6
		l-4.42,2.26l-22.97,7.07l0.1,5.38h-1.78l1.02,8.01l-2.66,0.07l0.06,3.54l-4.45,0.07l-2.46,13.42l-1.74,0.04l0.05,4.15l0.01,0.31
		h-1.76l-0.82,4.48l3.54-0.04l-0.04-1.8l3.57-0.48l1.36,2.19l-0.17,3.24l-0.15,3l-1.82,0.04l0.04,1.8l-4.37,2.74l-3.34,13.42
		l-1.78,0.03l0.48,2.68l2.2,0.83l1,4.03l5.85,1.82l5.95,0.41l1.84,0.83l1.68,0.2l1.28-0.11l0.7-0.27l0.66-2.19l-0.8-0.96
		l-10.13-1.09l-1.7-2.1l3.9,0.28l0.44-1.94l-0.9-1.73l2.72,0.08l1.86-0.92l-1.16-2.95l2.7-1.46l-1.44-5.54l-2.28-3.54l1.78-0.02
		l-0.02-1.78l3.56,0.86l0.82-2.7l1.8-0.03l-0.94-2.67l2.66-0.03l0.23-1.03l0.57-2.55l-4.45-1.73l2.62-3.17l5.33,0.34l-0.9-1.76
		l6.19-0.97l1.7-4.51l5.68-4.54l0.38-5.34l7.07-1.01l0.84-2.7l7.15,0.79l-0.08-2.66l7.09-1.01l1.7-5.38l8.83-2.84l0.84-2.68
		l-4.42,0.97l-0.02-1.84l2.62-0.9l-0.02-1.78l13.33-0.2l0.82-2.7h0.86l1.86,3.53l-1.78,0.07l0.04,0.83l-0.88,0.03v0.86l7.11,1.71
		l0.1,5.34l3.54-0.07l0.9,1.77l-2.62,0.03l-0.78,8.06l1.76-0.03l0.06,2.63l2.66-0.9l0.86-2.67l0.82-0.03l1.88,4.44l5.33,0.79
		l0.04,1.8l5.33,0.79l-2.58,4.06l-1.78,0.03l-5.25,4.1l0.06,1.73l-3.15,1.35l-1.31,0.56l-0.84,2.22l-2.64,0.48l0.02,2.68l-3.41,1.96
		l-1.42,0.81l-7.83,9.93l-5.13,12.56l1.9,8.01l-0.88,0.86l1.4,4.48l-16.88-2.39l-0.5-2.68l-2.22-0.86l0.02,2.68l-1.76,0.04
		l-0.02-1.78l-19.52-0.13l-7.07,2.32l-0.02-1.78l-11.61-1.93l-0.3,1.87l0.82,1.14l-2.5,0.85h-1.76l-1-0.71l-1.04-0.58l-1-0.65
		l-4.68-0.1l-1.24,0.65l-1.4-0.47l-1.58-0.89l-2.28-0.2l-2.4-0.22l0.92,1.76l-2.64,0.03v0.9l1.78-0.03l-0.88,1.81l-5.26,1.84
		l0.94,2.66l-1.8,0.04l-1.7,4.51l-2.62,0.9l-1.74,3.65l-1.78-0.46l-7.01,4.13l-0.86,2.67l-14.94,7.39l-0.86,2.71l-9.69,4.16
		l-4.42,1.87h-0.88l-4.4,2.77h-2.64l-2.62,2.75l-4.47-1.29l0.02,1.81l-37.1,8.18l-1.76,1.8l-12.39,1.57l-0.04-1.81l-5.26,2.33
		l-3.59-0.84l-1.72,1.81l-1.8-0.84l-12.35,2.88l-20.74-2.17l-1.48-0.15l-0.88,0.93l-5.53-1.03l-3.38-0.63l-0.86,0.94l-2.66-0.42
		l1.3-1.81l-0.48-1.76l-5.31,2.74l-0.06-5.34l-4.45,0.07l-0.04-1.76l-14.12,2.91l-0.04-1.78l-4.42,1.85l-0.02-1.78h-0.88l0.06,2.68
		l-8.59-0.14l-1.2-0.59l0.92,2.68l4.42-0.52l0.94,3.12l-7.97,0.14l1.52,3.22l-2.36,1.22l0.48,1.8l12.98,5.14l1.42,6.21l-3.04,3.6
		l-1.76,0.04l0.92,1.31l3.56,0.39l-0.06-1.78l1.8-0.03l-0.04-1.84l1.76-0.42l6.05-10.37l1.74-0.02l0.54,4.47l-0.88,0.9l0.46,1.33
		h0.88l0.86-3.16l7.07-1.46l2.72,3.54l7.11,1.21l0.04,1.78l3.06-0.03l0.49-0.01v0.86l-0.49,0.01l-8.4,0.17l0.1,3.53l-3.59-1.69
		l-0.96-3.58l-6.21-1.21l-3.52,2.29l1.84,3.09l4.42,0.38l-0.4,2.67l0.9,0.88l0.96,4.43l-0.4,2.68l-3.53,0.97v0.9l3.55-0.52
		l4.36-4.55l7.11-0.54l0.46,2.66l-0.84,2.66l1.38,1.78l-3.57,0.11l-0.92-3.54h-1.8l-0.02-1.8l-3.53,1.83l1.84,3.54l-7.09,0.13
		l1.5,9.78l-1.3,2.67l7.11,1.67l0.06,1.8l7.91-4.16l2.55-0.25l2.75-0.27l-0.94-3.58l6.09-0.87l0.98-0.14l7.27,9.26l1.76,0.42
		l-0.94-3.57l5.36,1.66l-0.88,0.93l0.94,3.54L316.2,927l-0.06-2.68l7.97-1.49l3.6,1.29l0.8-4.03l24.77-1.76v-2.68l15.06-1.14v0.9
		l-8.81,2.84l1.9,7.07l-1.8,0.03l0.1,2.68l-4.49,0.06l-0.92-2.66l-5.26,1.91v1.77l-7.03,2.82l0.04,4.43l-3.5,1.84l-2.56,6.28
		l-3.57-1.29l-13.21,5.59l-7.17-3.88l0.94,2.66l-3.54,0.04l-0.94-3.54l-2.66,0.03l0.56,7.15l3.1,0.83l-0.86,1.8l-4.38,2.28
		l-3.54-0.83l-9.69,7.15l-0.84,0.62l-0.84,2.67l-3.52,0.97l-1.72,3.58l-1.76,0.03l0.02,1.76l-1.78,0.03l0.02,1.78l-3.54-0.36
		l-7.89,6.35l-4.38,1.87L249.77,986l0.94,2.71h-1.76l0.04,1.8l-6.23,0.56l-16.7,8.74l0.02,1.8l-24.81,1.29l0.04,1.8l-2.66-0.42
		l-3.52,1.42l0.02,2.66l4.47,0.34l0.9,2.23l-2.62,1.39l-2.64,1.38l-0.82,3.58l3.49-1.84l-3.36,8.07l2.68,1.73l-1.78,0.04l-0.84,2.71
		l-3.54-0.43l-3.53,1.42l0.06,3.12l-1.8-0.86l-3.54,0.49l0.04,1.8l-2.64,0.93l0.02,1.76l4.45-0.06l-0.04-1.78l0.88-0.04l0.46,1.78
		l2.3,0.86l-1.8,0.94l0.04,1.76l3.04-2.73l0.8-3.57l-1.04-1.46l1.48-0.31l-0.04-1.8l2.66-0.04l0.04,1.76l2.34-0.63l-1.4,3.3
		l-0.92-1.78h-1.78l0.02,1.81l10.71,2.48l-0.86,2.71l-9.75-0.28l-8.79,3.72l-3.58-1.29l-0.06-3.6l-6.19,1.01l-0.82,5.4l-10.57,3.3
		l-9.77-0.28l0.02,1.78l-3.55-0.84v1.81l-3.5,0.02l-0.04-1.76l-4.38,2.32l-5.34-0.83l-6.21-0.31l-0.04-1.81l-5.27,1.88l-0.82,3.6
		h-1.8l-0.02-1.76l-3.54-0.84l0.82-3.6l-1.8,0.07l-1.84-5.3l-2.66,0.03l3.54-0.52l0.92,2.18l2.62-0.9l-0.02-1.76l-2.66-0.86
		l-0.04-1.78l-5.3,0.11l0.62,2.36l-8.63-2.7l-1.74,0.49l-0.04-1.78l1.76-0.04l-1.84-5.3l-4.17-2l3.18-2.43l-1.92-8.88l1.78-0.04
		l-0.96-4.44l2.2-0.93l-2.9-13.31l0.88-0.9l-0.56-6.24l-3.6-1.74l1.76-1.8l0.04,1.8l4.45,0.8l0.04,2.66h0.88l-0.02-1.8l4.42-1.84
		v1.76l4.42-1.01l0.94,2.25l3.54,0.39v1.76l7.19,1.54l4.42,0.96l1.84,5.3h0.9l-0.04-1.81l-0.94-3.53l7.11,1.21l11.49-2.88l0.82-2.25
		l-1.74,0.03l-3.64-5.27l-3.54,0.49L122.05,986l-10.61,1.53l0.04,1.78l8.87-0.14l-4.42,1.46l-16.04-3.78l-0.94-3.54l-1.72,0.03
		l-0.06-1.8l-2.66,0.93l-0.04-1.78l-1.76,0.91l-0.02-1.78l-14.2-0.65l-0.9-2.64l-1.68,2.1l-1.18-2.29l-1.62-1.49l-2.02-1.74
		l-1.36-2.59l-2.06-1.85l-1.1-0.53l-2.34-1.5l-2.8-1.39l-0.4-0.38l-0.54-1.4l-2.68-0.43l-0.76,2.08l-2.12,0.07l-1.72-0.98
		l-0.84,0.19l-0.48,0.83l-0.54,1.21l0.96,1.7l-0.98,1.35l-1.02,1.33l0.52,0.95l2.38,0.26l0.68,1.24l-0.38,0.57l-0.08,1.33
		l-1.32-0.22l-2.96-1.91l-2.74-2.3l-1.38-1.95l-0.24-3.21l1.36-0.45l0.08-2.88l-3.08-1.48l0.78-2.97l-2.16-2.02l-3.56,0.07
		l3.02-5.41l7.47-3.71l-0.94-3.54l-14.98,7.39l2.7,1.73l0.02,1.81l-4.38-0.84v1.81l1.74-0.04l15.28,37.17l7.21,30.19l1.76-0.07
		l1.06,8.91l1.76-0.03l0.02,1.8l1.78-0.07l0.92,3.61l1.78-0.07l0.04,1.76l1.78-0.03l2.28,3.54l0.48,1.76l3.12,1.74l1.42,4.44
		l3.54,1.24l2.74,3.99l1.76-0.03l0.94,2.21l3.55,0.83l1.82,2.64l11.63,5.58l0.04,1.78l4.45,1.69l0.06,2.71l2.6-1.38l22.23,1.83
		l-0.46-1.78l18.98-3.46l1.8,1.76l20.4,0.56l1.84,3.95l3.53-1.4l1.78,0.45l-0.02-1.83l2.72,3.54l-0.04-1.8h0.88l1.82,2.63
		l-0.04-1.76l1.8,0.42l2.3-1.98l0.34,0.59l7.93-1.94l0.04,1.8l2.66-0.03l-0.52-4.46l17.2-4.31l0.94,2.23l6.65-1.91l-0.56-3.54
		l1.8-0.03l0.4-1.8l5.73-2.32l0.94,2.21l1.74-0.04l-0.9-1.76l17.6-8.32l-0.48-1.76l1.32-0.9l0.02,1.76h0.88l-0.02-1.8l1.78-0.04
		l0.42-1.78l17.14-9.66l6.99-6.35l6.92-1.27l0.99-0.18l0.46-1.81l6.45-3.57l16.84-9.32l-0.04-0.86l1.8-0.03h0.88l-0.04-0.9
		l44.01-20.77l2.6-4.06l2.66-0.07l4.28-8.08l3.54-1.38l2.58-4.06l1.78-0.02l0.38-2.68l3.08-1.84l1.26-3.61l3.55-2.74l2.08-7.14
		l2.2-0.94l1.26-3.57l2.2-0.94l0.4-1.8l1.8,0.42l0.84-2.22l11.47-4.65l1.64-9.84l-3.62-0.84v-0.9l2.64-1.35l3.1,0.38l-1.22,5.38
		l9.17-8.22l0.42-2.63l2.62-0.03l-0.02-2.71l3.54,0.83v-1.76l1.76-0.48l1.26-3.12l2.2-0.93l0.4-1.81l5.29-3.64l0.4-1.8l3.96-1.85
		l0.44-1.73l4.42,0.31l5.7-3.19l0.42-1.8l4.42-0.97l-0.64-4.13l3.62-1.25l0.32-8.95l9.77-0.58l0.9,2.66l4.86-2.29l-0.48-3.54
		l1.74-0.07l1.24-3.6l4.88-2.3l6.11-6.34l2.66-0.03l7.01-4.58l4.47-0.07l13.15-8.71l0.4-1.76l3.06-3.19l2.68-0.04l2.56-6.28
		l4.38-0.97l8.89-1.01l3.54,0.38l1.7-5.38l2.64-0.07l-0.96-5.31l3.94-1.87l-0.9-1.77l0.4-2.68l3.96-0.94l-0.02-2.7l3.06-2.26
		l1.8,0.43l0.38-1.81l16.7-10.96l0.42-1.8l2.66,0.38l7.01-6.77l5.31-0.97l0.4-1.8l4.84-3.2l16.82-2.04l3.49-3.61l2.68-0.07l2.6-2.7
		l4.47,0.83l4.11-2.76l2.04-1.37l4.35-5.87l2.74-0.67l14.93-3.64l1.62-8.92l7.07-1.87l-0.94-3.54l-11.45,4.59l-1.66,7.18l-7.07,1.01
		l-0.06-2.68l-5.3,1.01l0.02,1.74l-1.76,0.03l-0.84,2.67l-8.89-0.27l-1.76,2.25l1.24-0.63l1.08,1.08l0.39,0.38l-6.21,0.56
		l-0.98-0.94l-0.82-0.79l-5.33,0.52v0.27l0.02,1.5l-1.78-0.86l0.23-0.63l1.07-2.95l-1-5.34l1.28-2.7l-2.64,0.03l0.42-1.78
		l-1.38-1.77l-4.44,0.07l0.06,1.77l-4.44,0.07l-0.02-1.76l-8.91-2.54l-0.06-2.67l-8.97-5.66l-9.79-2.53l-4.42,1.42l-0.12-7.16
		l-3.52,0.97l-0.96-4.43l-3.54,0.03l1.76-1.36l5.21-6.77h-1.78l-0.9-2.63l-4.47-0.83l0.82-4.48l-1.78,0.03l-0.04-2.68l-1.78,0.04
		l2.16-3.6l-3.22-7.09l-3.56-2.18l-6.25-0.35l-0.04-1.78h-2.62l-0.06-2.63l-3.54,0.07l-2.44-5.04l7.63-3.55L539.42,682.55
		L539.42,682.55z M714.4,690.49l-1.76,0.04L711.8,695l1.78-0.04l-0.02-1.76l0.9-0.04L714.4,690.49L714.4,690.49z M709.19,697.71
		l0.08,2.68l-0.9,0.03v1.77l2.66-0.04l-0.94-4.44L709.19,697.71L709.19,697.71z M736.72,698.19l0.02,0.88h0.88v-0.88H736.72
		L736.72,698.19z M507.04,713.43l-2.62,0.94l-0.86,2.66l2.66-0.02l-0.02-1.81l1.76-0.03L507.04,713.43L507.04,713.43z
		 M719.21,713.61l-1.14,3.29l-1.46,0.31v0.9l1.78-0.04l1.74-2.7l1.78,0.86l-0.94-2.63L719.21,713.61L719.21,713.61z M725.55,721.55
		l-1.8,0.9l0.06,1.81l0.88-0.03v-0.88l0.88-0.03L725.55,721.55L725.55,721.55z M691.84,722.07l-8.85,2.81l-1.7,5.38l10.61-2.85
		l-0.36,5.38l4.02,1.69l-0.04-1.76l-1.74,0.03l1.28-2.7l-0.52-4.44h-0.88v-0.9h0.88l-0.04-1.81l-2.66,0.94L691.84,722.07
		L691.84,722.07z M681.31,731.16l-2.62,0.94v0.88h1.78l-0.04-0.91h0.88L681.31,731.16L681.31,731.16z M679.58,734.74l-1.76,0.03
		l0.04,1.76h1.74L679.58,734.74L679.58,734.74z M695.58,735.39l-1.78,0.03l0.06,2.64h2.64L695.58,735.39L695.58,735.39z
		 M678.78,740.08l0.04,1.8h1.76l-0.04-1.8H678.78L678.78,740.08z M677.06,742.82l-2.66,0.03l0.02,2.68l2.7,1.73L677.06,742.82
		L677.06,742.82z M672.7,748.23l-0.88,0.04l0.02,1.76h0.88L672.7,748.23L672.7,748.23z M665.61,748.34l-5.35,0.1l-1.7,4.48
		l7.11-1.01l-0.04-0.9h0.9L665.61,748.34L665.61,748.34z M544.1,753.85l-1.78,0.03l0.08,3.54h1.76l-0.04-0.9l0.88-0.03L544.1,753.85
		L544.1,753.85z M664.81,755.07l-3.53,2.25l0.04,1.8l4.45,0.39l1.82,3.08l1.8-0.04l-0.04-1.76l-1.46-0.31l0.52-1.46h-0.88
		l-0.02-1.78l0.9-0.03l-0.02-1.77L664.81,755.07L664.81,755.07z M660.44,758.22l-3.53,2.75l0.04,1.8l2.6-2.75h0.9L660.44,758.22
		L660.44,758.22z M502.61,768.76l-1.78,0.03l-0.84,2.72l-3.52,0.9l1.84,4.48l1.76-0.03l-1.72,2.7l4.42-0.52l1.72-4.09l-1.78,0.06
		v-1.76h-0.92l-0.02-0.86l1.78-0.04L502.61,768.76L502.61,768.76z M507.1,772.27l-1.78,0.03l0.01,0.45l0,0l0.02,1.32l1.8-0.03
		L507.1,772.27L507.1,772.27z M492.06,776.09l-2.64,2.71l4.47-0.07L492.06,776.09L492.06,776.09z M192.28,786.46l-2.66,0.04
		l-0.86,2.66l-7.09-0.76l0.06,1.8l-1.82,0.03l-2.08,7.14l0.44,1.77l-1.76,0.07l0.06,2.64l-6.19,1.87l-0.4,2.7l1.38,1.78l-1.8,0.04
		l-1.7,4.47l-1.74,0.03l-3.4,8.99l-7.93,4.57l-3.36,8.99l-3.54,0.94l0.46,1.8l-3.86,6.28l-2.66,0.97l0.5,2.63l3.1,1.26l6.21-1.39
		l0.04,1.76l4.42,0.83l-0.92-1.76l-1.74,0.03l0.84-2.25l5.31-0.11l0.9,1.32l-2.62,0.11l0.02,1.73l3.55,0.39l0.86-2.26h1.76
		l0.38-4.48l-1.82-1.76l0.3-9.78h1.72v-2.74l1.78,0.86l-0.94-2.63l1.76-0.03l-0.08-6.24l2.6-0.48l0.96,2.18h1.76L172,819.8
		l5.24-3.68l0.4-1.73l4.42-1.01l-0.02-1.8l3.04-1.83l3-8.06l-1.76,0.07l-0.04-1.84l5.3-0.97l-0.32,7.14l-4.74,8.08l2.66-0.03
		l0.8-4.47h0.9l0.04,1.76h0.88l-0.04-1.8l1.78-0.04l0.28-9.82l-1.42-4.4l1.8-0.04l-0.1-4.47h0.88L192.28,786.46L192.28,786.46z
		 M451.85,806.21l3.51,3.14L451.85,806.21z M452.66,808.83l-1.78,0.03l-0.82,3.58l2.7-0.03l-0.06-0.9l1.78-0.03L452.66,808.83
		L452.66,808.83z M188.38,817.72v0.9l0.88-0.03v-0.86L188.38,817.72L188.38,817.72z M179.63,824.1l-1.74,1.84l2.64,0.83
		L179.63,824.1L179.63,824.1z M106.33,846.79l0.04,1.76h0.9l-0.02-1.76H106.33L106.33,846.79z M138.29,847.13l-1.76,0.03l0.04,1.77
		l-2.64,0.03v1.81l1.78-0.07l-0.02-0.86h0.88l-0.82,3.57l-4.36,1.84v1.81l-4.4,1.87l-0.82,3.56l-2.66,0.04l-0.82,4.48l-2.66,0.03
		l0.04,3.58l-2.66-0.84l0.04,0.86l1.46,0.32l-0.12,1.46l3.1,0.42l2.66-1.42l-0.96-2.64l1.82,0.88l-0.12-5.34l1.78-0.03l-0.38,3.56
		l2.24,1.29l6.19-2.33l0.38-2.7l2.18-0.9l1.3-2.71l-0.48-1.76l-1.74,0.03l3.51-1.87L138.29,847.13L138.29,847.13z M104.61,848.59
		l-2.6,2.74l0.88-0.03l1.74-0.91L104.61,848.59L104.61,848.59z M101.13,851.32l-1.76,0.03l0.02,3.58l0.88-0.03v-0.86l0.88-0.04
		L101.13,851.32L101.13,851.32z M95.84,855.01l-7.07,1.46l-7.01,5.02l1.44,7.12l-3.02,4.5l-1.78,0.03l-0.82,3.58l-14.19,0.69
		l-2.68-2.63l-3.54,0.52l-0.04-1.8l-5.37-2.53l-1.22,5.34l5.38,3.47l-0.84,2.66l2.22,0.86l0.02,1.74h1.8l0.96,3.53h1.76l-1.32,1.81
		l1.4,3.98l1.8,0.42l-0.42,1.81l2.78,7.07l-0.84,2.68l0.58,7.59l2.22,0.38l-0.4,2.7l-2.68,0.04l1.38,1.78l-2.96,8.94l4.42-0.07
		l2.36,6.2l-5.68,4.55l2.72,4.41l-2.64,0.93l-2.58,4.51l-0.12,0.82l-1,1.21l-2.36,1.61l-0.06,2.26l-0.96,1.75l-0.52,1.31l1,0.58
		l3.3-0.19l0.92-0.9l1.34-0.16l1.22-1.23l3.26-0.7l4.57-3.55l0.8,1.29l-1.54,0.86l-4.29,4.92l-0.54,3.02l-2.44,0.85l-1.08,1.35
		l-0.38,1.46l2.3,2.08l6.05-2.27l5.83-3.28l-0.02-1.76l7.97-1.04l-1.02-8.01l-1.78,0.03v-0.93h1.74l-0.02-1.78l-5.33-0.8l7.61-21.53
		l1.82,0.86l-0.24-11.62l8.83-2.36l1.78,0.42l-0.02-1.77l5.33,1.66v-0.86l-1.48-0.27l0.1-1.49l3.08-1.87l-0.08-6.22l1.76-0.04
		l0.02,1.81l6.21-0.56l0.42-1.35l-1.38-1.78l-1.76,0.04l-0.06-3.57l1.76-0.03l4.55,4.85l3.08-0.52l-0.5-2.68l-10.69-3.36l-0.98-5.34
		l1.76-0.03l-0.5-4.47l4.34-5.41l0.38-3.57l1.78,0.45l1.7-3.15l-4.38,1.39l-2.7-1.73l-2.66,0.48l-1.7,3.6L98,877.24l0.06,1.8
		l-2.68,0.03l-1.5-8.88l0.88-0.94l-0.5-2.63l-1.72,0.04l-0.98-2.68l-2.66-0.83l0.38-3.61l5.75-1.42l1.3-1.31L95.84,855.01
		L95.84,855.01z M228.14,860.73l-1.76,0.03v0.9l1.78-0.04L228.14,860.73L228.14,860.73z M229.04,860.73l1.82,3.09l3.54,0.38
		l-0.04-1.8L229.04,860.73L229.04,860.73z M242.38,863.15l-1.78,0.04v0.9l1.82-0.03L242.38,863.15L242.38,863.15z M246.84,863.98
		l-1.8,0.03l0.04,1.77l1.78-0.03L246.84,863.98L246.84,863.98z M46.39,870.13l-3.5,0.06l0.02,1.78l3.58,0.83L46.39,870.13
		L46.39,870.13z M260.62,891.38l-2.66,0.03l0.02,1.81l2.66,0.83L260.62,891.38L260.62,891.38z M260.7,895.82l-1.78,0.03l0.02,1.8
		l0.86-0.02l-0.8,3.57h1.76l-0.62-2.36l2.34-0.34L260.7,895.82L260.7,895.82z M261.66,902.06l-1.74,0.03l0.02,2.64l1.78,0.45
		L261.66,902.06L261.66,902.06z M260.88,907.4l-1.78,0.03l-2.5,9.85l3.54-0.04l-0.02-1.8l1.78-0.03l0.82-2.68h-0.88l-0.02-1.76
		l0.88-0.03L260.88,907.4L260.88,907.4z M253.05,916.46v0.9l1.78,0.86v-0.9L253.05,916.46z M285.9,919.47l-1.78,0.03l-0.84,2.68
		l-0.86,0.04v0.9l5.36,2.11l0.82-3.11l-1.76,0.03L285.9,919.47L285.9,919.47z M178.57,919.51l-0.88,0.03l0.02,1.78h0.88
		L178.57,919.51L178.57,919.51z M253.99,920.03l-2.64,0.93l0.04,2.68l0.88-0.04v-0.86l2.66,0.83L253.99,920.03L253.99,920.03z
		 M249.63,924.54l-2.64,0.9l-0.3,1.56l-1.46,0.31l0.04,0.86l2.04-0.62l2.38,0.54L249.63,924.54L249.63,924.54z M190.24,927.34v0.9
		l0.9-0.04v-0.86H190.24L190.24,927.34z M199.11,928.08l-5.31,0.99l0.04,0.88l4.13,1.14l-2.26,5.07l4.4-1.84l0.52,4.43l-2.54,6.28
		l3.15,2.19l5.68-4.13l1.28-3.12l1.78,0.42l-0.94-4.44l1.76,0.86l2.34-0.62l0.92,2.04l-0.54,2.08l-1.78,0.04l1.52,10.68l2.24,0.38
		l3.48-2.28l-0.94-3.54l2.2-0.97l-0.5-2.63l-2.64,0.93l-0.06-3.54l-2.66,0.03l0.3-0.59l13.91,2.12l0.68,4.16l-9.45,1.35l4.17,10.61
		l4.04,2.19l2.18-1.39l0.4-2.68l-4.42,0.97l1.72-3.6l2.68,0.38l0.38-3.99l-1.82-1.8l0.72-1.46l5.02,0.07l0.4-1.35l-3.17-4.4
		l8.91,1.17l0.86-1.35l-2.68,0.03l2.68-1.8l1.64-5.38l-4.42,0.97l0.02,1.76l-24.81,0.86l-0.92-1.31l-2.36,0.63l-1.16-1.46
		l-1.78,1.35l-1.8-0.42l-0.94-3.54l-2.62,1.38l-4.17-2.45L199.11,928.08L199.11,928.08z M277.19,928.53l-1.78,0.02l0.04,1.81
		l1.78,0.83L277.19,928.53L277.19,928.53z M333.98,929.36l-6.15,2.77l0.02,1.8l6.23,1.22L333.98,929.36L333.98,929.36z
		 M61.66,929.56l-1.78,0.03l0.06,3.58l-1.76,0.03l-0.82,3.56l-2.66,0.95l0.02,0.9l6.15-3.68l-0.02-1.76l0.88-0.04L61.66,929.56
		L61.66,929.56z M284.36,932.86l-1.76,0.93l0.02,1.73h2.68l0.02,1.76l1.32-0.9L284.36,932.86L284.36,932.86z M254.23,934.28
		l0.02,2.66l2.76,5.3l3.55-0.07l0.82-4.47L254.23,934.28L254.23,934.28z M289.79,938.13l0.02,1.76h1.76L289.79,938.13L289.79,938.13
		z M297.78,939.79l-4.42,0.07l0.04,1.73l4.45,0.88L297.78,939.79L297.78,939.79z M263.2,940.35l0.06,2.68l3.57,1.73l-1.84-4.4H263.2
		L263.2,940.35z M56.54,940.38l-6.19,1.87l0.02,1.76l6.19-0.97v-0.9l1.82,0.88L56.54,940.38L56.54,940.38z M243.7,940.69l0.02,2.68
		l3.56,0.38l1.9,7.55l4.45-0.06l0.38-3.54l-1.36-1.8l4.45,0.8l0.04,1.8l-1.76,0.03l1.8,3.96l4.47-0.07l3.48-3.15l-0.96-4.48
		l-7.09,0.59L243.7,940.69L243.7,940.69z M194.93,944.2l-2.62,0.03l0.04,1.8l2.64-0.07L194.93,944.2L194.93,944.2z M268.59,944.72
		l0.02,1.8l7.29,10.12l3.54,1.29l0.52,2.63l4.9,1.71l-0.92-1.78l-2.66,0.07l0.36-4.47l3.98-0.97l2.14-5.36l-3.18-3.51l-6.19,1.46
		L268.59,944.72L268.59,944.72z M300.54,945.06l-0.88,0.03l-0.86,2.68h1.76v-0.9l0.88-0.03L300.54,945.06z M246.42,945.99
		l-2.64,0.04l0.04,2.68h0.9l-0.02-0.9l1.78-0.04L246.42,945.99L246.42,945.99z M241.12,946.07l-3.54,0.97l0.94,2.23l2.66,0.38
		l-0.02-1.78h-0.88l-0.04-0.86l0.88-0.03L241.12,946.07L241.12,946.07z M206.62,952.03l-2.64,0.03l0.04,2.7l1.78-0.07l-0.04-0.9
		h0.88L206.62,952.03L206.62,952.03z M250.13,953.08l-1.76,1.8l2.66-0.03L250.13,953.08L250.13,953.08z M211.98,953.69l-4.42,0.97
		l0.02,0.91h0.88l0.04,1.76l4.42-0.03L211.98,953.69L211.98,953.69z M221.74,954.43l-1.74,0.93l0.04,2.66l2.68,0.84L221.74,954.43
		L221.74,954.43z M217.35,956.3l-2.66,0.03l0.02,1.8l3.58,1.71L217.35,956.3L217.35,956.3z M50.87,957.91l-0.12,2.19l-0.08,2.08
		l1.48,1.12l0.98-1.09l0.38-0.53l1.24-0.07l1.1,0.3l0.94-0.49l-1.32-2.45l-1.06,0.26l-1.2,0.31l-1.48-1.17L50.87,957.91
		L50.87,957.91z M50.23,963.5l-0.54,1.89l-1.08,0.38l-0.16,1.84l0.3,1.28l0.42,0.43l0.82-0.15l0.66-1.02l-0.32-1.97l0.72-1.78
		C51.05,964.41,50.23,963.5,50.23,963.5z M235.31,970.23l-2.66,0.07l-0.82,3.57l-0.88-0.48l-10.61,3.36l-0.82,2.66l-1.78,0.04
		l-2,4.19l-1.46,0.32l1.78,1.76l0.3-1.49l5.06,0.94l3.38-5.83l1.8,1.29l4-1.4l0.38-2.7l2.66-0.03v-0.9l3.57,1.28l1.74-2.25
		l-3.58-0.83L235.31,970.23L235.31,970.23z M209.6,971.58l0.04,1.78l-0.88,0.03l0.02,0.86h0.88l-0.82,4.47l6.23,0.34l2.66-0.52
		l-1.84-4.4L209.6,971.58L209.6,971.58z M204.36,974.33l-2.66,0.94l0.02,1.8l1.74-1.8l0.9-0.04L204.36,974.33L204.36,974.33z
		 M186.68,978.21l-2.66,0.03l0.04,2.66l-1.76,0.03l0.02,1.8l0.88-0.04l-0.4,2.71l2.24,1.28l3.06-2.28L186.68,978.21L186.68,978.21z
		 M120.71,990.35l3.22,0.51v0.91l-0.88,0.02l0.02,0.88l-2.66,0.07L120.71,990.35L120.71,990.35z M209.48,1017.03l2.7,2.19l5.34-0.56
		v0.9h-0.88v0.9h0.94l-6.63,3.67l-0.42,1.81l-3.56-1.74l-1.74,3.12l0.48,1.35l-3.12,1.84l-0.92-4.44l-4.47-2.59l1.76-0.03l-0.04-1.8
		l1.8,0.86l-0.04-1.76l7.11-0.14l-0.06-1.74l1.78-0.06L209.48,1017.03L209.48,1017.03z M218.41,1021.33l0.04,0.9h-0.86
		L218.41,1021.33L218.41,1021.33z M203.36,1021.58l-1.74,0.94l0.02,1.76l2.72,0.86L203.36,1021.58L203.36,1021.58z M207.9,1026.85
		l0.04,1.8l-1.5-1.31L207.9,1026.85L207.9,1026.85z M95.32,1029.69l0.9,0.86l-0.88,0.03L95.32,1029.69L95.32,1029.69z
		 M176.19,1038.98l1.36,1.76l-0.42,2.21l-1.78-0.42L176.19,1038.98z M162.03,1041.03l-5.3,1.87l0.06,3.53l4.47-0.94l-0.1-3.56
		l0.88-0.03L162.03,1041.03L162.03,1041.03z M210.28,1065.12l0.06,1.8l0.88-0.04l-0.04-1.76L210.28,1065.12L210.28,1065.12z
		 M188.18,1067.33l0.08,4.4l-3.54-1.7l-0.06-1.8L188.18,1067.33z M180.27,1070.1v0.9l-2.68-0.86L180.27,1070.1z"/>
	<rect x="1.5" y="542.81" class="st1" width="763.48" height="559"/>
</g>
<g id="Layer_2">
	<g>
		<g>
			<polygon class="st0" points="1063.41,0 1061.85,5.79 1061.84,5.79 			"/>
			<polygon class="st0" points="1058.76,17.27 1055.66,28.75 1055.59,28.73 1058.71,17.26 			"/>
			<polygon class="st0" points="1052.57,40.23 1049.48,51.71 1049.34,51.68 1052.47,40.21 			"/>
			<polygon class="st0" points="1046.38,63.19 1043.29,74.67 1043.09,74.62 1046.22,63.15 			"/>
			<polygon class="st0" points="1040.2,86.15 1037.1,97.63 1036.85,97.56 1039.97,86.09 			"/>
			<polygon class="st0" points="1034.01,109.11 1030.92,120.59 1030.6,120.51 1033.72,109.04 			"/>
			<polygon class="st0" points="1027.82,132.07 1024.73,143.55 1024.35,143.45 1027.48,131.98 			"/>
			<polygon class="st0" points="1021.64,155.03 1018.54,166.52 1018.11,166.4 1021.23,154.92 			"/>
			<polygon class="st0" points="1015.45,178 1012.36,189.48 1011.86,189.34 1014.98,177.87 			"/>
			<polygon class="st0" points="1009.26,200.96 1006.17,212.44 1005.61,212.28 1008.74,200.81 			"/>
			<polygon class="st0" points="1003.08,223.92 999.98,235.4 999.37,235.23 1002.49,223.76 			"/>
			<polygon class="st0" points="996.89,246.88 993.8,258.36 993.12,258.17 996.24,246.7 			"/>
			<polygon class="st0" points="990.7,269.84 987.61,281.32 986.87,281.12 990,269.64 			"/>
			<polygon class="st0" points="984.52,292.8 981.42,304.28 980.63,304.06 983.75,292.59 			"/>
			<polygon class="st0" points="978.33,315.76 975.24,327.24 974.38,327 977.5,315.53 			"/>
			<polygon class="st0" points="972.14,338.72 969.05,350.2 968.13,349.95 971.25,338.48 			"/>
			<polygon class="st0" points="965.96,361.68 962.86,373.16 961.88,372.89 965.01,361.42 			"/>
			<polygon class="st0" points="959.77,384.64 956.68,396.12 955.64,395.84 958.76,384.36 			"/>
			<polygon class="st0" points="953.58,407.6 950.49,419.08 949.39,418.78 952.51,407.31 			"/>
			<polygon class="st0" points="947.4,430.56 944.3,442.04 943.14,441.72 946.27,430.25 			"/>
			<polygon class="st0" points="941.21,453.52 938.12,465 936.9,464.67 940.02,453.2 			"/>
			<polygon class="st0" points="935.02,476.48 931.93,487.96 930.65,487.61 933.77,476.14 			"/>
			<polygon class="st0" points="928.84,499.44 925.74,510.92 924.4,510.55 927.53,499.08 			"/>
			<polygon class="st0" points="922.65,522.4 919.56,533.88 918.16,533.5 921.28,522.03 			"/>
			<polygon class="st0" points="916.46,545.36 913.37,556.84 911.91,556.44 915.03,544.97 			"/>
			<polygon class="st0" points="910.28,568.32 907.18,579.8 905.66,579.39 908.79,567.91 			"/>
			<polygon class="st0" points="904.09,591.28 901,602.76 899.41,602.33 902.54,590.86 			"/>
			<polygon class="st0" points="897.91,614.24 894.81,625.72 893.17,625.27 896.29,613.8 			"/>
			<polygon class="st0" points="891.72,637.2 888.63,648.68 886.92,648.22 890.04,636.75 			"/>
			<polygon class="st0" points="885.53,660.16 882.44,671.64 880.67,671.16 883.8,659.69 			"/>
			<polygon class="st0" points="879.35,683.12 876.25,694.6 874.43,694.11 877.55,682.63 			"/>
			<polygon class="st0" points="873.16,706.08 870.07,717.56 868.18,717.05 871.3,705.58 			"/>
			<polygon class="st0" points="866.97,729.04 863.88,740.52 861.93,739.99 865.06,728.52 			"/>
			<polygon class="st0" points="860.79,752 857.69,763.48 855.69,762.94 858.81,751.47 			"/>
			<polygon class="st0" points="854.6,774.96 851.51,786.44 849.44,785.88 852.56,774.41 			"/>
			<polygon class="st0" points="848.41,797.92 845.32,809.4 843.19,808.83 846.32,797.35 			"/>
			<polygon class="st0" points="842.23,820.88 839.13,832.36 836.95,831.77 840.07,820.3 			"/>
			<polygon class="st0" points="836.04,843.84 832.95,855.32 830.7,854.71 833.82,843.24 			"/>
			<polygon class="st0" points="829.85,866.8 826.76,878.28 824.45,877.66 827.57,866.19 			"/>
			<polygon class="st0" points="823.67,889.76 820.57,901.24 818.2,900.6 821.33,889.13 			"/>
			<polygon class="st0" points="817.48,912.72 814.39,924.2 811.96,923.54 815.08,912.07 			"/>
			<polygon class="st0" points="811.29,935.68 808.2,947.16 805.71,946.49 808.83,935.02 			"/>
			<polygon class="st0" points="805.11,958.64 802.01,970.12 799.46,969.43 802.59,957.96 			"/>
			<polygon class="st0" points="798.92,981.6 795.83,993.08 793.22,992.38 796.34,980.9 			"/>
			<polygon class="st0" points="792.73,1004.56 789.64,1016.04 786.97,1015.32 790.09,1003.85 			"/>
			<polygon class="st0" points="786.55,1027.52 783.45,1039 780.72,1038.26 783.85,1026.79 			"/>
			<polygon class="st0" points="780.36,1050.48 777.27,1061.96 774.48,1061.21 777.6,1049.74 			"/>
			<polygon class="st0" points="774.17,1073.44 771.08,1084.92 768.23,1084.15 771.35,1072.68 			"/>
			<polygon class="st0" points="767.99,1096.4 766.42,1102.2 763.53,1101.41 765.1,1095.62 			"/>
		</g>
	</g>
	<g>
		<g>
			<polygon class="st0" points="0.82,541.47 6.16,538.75 7.52,541.4 2.18,544.14 			"/>
			<polygon class="st0" points="16.79,533.33 27.41,527.92 28.75,530.52 18.13,535.96 			"/>
			<polygon class="st0" points="38.04,522.5 48.66,517.09 49.97,519.64 39.36,525.08 			"/>
			<polygon class="st0" points="59.29,511.67 69.91,506.26 71.19,508.76 60.58,514.2 			"/>
			<polygon class="st0" points="80.54,500.85 91.17,495.43 92.41,497.88 81.8,503.32 			"/>
			<polygon class="st0" points="101.79,490.02 112.42,484.6 113.64,486.99 103.03,492.43 			"/>
			<polygon class="st0" points="123.04,479.19 133.67,473.77 134.86,476.11 124.25,481.55 			"/>
			<polygon class="st0" points="144.29,468.36 154.92,462.94 156.08,465.23 145.47,470.67 			"/>
			<polygon class="st0" points="165.54,457.53 176.17,452.12 177.31,454.35 166.7,459.79 			"/>
			<polygon class="st0" points="186.79,446.7 197.42,441.29 198.53,443.46 187.92,448.91 			"/>
			<polygon class="st0" points="208.04,435.87 218.67,430.46 219.75,432.58 209.14,438.02 			"/>
			<polygon class="st0" points="229.29,425.04 239.92,419.63 240.98,421.7 230.37,427.14 			"/>
			<polygon class="st0" points="250.54,414.22 261.17,408.8 262.2,410.82 251.59,416.26 			"/>
			<polygon class="st0" points="271.8,403.39 282.42,397.97 283.42,399.94 272.81,405.38 			"/>
			<polygon class="st0" points="293.05,392.56 303.67,387.14 304.65,389.05 294.04,394.49 			"/>
			<polygon class="st0" points="314.3,381.73 324.92,376.32 325.87,378.17 315.26,383.61 			"/>
			<polygon class="st0" points="335.55,370.9 346.17,365.49 347.09,367.29 336.48,372.73 			"/>
			<polygon class="st0" points="356.8,360.07 367.42,354.66 368.32,356.41 357.71,361.85 			"/>
			<polygon class="st0" points="378.05,349.24 388.67,343.83 389.54,345.53 378.93,350.97 			"/>
			<polygon class="st0" points="399.3,338.41 409.92,333 410.76,334.64 400.15,340.08 			"/>
			<polygon class="st0" points="420.55,327.59 431.17,322.17 431.99,323.76 421.38,329.2 			"/>
			<polygon class="st0" points="441.8,316.76 452.43,311.34 453.21,312.88 442.6,318.32 			"/>
			<polygon class="st0" points="463.05,305.93 473.68,300.51 474.43,302 463.82,307.44 			"/>
			<polygon class="st0" points="484.3,295.1 494.93,289.69 495.66,291.11 485.05,296.56 			"/>
			<polygon class="st0" points="505.55,284.27 516.18,278.86 516.88,280.23 506.27,285.67 			"/>
			<polygon class="st0" points="526.8,273.44 537.43,268.03 538.1,269.35 527.49,274.79 			"/>
			<polygon class="st0" points="548.05,262.61 558.68,257.2 559.33,258.47 548.71,263.91 			"/>
			<polygon class="st0" points="569.3,251.78 579.93,246.37 580.55,247.59 569.94,253.03 			"/>
			<polygon class="st0" points="590.55,240.96 601.18,235.54 601.77,236.7 591.16,242.14 			"/>
			<polygon class="st0" points="611.8,230.13 622.43,224.71 623,225.82 612.38,231.26 			"/>
			<polygon class="st0" points="633.05,219.3 643.68,213.88 644.22,214.94 633.61,220.38 			"/>
			<polygon class="st0" points="654.31,208.47 664.93,203.06 665.44,204.06 654.83,209.5 			"/>
			<polygon class="st0" points="675.56,197.64 686.18,192.23 686.67,193.18 676.05,198.62 			"/>
			<polygon class="st0" points="696.81,186.81 707.43,181.4 707.89,182.29 697.28,187.73 			"/>
			<polygon class="st0" points="718.06,175.98 728.68,170.57 729.11,171.41 718.5,176.85 			"/>
			<polygon class="st0" points="739.31,165.15 749.93,159.74 750.34,160.53 739.72,165.97 			"/>
			<polygon class="st0" points="760.56,154.33 771.18,148.91 771.56,149.65 760.95,155.09 			"/>
			<polygon class="st0" points="781.81,143.5 792.43,138.08 792.78,138.76 782.17,144.21 			"/>
			<polygon class="st0" points="803.06,132.67 813.68,127.25 814.01,127.88 803.39,133.32 			"/>
			<polygon class="st0" points="824.31,121.84 834.94,116.43 835.23,117 824.62,122.44 			"/>
			<polygon class="st0" points="845.56,111.01 856.19,105.6 856.45,106.12 845.84,111.56 			"/>
			<polygon class="st0" points="866.81,100.18 877.44,94.77 877.68,95.24 867.06,100.68 			"/>
			<polygon class="st0" points="888.06,89.35 898.69,83.94 898.9,84.35 888.29,89.79 			"/>
			<polygon class="st0" points="909.31,78.53 919.94,73.11 920.12,73.47 909.51,78.91 			"/>
			<polygon class="st0" points="930.56,67.7 941.19,62.28 941.35,62.59 930.73,68.03 			"/>
			<polygon class="st0" points="951.81,56.87 962.44,51.45 962.57,51.71 951.96,57.15 			"/>
			<polygon class="st0" points="973.06,46.04 983.69,40.62 983.79,40.83 973.18,46.27 			"/>
			<polygon class="st0" points="994.31,35.21 1004.94,29.8 1005.01,29.94 994.4,35.38 			"/>
			<polygon class="st0" points="1015.57,24.38 1026.19,18.97 1026.24,19.06 1015.63,24.5 			"/>
			<polygon class="st0" points="1036.82,13.55 1047.44,8.14 1047.46,8.18 1036.85,13.62 			"/>
			<polygon class="st0" points="1058.07,2.72 1063.41,0 1058.07,2.74 			"/>
		</g>
	</g>
	<g>
		<g>
			<polygon class="st0" points="763.66,542.08 766.57,536.83 769.17,538.26 766.29,543.53 			"/>
			<polygon class="st0" points="772.33,526.41 778.09,515.99 780.6,517.36 774.88,527.81 			"/>
			<polygon class="st0" points="783.86,505.56 789.62,495.14 792.02,496.46 786.31,506.91 			"/>
			<polygon class="st0" points="795.38,484.72 801.15,474.29 803.45,475.56 797.73,486.01 			"/>
			<polygon class="st0" points="806.91,463.87 812.67,453.45 814.87,454.66 809.16,465.11 			"/>
			<polygon class="st0" points="818.44,443.02 824.2,432.6 826.3,433.75 820.59,444.2 			"/>
			<polygon class="st0" points="829.97,422.18 835.73,411.75 837.73,412.85 832.01,423.3 			"/>
			<polygon class="st0" points="841.49,401.33 847.26,390.91 849.15,391.95 843.44,402.4 			"/>
			<polygon class="st0" points="853.02,380.48 858.78,370.06 860.58,371.05 854.86,381.5 			"/>
			<polygon class="st0" points="864.55,359.64 870.31,349.22 872,350.15 866.29,360.6 			"/>
			<polygon class="st0" points="876.07,338.79 881.84,328.37 883.43,329.24 877.72,339.7 			"/>
			<polygon class="st0" points="887.6,317.95 893.36,307.52 894.86,308.34 889.14,318.79 			"/>
			<polygon class="st0" points="899.13,297.1 904.89,286.68 906.28,287.44 900.57,297.89 			"/>
			<polygon class="st0" points="910.66,276.25 916.42,265.83 917.71,266.54 912,276.99 			"/>
			<polygon class="st0" points="922.18,255.41 927.95,244.98 929.13,245.64 923.42,256.09 			"/>
			<polygon class="st0" points="933.71,234.56 939.47,224.14 940.56,224.73 934.85,235.19 			"/>
			<polygon class="st0" points="945.24,213.71 951,203.29 951.99,203.83 946.27,214.28 			"/>
			<polygon class="st0" points="956.76,192.87 962.53,182.44 963.41,182.93 957.7,193.38 			"/>
			<polygon class="st0" points="968.29,172.02 974.05,161.6 974.84,162.03 969.13,172.48 			"/>
			<polygon class="st0" points="979.82,151.18 985.58,140.75 986.26,141.13 980.55,151.58 			"/>
			<polygon class="st0" points="991.35,130.33 997.11,119.91 997.69,120.23 991.98,130.68 			"/>
			<polygon class="st0" points="1002.87,109.48 1008.64,99.06 1009.12,99.32 1003.4,109.77 			"/>
			<polygon class="st0" points="1014.4,88.64 1020.16,78.21 1020.54,78.42 1014.83,88.87 			"/>
			<polygon class="st0" points="1025.93,67.79 1031.69,57.37 1031.97,57.52 1026.26,67.97 			"/>
			<polygon class="st0" points="1037.45,46.94 1043.22,36.52 1043.4,36.62 1037.68,47.07 			"/>
			<polygon class="st0" points="1048.98,26.1 1054.75,15.67 1054.82,15.72 1049.11,26.17 			"/>
			<polygon class="st0" points="1060.51,5.25 1063.41,0 1060.53,5.26 			"/>
		</g>
	</g>
</g>
</svg>
