<?xml version="1.0" encoding="utf-8"?>
<!-- Generator: Adobe Illustrator 24.0.1, SVG Export Plug-In . SVG Version: 6.00 Build 0)  -->
<svg version="1.1" xmlns="http://www.w3.org/2000/svg" xmlns:xlink="http://www.w3.org/1999/xlink" x="0px" y="0px"
	 viewBox="0 0 3010.7 1629.9" style="enable-background:new 0 0 3010.7 1629.9;" xml:space="preserve">
<style type="text/css">
	.st0{fill:#65BAAF;}
</style>
<g id="logo">
	<g>
		<path class="st0" d="M253.7,1490.7v136.7h-18.7v-65.2h-85v65.2h-18.9v-136.7h18.9v55.6h85v-55.6H253.7z"/>
		<path class="st0" d="M338.3,1507.3c12.1-12.3,29.6-19.1,51.7-19.1c20.7,0,38.1,6.2,50.1,17.5c13,12.1,20.3,30.1,20.3,53.3
			c0,20.7-5.7,37.1-16.2,49.2c-12.1,14.1-30.5,21.6-54.2,21.6c-21.6,0-39.4-6.6-51.5-18.7c-12.3-12.1-18.9-29.8-18.9-52.2
			C319.6,1537.2,326.2,1519.4,338.3,1507.3z M427.4,1517.4c-8.9-8.7-21.4-13.2-37.4-13.2c-16.2,0-28.9,4.6-37.6,13.7
			c-9.1,9.1-13.9,23-13.9,41.2c0,17.1,4.1,30.3,12.3,39.6c8.7,10,22.1,15.3,39.2,15.3c17.3,0,30.5-5.2,39.4-15.5
			c7.7-9.3,12.1-22.6,12.1-39.4C441.5,1540.8,436.5,1526.7,427.4,1517.4z"/>
		<path class="st0" d="M510.1,1490.7h132.2v16h-56.7v120.8h-18.9v-120.8h-56.5V1490.7z"/>
		<path class="st0" d="M703.5,1490.7h108.2v16h-89.3v40.6h79.8v15.9h-79.8v48.3H815v16H703.5V1490.7z"/>
		<path class="st0" d="M982.9,1611.5v16H877.6v-136.7h18.9v120.8H982.9z"/>
		<path class="st0" d="M1054.8,1500.3c11.2-8.4,28.7-12.1,51.5-12.1c20.5,0,34.4,2.7,51.7,9.6l-5.5,14.1c-15.3-5-29.2-7.5-45.8-7.5
			c-17.1,0-30.5,2.3-38.1,7.3c-5,3.2-7.5,7.3-7.5,13c0,5,1.8,8.9,5.7,11.4c4.6,3.4,11.6,5.2,20.7,6.6l32.4,5.2
			c18,3,31.2,6.6,39.4,14.4c6.2,6.2,9.3,13.9,9.3,25.3c0,13.2-5.5,23.5-16.4,30.5c-12.1,7.7-28.9,11.8-53.5,11.8
			c-20.5,0-38.1-3.2-56.1-9.6l5-14.6c16.2,5.2,35.3,7.7,50.6,7.7c17.3,0,31.7-1.8,41.5-8c6.4-3.9,10-9.8,10-18.5
			c0-15.7-14.4-18.7-32.1-21.4l-35.3-5.5c-12.8-1.8-22.3-5.2-29.2-10.5c-6.8-5.2-10.9-13-10.9-23.2
			C1042.2,1514.9,1046.8,1506.2,1054.8,1500.3z"/>
		<path class="st0" d="M1343.9,1614c-8-7.7-12.3-18.7-12.3-31.2c0-8,1.6-15.5,5-21.9c3.6-7.3,9.1-13,16.4-17.1
			c-6.6-6.8-9.6-13.9-9.6-22.3c0-11.6,5.7-19.6,13.9-24.8c9.1-5.9,21.9-8.4,34-8.4c20.1,0,38.3,4.3,50.4,13.4l-7.7,12.1
			c-10.9-6.2-26-9.8-42.6-9.8c-7.7,0-16.6,1.4-22.6,5.2c-4.1,2.7-6.8,6.6-6.8,11.8c0,5.9,2.3,10.7,8.7,15.7l65.4,50.4
			c2.1-4.1,3.6-8.7,5-13.7c1.4-5.5,2.3-11.8,2.3-18.7l-21.2-2.1v-12.1h56.5v12.5l-18,1.8c-0.2,8.2-1.1,15.7-3,23
			c-1.6,7.1-4.3,13.7-7.7,19.8l12.3,9.6c5,3.9,8.2,5.5,15.7,6.4l3,0.7l-1.6,13h-3.9c-11.8,0-17.5-1.8-24.6-7.1l-11.2-8.4
			c-5.5,5.2-11.6,9.6-18.9,12.8c-8.2,3.4-18,5.2-29.2,5.2C1370.6,1629.9,1353.9,1624.2,1343.9,1614z M1410.9,1611
			c5.7-2.1,10.9-5.2,15.3-9.6l-61.3-47.4c-5.5,3.2-9.1,7.3-11.6,12.8c-2.3,4.6-3.2,9.6-3.2,15.7c0,8,2.7,15,8.2,20.5
			c6.6,6.8,17.5,11.2,32.8,11.2C1398.6,1614.2,1405,1613.3,1410.9,1611z"/>
		<path class="st0" d="M1713.7,1490.7c16,0,28.7,5,37.8,14.1c7.5,8,11.8,18.9,11.8,32.8c0,11.8-4.6,23-12.5,31.4
			c-5,5.2-11.8,9.8-19.6,12.3l28.9,46h-21l-26-43.1h-48.1v43.1h-18.9v-136.7H1713.7z M1737.4,1516c-5.2-5.9-13.2-9.3-23.7-9.3h-48.5
			v61.8h48.1c9.3,0,17.5-3,23-8.7c5.2-5.2,8.2-12.8,8.2-22.3C1744.5,1528.8,1742.2,1521.2,1737.4,1516z"/>
		<path class="st0" d="M1829.4,1490.7h108.2v16h-89.3v40.6h79.8v15.9h-79.8v48.3h92.5v16h-111.4V1490.7z"/>
		<path class="st0" d="M2013.2,1500.3c11.2-8.4,28.7-12.1,51.5-12.1c20.5,0,34.4,2.7,51.7,9.6l-5.5,14.1c-15.3-5-29.2-7.5-45.8-7.5
			c-17.1,0-30.5,2.3-38.1,7.3c-5,3.2-7.5,7.3-7.5,13c0,5,1.8,8.9,5.7,11.4c4.6,3.4,11.6,5.2,20.7,6.6l32.4,5.2
			c18,3,31.2,6.6,39.4,14.4c6.2,6.2,9.3,13.9,9.3,25.3c0,13.2-5.5,23.5-16.4,30.5c-12.1,7.7-28.9,11.8-53.5,11.8
			c-20.5,0-38.1-3.2-56.1-9.6l5-14.6c16.2,5.2,35.3,7.7,50.6,7.7c17.3,0,31.7-1.8,41.5-8c6.4-3.9,10-9.8,10-18.5
			c0-15.7-14.4-18.7-32.1-21.4l-35.3-5.5c-12.8-1.8-22.3-5.2-29.2-10.5c-6.8-5.2-10.9-13-10.9-23.2
			C2000.7,1514.9,2005.2,1506.2,2013.2,1500.3z"/>
		<path class="st0" d="M2204.5,1507.3c12.1-12.3,29.6-19.1,51.7-19.1c20.7,0,38.1,6.2,50.1,17.5c13,12.1,20.3,30.1,20.3,53.3
			c0,20.7-5.7,37.1-16.2,49.2c-12.1,14.1-30.5,21.6-54.2,21.6c-21.6,0-39.4-6.6-51.5-18.7c-12.3-12.1-18.9-29.8-18.9-52.2
			C2185.8,1537.2,2192.5,1519.4,2204.5,1507.3z M2293.6,1517.4c-8.9-8.7-21.4-13.2-37.4-13.2c-16.2,0-28.9,4.6-37.6,13.7
			c-9.1,9.1-13.9,23-13.9,41.2c0,17.1,4.1,30.3,12.3,39.6c8.7,10,22.1,15.3,39.2,15.3c17.3,0,30.5-5.2,39.4-15.5
			c7.7-9.3,12.1-22.6,12.1-39.4C2307.8,1540.8,2302.7,1526.7,2293.6,1517.4z"/>
		<path class="st0" d="M2460,1490.7c16,0,28.7,5,37.8,14.1c7.5,8,11.8,18.9,11.8,32.8c0,11.8-4.6,23-12.5,31.4
			c-5,5.2-11.8,9.8-19.6,12.3l28.9,46h-21l-26-43.1h-48.1v43.1h-18.9v-136.7H2460z M2483.7,1516c-5.2-5.9-13.2-9.3-23.7-9.3h-48.5
			v61.8h48.1c9.3,0,17.5-3,23-8.7c5.2-5.2,8.2-12.8,8.2-22.3C2490.8,1528.8,2488.5,1521.2,2483.7,1516z"/>
		<path class="st0" d="M2564.5,1490.7h132.2v16h-56.7v120.8H2621v-120.8h-56.5V1490.7z"/>
		<path class="st0" d="M2765.6,1500.3c11.2-8.4,28.7-12.1,51.5-12.1c20.5,0,34.4,2.7,51.7,9.6l-5.5,14.1c-15.3-5-29.2-7.5-45.8-7.5
			c-17.1,0-30.5,2.3-38.1,7.3c-5,3.2-7.5,7.3-7.5,13c0,5,1.8,8.9,5.7,11.4c4.6,3.4,11.6,5.2,20.7,6.6l32.4,5.2
			c18,3,31.2,6.6,39.4,14.4c6.2,6.2,9.3,13.9,9.3,25.3c0,13.2-5.5,23.5-16.4,30.5c-12.1,7.7-28.9,11.8-53.5,11.8
			c-20.5,0-38.1-3.2-56.1-9.6l5-14.6c16.2,5.2,35.3,7.7,50.6,7.7c17.3,0,31.7-1.8,41.5-8c6.4-3.9,10-9.8,10-18.5
			c0-15.7-14.4-18.7-32.1-21.4l-35.3-5.5c-12.8-1.8-22.3-5.2-29.2-10.5c-6.8-5.2-10.9-13-10.9-23.2
			C2753.1,1514.9,2757.6,1506.2,2765.6,1500.3z"/>
		<path class="st0" d="M1281.2,708.7c-0.5,0-0.9,0-1.4-0.1c-4.1-0.7-7.2-4.2-7.2-8.4c-1.4-171.9,92.5-286.7,117.8-314.5
			c-105-99.5-247.1-104-248.6-104.1c-4.2-0.1-7.7-3.2-8.3-7.3c-0.6-4.1,1.8-8.1,5.8-9.4c163-54.4,301.2-0.6,335.5,14.8
			c62.1-130.4,22.6-267.2,22.2-268.6c-1.2-4,0.7-8.3,4.4-10.2c3.7-1.9,8.3-0.8,10.8,2.6c102.1,138.2,93.7,286.3,89.5,323.6
			c143.2,18.8,261.1-61.1,262.3-61.9c3.4-2.4,8.1-1.9,11,1.1c2.9,3,3.3,7.6,0.9,11c-99.9,139.8-243.3,177.6-280.1,185.2
			c26.4,142,138.8,229.4,139.9,230.3c3.3,2.5,4.3,7.1,2.4,10.8c-1.9,3.7-6.2,5.5-10.2,4.2c-163.9-51.8-244.1-176.6-262.7-209.2
			c-126.9,69-175.3,202.9-175.8,204.3C1288,706.4,1284.8,708.7,1281.2,708.7z"/>
		<path class="st0" d="M39.2,992.2v283.5H0V992.2H39.2z M186.3,1275.6V992.2h167.6c26,0,48.7,8,63.8,23.6
			c11.8,11.8,18.9,28.3,18.9,47.7c0,12.3-3.3,23.6-9,33.1c-5.2,8.5-11.8,15.1-20.3,20.8v2.4c13.2,5.7,24.1,14.6,31.7,25.5
			c9.4,13.2,14.6,28.8,14.6,46.3c0,23.6-9.9,44.4-26,59.1c-17,15.6-41.1,25-66.1,25H186.3z M385.6,1036.1c-8-7.1-19.8-11.8-35-11.8
			H225.5v82.7h132.6c11.8,0,22.2-5.2,29.3-13.2c6.6-7.6,10.4-17.5,10.4-28.3C397.9,1054.1,393.6,1043.7,385.6,1036.1z M403.5,1156.6
			c-9.9-11.8-25-18-41.6-18H225.5v104.9h134.5c17,0,31.7-5.7,41.1-15.6c9-9,14.2-21.7,14.2-36.8
			C415.3,1176.9,411.1,1165.1,403.5,1156.6z M579.9,992.2h239.9v33.1H619.1v84.1h180.8l-9.4,33.1H619.1v100.1h207.3v33.1H579.9
			V992.2z M1098.8,992.2c33.1,0,59.5,10.4,78.4,29.3c15.6,16.5,24.6,39.2,24.6,68c0,24.6-9.4,47.7-26,65.2
			c-10.4,10.9-24.6,20.3-40.6,25.5l60,95.4h-43.5l-53.9-89.3h-109v89.3h-39.2V992.2H1098.8z M1147.9,1044.6
			c-10.9-12.3-27.4-19.4-49.1-19.4h-110v128h109c19.4,0,36.4-6.1,47.7-18c10.9-10.9,17-26.5,17-46.3
			C1162.6,1071.1,1157.8,1055.5,1147.9,1044.6z M1351.3,1026.7c25-25.5,67.5-39.7,113.3-39.7c43,0,85,12.8,110,36.4
			c26.9,25,42.1,62.4,42.1,110.5c0,43-11.8,77-33.5,102c-25,29.3-69.4,44.9-118.5,44.9c-44.9,0-87.8-13.7-112.9-38.7
			c-25.5-25-39.2-61.9-39.2-108.2C1312.6,1088.5,1326.3,1051.7,1351.3,1026.7z M1548.2,1047.4c-18.4-18-50.5-27.4-83.6-27.4
			c-33.5,0-66.1,9.4-84,28.3c-18.9,18.9-28.8,47.7-28.8,85.5c0,35.4,8.5,62.8,25.5,82.2c18,20.8,51.9,31.7,87.4,31.7
			c35.9,0,69.4-10.9,87.8-32.1c16.1-19.4,25-46.8,25-81.7C1577.5,1096.1,1567.1,1066.8,1548.2,1047.4z M2053.5,992.2H2334v33.1
			h-120.9v250.4h-39.2v-250.4h-120.4V992.2z M2534.9,992.2l128.5,283.5h-41.6l-25-55.3h-172.2l-25,55.3h-40.2l128.5-283.5H2534.9z
			 M2439.2,1187.3h142.9l-69.9-158.7h-3.1L2439.2,1187.3z M2907.7,992.2c33.1,0,59.5,10.4,78.4,29.3c15.6,16.5,24.6,39.2,24.6,68
			c0,24.6-9.4,47.7-26,65.2c-10.4,10.9-24.6,20.3-40.6,25.5l60,95.4h-43.5l-53.9-89.3h-109v89.3h-39.2V992.2H2907.7z M2956.9,1044.6
			c-10.9-12.3-27.4-19.4-49.1-19.4h-110v128h109c19.4,0,36.4-6.1,47.7-18c10.9-10.9,17-26.5,17-46.3
			C2971.5,1071.1,2966.8,1055.5,2956.9,1044.6z M1748.5,1012c23.1-17.5,59.5-25,106.8-25c42.5,0,71.3,5.7,107.2,19.8v32.9
			c-36.1-12.7-71.8-19.2-106.3-19.2c-35.4,0-63.3,4.7-78.9,15.1c-10.4,6.6-15.6,15.1-15.6,26.9c0,10.4,3.8,18.4,11.8,23.6
			c9.5,7.1,24.1,10.9,43,13.7l67.1,10.9c37.3,6.1,64.7,13.7,81.7,29.8c12.8,12.8,19.4,28.8,19.4,52.4c0,27.4-11.3,48.7-34,63.3
			c-25,16.1-60,24.6-111,24.6c-42.5,0-75.9-7.6-113.2-20.8l0.4-33.4c35,12.5,80.2,20.2,111.8,20.2c35.9,0,65.7-3.8,86-16.5
			c13.2-8,20.8-20.3,20.8-38.3c0-32.6-29.8-38.7-66.6-44.4l-73.2-11.3c-26.5-3.8-46.3-10.9-60.5-21.7
			c-14.2-10.9-22.7-26.9-22.7-48.2C1722.6,1042.2,1732,1024.3,1748.5,1012z"/>
	</g>
</g>
<g id="guias">
</g>
</svg>
