<?xml version="1.0" encoding="utf-8"?><!DOCTYPE svg PUBLIC "-//W3C//DTD SVG 1.1//EN" "http://www.w3.org/Graphics/SVG/1.1/DTD/svg11.dtd"><svg xmlns:dc="http://purl.org/dc/elements/1.1/" xmlns:inkscape="http://www.inkscape.org/namespaces/inkscape" xmlns:rdf="http://www.w3.org/1999/02/22-rdf-syntax-ns#" xmlns:cc="http://creativecommons.org/ns#" xmlns:svg="http://www.w3.org/2000/svg" xmlns:sodipodi="http://sodipodi.sourceforge.net/DTD/sodipodi-0.dtd" xmlns="http://www.w3.org/2000/svg" xmlns:xlink="http://www.w3.org/1999/xlink" version="1.1" x="0px" y="0px" viewBox="0 0 100 100" enable-background="new 0 0 100 100" xml:space="preserve" width="100px" height="100px"><path d="M50,0C22.386,0,0,22.386,0,50s22.386,50,50,50s50-22.386,50-50S77.614,0,50,0z M50,14.156  c7.456,0,14.359,2.293,20.094,6.188L50,40.438L29.906,20.344C35.641,16.45,42.544,14.156,50,14.156z M20.344,29.906L40.438,50  L20.344,70.094C16.45,64.359,14.156,57.456,14.156,50S16.45,35.641,20.344,29.906z M79.656,29.906  c3.895,5.735,6.188,12.638,6.188,20.094s-2.293,14.359-6.188,20.094L59.562,50L79.656,29.906z M50,59.562l20.094,20.094  C64.359,83.551,57.456,85.844,50,85.844s-14.359-2.293-20.094-6.188L50,59.562z"/></svg>