<svg xmlns="http://www.w3.org/2000/svg" xmlns:xlink="http://www.w3.org/1999/xlink" width="122.72" height="110.25" viewBox="0 0 122.72 110.25"><defs><style>.cls-1{fill:none;}.cls-2{fill:#1a2954;}.cls-3{fill:#efb570;}.cls-4{fill:#da9a3d;}.cls-5{fill:#fff;}.cls-6{fill:#c5dbdf;}.cls-7{fill:#ed3f76;}.cls-8{fill:#57be86;}.cls-9{clip-path:url(#clip-path);}</style><clipPath id="clip-path" transform="translate(0 0)"><rect class="cls-1" width="122.72" height="110.25"/></clipPath></defs><title>Asset 6</title><g id="Layer_2" data-name="Layer 2"><g id="BG"><g id="Icons"><path class="cls-2" d="M95.18,62.08l27.54,11.24V74a.93.93,0,0,1-.22,0L94.9,62.69l.28-.61Z" transform="translate(0 0)"/><path class="cls-3" d="M94.9,62.69l-3,6.52a7.81,7.81,0,0,0-6.53-3.7h-.15l2.66-5.71,7.05,2.88Z" transform="translate(0 0)"/><polygon class="cls-2" points="88.13 59.2 95.18 62.08 94.9 62.69 87.85 59.81 88.13 59.2 88.13 59.2"/><path class="cls-3" d="M91.87,69.21,85.25,83.48a7.89,7.89,0,0,1-6.6-4l6.54-14h.15a7.81,7.81,0,0,1,6.53,3.7Z" transform="translate(0 0)"/><path class="cls-3" d="M85.34,83.48h-.09l6.62-14.27a9.57,9.57,0,0,1,1.56,5.29c0,5-3.62,9-8.09,9Z" transform="translate(0 0)"/><path class="cls-4" d="M85.25,83.48h.09c4.47,0,8.09-4,8.09-9a9.57,9.57,0,0,0-1.56-5.29l3-6.52L122.5,74a.93.93,0,0,0,.22,0v34.74L83.47,87.31l1.78-3.83Z" transform="translate(0 0)"/><polygon class="cls-2" points="83.47 87.31 122.72 108.74 122.72 109.49 83.19 87.91 83.47 87.31 83.47 87.31"/><path class="cls-3" d="M78.65,79.53a7.89,7.89,0,0,0,6.6,4l-1.78,3.83-6.73-3.68,1.91-4.1Z" transform="translate(0 0)"/><path class="cls-3" d="M85.19,65.52l-6.54,14a9.58,9.58,0,0,1-1.39-5c0-4.9,3.54-8.89,7.93-9Z" transform="translate(0 0)"/><polygon class="cls-2" points="76.74 83.63 83.47 87.31 83.19 87.91 76.46 84.24 76.74 83.63 76.74 83.63"/><path class="cls-2" d="M69.37,50.82,122.72,72.6v.72L95.18,62.08,88.13,59.2,69.48,51.58a.79.79,0,0,0,0-.48l-.11-.28Z" transform="translate(0 0)"/><path class="cls-2" d="M68.68,52a.59.59,0,0,0,.23.05.59.59,0,0,0,.22-.05.64.64,0,0,0,.35-.4L88.13,59.2l-.28.61L68.7,52Z" transform="translate(0 0)"/><path class="cls-2" d="M68.68,50.72a.56.56,0,0,1,.44,0l.25.11.11.28a.79.79,0,0,1,0,.48l-.57-.23-.23-.63Z" transform="translate(0 0)"/><path class="cls-2" d="M68.36,51.64a.77.77,0,0,1,0-.52.7.7,0,0,1,.35-.4l.23.63.57.23a.64.64,0,0,1-.35.4.59.59,0,0,1-.22.05.59.59,0,0,1-.23-.05l-.06,0-.1-.08,0,0v0s0,0,0,0l0,0,0,0a.3.3,0,0,1,0-.08Z" transform="translate(0 0)"/><path class="cls-5" d="M63.27,13.61c-1,0-1-1.77,0-1.77s1,1.77,0,1.77Z" transform="translate(0 0)"/><path class="cls-5" d="M62.07,16.05c-1,0-1-1.77,0-1.77s1,1.77,0,1.77Z" transform="translate(0 0)"/><path class="cls-5" d="M61.47,12.06c-1,0-1-1.77,0-1.77s1,1.77,0,1.77Z" transform="translate(0 0)"/><path class="cls-6" d="M18,16.27c1,0,1-1.77,0-1.77s-1,1.77,0,1.77Zm3-1.77c1,0,1-1.77,0-1.77s-1,1.77,0,1.77Zm1.59,2.44c1,0,1-1.78,0-1.78s-1,1.78,0,1.78Zm1.59-2.66c1,0,1-1.78,0-1.78s-1,1.78,0,1.78Zm2.39,1.77c1,0,1-1.77,0-1.77s-1,1.77,0,1.77Zm3.19-.41c1,0,1-1.77,0-1.77s-1,1.77,0,1.77Zm0-3.58c1,0,1-1.77,0-1.77s-1,1.77,0,1.77Zm2.31,1.55c1,0,1-1.77,0-1.77s-1,1.77,0,1.77Zm.77,3.11c1,0,1-1.78,0-1.78s-1,1.78,0,1.78Zm2.71-2.84c1,0,1-1.77,0-1.77s-1,1.77,0,1.77Zm.73,3.06c1,0,1-1.78,0-1.78s-1,1.78,0,1.78ZM38,11.84c1,0,1-1.77,0-1.77s-1,1.77,0,1.77Zm3.59,4.88c1,0,1-1.78,0-1.78s-1,1.78,0,1.78Zm0-4.88c1,0,1-1.77,0-1.77s-1,1.77,0,1.77Zm1.33,2.44c1,0,1-1.78,0-1.78s-1,1.78,0,1.78Zm2.39-2.44c1,0,1-1.77,0-1.77s-1,1.77,0,1.77Zm.47,3.1c1,0,1-1.77,0-1.77s-1,1.77,0,1.77Zm2.38-2.44c1,0,1-1.77,0-1.77s-1,1.77,0,1.77Zm.6,3.55c1,0,1-1.77,0-1.77s-1,1.77,0,1.77Zm11-1.77c1,0,1-1.78,0-1.78s-1,1.78,0,1.78Zm2.39,1.77c1,0,1-1.77,0-1.77s-1,1.77,0,1.77ZM34.15,11.84c1,0,1-1.77,0-1.77s-1,1.77,0,1.77Zm-6.35,0c-1,0-1,1.77,0,1.77s1-1.77,0-1.77Zm-1.8.22c1,0,1-1.77,0-1.77s-1,1.77,0,1.77Zm-3.84-2c-1,0-1,1.77,0,1.77s1-1.77,0-1.77Zm-3.33,3.1c1,0,1-1.78,0-1.78s-1,1.78,0,1.78ZM16,10.29c-1,0-1,1.77,0,1.77s1-1.77,0-1.77Zm-.6,2.44c-1,0-1,1.77,0,1.77s1-1.77,0-1.77Zm23.5,1.77c1,0,1-1.77,0-1.77s-1,1.77,0,1.77ZM51.5,10.29c-1,0-1,1.77,0,1.77s1-1.77,0-1.77Zm-.6,4.21c1,0,1-1.77,0-1.77s-1,1.77,0,1.77Zm2.59,1.77c1,0,1-1.77,0-1.77s-1,1.77,0,1.77Zm.8-4.88c-1,0-1,1.78,0,1.78s1-1.78,0-1.78Zm2.2,3.11c1,0,1-1.77,0-1.77s-1,1.77,0,1.77Zm1.12-2.66c1,0,1-1.77,0-1.77s-1,1.77,0,1.77Zm.47,5.1c1,0,1-1.78,0-1.78s-1,1.78,0,1.78Zm3.39-4.88c1,0,1-1.77,0-1.77s-1,1.77,0,1.77Zm1.8-.22c-1,0-1,1.77,0,1.77s1-1.77,0-1.77ZM65,8.92c.11,2.34.19,10.82-4.48,14.06a10.06,10.06,0,0,0-3.68,4.81H53.62L50.38,23l-5.74,4.8H41.71l-2.27-6.11-6,2.76L28,20.24l-4.69,7.55H22A9.31,9.31,0,0,0,18.25,23c-2.25-1.44-3.74-4-4.42-7.72v0a26.9,26.9,0,0,1-.33-6.3H65Z" transform="translate(0 0)"/><path class="cls-5" d="M59.68,14.28c-1,0-1-1.78,0-1.78s1,1.78,0,1.78Z" transform="translate(0 0)"/><path class="cls-2" d="M65.54,8.24H20.75a.79.79,0,0,0,0-.4c0-.09-.06-.19-.1-.28H66.09l.06.61c0,.48,1,11.76-5,16a8.3,8.3,0,0,0-1.41,1.23l-.22.07a3.63,3.63,0,0,0-1.06.53,9,9,0,0,1,2.37-2.4c5.79-4,4.72-15.32,4.72-15.32Z" transform="translate(0 0)"/><path class="cls-2" d="M58.87,26.47a8.63,8.63,0,0,1,.86-1.11l.24-.07.24.45a83.47,83.47,0,0,1,4.21,11.07l5,14-.25-.11a.56.56,0,0,0-.44,0L63.84,37a84.44,84.44,0,0,0-4.16-10.94,2.76,2.76,0,0,0-.81.39Z" transform="translate(0 0)"/><path class="cls-5" d="M58.08,16.94c-1,0-1-1.78,0-1.78s1,1.78,0,1.78Z" transform="translate(0 0)"/><path class="cls-5" d="M57.61,11.84c-1,0-1-1.77,0-1.77s1,1.77,0,1.77Z" transform="translate(0 0)"/><path class="cls-2" d="M59.4,26.92a4.14,4.14,0,0,0-1.73,2.77l-.15-.05c.07-.28.14-.54.23-.8a10,10,0,0,1,1.12-2.37,2.76,2.76,0,0,1,.81-.39A84.44,84.44,0,0,1,63.84,37l4.84,13.7a.7.7,0,0,0-.35.4.77.77,0,0,0,0,.52.05.05,0,0,1,0,0L63.27,37.27A86.65,86.65,0,0,0,59.4,26.92Z" transform="translate(0 0)"/><path class="cls-2" d="M57.36,28.08A10.34,10.34,0,0,1,58.45,26a3.63,3.63,0,0,1,1.06-.53l.22-.07a8.63,8.63,0,0,0-.86,1.11,4.17,4.17,0,0,0-1.41,1.88.63.63,0,0,0-.1-.27Z" transform="translate(0 0)"/><path class="cls-2" d="M57.47,28.47a.7.7,0,0,1-.25.55,6.61,6.61,0,0,1,.24-.67.49.49,0,0,1,0,.12Z" transform="translate(0 0)"/><path class="cls-2" d="M58.67,45.06,57,44.57l0-.07a.55.55,0,0,0,.22,0,.64.64,0,0,0,.55-.73c0-.14,0-.26,0-.4l1.18.36a.68.68,0,0,1,.43.83.6.6,0,0,1-.74.48Z" transform="translate(0 0)"/><path class="cls-2" d="M56.74,38a13.89,13.89,0,0,0,.14-2,25.33,25.33,0,0,1,.64-6.3l.15.05c-.8,3.16-.36,8.19,0,12.22,0,.51.09,1,.13,1.48l-.63-.18c-.14-1.63-.31-3.43-.43-5.23Z" transform="translate(0 0)"/><path class="cls-2" d="M57,29.13c0-.18.1-.35.15-.52s.13-.35.19-.53a.63.63,0,0,1,.1.27,6.61,6.61,0,0,0-.24.67.56.56,0,0,1-.2.11Z" transform="translate(0 0)"/><path class="cls-2" d="M56.86,28.47h-.11a4.2,4.2,0,0,1,.26-.65.54.54,0,0,1,.35.26c-.06.18-.13.35-.19.53l-.31-.14Z" transform="translate(0 0)"/><path class="cls-2" d="M57,27.82A4.47,4.47,0,0,1,58.45,26a10.34,10.34,0,0,0-1.09,2.12.54.54,0,0,0-.35-.26Z" transform="translate(0 0)"/><path class="cls-2" d="M56.55,43c0-.32-.06-.64-.09-1-.06-.63-.12-1.28-.17-1.93A14.28,14.28,0,0,0,56.74,38c.12,1.8.29,3.6.43,5.23L56.55,43Z" transform="translate(0 0)"/><path class="cls-2" d="M56.74,38c-.22-3.32-.24-6.64.48-9a.7.7,0,0,0,.25-.55.49.49,0,0,0,0-.12,4.17,4.17,0,0,1,1.41-1.88,10,10,0,0,0-1.12,2.37c-.09.26-.16.52-.23.8a25.33,25.33,0,0,0-.64,6.3,13.89,13.89,0,0,1-.14,2Z" transform="translate(0 0)"/><path class="cls-2" d="M57.22,43.92l-.62-.18c0-.24,0-.48-.05-.72l.62.19.06.64v.07Z" transform="translate(0 0)"/><path class="cls-2" d="M56.53,29.15c.07-.23.14-.46.22-.68h.11l.31.14c-.05.17-.11.34-.15.52l-.16,0Z" transform="translate(0 0)"/><path class="cls-5" d="M56.49,14.5c-1,0-1-1.77,0-1.77s1,1.77,0,1.77Z" transform="translate(0 0)"/><path class="cls-2" d="M56.6,43.74l.62.18v-.07l-.06-.64.63.18c0,.14,0,.26,0,.4a.64.64,0,0,1-.55.73.55.55,0,0,1-.22,0,.68.68,0,0,1-.44-.59c0-.06,0-.12,0-.17Z" transform="translate(0 0)"/><path class="cls-2" d="M56.6,28.38a5.89,5.89,0,0,1,.21-.59h0a.4.4,0,0,1,.15,0,4.2,4.2,0,0,0-.26.65h-.18l0-.09Z" transform="translate(0 0)"/><path class="cls-2" d="M56.75,28.47c-.08.22-.15.45-.22.68h-.16c.06-.23.13-.46.2-.68Z" transform="translate(0 0)"/><path class="cls-2" d="M56.28,35.94A25.2,25.2,0,0,1,57,29.13a.56.56,0,0,0,.2-.11c-.72,2.32-.7,5.64-.48,9a14.28,14.28,0,0,1-.45,2.14c-.06-.72-.12-1.44-.16-2.16a13.63,13.63,0,0,0,.15-2Z" transform="translate(0 0)"/><path class="cls-2" d="M56.13,38a29.29,29.29,0,0,1,.4-8.81h.33l.16,0a25.2,25.2,0,0,0-.74,6.81,13.63,13.63,0,0,1-.15,2Z" transform="translate(0 0)"/><path class="cls-2" d="M56.6,43.74,55,43.25c.11-.2.22-.39.32-.6l1.24.37c0,.24,0,.48.05.72Z" transform="translate(0 0)"/><path class="cls-2" d="M54.7,42.47A14.56,14.56,0,0,0,56.13,38c0,.72.1,1.44.16,2.16a15.57,15.57,0,0,1-1,2.53l-.61-.18Z" transform="translate(0 0)"/><path class="cls-2" d="M54.1,42.29a13.87,13.87,0,0,0,1.57-6.35,26.71,26.71,0,0,1,.7-6.79h.16a29.29,29.29,0,0,0-.4,8.81,14.56,14.56,0,0,1-1.43,4.51l-.6-.18Z" transform="translate(0 0)"/><path class="cls-2" d="M54.38,43.07c.11-.2.22-.4.32-.6l.61.18c-.1.21-.21.4-.32.6l-.61-.18Z" transform="translate(0 0)"/><path class="cls-5" d="M54.29,13.17c-1,0-1-1.78,0-1.78s1,1.78,0,1.78Z" transform="translate(0 0)"/><path class="cls-2" d="M57,44.57l-2.83-.85a.59.59,0,0,0,.69-.29l.09-.18,1.61.49s0,.11,0,.17a.68.68,0,0,0,.44.59l0,.07Z" transform="translate(0 0)"/><path class="cls-2" d="M54.05,43.64l.33-.57.61.18-.09.18a.59.59,0,0,1-.69.29.56.56,0,0,1-.16-.07Z" transform="translate(0 0)"/><path class="cls-2" d="M54.05,43.65a.56.56,0,0,0,.16.07l-.18,0,0,0Z" transform="translate(0 0)"/><path class="cls-2" d="M53.68,29l-.36-.54h.61a.71.71,0,0,1-.25.54Z" transform="translate(0 0)"/><path class="cls-2" d="M54.38,43.07l-.59-.18a.71.71,0,0,1,.08-.18c.07-.14.15-.28.23-.42l.6.18c-.1.2-.21.4-.32.6Z" transform="translate(0 0)"/><path class="cls-2" d="M53.8,28.07l-.18-.28h3.19a5.89,5.89,0,0,0-.21.59l0,.09H53.93a.73.73,0,0,0-.13-.4Z" transform="translate(0 0)"/><path class="cls-2" d="M54.05,43.64a.73.73,0,0,1-.26-.75l.59.18-.33.57Z" transform="translate(0 0)"/><path class="cls-2" d="M53.68,29a.71.71,0,0,0,.25-.54h2.64c-.07.22-.14.45-.2.68H53.78l-.1-.14Z" transform="translate(0 0)"/><path class="cls-2" d="M53.68,29l.1.14h-.46a.53.53,0,0,0,.36-.14Z" transform="translate(0 0)"/><polygon class="cls-7" points="48.71 36.16 43.99 29.19 44.03 29.15 44.84 29.15 53.31 29.15 53.78 29.15 54.98 30.92 48.71 36.16 48.71 36.16"/><path class="cls-5" d="M53.49,14.5c1,0,1,1.77,0,1.77s-1-1.77,0-1.77Z" transform="translate(0 0)"/><path class="cls-2" d="M53.93,28.47h-.61l-.46-.68h.76l.18.28a.73.73,0,0,1,.13.4Z" transform="translate(0 0)"/><path class="cls-2" d="M52.56,28.47h.76l.36.54a.53.53,0,0,1-.36.14.61.61,0,0,1-.49-.27l-.27-.41Z" transform="translate(0 0)"/><path class="cls-6" d="M36.58,76.5l.41-.16V71.05c1.33.67,3,1.39,4.79,2.13v3.16l.41.16C51.35,80,55.59,83.33,56.11,85H22.66c.52-1.68,4.77-5,13.92-8.51Z" transform="translate(0 0)"/><polygon class="cls-2" points="52.56 28.47 52.1 27.79 52.86 27.79 53.31 28.47 52.56 28.47 52.56 28.47"/><polygon class="cls-2" points="52.56 28.47 45.85 28.47 46.67 27.79 52.1 27.79 52.56 28.47 52.56 28.47"/><polygon class="cls-5" points="50.14 24.89 52.1 27.79 46.67 27.79 50.14 24.89 50.14 24.89"/><path class="cls-5" d="M51.5,12.06c-1,0-1-1.77,0-1.77s1,1.77,0,1.77Z" transform="translate(0 0)"/><path class="cls-5" d="M50.9,12.73c1,0,1,1.77,0,1.77s-1-1.77,0-1.77Z" transform="translate(0 0)"/><path class="cls-5" d="M48.71,16.05c-1,0-1-1.77,0-1.77s1,1.77,0,1.77Z" transform="translate(0 0)"/><path class="cls-5" d="M48.11,12.5c-1,0-1-1.77,0-1.77s1,1.77,0,1.77Z" transform="translate(0 0)"/><polygon class="cls-2" points="46.67 27.79 45.65 27.79 50.26 23.93 52.86 27.79 52.1 27.79 50.14 24.89 46.67 27.79 46.67 27.79"/><path class="cls-2" d="M46.88,49.84c-.28.13-.56.24-.85.35l-.05,0A.42.42,0,0,0,46,50a.72.72,0,0,0-.42-.75h0l1.28.58Z" transform="translate(0 0)"/><path class="cls-2" d="M46,50.19l-.06,0v0l.05,0Z" transform="translate(0 0)"/><path class="cls-2" d="M53.32,29.15H44.84a.54.54,0,0,0,.37-.14l.64-.54h6.71l.27.41a.61.61,0,0,0,.49.27Z" transform="translate(0 0)"/><path class="cls-5" d="M45.73,14.94c-1,0-1-1.77,0-1.77s1,1.77,0,1.77Z" transform="translate(0 0)"/><polygon class="cls-2" points="45.85 28.47 44.84 28.47 45.65 27.79 46.67 27.79 45.85 28.47 45.85 28.47"/><polygon class="cls-2" points="45.65 27.79 44.64 27.79 50.38 22.98 53.62 27.79 52.86 27.79 50.26 23.93 45.65 27.79 45.65 27.79"/><path class="cls-2" d="M45.38,49.9l-2.73-1.24,2.84.57.11,0A.72.72,0,0,1,46,50a.42.42,0,0,1,0,.16l-.6-.27Z" transform="translate(0 0)"/><path class="cls-5" d="M45.26,11.84c-1,0-1-1.77,0-1.77s1,1.77,0,1.77Z" transform="translate(0 0)"/><path class="cls-2" d="M47.84,51.75l-2.61-1.19h0l.1,0a.55.55,0,0,0,.6-.36l.06,0c.29-.11.57-.22.85-.35l1.43.65a.72.72,0,0,1,.33.88.61.61,0,0,1-.56.42.67.67,0,0,1-.24,0Z" transform="translate(0 0)"/><path class="cls-4" d="M42.39,65.2l1.34.46a.38.38,0,0,0,.18,0,.61.61,0,0,0,.58-.48.68.68,0,0,0-.41-.84l-1.5-.53-.19-.07V57.42l2.14.53.13,0a.64.64,0,0,0,.6-.53.69.69,0,0,0-.47-.81l-2.4-.6V51.47l0-.33a17.7,17.7,0,0,0,2.72-.62l.17,0,2.61,1.19a.67.67,0,0,0,.24,0,.61.61,0,0,0,.56-.42.72.72,0,0,0-.33-.88l-1.43-.65A15.89,15.89,0,0,0,54,43.67l.18,0,2.83.85,1.63.49a.6.6,0,0,0,.74-.48.68.68,0,0,0-.43-.83l-1.18-.36c0-.48-.08-1-.13-1.48-.36-4-.8-9.06,0-12.22a4.14,4.14,0,0,1,1.73-2.77,86.65,86.65,0,0,1,3.87,10.35L68.34,51.6a.05.05,0,0,0,0,0,.3.3,0,0,0,0,.08l0,0,0,0s0,0,0,0v0l0,0,.1.08.06,0h0l19.15,7.82-2.66,5.71c-4.39.09-7.93,4.08-7.93,9a9.58,9.58,0,0,0,1.39,5l-1.91,4.1L68.16,79,68,78.88a97.55,97.55,0,0,1-13.59-2.79,121.63,121.63,0,0,1-11.76-4h0L42.39,72V65.2Z" transform="translate(0 0)"/><path class="cls-2" d="M45.11,50.51l-2.62-1.2,2.89.59.6.27v0l-.86.29Z" transform="translate(0 0)"/><path class="cls-2" d="M45.11,50.51l.86-.29a.55.55,0,0,1-.6.36l-.1,0h0l-.12-.05Z" transform="translate(0 0)"/><path class="cls-2" d="M45.11,50.51l.12.05-.17,0Z" transform="translate(0 0)"/><path class="cls-2" d="M44.53,58l-2.14-.53V56l2.4.6a.69.69,0,0,1,.47.81.64.64,0,0,1-.6.53l-.13,0Z" transform="translate(0 0)"/><path class="cls-2" d="M44.84,29.15a.61.61,0,0,1-.49-.27l.49-.41h1l-.64.54a.54.54,0,0,1-.37.14Z" transform="translate(0 0)"/><path class="cls-2" d="M44.84,28.47h-.61a.68.68,0,0,1,.24-.54l.17-.14h1l-.81.68Z" transform="translate(0 0)"/><path class="cls-2" d="M44.23,28.47h.61l-.49.41a.75.75,0,0,1-.12-.41Z" transform="translate(0 0)"/><path class="cls-2" d="M44.35,28.88a.61.61,0,0,0,.49.27H44l.32-.27Z" transform="translate(0 0)"/><path class="cls-2" d="M43,73.66v-.72c3.46,1.37,7.45,2.74,11.2,3.8a96.65,96.65,0,0,0,13.69,2.81l8.57,4.69,6.73,3.67,39.53,21.58v.76l-55-30A97,97,0,0,1,54.05,77.4c-3.61-1-7.51-2.34-11-3.74Z" transform="translate(0 0)"/><path class="cls-2" d="M42.6,72.06a121.63,121.63,0,0,0,11.76,4A97.55,97.55,0,0,0,68,78.88l.21.07,8.58,4.68-.28.61-8.57-4.69A96.65,96.65,0,0,1,54.2,76.74c-3.75-1.06-7.74-2.43-11.2-3.8V72.7a.7.7,0,0,0-.4-.64Z" transform="translate(0 0)"/><path class="cls-5" d="M42.87,14.28c-1,0-1-1.78,0-1.78s1,1.78,0,1.78Z" transform="translate(0 0)"/><path class="cls-2" d="M42.39,64.48v-.71l.19.07,1.5.53a.68.68,0,0,1,.41.84.61.61,0,0,1-.58.48.38.38,0,0,1-.18,0l-1.34-.46v-.72Z" transform="translate(0 0)"/><polygon class="cls-2" points="42.49 49.31 39.76 48.07 42.65 48.66 45.38 49.9 42.49 49.31 42.49 49.31"/><path class="cls-2" d="M42.39,72.7V72a1,1,0,0,1,.18,0h0a.7.7,0,0,1,.4.64v.24l-.61-.24Z" transform="translate(0 0)"/><path class="cls-2" d="M42.39,72v0l.18.07a1,1,0,0,0-.18,0Z" transform="translate(0 0)"/><path class="cls-2" d="M42.39,72.7l.61.24v.72l-.61-.24V72.7Z" transform="translate(0 0)"/><path class="cls-2" d="M41.82,72.47a.62.62,0,0,1,.57-.45v.68l-.57-.23Z" transform="translate(0 0)"/><path class="cls-4" d="M42.39,63.77c-2.28-.81-4.23-1.55-5.79-2.2l-.22-.09V55.94l6,1.48v6.35Z" transform="translate(0 0)"/><path class="cls-4" d="M36.38,62.92c1.59.66,3.54,1.4,5.82,2.21l.19.07V72a59.28,59.28,0,0,1-5.72-2.59h0l0,0-.24-.13V62.92Z" transform="translate(0 0)"/><path class="cls-2" d="M41.78,73.18V72.7a.59.59,0,0,1,0-.23l.57.23v.72l-.21-.08-.4-.16Z" transform="translate(0 0)"/><path class="cls-2" d="M41.87,28.21l-.16-.42h2.93l-.17.14a.68.68,0,0,0-.24.54H41.91a.78.78,0,0,0,0-.26Z" transform="translate(0 0)"/><path class="cls-5" d="M41.54,11.84c-1,0-1-1.77,0-1.77s1,1.77,0,1.77Z" transform="translate(0 0)"/><path class="cls-5" d="M41.54,16.72c-1,0-1-1.78,0-1.78s1,1.78,0,1.78Z" transform="translate(0 0)"/><path class="cls-2" d="M41.54,29.1a.67.67,0,0,0,.37-.63h2.32a.75.75,0,0,0,.12.41l-.32.27H41.56l0,0Z" transform="translate(0 0)"/><path class="cls-2" d="M41.54,29.1l-.24-.63h.61a.67.67,0,0,1-.37.63Z" transform="translate(0 0)"/><polygon class="cls-7" points="41.56 29.15 42.11 30.64 34.85 33.98 33.06 29.15 41.56 29.15 41.56 29.15"/><path class="cls-2" d="M41.91,28.47H41.3l-.25-.68h.66l.16.42a.78.78,0,0,1,0,.26Z" transform="translate(0 0)"/><path class="cls-2" d="M41.56,29.15h-8.5l0,0a.67.67,0,0,0,.37-.63h7.23l.1.26a.59.59,0,0,0,.8.37l0,0Z" transform="translate(0 0)"/><path class="cls-2" d="M41.54,29.1a.59.59,0,0,1-.8-.37l-.1-.26h.66l.24.63Z" transform="translate(0 0)"/><polygon class="cls-2" points="40.39 27.79 41.05 27.79 41.3 28.47 40.65 28.47 40.39 27.79 40.39 27.79"/><path class="cls-2" d="M33.56,27.79h6.83l.25.68H33.41a.78.78,0,0,0,0-.26l0-.07.22-.35Z" transform="translate(0 0)"/><polygon class="cls-5" points="38.78 23.45 40.39 27.79 33.56 27.79 34.59 26.13 33.98 25.66 38.78 23.45 38.78 23.45"/><path class="cls-4" d="M36.44,51.12a16.85,16.85,0,0,0,2.87.23h.15a19.13,19.13,0,0,0,2.88-.21l0,.33V56l-6-1.48V51.47l.06-.35Z" transform="translate(0 0)"/><path class="cls-5" d="M38.94,14.5c-1,0-1-1.77,0-1.77s1,1.77,0,1.77Z" transform="translate(0 0)"/><path class="cls-5" d="M38,11.84c-1,0-1-1.77,0-1.77s1,1.77,0,1.77Z" transform="translate(0 0)"/><path class="cls-2" d="M41.78,73.18C40,72.44,38.32,71.72,37,71.05v-.74c1.34.67,3,1.41,4.83,2.16a.59.59,0,0,0,0,.23v.48Z" transform="translate(0 0)"/><path class="cls-2" d="M37,70a.7.7,0,0,0-.32-.6A59.28,59.28,0,0,0,42.39,72v0a.62.62,0,0,0-.57.45C40,71.72,38.33,71,37,70.31V70Z" transform="translate(0 0)"/><path class="cls-2" d="M36.38,70.74V70l.61.32v.74l-.61-.31Z" transform="translate(0 0)"/><polygon class="cls-2" points="42.39 57.42 36.38 55.94 36.38 55.24 42.39 56.73 42.39 57.42 42.39 57.42"/><polygon class="cls-2" points="36.38 55.24 36.38 54.55 42.39 56.03 42.39 56.73 36.38 55.24 36.38 55.24"/><path class="cls-2" d="M36.38,62.2v-.72l.22.09c1.56.65,3.51,1.39,5.79,2.2v.71c-1.5-.52-3.88-1.39-6-2.28Z" transform="translate(0 0)"/><path class="cls-4" d="M25.32,44.36a16.9,16.9,0,0,0,11.12,6.76l-.06.35v3.08L32,53.47s-.22-.07-.56-.21c-2.2-.88-9.21-4.15-8-9.45a2.79,2.79,0,0,1,1.07.22h0l.06,0c.24.08.5.18.77.3Z" transform="translate(0 0)"/><path class="cls-2" d="M36.38,69.31v-.08l.24.13a.6.6,0,0,0-.24,0Z" transform="translate(0 0)"/><path class="cls-5" d="M36.31,16.94c-1,0-1-1.78,0-1.78s1,1.78,0,1.78Z" transform="translate(0 0)"/><path class="cls-2" d="M37,70.31,36.38,70v-.68a.6.6,0,0,1,.24,0l0,0h0A.7.7,0,0,1,37,70v.32Z" transform="translate(0 0)"/><path class="cls-2" d="M42.2,65.13c-2.28-.81-4.23-1.55-5.82-2.21V62.2c2.13.89,4.51,1.76,6,2.28v.72l-.19-.07Z" transform="translate(0 0)"/><path class="cls-2" d="M36.38,70l-.54-.3a.6.6,0,0,1,.54-.38V70Z" transform="translate(0 0)"/><path class="cls-4" d="M35.15,62.4l1,.44.21.08v6.31a9,9,0,0,1-2-1.33,4.41,4.41,0,0,1-1-3.6,2.47,2.47,0,0,1,1.8-1.9Z" transform="translate(0 0)"/><path class="cls-2" d="M35.77,70.42V70a.73.73,0,0,1,.07-.3l.54.3v.75l-.26-.14-.35-.18Z" transform="translate(0 0)"/><path class="cls-2" d="M35.25,62.37a.65.65,0,0,0,.42-.47l.71.3v.72l-.21-.08-1-.44.1,0Z" transform="translate(0 0)"/><path class="cls-5" d="M35.58,12.11c1,0,1,1.77,0,1.77s-1-1.77,0-1.77Z" transform="translate(0 0)"/><path class="cls-2" d="M35.68,61.53a.67.67,0,0,0-.4-.46l0-.07,0,0c.34.16.7.31,1.05.46v.72l-.71-.3a.66.66,0,0,0,0-.37Z" transform="translate(0 0)"/><path class="cls-2" d="M35.28,61.07a.68.68,0,0,1,.39.83l-.56-.25-.79-.36a4.32,4.32,0,0,1,.61-.23.52.52,0,0,1,.35,0Z" transform="translate(0 0)"/><polygon class="cls-5" points="34.59 26.13 33.56 27.79 33.21 27.79 32.65 26.28 33.59 25.85 33.66 25.81 33.98 25.66 34.59 26.13 34.59 26.13"/><path class="cls-2" d="M35.11,61.66l0,.05a3.77,3.77,0,0,0-.76.32l-.71-.34a3.57,3.57,0,0,1,.7-.4l.79.36Z" transform="translate(0 0)"/><path class="cls-2" d="M35.67,61.9a.65.65,0,0,1-.42.47l-.1,0-.27-.12L34.33,62a3.77,3.77,0,0,1,.76-.32l0-.05h0l.56.25Z" transform="translate(0 0)"/><path class="cls-5" d="M34.15,10.07c1,0,1,1.77,0,1.77s-1-1.77,0-1.77Z" transform="translate(0 0)"/><path class="cls-2" d="M38.78,23.45,34,25.66l-.1-.07A.73.73,0,0,0,34,25l5.16-2.38,1.94,5.22h-.66l-1.61-4.34Z" transform="translate(0 0)"/><path class="cls-2" d="M33.66,25.81a.58.58,0,0,0,.22-.22l.1.07-.32.15Z" transform="translate(0 0)"/><path class="cls-2" d="M33.88,25.59l-.5-.38L34,25a.73.73,0,0,1-.07.64Z" transform="translate(0 0)"/><path class="cls-2" d="M34,25a.73.73,0,0,0-.22-.3l-.28-.21,6-2.76,2.27,6.11h-.66l-1.94-5.22L34,25Z" transform="translate(0 0)"/><path class="cls-2" d="M33.38,25.21l.5.38a.58.58,0,0,1-.22.22l-.07,0a.58.58,0,0,1-.56-.09l-.32-.25.67-.3Z" transform="translate(0 0)"/><path class="cls-2" d="M34,25l-.57.26-.6-.46.67-.31.28.21A.73.73,0,0,1,34,25Z" transform="translate(0 0)"/><path class="cls-2" d="M33.34,28.14l0,.07a.78.78,0,0,1,0,.26h-.27l.2-.33Z" transform="translate(0 0)"/><polygon class="cls-2" points="33.21 27.79 33.56 27.79 33.34 28.14 33.21 27.79 33.21 27.79"/><path class="cls-2" d="M34.4,67.9a9,9,0,0,0,2,1.33v.08a.6.6,0,0,0-.54.38A10.42,10.42,0,0,1,34,68.42c-1.29-1.25-2.32-5,.33-6.39l.55.25.27.12a2.47,2.47,0,0,0-1.8,1.9,4.41,4.41,0,0,0,1,3.6Z" transform="translate(0 0)"/><path class="cls-2" d="M33.14,28.47h.27a.67.67,0,0,1-.37.63l-.11-.3.21-.33Z" transform="translate(0 0)"/><path class="cls-2" d="M33,29.1l0,0H32.8a.69.69,0,0,0,.24,0Z" transform="translate(0 0)"/><path class="cls-5" d="M32.87,14.94c1,0,1,1.78,0,1.78s-1-1.78,0-1.78Z" transform="translate(0 0)"/><polygon class="cls-2" points="32.8 28.47 33.14 28.47 32.93 28.8 32.8 28.47 32.8 28.47"/><polygon class="cls-2" points="33.34 28.14 33.14 28.47 32.8 28.47 32.55 27.79 33.21 27.79 33.34 28.14 33.34 28.14"/><path class="cls-2" d="M32.93,28.8l.11.3a.69.69,0,0,1-.24,0h-.08l.21-.34Z" transform="translate(0 0)"/><path class="cls-2" d="M32.72,29.14h0Z" transform="translate(0 0)"/><polygon class="cls-7" points="32.71 29.15 30.14 33.31 24.71 29.15 32.71 29.15 32.71 29.15"/><polygon class="cls-2" points="33.38 25.21 32.71 25.51 32.11 25.06 32.78 24.75 33.38 25.21 33.38 25.21"/><path class="cls-2" d="M34,68.42a10.42,10.42,0,0,0,1.84,1.27.73.73,0,0,0-.07.3v.43a11,11,0,0,1-2.17-1.49A5.87,5.87,0,0,1,32.16,64a3.67,3.67,0,0,1,1.46-2.3l.71.34c-2.65,1.43-1.62,5.14-.33,6.39Z" transform="translate(0 0)"/><path class="cls-2" d="M33,25.76a.58.58,0,0,0,.56.09l-.94.43.56,1.51h-.66l-.7-1.88.86-.4.32.25Z" transform="translate(0 0)"/><path class="cls-2" d="M32.93,28.8l-.21.34a.62.62,0,0,1-.48-.41l-.09-.26h.65l.13.33Z" transform="translate(0 0)"/><path class="cls-5" d="M32.1,11.84c1,0,1,1.77,0,1.77s-1-1.77,0-1.77Z" transform="translate(0 0)"/><polygon class="cls-2" points="32.55 27.79 32.8 28.47 32.15 28.47 31.89 27.79 32.55 27.79 32.55 27.79"/><polygon class="cls-5" points="32.11 25.06 31.06 25.54 31.89 27.79 24.77 27.79 28.28 22.12 32.11 25.06 32.11 25.06"/><path class="cls-2" d="M31.89,27.79l.26.68H24.42a.41.41,0,0,0,0-.11l.36-.57Z" transform="translate(0 0)"/><path class="cls-4" d="M25.32,44.36a54.42,54.42,0,0,1,6.36,3.42.8.8,0,0,0,.2.07l13.18,2.67a17.7,17.7,0,0,1-2.72.62,19.13,19.13,0,0,1-2.88.21h-.15a17.39,17.39,0,0,1-14-7Z" transform="translate(0 0)"/><polygon class="cls-2" points="32.71 25.51 31.85 25.91 32.55 27.79 31.89 27.79 31.06 25.54 32.11 25.06 32.71 25.51 32.71 25.51"/><path class="cls-2" d="M36.38,55.94l-4.7-1.16-.14-.05a.74.74,0,0,0-.18-.75l-.08-.06c.34.14.54.2.54.2l4.56,1.13v.69Z" transform="translate(0 0)"/><path class="cls-4" d="M31.54,54.73l.14.05,4.7,1.16v5.54c-.35-.15-.71-.3-1.05-.46l0,0a19.31,19.31,0,0,1-2.49-1.27A4,4,0,0,1,31,57a2.73,2.73,0,0,1,.47-2.07.53.53,0,0,0,.11-.21Z" transform="translate(0 0)"/><path class="cls-2" d="M31.06,53.84a.65.65,0,0,1,.22.08l-.06,0-.16-.06Z" transform="translate(0 0)"/><path class="cls-2" d="M31.36,54a.74.74,0,0,1,.18.75,5.34,5.34,0,0,1-.52-.19l-.06,0h0l.26-.6h0l.06,0,.08.06Z" transform="translate(0 0)"/><path class="cls-2" d="M35.3,61l0,.07a.52.52,0,0,0-.35,0,4.32,4.32,0,0,0-.61.23,18,18,0,0,1-1.82-1c-2.18-1.43-2.79-4.13-1.54-5.8l.06,0a5.34,5.34,0,0,0,.52.19.53.53,0,0,1-.11.21A2.73,2.73,0,0,0,31,57a4,4,0,0,0,1.85,2.72A19.31,19.31,0,0,0,35.3,61Z" transform="translate(0 0)"/><path class="cls-2" d="M32.5,60.32a18,18,0,0,0,1.82,1,3.57,3.57,0,0,0-.7.4c-.56-.28-1-.54-1.42-.78a5.43,5.43,0,0,1-2.44-3.67,4.19,4.19,0,0,1,.6-3l.6.26c-1.25,1.67-.64,4.37,1.54,5.8Z" transform="translate(0 0)"/><path class="cls-2" d="M31.22,53.91l-.26.6h0l-.6-.26.14-.19a.56.56,0,0,1,.56-.23l.16.06Z" transform="translate(0 0)"/><path class="cls-2" d="M30.11,33.39a53.94,53.94,0,0,1,7.47,4L54.1,42.29c-.08.14-.16.28-.23.42a.71.71,0,0,0-.08.18L37.35,38A55.33,55.33,0,0,0,29.9,34l.21-.64Z" transform="translate(0 0)"/><path class="cls-7" d="M32.8,29.15h.26L34.85,34l7.26-3.34-.55-1.49H44l0,0,4.72,7L55,30.92l-1.2-1.77h2.59a26.71,26.71,0,0,0-.7,6.79,13.87,13.87,0,0,1-1.57,6.35L37.58,37.35a53.94,53.94,0,0,0-7.47-4l0-.08,2.57-4.16Z" transform="translate(0 0)"/><path class="cls-5" d="M29.79,10.29c1,0,1,1.77,0,1.77s-1-1.77,0-1.77Z" transform="translate(0 0)"/><path class="cls-5" d="M29.79,13.87c1,0,1,1.77,0,1.77s-1-1.77,0-1.77Z" transform="translate(0 0)"/><polygon class="cls-2" points="28.13 21.18 32.78 24.75 32.11 25.06 28.28 22.12 24.77 27.79 24.03 27.79 28.13 21.18 28.13 21.18"/><path class="cls-5" d="M27.8,11.84c1,0,1,1.77,0,1.77s-1-1.77,0-1.77Z" transform="translate(0 0)"/><path class="cls-5" d="M26.6,14.28c1,0,1,1.77,0,1.77s-1-1.77,0-1.77Z" transform="translate(0 0)"/><path class="cls-4" d="M29.69,34.67A53.93,53.93,0,0,1,37,38.57l.15.07,16.84,5a15.89,15.89,0,0,1-7.15,6.17l-1.28-.58L33.24,43.64c-2.05-1-7.55-4.19-8.38-7.31a2.7,2.7,0,0,1,.32-2.21c.3-.5,1.64-.62,4.51.55Z" transform="translate(0 0)"/><path class="cls-5" d="M26,10.29c1,0,1,1.77,0,1.77s-1-1.77,0-1.77Z" transform="translate(0 0)"/><path class="cls-2" d="M25.25,43.6A54.48,54.48,0,0,1,32,47.19l10.51,2.12,2.62,1.2h0L31.88,47.85a.8.8,0,0,1-.2-.07,54.42,54.42,0,0,0-6.36-3.42h0L25,43.94a.69.69,0,0,0,.22-.34Z" transform="translate(0 0)"/><path class="cls-2" d="M25.06,42.81a49.35,49.35,0,0,1,7.13,3.73l7.57,1.53,2.73,1.24L32,47.19a54.48,54.48,0,0,0-6.73-3.59.69.69,0,0,0-.08-.59,2,2,0,0,1-.11-.2Z" transform="translate(0 0)"/><path class="cls-2" d="M24.68,43.39l.57.21a.69.69,0,0,1-.22.34c-.12-.18-.24-.36-.35-.55Z" transform="translate(0 0)"/><path class="cls-2" d="M29.9,34A55.33,55.33,0,0,1,37.35,38l16.44,4.91a.73.73,0,0,0,.26.75l0,0-16.84-5L37,38.57a53.93,53.93,0,0,0-7.35-3.9c-2.87-1.17-4.21-1.05-4.51-.55a2.7,2.7,0,0,0-.32,2.21c.83,3.12,6.33,6.34,8.38,7.31L45.6,49.26h0l-.11,0-2.84-.57L33,44.27s-11.4-5.43-8.33-10.53c.68-1.13,2.86-.68,5.23.29Z" transform="translate(0 0)"/><path class="cls-2" d="M32.24,28.73a.62.62,0,0,0,.48.41h-8l-.39-.29a.84.84,0,0,0,.1-.39h7.73l.09.26Z" transform="translate(0 0)"/><path class="cls-2" d="M25,43.94l.29.42c-.27-.12-.53-.22-.77-.3h.12A.59.59,0,0,0,25,44Z" transform="translate(0 0)"/><path class="cls-2" d="M25,44a.59.59,0,0,1-.35.12h-.12l-.06,0h0a.64.64,0,0,1-.29-.25c-.13-.21-.25-.41-.36-.62a6.6,6.6,0,0,1,.86.23h0c.11.19.23.37.35.55Z" transform="translate(0 0)"/><path class="cls-2" d="M24.42,28.47h0a.7.7,0,0,1-.11.38l-.49-.38Z" transform="translate(0 0)"/><path class="cls-2" d="M24.42,28.47h0a.84.84,0,0,1-.1.39h0a.7.7,0,0,0,.11-.38Z" transform="translate(0 0)"/><path class="cls-2" d="M25.17,43a.69.69,0,0,1,.08.59l-.57-.21h0q-.26-.41-.48-.84a4.51,4.51,0,0,1,.61.18h.06l.2.07a2,2,0,0,0,.11.2Z" transform="translate(0 0)"/><path class="cls-5" d="M24.21,12.5c1,0,1,1.78,0,1.78s-1-1.78,0-1.78Z" transform="translate(0 0)"/><path class="cls-2" d="M33,44.27l9.65,4.39-2.89-.59-7-3.17c-.33-.16-7.91-3.81-9.08-8.18a4.74,4.74,0,0,1-.15-1.16,4.31,4.31,0,0,1,.62-2.2c.78-1.29,2.72-1.28,5.95,0L29.9,34c-2.37-1-4.55-1.42-5.23-.29C21.6,38.84,33,44.27,33,44.27Z" transform="translate(0 0)"/><path class="cls-2" d="M24.77,27.79l-.36.57a.41.41,0,0,1,0,.11h0a.68.68,0,0,0-.42-.64l0,0Z" transform="translate(0 0)"/><path class="cls-2" d="M24,27.83a.68.68,0,0,1,.42.64h-.61l-.14-.11.33-.53Z" transform="translate(0 0)"/><path class="cls-2" d="M24,27.79l0,0-.18,0Z" transform="translate(0 0)"/><path class="cls-2" d="M24.31,28.85h0a.63.63,0,0,1-.38.28.63.63,0,0,0,.37-.29Z" transform="translate(0 0)"/><path class="cls-2" d="M24.71,29.15h-.77a.63.63,0,0,0,.38-.28l.39.29Z" transform="translate(0 0)"/><path class="cls-2" d="M24,27.83l-.33.53.14.11h-.6a.65.65,0,0,1,.6-.68h0l.18,0Z" transform="translate(0 0)"/><path class="cls-7" d="M30.14,33.31l0,.08c-3.23-1.31-5.17-1.32-5.95,0a4.31,4.31,0,0,0-.62,2.2H23.1a26.67,26.67,0,0,0-.67-6.41h2.28l5.43,4.16Z" transform="translate(0 0)"/><path class="cls-2" d="M28,20.24l5.48,4.2-.67.31-4.65-3.57L24,27.79h-.75L28,20.24Z" transform="translate(0 0)"/><path class="cls-2" d="M24.19,42.55q.22.44.48.84a6.6,6.6,0,0,0-.86-.23c-.13-.23-.26-.47-.37-.71a3.23,3.23,0,0,1,.75.1Z" transform="translate(0 0)"/><path class="cls-2" d="M31.43,53.26c.34.14.55.21.56.21l4.39,1.08v.7l-4.56-1.13s-.2-.06-.54-.2a.65.65,0,0,0-.22-.08c-2.42-1-9.69-4.5-8.22-10.39.08-.31.44-.38,1-.29.11.21.23.41.36.62a.64.64,0,0,0,.29.25,2.79,2.79,0,0,0-1.07-.22c-1.17,5.3,5.84,8.57,8,9.45Z" transform="translate(0 0)"/><path class="cls-2" d="M23.82,28.47l.49.38a.63.63,0,0,1-.37.29h-.13a.65.65,0,0,1-.6-.68h.61Z" transform="translate(0 0)"/><path class="cls-2" d="M23.28,27.79h.53a.65.65,0,0,0-.6.68h-.34l.41-.68Z" transform="translate(0 0)"/><path class="cls-2" d="M23.21,28.47a.65.65,0,0,0,.6.68H23.6l-.76-.64,0,0Z" transform="translate(0 0)"/><path class="cls-7" d="M23.69,36.72c1.17,4.37,8.75,8,9.08,8.18l7,3.17-7.57-1.53a49.35,49.35,0,0,0-7.13-3.73,13.37,13.37,0,0,1-2-6.87v-.38h.44a4.74,4.74,0,0,0,.15,1.16Z" transform="translate(0 0)"/><path class="cls-5" d="M22.62,15.16c1,0,1,1.78,0,1.78s-1-1.78,0-1.78Z" transform="translate(0 0)"/><path class="cls-2" d="M22,85.69c-1-4,14.35-9.83,14.35-9.83V70.74l.61.31v5.29l-.41.16C27.43,80,23.18,83.33,22.66,85H56.11c-.52-1.68-4.76-5-13.92-8.51l-.41-.16V73.18l.4.16.21.08v2.44s15.31,5.8,14.34,9.83Z" transform="translate(0 0)"/><path class="cls-2" d="M22.84,43.45c-1.47,5.89,5.8,9.39,8.22,10.39a.56.56,0,0,0-.56.23l-.14.19c-3-1.3-9.62-4.95-8.11-11a1.08,1.08,0,0,1,.48-.65,1.28,1.28,0,0,1,.7-.17h0c.11.24.24.48.37.71-.53-.09-.89,0-1,.29Z" transform="translate(0 0)"/><path class="cls-2" d="M22.87,28.47l0,0,.76.64H22.43c-.06-.23-.12-.46-.19-.68Z" transform="translate(0 0)"/><path class="cls-5" d="M22.16,10.07c1,0,1,1.77,0,1.77s-1-1.77,0-1.77Z" transform="translate(0 0)"/><path class="cls-2" d="M22.24,28.47c.07.22.13.45.19.68h-.49l-.15,0c-.06-.19-.11-.38-.17-.56l.32-.1Z" transform="translate(0 0)"/><path class="cls-2" d="M22,27.79h1.27l-.41.68h-.63s0-.09,0-.13c-.06-.19-.13-.37-.19-.55Z" transform="translate(0 0)"/><path class="cls-2" d="M22,27.79c.06.18.13.36.19.55,0,0,0,.08,0,.13h-.3l-.32.1c-.05-.17-.11-.34-.17-.5a.58.58,0,0,1,.49-.28Z" transform="translate(0 0)"/><path class="cls-2" d="M28.59,78.65a76.62,76.62,0,0,1,7.18-3.27v-5l.35.18.26.14v5.12S21.07,81.66,22,85.69h34.7c1-4-14.34-9.83-14.34-9.83V73.42l.61.24v1.72a75.29,75.29,0,0,1,7.19,3.27c5.29,2.79,7.63,5.15,7.13,7.22l-.12.5H21.57l-.12-.51c-.5-2.06,1.84-4.42,7.14-7.21Z" transform="translate(0 0)"/><path class="cls-2" d="M23.1,35.94a13.37,13.37,0,0,0,2,6.87l-.2-.07H24.8a4.51,4.51,0,0,0-.61-.18,14.16,14.16,0,0,1-1.7-6.61,26.66,26.66,0,0,0-.7-6.81l.15,0h.49a26.67,26.67,0,0,1,.67,6.41v.38Z" transform="translate(0 0)"/><path class="cls-2" d="M21.45,28.07c.06.16.12.33.17.5s.11.37.17.56a.66.66,0,0,1-.44-.46.64.64,0,0,1,0-.2.68.68,0,0,1,.13-.4Z" transform="translate(0 0)"/><path class="cls-2" d="M22.49,35.94a14.16,14.16,0,0,0,1.7,6.61,3.23,3.23,0,0,0-.75-.1h0a14.79,14.79,0,0,1-1.55-6.51,23.75,23.75,0,0,0-.83-7.14l.3-.13a.66.66,0,0,0,.44.46,26.66,26.66,0,0,1,.7,6.81Z" transform="translate(0 0)"/><path class="cls-5" d="M21,12.73c1,0,1,1.77,0,1.77s-1-1.77,0-1.77Z" transform="translate(0 0)"/><path class="cls-2" d="M20.75,8.24H65.54s1.07,11.28-4.72,15.32A9,9,0,0,0,58.45,26,4.47,4.47,0,0,0,57,27.82a.4.4,0,0,0-.15,0h0A10.06,10.06,0,0,1,60.49,23C65.16,19.74,65.08,11.26,65,8.92H20.15V8.77a.59.59,0,0,0,.23,0,.68.68,0,0,0,.37-.48Z" transform="translate(0 0)"/><path class="cls-2" d="M20.71,7.84a.79.79,0,0,1,0,.4h-.6V8.09c-.06-.18-.13-.35-.2-.53h.66c0,.09.07.19.1.28Z" transform="translate(0 0)"/><path class="cls-2" d="M20.75,8.24a.68.68,0,0,1-.37.48.59.59,0,0,1-.23,0,.63.63,0,0,1-.57-.42.49.49,0,0,0,0-.11h1.21Z" transform="translate(0 0)"/><path class="cls-2" d="M20.15,8.09v.15h-.61c-.08-.23-.17-.46-.26-.68H20c.07.18.14.35.2.53Z" transform="translate(0 0)"/><path class="cls-5" d="M18.83,11.39c1,0,1,1.78,0,1.78s-1-1.78,0-1.78Z" transform="translate(0 0)"/><path class="cls-5" d="M18,14.5c1,0,1,1.77,0,1.77s-1-1.77,0-1.77Z" transform="translate(0 0)"/><path class="cls-8" d="M16.07,3.35a9.36,9.36,0,0,1,3.21,4.21H12.41l-.07.59A27.87,27.87,0,0,0,12.41,14L1.71,6A10.47,10.47,0,0,1,8.1,1.57a9.69,9.69,0,0,1,8,1.78Z" transform="translate(0 0)"/><path class="cls-5" d="M16,10.29c1,0,1,1.77,0,1.77s-1-1.77,0-1.77Z" transform="translate(0 0)"/><path class="cls-5" d="M15.44,12.73c1,0,1,1.77,0,1.77s-1-1.77,0-1.77Z" transform="translate(0 0)"/><path class="cls-2" d="M18.25,23A9.31,9.31,0,0,1,22,27.79h-.07a.58.58,0,0,0-.49.28,8.58,8.58,0,0,0-3.51-4.51c-2.64-1.7-4-4.64-4.57-7.51a.58.58,0,0,0,.37-.29.66.66,0,0,0,.09-.51c.68,3.68,2.17,6.28,4.42,7.72Z" transform="translate(0 0)"/><path class="cls-2" d="M20.15,8.77v.15H13.5a26.9,26.9,0,0,0,.33,6.3.67.67,0,0,0-.26-.4l-.49-.36A27.06,27.06,0,0,1,13,8.24h6.59a.49.49,0,0,1,0,.11.63.63,0,0,0,.57.42Z" transform="translate(0 0)"/><path class="cls-2" d="M13.57,14.82a.67.67,0,0,1,.26.4v0a.66.66,0,0,1-.09.51.58.58,0,0,1-.37.29c0-.23-.09-.44-.14-.66s-.1-.63-.15-.93l.49.36Z" transform="translate(0 0)"/><path class="cls-2" d="M21.45,28.07a.68.68,0,0,0-.13.4.64.64,0,0,0,0,.2l-.3.13a8.23,8.23,0,0,0-3.41-4.66c-2.51-1.61-4.17-4.41-5-8.34l.21.15a.52.52,0,0,0,.33.11h.14c.62,2.87,1.93,5.81,4.57,7.51a8.58,8.58,0,0,1,3.51,4.51Z" transform="translate(0 0)"/><path class="cls-2" d="M13.08,14.46q.08.45.15.93l-.7-.53c0-.3-.09-.61-.12-.9l.67.5Z" transform="translate(0 0)"/><path class="cls-2" d="M19.28,7.56c.09.22.18.45.26.68H13a27.06,27.06,0,0,0,.13,6.22l-.67-.5a27.87,27.87,0,0,1-.07-5.81l.07-.59Z" transform="translate(0 0)"/><g class="cls-9"><path class="cls-2" d="M12.53,14.86l.7.53c0,.22.09.43.14.66h-.14A.52.52,0,0,1,12.9,16l-.21-.15a2.74,2.74,0,0,1,0-.28c0-.22-.08-.44-.11-.66Z" transform="translate(0 0)"/><path class="cls-2" d="M20,7.56A10.15,10.15,0,0,0,16.4,2.78C11.25-1,4.29.48.85,6.21l11.68,8.65c0,.22.07.44.11.66a2.74,2.74,0,0,0,0,.28L0,6.4l.34-.57c3.62-6,11-7.65,16.4-3.61a10.79,10.79,0,0,1,3.87,5.34Z" transform="translate(0 0)"/><path class="cls-2" d="M20,7.56h-.67a9.36,9.36,0,0,0-3.21-4.21,9.69,9.69,0,0,0-8-1.78A10.47,10.47,0,0,0,1.71,6L12.41,14c0,.29.07.6.12.9L.85,6.21C4.29.48,11.25-1,16.4,2.78A10.15,10.15,0,0,1,20,7.56Z" transform="translate(0 0)"/></g></g></g></g></svg>