<svg xmlns="http://www.w3.org/2000/svg" xmlns:xlink="http://www.w3.org/1999/xlink" width="80.19" height="47.34" viewBox="0 0 80.19 47.34"><defs><style>.cls-1,.cls-5,.cls-6{fill:none;}.cls-2{fill:#fff;}.cls-3{fill:#fed208;}.cls-4{fill:#1a2954;}.cls-5,.cls-6{stroke:#1a2954;stroke-miterlimit:10;stroke-width:1.5px;}.cls-6{stroke-dasharray:5 4;}.cls-7{clip-path:url(#clip-path);}</style><clipPath id="clip-path" transform="translate(0.22 0.32)"><rect class="cls-1" width="79.75" height="46.7"/></clipPath></defs><title>Asset 7</title><g id="Layer_2" data-name="Layer 2"><g id="BG"><g id="Icons"><path class="cls-2" d="M70,31.25A4.75,4.75,0,0,1,65.3,36H64.22a25.33,25.33,0,0,0,.42-9.5h.66A4.76,4.76,0,0,1,70,31.25Z" transform="translate(0.22 0.32)"/><path class="cls-3" d="M59.32,26.5H39.82c3.18-6.73-1-8.69-1.22-8.78,1,0,2.09,0,3.26,0,2.15,0,4.46.11,6.29.27s3,.38,3.29.72C52.72,23,60,21.83,60.62,19.8c.05-.17.13-.42.23-.72,0,0,2.87,2.05,3.79,7.42a25.33,25.33,0,0,1-.42,9.5c-.23,1.08-.52,2.21-.9,3.42a2,2,0,0,1-.59-.39l-1-.91-1,.91a2,2,0,0,1-2.67.1,17.75,17.75,0,0,0,1.14-3.07,19.28,19.28,0,0,0,0-9.56Z" transform="translate(0.22 0.32)"/><path class="cls-3" d="M63.91,13.38c.16.11.27.33.25.75-.07,1.41-2.26,2-2.26,2,.37-1,.73-2,1-2.64,0,0,.67-.38,1-.11Z" transform="translate(0.22 0.32)"/><path class="cls-4" d="M63.14,12.74s-.12-4-3.79-3.57c-2.05.25-4.72.18-6.11-.81-.88-.63-1.24-1.63-.61-3.15a1,1,0,0,1,1.49-.35c1,.8,3,1.81,7.11,1.66,6.73-.26,2.68,6.86,2.68,6.86-.37-.27-1,.11-1,.11l.27-.75Z" transform="translate(0.22 0.32)"/><path class="cls-3" d="M62.73,39a2,2,0,0,0,.59.39q-.37,1.24-.87,2.58a8.46,8.46,0,0,1-1.79,2.88,1.36,1.36,0,0,1-2.32-1.17l.24-1.3a.52.52,0,0,0-.51-.6h-.13a.68.68,0,0,1-.74-1,17.57,17.57,0,0,0,.93-1.68A2,2,0,0,0,60.8,39l1-.91,1,.91Z" transform="translate(0.22 0.32)"/><path class="cls-2" d="M59.32,26.5a19.28,19.28,0,0,1,0,9.56L59,36H52.17c.65,0,1.25-.53,1.68-1.4a7.64,7.64,0,0,0,.69-3.35c0-2.62-1.06-4.75-2.37-4.75Z" transform="translate(0.22 0.32)"/><path class="cls-4" d="M60.87,12.21s-.45,3.16-2.72,2.78a1.59,1.59,0,0,1-.33-.08c-.83-.28-1-1-.9-1.84a11,11,0,0,1,.34-1.62l3.61.76Z" transform="translate(0.22 0.32)"/><path class="cls-2" d="M59,17.4a3.21,3.21,0,0,1-.24,1,9.33,9.33,0,0,1-4.83-1,7.07,7.07,0,0,1,.09-1.5c1.64.21,4.21.66,5,1.44Z" transform="translate(0.22 0.32)"/><path class="cls-2" d="M58.79,18.44a2.71,2.71,0,0,1-2.67,1.68c-1.69,0-2.1-1.45-2.16-2.66a9.33,9.33,0,0,0,4.83,1Z" transform="translate(0.22 0.32)"/><path class="cls-3" d="M58.15,15c2.27.38,2.72-2.78,2.72-2.78l-3.61-.76a11,11,0,0,0-.34,1.62c-.14.82-.05,1.56.9,1.84a1.59,1.59,0,0,0,.33.08Zm-2.81-3.94-2.67-.57.48-2,.09-.12c1.39,1,4.06,1.06,6.11.81,3.67-.44,3.79,3.57,3.79,3.57l-.27.75c-.24.64-.6,1.63-1,2.64s-.79,2.19-1,2.95c-.1.3-.18.55-.23.72-.61,2-7.9,3.24-9.18-1.06a6.12,6.12,0,0,1,0-3l.55-2.3a1.69,1.69,0,0,0,.61.5,1.92,1.92,0,0,0,.42.16l.24,0c1,.18,1.44-.44,1.66-1.24a10.19,10.19,0,0,0,.42-1.81ZM54.05,16a7.07,7.07,0,0,0-.09,1.5c.06,1.21.47,2.7,2.16,2.66a2.71,2.71,0,0,0,2.67-1.68,3.21,3.21,0,0,0,.24-1c-.77-.78-3.34-1.23-5-1.44Z" transform="translate(0.22 0.32)"/><path class="cls-4" d="M54.92,12.86c-.29.76-.78,1.36-1.66,1.24l-.24,0a1.92,1.92,0,0,1-.42-.16,1.64,1.64,0,0,1-.61-.52l.68-2.89,2.67.57a10.19,10.19,0,0,1-.42,1.81Z" transform="translate(0.22 0.32)"/><path class="cls-2" d="M52.17,26.5c1.31,0,2.37,2.13,2.37,4.75a7.64,7.64,0,0,1-.69,3.35c-.43.87-1,1.4-1.68,1.4H35.64C35,36,34.4,35.47,34,34.6a7.63,7.63,0,0,1-.7-3.35c0-2.62,1.06-4.75,2.37-4.75H52.17Z" transform="translate(0.22 0.32)"/><path class="cls-4" d="M51.69,10.28l1,.2L52,13.37a3.61,3.61,0,0,1-.4-2.53v-.05c0-.23.08-.41.1-.51Z" transform="translate(0.22 0.32)"/><path class="cls-3" d="M48.15,18V18c-1.83-.16-4.14-.24-6.29-.27v-.1A32.17,32.17,0,0,1,38.61,4.77c0-.21,0-.42,0-.63a8.62,8.62,0,0,1,.47-2.8,1.36,1.36,0,0,1,2.6.12L42,2.74a.52.52,0,0,0,.51.39A.47.47,0,0,0,42.79,3a.67.67,0,0,1,1.09.61A18.63,18.63,0,0,0,48.15,18Z" transform="translate(0.22 0.32)"/><path class="cls-4" d="M35.45,17.74c.17,0,1.42,0,3.15,0,.19.09,4.4,2.05,1.22,8.78H30a2.55,2.55,0,0,1,.81-.88l-.06-.09C31.81,18.4,25.6,20,25.6,20a10.23,10.23,0,0,1,1.17-1.52l.15-.16c3.71-3.81,7.08-1.8,8.53-.57Z" transform="translate(0.22 0.32)"/><path class="cls-2" d="M30,26.5h5.68c-1.31,0-2.37,2.13-2.37,4.75A7.63,7.63,0,0,0,34,34.6c.43.87,1,1.4,1.67,1.4H29.52c-.44-3.17-.73-7.46.44-9.5Z" transform="translate(0.22 0.32)"/><path class="cls-3" d="M30.71,25.53l.06.09a2.55,2.55,0,0,0-.81.88h0c-1.17,2-.88,6.33-.44,9.5.13,1,.29,1.94.42,2.62l0,.22a2,2,0,0,1-1.23-.54l-1-.92-1,.92a2,2,0,0,1-2.78,0l-.48-.45c-.07-.45-.16-1.08-.24-1.85a37.29,37.29,0,0,1,.07-9.49A16.89,16.89,0,0,1,25.6,20s6.21-1.59,5.11,5.54Z" transform="translate(0.22 0.32)"/><path class="cls-4" d="M21.38,26.38c.82-7.87-4.31-6.32-4.51-6.27a11,11,0,0,1,1-1.29,6,6,0,0,1,9.07-.51l-.15.16A10.23,10.23,0,0,0,25.6,20a16.89,16.89,0,0,0-2.23,6.52h-2s0-.08,0-.12Z" transform="translate(0.22 0.32)"/><path class="cls-3" d="M24,38.3a2,2,0,0,0,2.78,0l1-.92,1,.92a2,2,0,0,0,1.23.54A3.22,3.22,0,0,1,29.46,41l-1.14,1.71a7.29,7.29,0,0,1-2.77,2.69l-1.86.82a1.26,1.26,0,0,1-.49.1,2.39,2.39,0,0,1-1.79-1.14,1.84,1.84,0,0,1-.11-1.88l2.13-4.11A1.87,1.87,0,0,0,23.57,38a.55.55,0,0,0,0-.17l.48.45Z" transform="translate(0.22 0.32)"/><path class="cls-3" d="M14.35,36a37.41,37.41,0,0,1,.22-9.46,17.18,17.18,0,0,1,2.3-6.42h0c.2-.05,5.33-1.6,4.51,6.27-1.5,1.71-1.27,6.21-.83,9.62.14,1.1.31,2.09.44,2.83a2,2,0,0,1-1.7-.53l-1-.92-1,.92a2,2,0,0,1-2.69.07h0c-.09-.51-.21-1.34-.31-2.37Z" transform="translate(0.22 0.32)"/><path class="cls-2" d="M21.36,26.5h2A37.29,37.29,0,0,0,23.3,36H20.55c-.44-3.41-.67-7.91.83-9.62,0,0,0,.08,0,.12Z" transform="translate(0.22 0.32)"/><path class="cls-3" d="M19.29,38.3a2,2,0,0,0,1.7.53L21,39a3.12,3.12,0,0,1-.48,2.32l-.89,1.18A7.46,7.46,0,0,1,16.18,45l-1.62.57a1.77,1.77,0,0,1-2.25-1.07l-.11-.3a1.77,1.77,0,0,1,.19-1.61l2.12-3.11a2,2,0,0,0,.15-1.12,2,2,0,0,0,2.69-.07l1-.92,1,.92Z" transform="translate(0.22 0.32)"/><path class="cls-2" d="M14.36,26.5l.21,0A37.41,37.41,0,0,0,14.35,36a4.75,4.75,0,0,1-4.74-4.75,4.76,4.76,0,0,1,4.75-4.75Z" transform="translate(0.22 0.32)"/><path class="cls-5" d="M64.18,36H65.3A4.75,4.75,0,0,0,70,31.25,4.76,4.76,0,0,0,65.3,26.5h-.66M30,26.5H59.32m-38,0h1.95M14.36,36h0a4.75,4.75,0,0,1-4.74-4.75,4.76,4.76,0,0,1,4.75-4.75M23.29,36H20.55M59,36H29.52" transform="translate(0.22 0.32)"/><path class="cls-6" d="M52.17,26.5c1.31,0,2.37,2.13,2.37,4.75a7.64,7.64,0,0,1-.69,3.35c-.43.87-1,1.4-1.68,1.4M35.64,26.5c-1.31,0-2.37,2.13-2.37,4.75A7.63,7.63,0,0,0,34,34.6c.43.87,1,1.4,1.67,1.4" transform="translate(0.22 0.32)"/><g class="cls-7"><path class="cls-5" d="M53.29,39a2,2,0,0,0,2.78,0l1-.91L58,39l.12.1A2,2,0,0,0,60.8,39l1-.91,1,.91a2,2,0,0,0,.59.39,2,2,0,0,0,2.2-.39M.3,32.46a2.05,2.05,0,0,0,2.79,0l1-.91,1,.91a2.05,2.05,0,0,0,2.79,0l1-.91,1,.91m60.27,0,1-.91,1,.91a2,2,0,0,0,2.78,0l1-.91,1,.91a2.05,2.05,0,0,0,2.79,0M24,38.3a2,2,0,0,0,2.78,0l1-.92,1,.92a2.05,2.05,0,0,0,2.79,0m-16.87.07a2,2,0,0,0,2.69-.07l1-.92,1,.92a2,2,0,0,0,2.79,0l1-.92.49.47.48.45m-14.18,0a2,2,0,0,0,2.79,0l1-.92,1,.92a.71.71,0,0,0,.09.07M58.72,24.61a13.91,13.91,0,0,1,.6,1.89,19.28,19.28,0,0,1,0,9.56,17.75,17.75,0,0,1-1.14,3.07,17.57,17.57,0,0,1-.93,1.68.68.68,0,0,0,.74,1h.13a.52.52,0,0,1,.51.6l-.24,1.3a1.36,1.36,0,0,0,2.32,1.17A8.46,8.46,0,0,0,62.45,42q.49-1.34.87-2.58c.38-1.21.67-2.34.9-3.42a25.33,25.33,0,0,0,.42-9.5c-.92-5.37-3.79-7.42-3.79-7.42M48.15,18A18.63,18.63,0,0,1,43.88,3.63.67.67,0,0,0,42.79,3a.47.47,0,0,1-.31.11A.52.52,0,0,1,42,2.74l-.31-1.28a1.36,1.36,0,0,0-2.6-.12,8.62,8.62,0,0,0-.47,2.8c0,.21,0,.42,0,.63a32.17,32.17,0,0,0,3.25,12.88m-5.67.82a7.54,7.54,0,0,0-.74-.73c-1.45-1.23-4.82-3.24-8.53.57l-.15.16A10.23,10.23,0,0,0,25.6,20a16.89,16.89,0,0,0-2.23,6.52A37.29,37.29,0,0,0,23.3,36c.08.77.17,1.4.24,1.85a.55.55,0,0,1,0,.17,1.87,1.87,0,0,1-.14,1.12L21.3,43.25a1.84,1.84,0,0,0,.11,1.88,2.39,2.39,0,0,0,1.79,1.14,1.26,1.26,0,0,0,.49-.1l1.86-.82a7.29,7.29,0,0,0,2.77-2.69L29.46,41A3.22,3.22,0,0,0,30,38.84l0-.22c-.13-.68-.29-1.59-.42-2.62-.44-3.17-.73-7.46.44-9.5h0a2.55,2.55,0,0,1,.81-.88,2,2,0,0,1,.42-.19M16.87,20.12a17.18,17.18,0,0,0-2.3,6.42A37.41,37.41,0,0,0,14.35,36c.1,1,.22,1.86.31,2.37h0a2,2,0,0,1-.15,1.12L12.39,42.6a1.77,1.77,0,0,0-.19,1.61l.11.3a1.77,1.77,0,0,0,2.25,1.07L16.18,45a7.46,7.46,0,0,0,3.47-2.54l.89-1.18A3.12,3.12,0,0,0,21,39l0-.14c-.13-.74-.3-1.73-.44-2.83-.44-3.41-.67-7.91.83-9.62a2,2,0,0,1,.89-.6m4.65-7.46h0a6,6,0,0,0-9.07.51,11,11,0,0,0-1,1.29M53.15,8.48l-.48,2L52,13.37v0l-.55,2.3a6.12,6.12,0,0,0,0,3C52.72,23,60,21.83,60.62,19.8c.05-.17.13-.42.23-.72.26-.76.66-1.87,1-2.95s.73-2,1-2.64l.27-.75s-.12-4-3.79-3.57c-2.05.25-4.72.18-6.11-.81-.88-.63-1.24-1.63-.61-3.15a1,1,0,0,1,1.49-.35c1,.8,3,1.81,7.11,1.66,6.73-.26,2.68,6.86,2.68,6.86M52.64,15.81c.08,0,.65,0,1.41.15,1.64.21,4.21.66,5,1.44a3.21,3.21,0,0,1-.24,1,2.71,2.71,0,0,1-2.67,1.68c-1.69,0-2.1-1.45-2.16-2.66a7.07,7.07,0,0,1,.09-1.5M54,17.46a9.33,9.33,0,0,0,4.83,1m-1-3.53c-1-.28-1-1-.9-1.84.07-.39.18-.8.28-1.18M53,14.05l.24,0c1,.18,1.44-.44,1.66-1.24.11-.4.17-.84.24-1.25m-3.57-.77a3.37,3.37,0,0,0,.4,2.55,1.69,1.69,0,0,0,.61.5m-.92-3.49s0,.15-.09.39M61.9,16.13s2.19-.59,2.26-2c0-.42-.09-.64-.25-.75-.37-.27-1,.11-1,.11M35.43,17.74h0c.17,0,1.42,0,3.15,0,1,0,2.09,0,3.26,0,2.15,0,4.46.11,6.29.27s3,.38,3.29.72m-12.85-1h0c.19.09,4.4,2.05,1.22,8.78M16.87,20.12h0c.2-.05,5.33-1.6,4.51,6.27,0,0,0,.08,0,.12M25.6,20s6.21-1.59,5.11,5.54m21-15.34,0,.09c0,.1-.06.28-.1.51v.05a3.61,3.61,0,0,0,.4,2.53,1.64,1.64,0,0,0,.61.52,1.92,1.92,0,0,0,.42.16l.24,0c.88.12,1.37-.48,1.66-1.24a10.19,10.19,0,0,0,.42-1.81m-4.09-.86.44.09,1,.2,2.67.57,1.92.4,3.61.76s-.45,3.16-2.72,2.78a1.59,1.59,0,0,1-.33-.08c-.83-.28-1-1-.9-1.84a11,11,0,0,1,.34-1.62" transform="translate(0.22 0.32)"/></g></g></g></g></svg>