<svg height="61.79" viewBox="0 0 256.92 61.79" width="256.92" xmlns="http://www.w3.org/2000/svg" xmlns:xlink="http://www.w3.org/1999/xlink"><clipPath id="a"><path d="m0 0h256.92v61.79h-256.92z"/></clipPath><clipPath id="b"><path d="m-424.51-246.36h1104.92v552.46h-1104.92z"/></clipPath><g clip-path="url(#a)"><g clip-path="url(#b)"><path d="m35.08 0s-3.82 9.07-4.32 9.77c-1.16 1.64.71 5.12 1.13 5.19.71.12 1.79-1 2-2.2.11-.89 1.19-12.76 1.19-12.76" fill="#fddd00"/><path d="m31.26 61.79s1.49-10.51.95-11.18-2-1.78-2.3-1.45c-.55.63-.75 3.54-.66 4.21.06.91 2 8.42 2 8.42" fill="#fddd00"/><path d="m9.94 8.44s8.16 11.26 9.06 11.35 2.22.29 3.08-.66c.56-.63-.45-2-.77-2.82s-11.37-7.87-11.37-7.87" fill="#fddd00"/><path d="m5.07 53.47s11.93-5.86 12.59-6.39c.87-.69 2.36-3.34.62-3.65a13.76 13.76 0 0 0 -4.48 1.62c-.68.6-8.73 8.42-8.73 8.42" fill="#fddd00"/><path d="m0 35.73s11.75-1.57 12.58-1.8c1.84-.49 3.1-2.72 2.73-2.92s-3.74-.82-4.57-.46-10.74 5.18-10.74 5.18" fill="#fddd00"/><path d="m42.1 43a17.2 17.2 0 0 1 -5.47 3.65c-11.63 5.45-17.2-4.77-17.2-4.77s4.28 5.33 12.85 3.12a20.31 20.31 0 0 0 5.52-2z" fill="#fddd00"/><path d="m35.19 34.29a8.36 8.36 0 0 1 -2.81 1.3c-2.74.79-6 1.18-7.88-.39-2.16-1.77-2.77-11.07 6.5-12.06a11 11 0 0 1 4.33.8v2.12c-6.33-1.07-7.88-1-8.66.69s-2.65 5-.78 6.19 3.51 1.7 5.52.93c4-1.52 2.23-1.52 2.23-2.3s-.05-1.88-2.33-1.21c-1.6.47-2.87.72-2.87.72.88-1.38 3.53-3.74 4.91-2.56.46.39 1.51 1.32 1.95 1.73z" fill="#fddd00"/><path d="m35.22 40.33a15.23 15.23 0 0 1 -3.53.67c-3.92.1-10.74 1.25-12.21-2.29s-6.26-11.65-.86-15.19 10.3-9.16 16-6.92a29.84 29.84 0 0 1 8.24 4.66h-4.04c-3.62-4-5.06-2.39-6.83-2.17a15.53 15.53 0 0 0 -11.94 7.38c-2.85 4.27-1.11 8.93 2.13 10.6s4.69 3.82 10.1 1.64c.85-.34 2.21-.85 2.94-1.2z" fill="#fddd00"/><g fill="#192954"><path d="m253.66 26.64a1.63 1.63 0 1 1 1.63 1.63 1.63 1.63 0 0 1 -1.63-1.63m3 0a1.39 1.39 0 0 0 -1.37-1.39 1.4 1.4 0 0 0 0 2.79 1.39 1.39 0 0 0 1.37-1.4m-1.73.88h-.24v-1.75h.58c.42 0 .6.13.6.39s-.28.44-.56.48l.57.67.13.14.05.07h-.32l-.17-.23-.32-.38-.22-.24h-.1zm0-1h.29c.26 0 .41-.14.41-.34s-.1-.27-.3-.28h-.4z"/><path d="m145.94 23.54-7.57 17.2h-6l-7.58-17.2h7.42l2.6 7.82a8.18 8.18 0 0 1 .49 2.56h.16a7.9 7.9 0 0 1 .49-2.56l2.59-7.82z"/><path d="m152.55 28.62.21 1.44h-.16a5 5 0 0 0 -4-1.71c-3.89 0-6 3.33-6 6.39s2.07 6.26 5.8 6.26a5.57 5.57 0 0 0 4.2-1.87h.16l-.21 1.6h6.56v-12.11zm-1.55 7.79a1.63 1.63 0 0 1 -1.74-1.78 1.66 1.66 0 0 1 1.74-1.63 1.64 1.64 0 0 1 1.79 1.62 1.69 1.69 0 0 1 -1.79 1.79"/><path d="m171 33.87a4.22 4.22 0 0 0 -2.46-1 1.79 1.79 0 1 0 -.14 3.54 4.82 4.82 0 0 0 2.6-.94l-.29 5a12.32 12.32 0 0 1 -3.37.57c-4.46 0-7.65-2.21-7.65-6.27 0-3.58 3-6.39 7.11-6.39a15.36 15.36 0 0 1 4.2.62z"/><path d="m181.44 28.62.21 1.44h-.16a5 5 0 0 0 -4-1.71c-3.89 0-6 3.33-6 6.39s2.07 6.26 5.81 6.26a5.57 5.57 0 0 0 4.19-1.87h.16l-.21 1.6h6.56v-12.11zm-1.58 7.79a1.63 1.63 0 0 1 -1.74-1.78 1.66 1.66 0 0 1 1.74-1.63 1.64 1.64 0 0 1 1.79 1.62 1.69 1.69 0 0 1 -1.79 1.83"/><path d="m196.69 28.79 2.24-.09v4.62l-2.24-.11v7.53h-6.74v-7.53l-1.64.11v-4.62l1.64.09v-4.07h6.74z"/><path d="m199.18 28.62h6.69v12.12h-6.69z"/><path d="m206.21 24.88c0 2-1.77 2.86-3.68 2.86s-3.69-.87-3.69-2.86c0-1.76 1.58-2.83 3.69-2.83s3.68 1.07 3.68 2.83"/><path d="m215.31 28.35c-4.54 0-8.35 2.24-8.35 6.48 0 4 4 6.18 8.35 6.18s8.35-2.16 8.35-6.18c0-4.24-3.82-6.48-8.35-6.48m0 8.06a1.75 1.75 0 0 1 -1.87-1.67 1.87 1.87 0 0 1 3.74 0 1.75 1.75 0 0 1 -1.87 1.67"/><path d="m230.58 30.56h.16c1.3-1.32 2.28-2.21 4.43-2.21 3.43 0 4.77 2.26 4.77 4.93v7.46h-6.69v-5.91c0-.71 0-1.71-1.14-1.71s-1.11 1-1.11 1.71v5.91h-6.7v-12.11h6.54z"/><path d="m241.63 36 .41.23a8.13 8.13 0 0 0 3.43 1.12c.44 0 1-.21 1-.67 0-.66-.8-.68-1.35-.75-2.23-.27-4.3-1.07-4.3-3.35 0-3 3.47-4.25 6.43-4.25a13.17 13.17 0 0 1 5.34 1l-1.63 3.35a6 6 0 0 0 -3.09-1c-.41 0-1 .11-1 .55s.73.64 1.66.77c2.39.34 4.33 1.07 4.33 3.52 0 3.14-3.55 4.45-6.66 4.45a18 18 0 0 1 -6.3-1.35z"/><path d="m58.77 28.63v6.23c0 .71 0 1.46 1.19 1.46s1.19-.75 1.19-1.46v-6.23h6.93v6.82c0 3.83-4 5.53-8.12 5.53s-8.12-1.7-8.12-5.53v-6.82z"/><path d="m75.65 30.56h.16c1.36-1.32 2.38-2.21 4.63-2.21 3.57 0 5 2.26 5 4.92v7.44h-7v-5.9c0-.7 0-1.7-1.19-1.7s-1.17 1-1.17 1.7v5.9h-7v-12.08h6.82z"/><path d="m102.76 28.35c-4.57 0-8.25 2.51-8.25 6.51 0 4.16 4.14 6.12 8.66 6.12 3.3 0 7.17-1.34 8.09-4.25h-6.79a1.38 1.38 0 0 1 -1.41 1c-1.46 0-1.65-1.09-1.65-2.07h10.15c.35-4.53-3.68-7.31-8.8-7.31m-1.35 4.8a1.47 1.47 0 0 1 1.59-1.57 1.65 1.65 0 0 1 1.71 1.57z"/><path d="m120.17 28.79 2.32-.1v4.62l-2.32-.11v7.51h-7.04v-7.51l-1.71.11v-4.62l1.71.1v-4.06h7.04z"/><path d="m37.52 23.55h13.68v4.92h-6.2v1.77h5.44v4.46h-5.44v6.01h-7.48z"/><path d="m86.79 28.8h7s0 8.16 0 10.12c0 4.69-1.27 6.7-6.2 6.7h-2.59v-2.87s.5 0 .91 0 .82-.48.84-1.54z"/><path d="m94.09 24.87c0 2-1.85 2.88-3.86 2.88s-3.86-.88-3.86-2.88c0-1.77 1.63-2.87 3.86-2.87s3.86 1.08 3.86 2.85"/></g></g></g></svg>