<svg xmlns="http://www.w3.org/2000/svg" xmlns:xlink="http://www.w3.org/1999/xlink" width="344.16" height="179.62" viewBox="0 0 344.16 179.62"><defs><style>.cls-1{fill:url(#linear-gradient);}.cls-2{fill:#fff;}</style><linearGradient id="linear-gradient" x1="172.08" y1="179.62" x2="172.08" gradientUnits="userSpaceOnUse"><stop offset="0" stop-color="#262262"/><stop offset="1" stop-color="#2b3990" stop-opacity="0"/></linearGradient></defs><title>Asset 8</title><g id="Layer_2" data-name="Layer 2"><g id="Layer_1-2" data-name="Layer 1"><polygon class="cls-1" points="164.57 179.62 344.16 0.03 179.62 0 0 179.62 164.57 179.62"/><path class="cls-2" d="M115.64,153.84l-2.87-8.68,2.24-2.23,6.09,9.35-1.48,1.48-2.89-4.42c-.68-1.06-1.28-2-1.78-2.88l0,0,3,9L116.42,157l-6.3-5.67,0,0c.26.34.6.82,1,1.42s1.67,2.51,3.78,5.75l-1.45,1.45-6.09-9.35,2.13-2.14,6.13,5.42Z"/><path class="cls-2" d="M127.27,146.11,123,150.42l-6.09-9.35,4.32-4.32,1,1.62-2.7,2.71,1.34,2,2.52-2.52,1,1.63-2.52,2.52,1.57,2.41,2.71-2.7Z"/><path class="cls-2" d="M130.73,133.05a8.34,8.34,0,0,1,2.05,3.09,5.17,5.17,0,0,1,.16,3.15,6.34,6.34,0,0,1-1.74,2.89l-2.38,2.38-6.09-9.36,2.09-2.09a4.32,4.32,0,0,1,3-1.45A4.06,4.06,0,0,1,130.73,133.05Zm-.8,7.7a3.31,3.31,0,0,0,1-1.77,3.6,3.6,0,0,0-.28-2.08,6.39,6.39,0,0,0-1.45-2.11,2.5,2.5,0,0,0-1.62-.86,2,2,0,0,0-1.53.68l-.61.6,4,6.1Z"/><path class="cls-2" d="M136.14,137.24l-6.07-9.37,1.61-1.62,6.07,9.37Z"/><path class="cls-2" d="M142.36,131l-1.61,1.61-5-7.7-1.86,1.86-1.07-1.66,5.33-5.33,1.08,1.65-1.87,1.87Z"/><path class="cls-2" d="M149.68,123.7,145.37,128l-6.09-9.35,4.32-4.32,1.05,1.62-2.7,2.71,1.34,2,2.52-2.52,1.05,1.63-2.52,2.52,1.57,2.41,2.71-2.7Z"/><path class="cls-2" d="M150.51,117l2.33,3.59-1.61,1.61-6.09-9.36,1.9-1.89a4,4,0,0,1,2.41-1.34,2.76,2.76,0,0,1,2.21,1,3.32,3.32,0,0,1,1,1.87,3.64,3.64,0,0,1-.37,2.15l4.66,1.9-1.76,1.76-4.06-1.87Zm-1-1.62.41-.41a2.37,2.37,0,0,0,.77-1.38,1.54,1.54,0,0,0-.53-1.3,1.16,1.16,0,0,0-.9-.4,1.67,1.67,0,0,0-1,.57l-.39.39Z"/><path class="cls-2" d="M157.09,110.36l2.34,3.59-1.61,1.61-6.09-9.35,1.89-1.9A4,4,0,0,1,156,103a2.79,2.79,0,0,1,2.21,1,3.32,3.32,0,0,1,1,1.87,3.65,3.65,0,0,1-.38,2.15l4.66,1.91-1.75,1.75-4.06-1.87ZM156,108.75l.41-.41a2.45,2.45,0,0,0,.78-1.38,1.54,1.54,0,0,0-.53-1.31,1.16,1.16,0,0,0-.9-.4,1.72,1.72,0,0,0-1,.58l-.39.39Z"/><path class="cls-2" d="M166.73,103l-2.49,2.5.92,2.74-1.69,1.69-3.7-11.8,2-2,8.53,7-1.57,1.57Zm-1.45-1.3-2-1.71c-.5-.42-1-.85-1.39-1.28l-.19-.19c.26.58.52,1.22.76,1.92l1,3Z"/><path class="cls-2" d="M177.51,95.87l-1.81,1.81-7.72-4,0,0,.15.19c.65.87,1.21,1.67,1.69,2.39l2.87,4.4-1.45,1.45-6.09-9.35L167,90.94l7.49,3.89,0,0c-.23-.31-.54-.76-.94-1.35S172,91,170,88l1.44-1.45Z"/><path class="cls-2" d="M183.68,89.7,179.36,94l-6.09-9.35,4.33-4.32L178.65,82,176,84.67l1.34,2,2.52-2.52,1.05,1.63-2.52,2.52,1.57,2.42,2.7-2.71Z"/><path class="cls-2" d="M187.56,82.14l-2.5,2.5.93,2.75-1.69,1.69-3.71-11.8,2-2,8.53,7-1.57,1.57Zm-1.46-1.29-2-1.71c-.5-.43-1-.86-1.39-1.28l-.19-.2c.27.58.52,1.22.77,1.92l1,3Z"/><path class="cls-2" d="M198.33,75.05l-1.81,1.81-7.72-4,0,0,.15.19c.64.87,1.21,1.67,1.69,2.38l2.86,4.4L192,81.36,185.93,72l1.89-1.88L195.3,74l0,0c-.22-.31-.54-.76-.94-1.35s-1.6-2.43-3.59-5.5l1.45-1.45Z"/></g></g></svg>