<svg xmlns="http://www.w3.org/2000/svg" xmlns:xlink="http://www.w3.org/1999/xlink" version="1.0" x="0px" y="0px" viewBox="0 0 32 32" enable-background="new 0 0 32 32" xml:space="preserve" width="32px" height="32px"><path d="M2,0.001c-1.105,0-2,0.895-2,2v28c0,1.104,0.895,2,2,2h28c1.105,0,2-0.896,2-2v-28c0-1.105-0.895-2-2-2H2z M19.465,8.544  c0.746,0.746,0.746,1.954,0,2.698l-4.801,4.746l4.801,4.746c0.746,0.746,0.746,1.953,0,2.699c-0.754,0.744-1.973,0.746-2.727,0  l-6.156-6.096c-0.746-0.744-0.746-1.953,0-2.699l6.156-6.095C17.492,7.798,18.711,7.798,19.465,8.544z"/></svg>