<svg xmlns="http://www.w3.org/2000/svg" xmlns:xlink="http://www.w3.org/1999/xlink" width="344.16" height="179.62" viewBox="0 0 344.16 179.62"><defs><style>.cls-1{fill:url(#linear-gradient);}.cls-2{fill:#fff;}</style><linearGradient id="linear-gradient" x1="172.08" y1="179.62" x2="172.08" gradientUnits="userSpaceOnUse"><stop offset="0" stop-color="#262262"/><stop offset="1" stop-color="#2b3990" stop-opacity="0"/></linearGradient></defs><title>Asset 7</title><g id="Layer_2" data-name="Layer 2"><g id="Layer_1-2" data-name="Layer 1"><polygon class="cls-1" points="164.57 179.62 344.16 0.03 179.62 0 0 179.62 164.57 179.62"/><path class="cls-2" d="M114.45,152.94a3,3,0,0,1,1,2.53,5.48,5.48,0,0,1-3.84,4.16l-1.44-1.44a5.54,5.54,0,0,0,2.46-1.32,2.37,2.37,0,0,0,.7-1.15,1,1,0,0,0-.28-.95,1.69,1.69,0,0,0-.47-.33,1.57,1.57,0,0,0-.53-.11,6.31,6.31,0,0,0-1.19.11,4.85,4.85,0,0,1-2.06,0,3,3,0,0,1-1.4-.81,3.19,3.19,0,0,1-.89-1.54,3.07,3.07,0,0,1,.1-1.77,4.44,4.44,0,0,1,1.09-1.69,6,6,0,0,1,2.62-1.57l.66,1.8A5.14,5.14,0,0,0,109,150a1.55,1.55,0,0,0-.48,1,1.1,1.1,0,0,0,.35.91,1.41,1.41,0,0,0,.74.39,4.75,4.75,0,0,0,1.42-.15,4.42,4.42,0,0,1,1.88,0A3.11,3.11,0,0,1,114.45,152.94Z"/><path class="cls-2" d="M120.08,142a9.21,9.21,0,0,1,2.15,3.2,5.6,5.6,0,0,1,.35,3.21,5.2,5.2,0,0,1-1.49,2.7,4,4,0,0,1-2.89,1.33,4.22,4.22,0,0,1-2.92-1.41,8.79,8.79,0,0,1-2-3.09,5.91,5.91,0,0,1-.36-3.25,5.17,5.17,0,0,1,1.49-2.75,4,4,0,0,1,2.85-1.33A4.13,4.13,0,0,1,120.08,142Zm-4.49,1.43a2.49,2.49,0,0,0-.69,1.66,4.46,4.46,0,0,0,.5,2.16,7.7,7.7,0,0,0,1.52,2.14,2.43,2.43,0,0,0,1.53.82,1.8,1.8,0,0,0,1.39-.59,2.47,2.47,0,0,0,.7-1.63,4.24,4.24,0,0,0-.48-2.12,7.87,7.87,0,0,0-1.59-2.18,2.52,2.52,0,0,0-1.5-.82A1.73,1.73,0,0,0,115.59,143.4Z"/><path class="cls-2" d="M125.22,131.29l3.93,6.06a5.17,5.17,0,0,1,1,3.27,4.69,4.69,0,0,1-1.5,2.93,3.49,3.49,0,0,1-2.36,1.16,3,3,0,0,1-2.27-1,4.53,4.53,0,0,1-.65-.81L119.5,137l1.61-1.61,3.83,5.88a5.54,5.54,0,0,0,.57.75,1.22,1.22,0,0,0,1.94-.06,1.86,1.86,0,0,0,.63-1.43,3.57,3.57,0,0,0-.66-1.76l-3.82-5.87Z"/><path class="cls-2" d="M135.86,136.1l-1.61,1.61-5-7.7-1.86,1.86-1.07-1.65,5.33-5.34,1.07,1.65-1.86,1.87Z"/><path class="cls-2" d="M144.58,127.38,143,129l-2.62-4-2.49,2.49,2.63,4-1.62,1.61-6.09-9.35,1.62-1.62,2.39,3.67,2.49-2.49-2.39-3.67,1.61-1.61Z"/><path class="cls-2" d="M150.75,121.2l-4.31,4.32-6.09-9.36,4.32-4.32,1.06,1.63-2.71,2.7,1.34,2,2.52-2.52,1.05,1.64-2.52,2.52,1.57,2.41,2.71-2.7Z"/><path class="cls-2" d="M151.58,114.45l2.33,3.59-1.61,1.62-6.09-9.36,1.9-1.9a4,4,0,0,1,2.42-1.34,2.8,2.8,0,0,1,2.21,1,3.39,3.39,0,0,1,1,1.88,3.66,3.66,0,0,1-.37,2.15l4.66,1.9-1.76,1.75-4-1.87Zm-1.05-1.61.41-.41a2.45,2.45,0,0,0,.78-1.38,1.56,1.56,0,0,0-.54-1.3,1.13,1.13,0,0,0-.9-.4,1.63,1.63,0,0,0-1,.57l-.4.39Z"/><path class="cls-2" d="M165.2,106.76l-1.81,1.81-7.72-4,0,0,.14.19c.65.87,1.22,1.67,1.69,2.39l2.87,4.4-1.45,1.45-6.09-9.36,1.88-1.88,7.49,3.89,0,0c-.22-.31-.54-.76-.94-1.35s-1.6-2.43-3.59-5.5l1.45-1.44Z"/><path class="cls-2" d="M167.89,91.11a2.81,2.81,0,0,0-.83,1.68,4.11,4.11,0,0,0,.36,2.16,6.68,6.68,0,0,0,1.45,2.12,2.81,2.81,0,0,0,1.68,1,2,2,0,0,0,1.58-.73,7,7,0,0,0,1.38-2.19l1.37,1.38A8.25,8.25,0,0,1,173.17,99a3.85,3.85,0,0,1-2.87,1.29,4.42,4.42,0,0,1-3-1.49,8.26,8.26,0,0,1-2-3.1,6,6,0,0,1-.31-3.24,5.34,5.34,0,0,1,1.51-2.71,7.35,7.35,0,0,1,1.29-1.06,6.67,6.67,0,0,1,1.54-.66l.7,1.94a6.35,6.35,0,0,0-1.34.52A3.61,3.61,0,0,0,167.89,91.11Z"/><path class="cls-2" d="M178.82,89.47,176.32,92l.93,2.75-1.69,1.69-3.71-11.8,2-2,8.53,7-1.57,1.57Zm-1.46-1.3-2-1.71c-.5-.43-1-.85-1.39-1.28L173.8,85a20.24,20.24,0,0,1,.76,1.92l1,3Z"/><path class="cls-2" d="M182.56,83.48l2.33,3.59-1.61,1.61-6.09-9.36,1.9-1.89a4,4,0,0,1,2.41-1.35,2.8,2.8,0,0,1,2.21,1,3.32,3.32,0,0,1,1,1.87,3.64,3.64,0,0,1-.37,2.15L189,83l-1.76,1.76-4.06-1.87Zm-1.06-1.62.42-.41a2.37,2.37,0,0,0,.77-1.38,1.54,1.54,0,0,0-.53-1.3,1.16,1.16,0,0,0-.9-.4,1.67,1.67,0,0,0-1,.57l-.39.39Z"/><path class="cls-2" d="M189.87,82.09l-6.08-9.37,1.61-1.61,6.08,9.37Z"/><path class="cls-2" d="M189.51,67a4.49,4.49,0,0,1,2.26-1.39,2.06,2.06,0,0,1,1.9.67,2.72,2.72,0,0,1,.87,1.74A3.08,3.08,0,0,1,194,70l0,0a2.23,2.23,0,0,1,1.35-.33,2,2,0,0,1,1.27.64A3.23,3.23,0,0,1,197.69,73a4.92,4.92,0,0,1-1.58,2.89l-2.76,2.76-6.09-9.36Zm1.77,4.35.79-.79a2.1,2.1,0,0,0,.7-1.22,1.26,1.26,0,0,0-.42-1c-.48-.48-1-.43-1.62.17l-.8.81Zm2.61,4,1-1a2,2,0,0,0,.67-1.28,1.54,1.54,0,0,0-.5-1.2c-.57-.57-1.18-.53-1.83.11l-.87.88Z"/><path class="cls-2" d="M196.22,60.3a4.46,4.46,0,0,1,2.25-1.4,2.07,2.07,0,0,1,1.91.67,2.72,2.72,0,0,1,.87,1.74,3.08,3.08,0,0,1-.56,1.93l0,0a2.17,2.17,0,0,1,1.35-.34,2,2,0,0,1,1.27.64,3.19,3.19,0,0,1,1,2.67,4.81,4.81,0,0,1-1.58,2.89l-2.75,2.76L194,62.55ZM198,64.64l.79-.79a2.17,2.17,0,0,0,.7-1.21,1.27,1.27,0,0,0-.42-1.06c-.48-.48-1-.42-1.62.17l-.8.81Zm2.61,4,1-1a2,2,0,0,0,.66-1.27,1.53,1.53,0,0,0-.49-1.21c-.57-.57-1.18-.53-1.83.11l-.87.88Z"/><path class="cls-2" d="M211.08,60.88l-4.31,4.31-6.1-9.35L205,51.52l1.05,1.62-2.7,2.71,1.34,2,2.52-2.52,1,1.63-2.52,2.52,1.57,2.41,2.7-2.7Z"/><path class="cls-2" d="M215,53.32l-2.5,2.5.93,2.75-1.69,1.69L208,48.46l2-2,8.53,7L216.92,55ZM213.51,52l-2-1.71c-.5-.43-1-.86-1.39-1.29l-.19-.19c.27.58.52,1.22.77,1.92l1,3Z"/><path class="cls-2" d="M225.73,46.23,223.92,48l-7.72-4,0,0,.15.19c.64.88,1.21,1.67,1.69,2.39l2.87,4.4-1.46,1.46-6.09-9.36,1.89-1.89,7.48,3.9,0,0-.94-1.36c-.4-.59-1.59-2.42-3.59-5.49l1.45-1.45Z"/></g></g></svg>