<?xml version="1.0" encoding="utf-8"?>
<!-- Generator: Adobe Illustrator 24.0.3, SVG Export Plug-In . SVG Version: 6.00 Build 0)  -->
<svg version="1.1" id="Layer_1" xmlns="http://www.w3.org/2000/svg" xmlns:xlink="http://www.w3.org/1999/xlink" x="0px" y="0px"
	 viewBox="0 0 45.2 24.4" style="enable-background:new 0 0 45.2 24.4;" xml:space="preserve">
<style type="text/css">
	.st0{fill:#010101;}
	.st1{fill:#FFFFFF;}
	.st2{fill:#06A64F;}
	.st3{fill:#EC2227;}
</style>
<g>
	<path class="st0" d="M3.3,6.5c1.8,0,3.3-1.5,3.3-3.3C6.5,1.5,5.1,0,3.3,0C1.5,0,0,1.5,0,3.3C0,5.1,1.5,6.5,3.3,6.5"/>
	<g>
		<polygon class="st1" points="3.3,0.8 1.1,3.1 1.4,3.1 1.4,4.8 2.9,4.8 2.9,3.5 3.6,3.5 3.6,4.8 5.1,4.8 5.1,3.1 5.4,3.1 		"/>
		<rect x="4.2" y="1.5" class="st1" width="0.4" height="1"/>
	</g>
</g>
<path class="st1" d="M12.5,3.4H9.2V2.9h3.3V3.4z M12.5,4.6H9.2V4.2h3.3V4.6z"/>
<path class="st1" d="M12.5,12.2H9.2v-0.4h3.3V12.2z M12.5,13.5H9.2v-0.4h3.3V13.5z"/>
<path class="st2" d="M3.3,15.4c1.8,0,3.3-1.5,3.3-3.3c0-1.8-1.5-3.3-3.3-3.3C1.5,8.8,0,10.3,0,12.1C0,13.9,1.5,15.4,3.3,15.4"/>
<path class="st1" d="M12.5,21H9.2v-0.4h3.3V21z M12.5,22.3H9.2v-0.4h3.3V22.3z"/>
<path class="st3" d="M3.3,24.2c1.8,0,3.3-1.5,3.3-3.3s-1.5-3.3-3.3-3.3c-1.8,0-3.3,1.5-3.3,3.3S1.5,24.2,3.3,24.2"/>
<path class="st1" d="M15.6,2.3C15.7,2,15.9,1.7,16,1.5c0.2-0.2,0.4-0.4,0.7-0.5c0.3-0.1,0.6-0.2,0.9-0.2c0.3,0,0.7,0.1,0.9,0.2
	c0.3,0.1,0.5,0.3,0.7,0.5c0.2,0.2,0.3,0.5,0.4,0.8c0.1,0.3,0.1,0.6,0.1,0.9c0,0.3,0,0.6-0.1,0.9c-0.1,0.3-0.2,0.6-0.4,0.8
	c-0.2,0.2-0.4,0.4-0.7,0.5c-0.3,0.1-0.6,0.2-0.9,0.2c-0.4,0-0.7-0.1-0.9-0.2c-0.3-0.1-0.5-0.3-0.7-0.5c-0.2-0.2-0.3-0.5-0.4-0.8
	c-0.1-0.3-0.1-0.6-0.1-0.9C15.5,2.9,15.5,2.6,15.6,2.3 M16.2,3.9c0.1,0.2,0.1,0.4,0.3,0.6c0.1,0.2,0.3,0.3,0.5,0.4
	c0.2,0.1,0.4,0.2,0.7,0.2c0.3,0,0.5-0.1,0.7-0.2c0.2-0.1,0.4-0.3,0.5-0.4C18.9,4.3,19,4.1,19,3.9c0.1-0.2,0.1-0.5,0.1-0.7
	s0-0.5-0.1-0.7c-0.1-0.2-0.1-0.4-0.3-0.6c-0.1-0.2-0.3-0.3-0.5-0.4c-0.2-0.1-0.4-0.2-0.7-0.2c-0.3,0-0.5,0.1-0.7,0.2
	c-0.2,0.1-0.4,0.3-0.5,0.4c-0.1,0.2-0.2,0.4-0.3,0.6c-0.1,0.2-0.1,0.5-0.1,0.7S16.1,3.7,16.2,3.9"/>
<polygon class="st1" points="21.2,5.5 20,2.2 20.6,2.2 21.5,5 21.5,5 22.4,2.2 23,2.2 21.8,5.5 "/>
<path class="st1" d="M25.7,5.3c-0.2,0.2-0.5,0.3-0.9,0.3c-0.3,0-0.5,0-0.7-0.1c-0.2-0.1-0.3-0.2-0.5-0.4c-0.1-0.2-0.2-0.3-0.3-0.6
	c-0.1-0.2-0.1-0.5-0.1-0.7c0-0.3,0-0.5,0.1-0.7c0.1-0.2,0.2-0.4,0.3-0.6c0.1-0.2,0.3-0.3,0.5-0.4c0.2-0.1,0.4-0.1,0.6-0.1
	c0.3,0,0.5,0.1,0.7,0.2c0.2,0.1,0.3,0.3,0.5,0.5c0.1,0.2,0.2,0.4,0.2,0.6c0,0.2,0.1,0.4,0.1,0.6h-2.4c0,0.1,0,0.3,0,0.4
	c0,0.1,0.1,0.2,0.2,0.4C24.1,4.9,24.2,5,24.4,5c0.1,0.1,0.3,0.1,0.5,0.1c0.2,0,0.4-0.1,0.5-0.2c0.1-0.1,0.2-0.3,0.3-0.5h0.5
	C26.1,4.8,25.9,5.1,25.7,5.3 M25.6,3.1c0-0.1-0.1-0.2-0.2-0.3c-0.1-0.1-0.2-0.2-0.3-0.2c-0.1,0-0.2-0.1-0.4-0.1
	c-0.1,0-0.3,0-0.4,0.1c-0.1,0.1-0.2,0.1-0.3,0.2S23.9,3,23.9,3.2c0,0.1-0.1,0.2-0.1,0.4h1.8C25.6,3.4,25.6,3.3,25.6,3.1"/>
<path class="st1" d="M27.2,2.2v0.7h0c0.1-0.3,0.3-0.5,0.5-0.6c0.2-0.1,0.4-0.2,0.7-0.2v0.6c-0.2,0-0.4,0-0.5,0.1
	c-0.1,0.1-0.3,0.1-0.4,0.3c-0.1,0.1-0.2,0.3-0.2,0.4c0,0.2-0.1,0.4-0.1,0.6v1.5h-0.5V2.2H27.2z"/>
<path class="st1" d="M29.4,2.2v0.5h0c0.2-0.4,0.6-0.6,1-0.6c0.2,0,0.4,0,0.5,0.1c0.1,0.1,0.3,0.1,0.3,0.3c0.1,0.1,0.1,0.2,0.2,0.4
	s0.1,0.3,0.1,0.5v2.2H31V3.2C31,3,31,2.9,30.9,2.8c-0.1-0.1-0.3-0.2-0.5-0.2c-0.2,0-0.3,0-0.4,0.1c-0.1,0.1-0.2,0.1-0.3,0.2
	c-0.1,0.1-0.1,0.2-0.2,0.3c0,0.1-0.1,0.3-0.1,0.4v1.9h-0.5V2.2H29.4z"/>
<path class="st1" d="M32.4,0.9h0.5v0.7h-0.5V0.9z M32.9,5.5h-0.5V2.2h0.5V5.5z"/>
<path class="st1" d="M36.1,6.5c-0.2,0.3-0.6,0.4-1.1,0.4c-0.1,0-0.3,0-0.5-0.1c-0.2,0-0.3-0.1-0.4-0.2c-0.1-0.1-0.2-0.2-0.3-0.3
	c-0.1-0.1-0.1-0.3-0.1-0.5h0.5c0,0.1,0,0.2,0.1,0.3c0.1,0.1,0.1,0.1,0.2,0.2c0.1,0,0.2,0.1,0.3,0.1c0.1,0,0.2,0,0.3,0
	c0.2,0,0.3,0,0.4-0.1c0.1-0.1,0.2-0.1,0.3-0.3c0.1-0.1,0.1-0.2,0.2-0.4C36,5.5,36,5.4,36,5.2V4.9h0c-0.1,0.2-0.2,0.4-0.4,0.5
	c-0.2,0.1-0.4,0.1-0.6,0.1c-0.2,0-0.4,0-0.6-0.1C34.2,5.3,34,5.2,33.9,5c-0.1-0.2-0.2-0.3-0.3-0.5c-0.1-0.2-0.1-0.4-0.1-0.7
	c0-0.2,0-0.4,0.1-0.6c0-0.2,0.1-0.4,0.2-0.6c0.1-0.2,0.3-0.3,0.5-0.4c0.2-0.1,0.4-0.2,0.7-0.2c0.2,0,0.4,0,0.6,0.1
	c0.2,0.1,0.3,0.2,0.4,0.4h0V2.2h0.5v3.1C36.5,5.8,36.4,6.2,36.1,6.5 M35.5,5c0.1-0.1,0.2-0.2,0.3-0.3c0.1-0.1,0.1-0.3,0.2-0.4
	c0-0.2,0.1-0.3,0.1-0.5c0-0.1,0-0.3,0-0.4c0-0.1-0.1-0.3-0.2-0.4c-0.1-0.1-0.2-0.2-0.3-0.3c-0.1-0.1-0.3-0.1-0.4-0.1
	c-0.2,0-0.3,0-0.4,0.1c-0.1,0.1-0.2,0.2-0.3,0.3c-0.1,0.1-0.1,0.2-0.2,0.4c0,0.1-0.1,0.3-0.1,0.5c0,0.2,0,0.3,0,0.5
	c0,0.2,0.1,0.3,0.1,0.4c0.1,0.1,0.2,0.2,0.3,0.3C34.7,5,34.8,5.1,35,5.1S35.3,5,35.5,5"/>
<path class="st1" d="M37.8,0.9v1.8h0c0-0.1,0.1-0.2,0.2-0.3c0.1-0.1,0.2-0.1,0.2-0.2c0.1,0,0.2-0.1,0.3-0.1c0.1,0,0.2,0,0.3,0
	c0.2,0,0.4,0,0.5,0.1c0.1,0.1,0.3,0.1,0.3,0.3c0.1,0.1,0.1,0.2,0.2,0.4c0,0.1,0.1,0.3,0.1,0.5v2.2h-0.5V3.2c0-0.2-0.1-0.4-0.2-0.5
	c-0.1-0.1-0.3-0.2-0.5-0.2c-0.2,0-0.3,0-0.4,0.1S38.1,2.8,38,2.9s-0.1,0.2-0.2,0.3c0,0.1-0.1,0.3-0.1,0.4v1.9h-0.5V0.9H37.8z"/>
<path class="st1" d="M42.1,2.2v0.5h-0.6v2.1c0,0.1,0,0.1,0,0.2c0,0,0,0.1,0.1,0.1s0.1,0,0.1,0c0.1,0,0.1,0,0.2,0h0.2v0.5h-0.4
	c-0.1,0-0.3,0-0.4,0c-0.1,0-0.2-0.1-0.2-0.1C41,5.3,41,5.3,41,5.2c0-0.1,0-0.2,0-0.4V2.6h-0.5V2.2h0.5v-1h0.5v1H42.1z"/>
<path class="st1" d="M43.1,4.8c0,0.1,0.1,0.2,0.2,0.2c0.1,0,0.2,0.1,0.3,0.1c0.1,0,0.2,0,0.3,0c0.1,0,0.2,0,0.3,0s0.2,0,0.2-0.1
	c0.1,0,0.1-0.1,0.2-0.2c0-0.1,0.1-0.2,0.1-0.3c0-0.1-0.1-0.3-0.2-0.3c-0.1-0.1-0.2-0.1-0.4-0.2c-0.2,0-0.3-0.1-0.5-0.1
	c-0.2,0-0.3-0.1-0.5-0.2s-0.3-0.2-0.4-0.3S42.5,3.3,42.5,3c0-0.2,0-0.3,0.1-0.4c0.1-0.1,0.2-0.2,0.3-0.3c0.1-0.1,0.2-0.1,0.4-0.2
	c0.1,0,0.3-0.1,0.4-0.1c0.2,0,0.3,0,0.5,0c0.2,0,0.3,0.1,0.4,0.2c0.1,0.1,0.2,0.2,0.3,0.3C45,2.8,45,2.9,45,3.1h-0.5
	c0-0.1,0-0.2-0.1-0.3c0-0.1-0.1-0.1-0.2-0.2c-0.1,0-0.1-0.1-0.2-0.1c-0.1,0-0.2,0-0.3,0c-0.1,0-0.2,0-0.2,0c-0.1,0-0.2,0-0.2,0.1
	c-0.1,0-0.1,0.1-0.2,0.1c0,0.1-0.1,0.1-0.1,0.2c0,0.1,0,0.2,0.1,0.2c0.1,0.1,0.1,0.1,0.2,0.2c0.1,0,0.2,0.1,0.3,0.1
	c0.1,0,0.2,0.1,0.4,0.1c0.1,0,0.3,0.1,0.4,0.1c0.1,0,0.2,0.1,0.3,0.2C44.9,3.9,45,4,45.1,4.1c0.1,0.1,0.1,0.2,0.1,0.4
	c0,0.2,0,0.4-0.1,0.5c-0.1,0.1-0.2,0.2-0.3,0.3c-0.1,0.1-0.3,0.1-0.4,0.2c-0.2,0-0.3,0-0.5,0c-0.2,0-0.3,0-0.5-0.1
	c-0.2,0-0.3-0.1-0.4-0.2c-0.1-0.1-0.2-0.2-0.3-0.4c-0.1-0.1-0.1-0.3-0.1-0.5H43C43,4.6,43,4.7,43.1,4.8"/>
<polygon class="st1" points="18.8,18.5 18.8,19 16.3,19 16.3,20.5 18.6,20.5 18.6,21 16.3,21 16.3,22.6 18.8,22.6 18.8,23.1 
	15.7,23.1 15.7,18.5 "/>
<path class="st1" d="M19.9,19.7v0.5h0c0.2-0.4,0.6-0.6,1-0.6c0.2,0,0.4,0,0.5,0.1c0.1,0.1,0.3,0.1,0.3,0.3c0.1,0.1,0.1,0.2,0.2,0.4
	c0,0.1,0.1,0.3,0.1,0.5v2.2h-0.5v-2.3c0-0.2-0.1-0.4-0.2-0.5c-0.1-0.1-0.3-0.2-0.5-0.2c-0.2,0-0.3,0-0.4,0.1
	c-0.1,0.1-0.2,0.1-0.3,0.2c-0.1,0.1-0.1,0.2-0.2,0.3c0,0.1-0.1,0.3-0.1,0.4v1.9h-0.5v-3.4H19.9z"/>
<path class="st1" d="M25.2,23.1v-0.5h0c-0.1,0.2-0.2,0.3-0.4,0.4c-0.2,0.1-0.4,0.1-0.6,0.1c-0.2,0-0.5,0-0.6-0.1
	c-0.2-0.1-0.3-0.2-0.5-0.4c-0.1-0.2-0.2-0.3-0.3-0.6c-0.1-0.2-0.1-0.4-0.1-0.7c0-0.2,0-0.5,0.1-0.7c0.1-0.2,0.2-0.4,0.3-0.6
	c0.1-0.2,0.3-0.3,0.5-0.4c0.2-0.1,0.4-0.1,0.6-0.1c0.1,0,0.2,0,0.3,0c0.1,0,0.2,0,0.3,0.1c0.1,0,0.2,0.1,0.3,0.2
	c0.1,0.1,0.2,0.2,0.2,0.2h0v-1.7h0.5v4.6H25.2z M23.3,21.9c0,0.1,0.1,0.3,0.2,0.4c0.1,0.1,0.2,0.2,0.3,0.3c0.1,0.1,0.3,0.1,0.4,0.1
	c0.2,0,0.3,0,0.5-0.1c0.1-0.1,0.2-0.2,0.3-0.3c0.1-0.1,0.1-0.3,0.2-0.4c0-0.2,0.1-0.3,0.1-0.5c0-0.2,0-0.3-0.1-0.5
	c0-0.2-0.1-0.3-0.2-0.4c-0.1-0.1-0.2-0.2-0.3-0.3c-0.1-0.1-0.3-0.1-0.5-0.1c-0.2,0-0.3,0-0.4,0.1c-0.1,0.1-0.2,0.2-0.3,0.3
	c-0.1,0.1-0.1,0.3-0.2,0.4c0,0.2-0.1,0.3-0.1,0.5C23.2,21.6,23.3,21.8,23.3,21.9"/>
<path class="st1" d="M31,19.1c-0.2-0.2-0.5-0.2-0.8-0.2c-0.3,0-0.5,0.1-0.7,0.2c-0.2,0.1-0.3,0.2-0.5,0.4c-0.1,0.2-0.2,0.4-0.3,0.6
	c-0.1,0.2-0.1,0.5-0.1,0.7c0,0.3,0,0.5,0.1,0.8c0.1,0.2,0.1,0.4,0.3,0.6c0.1,0.2,0.3,0.3,0.5,0.4c0.2,0.1,0.4,0.2,0.7,0.2
	c0.2,0,0.4,0,0.5-0.1c0.1-0.1,0.3-0.2,0.4-0.3c0.1-0.1,0.2-0.3,0.3-0.4c0.1-0.2,0.1-0.3,0.1-0.5h0.6c-0.1,0.6-0.2,1-0.6,1.4
	c-0.3,0.3-0.8,0.5-1.3,0.5c-0.3,0-0.6-0.1-0.9-0.2c-0.3-0.1-0.5-0.3-0.6-0.5c-0.2-0.2-0.3-0.5-0.4-0.8c-0.1-0.3-0.1-0.6-0.1-0.9
	c0-0.3,0-0.7,0.1-1c0.1-0.3,0.2-0.6,0.4-0.8c0.2-0.2,0.4-0.4,0.7-0.5c0.3-0.1,0.6-0.2,0.9-0.2c0.2,0,0.4,0,0.7,0.1
	c0.2,0.1,0.4,0.2,0.5,0.3c0.2,0.1,0.3,0.3,0.4,0.5c0.1,0.2,0.2,0.4,0.2,0.7h-0.6C31.4,19.5,31.2,19.3,31,19.1"/>
<path class="st1" d="M32.7,18.5h0.5v0.7h-0.5V18.5z M33.3,23.1h-0.5v-3.4h0.5V23.1z"/>
<path class="st1" d="M35.4,19.7v0.5h-0.6v2.1c0,0.1,0,0.1,0,0.2c0,0,0,0.1,0.1,0.1s0.1,0,0.1,0c0.1,0,0.1,0,0.2,0h0.2v0.5H35
	c-0.1,0-0.3,0-0.4,0c-0.1,0-0.2-0.1-0.2-0.1c-0.1-0.1-0.1-0.1-0.1-0.2c0-0.1,0-0.2,0-0.4v-2.1h-0.5v-0.5h0.5v-1h0.5v1H35.4z"/>
<path class="st1" d="M37.1,24c-0.1,0.1-0.1,0.2-0.2,0.3c-0.1,0.1-0.2,0.1-0.2,0.2c-0.1,0-0.2,0-0.3,0c-0.1,0-0.1,0-0.2,0
	c-0.1,0-0.1,0-0.2,0v-0.5c0,0,0.1,0,0.2,0.1c0.1,0,0.1,0,0.2,0c0.1,0,0.2,0,0.3-0.1c0.1-0.1,0.1-0.1,0.2-0.2l0.2-0.6l-1.3-3.3h0.6
	l0.9,2.7h0l0.9-2.7h0.6l-1.4,3.8C37.2,23.7,37.1,23.8,37.1,24"/>
<path class="st1" d="M18,10.2C17.8,10,17.5,10,17.2,10c-0.1,0-0.2,0-0.4,0c-0.1,0-0.2,0.1-0.3,0.1c-0.1,0.1-0.2,0.1-0.2,0.2
	c-0.1,0.1-0.1,0.2-0.1,0.4c0,0.1,0,0.3,0.1,0.3c0.1,0.1,0.2,0.2,0.3,0.2c0.1,0.1,0.3,0.1,0.5,0.1c0.2,0,0.3,0.1,0.5,0.1
	c0.2,0,0.3,0.1,0.5,0.2c0.2,0.1,0.3,0.1,0.5,0.2c0.1,0.1,0.2,0.2,0.3,0.4c0.1,0.2,0.1,0.3,0.1,0.6c0,0.2-0.1,0.5-0.2,0.6
	c-0.1,0.2-0.2,0.3-0.4,0.4c-0.2,0.1-0.3,0.2-0.6,0.2c-0.2,0.1-0.4,0.1-0.6,0.1c-0.2,0-0.5,0-0.7-0.1c-0.2-0.1-0.4-0.2-0.6-0.3
	c-0.2-0.1-0.3-0.3-0.4-0.5c-0.1-0.2-0.1-0.5-0.1-0.7H16c0,0.2,0,0.4,0.1,0.5c0.1,0.1,0.2,0.3,0.3,0.3c0.1,0.1,0.3,0.2,0.4,0.2
	c0.2,0,0.3,0.1,0.5,0.1c0.1,0,0.3,0,0.4,0c0.1,0,0.3-0.1,0.4-0.1s0.2-0.1,0.3-0.3c0.1-0.1,0.1-0.2,0.1-0.4c0-0.2,0-0.3-0.1-0.4
	c-0.1-0.1-0.2-0.2-0.3-0.2c-0.1-0.1-0.3-0.1-0.5-0.2c-0.2,0-0.3-0.1-0.5-0.1c-0.2,0-0.3-0.1-0.5-0.1c-0.2-0.1-0.3-0.1-0.5-0.2
	c-0.1-0.1-0.2-0.2-0.3-0.3c-0.1-0.1-0.1-0.3-0.1-0.5c0-0.2,0-0.4,0.1-0.6c0.1-0.2,0.2-0.3,0.4-0.4c0.1-0.1,0.3-0.2,0.5-0.2
	c0.2-0.1,0.4-0.1,0.6-0.1c0.2,0,0.4,0,0.6,0.1c0.2,0.1,0.4,0.1,0.5,0.3c0.1,0.1,0.3,0.3,0.3,0.5c0.1,0.2,0.1,0.4,0.1,0.7h-0.6
	C18.3,10.6,18.1,10.3,18,10.2"/>
<path class="st1" d="M21,10.8v0.5h-0.6v2.1c0,0.1,0,0.1,0,0.2c0,0,0,0.1,0.1,0.1s0.1,0,0.1,0c0.1,0,0.1,0,0.2,0H21v0.5h-0.4
	c-0.1,0-0.3,0-0.3,0c-0.1,0-0.2-0.1-0.2-0.1c-0.1-0.1-0.1-0.1-0.1-0.2s0-0.2,0-0.4v-2.1h-0.5v-0.5h0.5v-1h0.5v1H21z"/>
<path class="st1" d="M24.1,14.3c-0.1,0-0.2,0-0.3-0.1c-0.1-0.1-0.1-0.2-0.1-0.4c-0.1,0.2-0.3,0.3-0.5,0.4c-0.2,0.1-0.4,0.1-0.6,0.1
	c-0.1,0-0.3,0-0.4,0c-0.1,0-0.2-0.1-0.3-0.2c-0.1-0.1-0.2-0.2-0.2-0.3c-0.1-0.1-0.1-0.3-0.1-0.4c0-0.2,0-0.3,0.1-0.5
	c0.1-0.1,0.1-0.2,0.2-0.3c0.1-0.1,0.2-0.1,0.3-0.2c0.1,0,0.3-0.1,0.4-0.1c0.1,0,0.3-0.1,0.4-0.1c0.1,0,0.2,0,0.3-0.1
	c0.1,0,0.2-0.1,0.2-0.1c0.1-0.1,0.1-0.1,0.1-0.2c0-0.1,0-0.2-0.1-0.3s-0.1-0.1-0.2-0.2c-0.1,0-0.1-0.1-0.2-0.1c-0.1,0-0.2,0-0.2,0
	c-0.2,0-0.4,0-0.6,0.1c-0.1,0.1-0.2,0.3-0.2,0.5h-0.5c0-0.2,0.1-0.4,0.1-0.5c0.1-0.1,0.2-0.3,0.3-0.3c0.1-0.1,0.3-0.2,0.4-0.2
	s0.3-0.1,0.5-0.1c0.1,0,0.3,0,0.4,0s0.3,0.1,0.4,0.1c0.1,0.1,0.2,0.2,0.3,0.3c0.1,0.1,0.1,0.3,0.1,0.5v1.7c0,0.1,0,0.2,0,0.3
	c0,0.1,0.1,0.1,0.1,0.1c0,0,0.1,0,0.2,0v0.4C24.3,14.2,24.2,14.3,24.1,14.3 M23.3,12.6c-0.1,0-0.2,0-0.3,0.1c-0.1,0-0.2,0-0.4,0.1
	c-0.1,0-0.2,0.1-0.3,0.1c-0.1,0-0.2,0.1-0.2,0.2C22,13,22,13.2,22,13.3c0,0.1,0,0.2,0.1,0.2c0,0.1,0.1,0.1,0.1,0.2
	c0.1,0,0.1,0.1,0.2,0.1c0.1,0,0.2,0,0.2,0c0.2,0,0.3,0,0.4-0.1c0.1,0,0.2-0.1,0.3-0.2c0.1-0.1,0.1-0.2,0.2-0.2
	c0-0.1,0.1-0.2,0.1-0.2v-0.6C23.5,12.5,23.4,12.6,23.3,12.6"/>
<path class="st1" d="M25.4,10.8v0.7h0c0.1-0.3,0.3-0.5,0.5-0.6c0.2-0.1,0.4-0.2,0.7-0.2v0.6c-0.2,0-0.4,0-0.5,0.1
	c-0.1,0.1-0.3,0.1-0.4,0.3c-0.1,0.1-0.2,0.3-0.2,0.4c0,0.2-0.1,0.4-0.1,0.6v1.5h-0.5v-3.4H25.4z"/>
<path class="st1" d="M28.5,10.8v0.5h-0.6v2.1c0,0.1,0,0.1,0,0.2c0,0,0,0.1,0.1,0.1s0.1,0,0.1,0c0,0,0.1,0,0.2,0h0.2v0.5h-0.4
	c-0.1,0-0.3,0-0.4,0c-0.1,0-0.2-0.1-0.2-0.1c-0.1-0.1-0.1-0.1-0.1-0.2s0-0.2,0-0.4v-2.1h-0.5v-0.5h0.5v-1h0.5v1H28.5z"/>
<path class="st1" d="M33.6,10.2C33.3,10,33.1,10,32.8,10c-0.3,0-0.5,0.1-0.7,0.2c-0.2,0.1-0.3,0.2-0.5,0.4c-0.1,0.2-0.2,0.4-0.3,0.6
	c-0.1,0.2-0.1,0.5-0.1,0.7c0,0.3,0,0.5,0.1,0.8c0.1,0.2,0.1,0.4,0.3,0.6c0.1,0.2,0.3,0.3,0.5,0.4c0.2,0.1,0.4,0.2,0.7,0.2
	c0.2,0,0.4,0,0.5-0.1c0.1-0.1,0.3-0.2,0.4-0.3c0.1-0.1,0.2-0.3,0.3-0.4c0.1-0.2,0.1-0.3,0.1-0.5h0.6c-0.1,0.6-0.2,1-0.6,1.4
	c-0.3,0.3-0.8,0.5-1.3,0.5c-0.3,0-0.6-0.1-0.9-0.2c-0.3-0.1-0.5-0.3-0.6-0.5c-0.2-0.2-0.3-0.5-0.4-0.8c-0.1-0.3-0.1-0.6-0.1-0.9
	c0-0.3,0-0.7,0.1-1c0.1-0.3,0.2-0.6,0.4-0.8c0.2-0.2,0.4-0.4,0.7-0.5c0.3-0.1,0.6-0.2,0.9-0.2c0.2,0,0.4,0,0.7,0.1
	c0.2,0.1,0.4,0.2,0.5,0.3c0.2,0.1,0.3,0.3,0.4,0.5c0.1,0.2,0.2,0.4,0.2,0.7H34C33.9,10.6,33.8,10.4,33.6,10.2"/>
<path class="st1" d="M35.3,9.6h0.5v0.7h-0.5V9.6z M35.8,14.2h-0.5v-3.4h0.5V14.2z"/>
<path class="st1" d="M38,10.8v0.5h-0.6v2.1c0,0.1,0,0.1,0,0.2c0,0,0,0.1,0.1,0.1s0.1,0,0.1,0c0.1,0,0.1,0,0.2,0H38v0.5h-0.4
	c-0.1,0-0.3,0-0.3,0c-0.1,0-0.2-0.1-0.2-0.1c-0.1-0.1-0.1-0.1-0.1-0.2c0-0.1,0-0.2,0-0.4v-2.1h-0.5v-0.5h0.5v-1h0.5v1H38z"/>
<path class="st1" d="M39.6,15.1c-0.1,0.1-0.1,0.2-0.2,0.3c-0.1,0.1-0.2,0.1-0.2,0.2c-0.1,0-0.2,0-0.3,0c-0.1,0-0.1,0-0.2,0
	c-0.1,0-0.1,0-0.2,0V15c0,0,0.1,0,0.2,0.1c0.1,0,0.1,0,0.2,0c0.1,0,0.2,0,0.3-0.1c0.1-0.1,0.1-0.1,0.2-0.2l0.2-0.6l-1.3-3.3h0.6
	l0.9,2.7h0l0.9-2.7h0.6l-1.4,3.8C39.8,14.8,39.7,14.9,39.6,15.1"/>
<g>
</g>
<g>
</g>
<g>
</g>
<g>
</g>
<g>
</g>
<g>
</g>
</svg>
