<svg xmlns="http://www.w3.org/2000/svg" width="236.5" height="96.8" viewBox="0 0 236.5 96.8"><defs><style>.cls-1{fill:#1575d9;}.cls-2{fill:#fff;}.cls-3{fill:none;}.cls-4{fill:#fadb00;}.cls-5{fill:#1a2954;}.cls-6{fill:#83632b;}.cls-7{fill:#56bc84;}.cls-8{fill:#d9983c;}.cls-9{fill:#c4dade;}</style></defs><title>Asset 12</title><g id="Layer_2" data-name="Layer 2"><g id="Top"><path class="cls-1" d="M234.92,75.09a1.58,1.58,0,0,1,1.58-1.58V71.32a1.57,1.57,0,1,1,0-3.14V66a1.57,1.57,0,1,1,0-3.14V60.65a1.58,1.58,0,1,1,0-3.15V55.31a1.58,1.58,0,1,1,0-3.15V50a1.57,1.57,0,1,1,0-3.14V44.64a1.58,1.58,0,1,1,0-3.15V39.3a1.58,1.58,0,1,1,0-3.15V34a1.57,1.57,0,1,1,0-3.14v-2.2a1.57,1.57,0,1,1,0-3.14V23.29a1.58,1.58,0,1,1,0-3.15V18.05A18,18,0,0,1,218.45,0H18.05A18,18,0,0,1,0,18.05v2.09a1.57,1.57,0,0,1,1.57,1.57A1.57,1.57,0,0,1,0,23.29v2.19a1.57,1.57,0,0,1,0,3.14v2.2A1.57,1.57,0,0,1,0,34v2.19a1.57,1.57,0,0,1,1.57,1.58A1.57,1.57,0,0,1,0,39.3v2.19a1.57,1.57,0,0,1,1.57,1.57A1.57,1.57,0,0,1,0,44.64v2.19A1.57,1.57,0,0,1,0,50v2.19a1.57,1.57,0,0,1,1.57,1.58A1.57,1.57,0,0,1,0,55.31V57.5a1.57,1.57,0,0,1,1.57,1.57A1.57,1.57,0,0,1,0,60.65v2.19A1.57,1.57,0,0,1,0,66v2.2a1.57,1.57,0,0,1,0,3.14v2.19a1.57,1.57,0,0,1,1.57,1.58A1.57,1.57,0,0,1,0,76.66v2.09a18,18,0,0,1,18.05,18h200.4a18,18,0,0,1,18.05-18V76.66A1.58,1.58,0,0,1,234.92,75.09Z"/><polygon class="cls-2" points="152.22 9.76 153.41 13.42 157.25 13.42 154.14 15.68 155.33 19.33 152.22 17.07 149.11 19.33 150.3 15.68 147.19 13.42 151.03 13.42 152.22 9.76"/><polygon class="cls-2" points="185.24 9.76 186.43 13.42 190.27 13.42 187.16 15.68 188.35 19.33 185.24 17.07 182.13 19.33 183.32 15.68 180.21 13.42 184.05 13.42 185.24 9.76"/><polygon class="cls-2" points="168.73 5.57 170.42 10.76 175.87 10.76 171.46 13.97 173.15 19.16 168.73 15.95 164.31 19.16 166 13.97 161.59 10.76 167.04 10.76 168.73 5.57"/><polygon class="cls-2" points="152.22 77.64 153.41 81.3 157.25 81.3 154.14 83.56 155.33 87.21 152.22 84.95 149.11 87.21 150.3 83.56 147.19 81.3 151.03 81.3 152.22 77.64"/><polygon class="cls-2" points="185.24 77.64 186.43 81.3 190.27 81.3 187.16 83.56 188.35 87.21 185.24 84.95 182.13 87.21 183.32 83.56 180.21 81.3 184.05 81.3 185.24 77.64"/><polygon class="cls-2" points="168.73 77.64 170.42 82.83 175.87 82.83 171.46 86.04 173.15 91.23 168.73 88.02 164.31 91.23 166 86.04 161.59 82.83 167.04 82.83 168.73 77.64"/><path class="cls-3" d="M76.39,56.92a17.13,17.13,0,0,1,0-4c0-.86.09-1.73.09-2.55A26.59,26.59,0,0,1,75,53a11.83,11.83,0,0,1-2.1,3.64c-.15.19-.32.4-.45.59h0l.48.06-.46,2.49-.28.07a2,2,0,0,1-.5.06,1.35,1.35,0,0,1-.6,1,.8.8,0,0,1-.33.08.89.89,0,0,1-.48-.16,2.66,2.66,0,0,1-.92-2.44,29.48,29.48,0,0,1-3.36-6.43c-.48,2,.15,3.84.82,5.78.27.76.54,1.56.74,2.36a3.2,3.2,0,0,1-.69,3.2h0c-.08.56-.16,1.12-.25,1.66h.57c2.84,0,5.62,0,8.35.1,0-.9,0-1.77,0-2.58a11.36,11.36,0,0,1,.64-5Z"/><path class="cls-3" d="M81.61,58.16a17.5,17.5,0,0,1-4.55-.33,10.12,10.12,0,0,0-.54,4.44v.12c0,.94,0,2,0,3,0,.86.11,1.65.19,2.25,1.07-.08,2.51-.1,3.14-.1h0c.15-.63.45-2,.65-3.15a10.49,10.49,0,0,0,.17-1.51h.91a11.8,11.8,0,0,1-.18,1.62,15.72,15.72,0,0,0,1,3.44,3.53,3.53,0,0,0,.41.1,5.16,5.16,0,0,0,2.14.16l.11,0a8.53,8.53,0,0,0,.15-1.27,37.86,37.86,0,0,0,0-3.88V63l0-.09c.43-1.11.62-3.86-.26-5.15C84.5,57.81,83.27,58,81.61,58.16Z"/><path class="cls-4" d="M86.15,67.48A7.6,7.6,0,0,1,86,68.63l0,.14-.12.1-.15.08a8.63,8.63,0,0,1,.15,2,7.1,7.1,0,0,1-.29,1.66A13.08,13.08,0,0,0,85,75.68c.34.3.91.92.7,1.55s-1.41.86-2.26.86h0a1.21,1.21,0,0,1-1-.45,1.69,1.69,0,0,1-.17-1.34c-.07-1.69-.14-2.75-.19-3.63,0-.6-.06-1.12-.09-1.7a7.13,7.13,0,0,1,.23-2.12l-.2,0-.21-.07-.08-.2c-.07-.16-.4-1-.7-1.89-.18.84-.33,1.48-.33,1.49l-.09.35H80.3a9.06,9.06,0,0,1-.43,2.41,5,5,0,0,1,.46,1.78c0,.6,0,1.14-.09,1.77a34.61,34.61,0,0,0-.16,3.64A1.67,1.67,0,0,1,80,79.42a1.2,1.2,0,0,1-1,.51h-.45c-1.15,0-1.76-.24-2-.75s.21-1.07.48-1.35a28.7,28.7,0,0,0-.49-3.23,13.23,13.23,0,0,1-.27-1.69,8.38,8.38,0,0,1,0-1.85,11.58,11.58,0,0,1-.14-2.42l-.18,0-.08-.42a21.29,21.29,0,0,1-.24-2.35c-2.73-.13-5.53-.13-8.39-.1h-.72a17.72,17.72,0,0,1-1.25,4.61,9.44,9.44,0,0,1,.17,2.08,7.65,7.65,0,0,1-.3,1.66,13.2,13.2,0,0,0-.49,3.07c.33.31.92,1,.69,1.62s-1.25.79-2,.79h-.31a1,1,0,0,1-.76-.34,1.21,1.21,0,0,1-.26-.61c-.83,0-1.78-.11-2-.78s.29-1.07.61-1.35a12,12,0,0,0-.53-2.94A6.74,6.74,0,0,1,59.83,72c0-.07,0-.14,0-.21A4.56,4.56,0,0,1,57.91,73a.22.22,0,0,1-.22.15.2.2,0,0,1-.15-.06,3.08,3.08,0,0,1-.61.06,3.87,3.87,0,0,1-1-.14l-.2,0-.11-.2c-.12-.22-.28-.52,1.55-5.73.1-.28.18-.55.26-.81a50.44,50.44,0,0,0-7.11,1.11c.2.65.42,1.35.69,2.11.55,1.59,1.2,3.24,1.92,4.88a6,6,0,0,1,1.63,0l-.15.89a4.73,4.73,0,0,0-1.68,0,4.92,4.92,0,0,0-2.57,1.37,4.61,4.61,0,0,0-.68.8l-.77-.48a3.94,3.94,0,0,1,.4-.52,7,7,0,0,0-4,.16H45a13.84,13.84,0,0,0-1.33.45l-.33-.85c.32-.12.67-.24,1-.34-.63-1.73-1.18-3.44-1.63-5.09l-.15-.58c-5.2,2.81-9.29,7.18-12.48,13.34a5.23,5.23,0,0,0,2.3-.54l2.1-1.11L36.59,83a5.81,5.81,0,0,0,5,0l2.12-1.11L45.78,83a5.93,5.93,0,0,0,5,0l2.1-1.11L55,83a5.84,5.84,0,0,0,5,0l2.1-1.11,2,1.12a5.26,5.26,0,0,0,2.56.55A5.59,5.59,0,0,0,69.14,83l2.09-1.11L73.34,83a5.81,5.81,0,0,0,5,0l2.12-1.11L82.53,83a5.93,5.93,0,0,0,5,0l2.1-1.11L91.75,83a5.84,5.84,0,0,0,5,0l2.09-1.11L100.93,83a6,6,0,0,0,3.45.49C99.93,74.9,94.12,69.81,86.15,67.48ZM52.78,69.22a.24.24,0,0,1,0-.48A.24.24,0,0,1,52.78,69.22Zm1.11,4.12a.24.24,0,0,1,0-.47A.24.24,0,0,1,53.89,73.34Zm.24-3.17a.24.24,0,0,1,0-.47A.24.24,0,0,1,54.13,70.17ZM35,79a.24.24,0,0,1,0-.48A.24.24,0,0,1,35,79Zm2.85-2.06a.24.24,0,0,1,0-.48A.24.24,0,0,1,37.8,76.91Zm1.67-1.35a.24.24,0,0,1,0-.48A.24.24,0,0,1,39.47,75.56ZM40,77a.24.24,0,0,1,0-.48A.24.24,0,0,1,40,77Zm1.11-1.35a.24.24,0,0,1,0-.48A.24.24,0,0,1,41.13,75.64ZM52.7,80.08a.24.24,0,0,1,0-.48A.24.24,0,0,1,52.7,80.08Zm1.75.4a.24.24,0,0,1,0-.48A.24.24,0,0,1,54.45,80.48Zm.23-1.27a.24.24,0,0,1,0-.48A.24.24,0,0,1,54.68,79.21ZM59.36,74a.24.24,0,0,1,0-.48A.24.24,0,0,1,59.36,74Zm4.9,6.41a.19.19,0,0,1,.17-.08.24.24,0,1,1-.17.08Zm2.39,1.67a.25.25,0,0,1-.22-.33.22.22,0,0,1,.22-.15A.24.24,0,0,1,66.65,82.06Zm1.9-.71a.24.24,0,0,1,0-.48A.24.24,0,0,1,68.55,81.35ZM70.06,67a.24.24,0,0,1,0-.48A.24.24,0,0,1,70.06,67Zm1.5-.4a.24.24,0,0,1,0,.48A.24.24,0,0,1,71.56,66.6ZM71.8,69a.24.24,0,0,1,0-.47A.24.24,0,0,1,71.8,69Zm1.9-2.38a.24.24,0,0,1,0,.48A.24.24,0,0,1,73.7,66.6Zm.32,3a.24.24,0,0,1,0-.48A.24.24,0,0,1,74,69.62Zm.79,8.24a.24.24,0,0,1,0-.48A.24.24,0,0,1,74.81,77.86Zm1.35-1.27a.24.24,0,0,1,0-.47A.24.24,0,0,1,76.16,76.59Zm5.15,5.23a.24.24,0,0,1,0-.47A.24.24,0,0,1,81.31,81.82Zm3.33-1.74a.24.24,0,0,1,0-.48A.24.24,0,0,1,84.64,80.08Zm1.19,1.74a.24.24,0,0,1,0-.47A.24.24,0,0,1,85.83,81.82ZM87,70.17a.24.24,0,0,1,0,.48A.24.24,0,0,1,87,70.17Zm.24,3a.24.24,0,0,1,0-.48A.24.24,0,0,1,87.26,73.19Zm.94-1.67a.24.24,0,0,1,0-.47A.24.24,0,0,1,88.2,71.52Zm2.47,6.1a.24.24,0,0,1,0-.47A.24.24,0,0,1,90.67,77.62Zm1.1,1.67a.24.24,0,0,1,0-.48A.24.24,0,0,1,91.77,79.29Zm.08-6.58a.24.24,0,0,1,0-.48A.24.24,0,0,1,91.85,72.71Zm1.43.63a.24.24,0,0,1,0,.47A.24.24,0,0,1,93.28,73.34Zm.4,6.18a.24.24,0,0,1,0-.47A.24.24,0,0,1,93.68,79.52Zm.23-4.28a.24.24,0,0,1,0-.47A.24.24,0,0,1,93.91,75.24Zm1.35-1a.24.24,0,0,1,0,.48A.24.24,0,0,1,95.26,74.21Zm.08,2.14a.24.24,0,0,1,0-.47A.24.24,0,0,1,95.34,76.35Zm1.43-.08a.24.24,0,0,1,0-.47A.24.24,0,0,1,96.77,76.27Zm2.53,2.14a.24.24,0,0,1,0-.47A.24.24,0,0,1,99.3,78.41Z"/><path class="cls-5" d="M99.3,77.94a.24.24,0,0,0,0,.47A.24.24,0,0,0,99.3,77.94Z"/><path class="cls-5" d="M96.77,75.8a.24.24,0,0,0,0,.47A.24.24,0,0,0,96.77,75.8Z"/><path class="cls-5" d="M95.34,75.88a.24.24,0,0,0,0,.47A.24.24,0,0,0,95.34,75.88Z"/><path class="cls-5" d="M95.26,74.21a.24.24,0,0,0,0,.48A.24.24,0,0,0,95.26,74.21Z"/><path class="cls-5" d="M93.91,74.77a.24.24,0,0,0,0,.47A.24.24,0,0,0,93.91,74.77Z"/><path class="cls-5" d="M93.68,79.05a.24.24,0,0,0,0,.47A.24.24,0,0,0,93.68,79.05Z"/><path class="cls-5" d="M93.28,73.34a.24.24,0,0,0,0,.47A.24.24,0,0,0,93.28,73.34Z"/><path class="cls-5" d="M91.85,72.23a.24.24,0,0,0,0,.48A.24.24,0,0,0,91.85,72.23Z"/><path class="cls-5" d="M91.77,78.81a.24.24,0,0,0,0,.48A.24.24,0,0,0,91.77,78.81Z"/><path class="cls-6" d="M71,56.45a16,16,0,0,0-.61,1.81A1.75,1.75,0,0,0,70.79,60a1.42,1.42,0,0,0,.08-.34,1.22,1.22,0,0,1-.43-1,1.31,1.31,0,0,1,.94-1.27A5.54,5.54,0,0,1,72.22,56a10.65,10.65,0,0,0,2-3.4l0-.11a22.35,22.35,0,0,0,2-4.16,4.91,4.91,0,0,0-.27-1l.82-.36a5.56,5.56,0,0,1,.37,1.31.13.13,0,0,0,0,.06h0a22.75,22.75,0,0,1,0,4.61,14.94,14.94,0,0,0,.09,4,16.13,16.13,0,0,0,4.19.31c1.56-.14,2.74-.33,3.28-.42a31,31,0,0,0-.14-4.36c-.07-.86-.14-1.75-.17-2.52h0c-.07-2,.11-2.82.67-3.13l.43.8c0,.06-.26.4-.19,2.25a36.44,36.44,0,0,0,1.46,3.35l0,.11a9.28,9.28,0,0,0,1.57,3.41A5.52,5.52,0,0,1,89.18,58l.1.32-.29.19c-.4.27-.74.66-.73.79s.2,0,.5-.17a3.66,3.66,0,0,0,.4-.32l.63.65a3.51,3.51,0,0,1-.31.27,2.89,2.89,0,0,0,.22.89c.17.39.33.57.44.55a.54.54,0,0,0,.33-.13.91.91,0,0,0,0-.6,5.88,5.88,0,0,0-.12-.69c0-.17-.08-.35-.11-.52A30.07,30.07,0,0,0,88,52.64a3.24,3.24,0,0,1-.31-1.12,26.09,26.09,0,0,0-1.23-4.86l0-.12C86.16,44,84.7,44,82.69,44H82.4l-.15-.26a2.36,2.36,0,0,1,0-1.51l0-.19.16-.09A1.92,1.92,0,0,0,83,40.66h0v-.35a1.79,1.79,0,0,0,.34,0c.5-.09.7-.39.69-.64a.4.4,0,0,0-.34-.35,3.17,3.17,0,0,1-.73.93c-.63.6-1.31,1.25-1.94,1.29h-.13a2.69,2.69,0,0,1-2.09-1.34l-.07-.07a6.8,6.8,0,0,1-.78-.83c-.25.07-.26.41-.26.45a.63.63,0,0,0,.7.64,1.61,1.61,0,0,0,.34,0l.08.37h0A2.82,2.82,0,0,0,79.52,42l.08.08,0,.1c.35,1.06,0,1.38-.23,1.47l-.11.06h-.12c-.14,0-3.51-.24-3.94,2.24l-.06.15a18.08,18.08,0,0,0-1.63,5.07v.14l-.08.12A34.44,34.44,0,0,0,71,56.45Z"/><path class="cls-5" d="M90.67,77.15a.24.24,0,0,0,0,.47A.24.24,0,0,0,90.67,77.15Z"/><path class="cls-5" d="M88.2,71.05a.24.24,0,0,0,0,.47A.24.24,0,0,0,88.2,71.05Z"/><path class="cls-5" d="M87.26,72.71a.24.24,0,0,0,0,.48A.24.24,0,0,0,87.26,72.71Z"/><path class="cls-5" d="M87,70.17a.24.24,0,0,0,0,.48A.24.24,0,0,0,87,70.17Z"/><path class="cls-5" d="M85.83,81.35a.24.24,0,0,0,0,.47A.24.24,0,0,0,85.83,81.35Z"/><path class="cls-6" d="M83.09,69.05a5.86,5.86,0,0,0-.21,1.88c0,.57.05,1.09.09,1.69,0,.89.11,2,.19,3.71v.08l0,.08a.85.85,0,0,0,0,.61c.06.07.18.06.31.09,1.21,0,1.4-.25,1.4-.25a1.65,1.65,0,0,0-.58-.7l-.18-.14v-.24a14.25,14.25,0,0,1,.52-3.47,6,6,0,0,0,.27-1.46,8.43,8.43,0,0,0-.12-1.74h-.3A7.69,7.69,0,0,1,83.09,69.05Z"/><path class="cls-5" d="M84.64,79.6a.24.24,0,0,0,0,.48A.24.24,0,0,0,84.64,79.6Z"/><path class="cls-7" d="M59.93,19.52h0a10.46,10.46,0,0,0-3.42,3l-.17.24c.13.49.93,1.15,2.88,1.59.51.11,1.08.2,1.68.27s.92.09,1.43.11a1.33,1.33,0,0,0,.05-.19c.14-.51.37-1.35,1.08-1.35h.06c.78.06,1,.86,1.17,1.4,0,.08,0,.18.08.27.41-.05.77-.07,1.12-.1s.57,0,.87-.06a15.06,15.06,0,0,0,1.57-.26v-.11c0-.44.11-1.36,1-1.56a.84.84,0,0,1,.67.11,1.7,1.7,0,0,1,.57,1.21c0,.14.08.36.12.48a16.11,16.11,0,0,1,3.5.07l1.24.11v0c0-.49.07-1.64,1.07-1.67a1.33,1.33,0,0,1,1,.35,2.19,2.19,0,0,1,.37,1.67v0c2,.34,4.61.75,4.95.3,0,0,.12-.22-.2-.9a12.47,12.47,0,0,0-7.8-6.38A19.77,19.77,0,0,0,59.93,19.52Z"/><path class="cls-5" d="M81.31,81.35a.24.24,0,0,0,0,.47A.24.24,0,0,0,81.31,81.35Z"/><path class="cls-6" d="M79.39,68.49c-.64,0-1.55,0-2.31.07A11,11,0,0,0,77.2,71v.13a7.77,7.77,0,0,0,0,1.72,14.24,14.24,0,0,0,.26,1.59A31,31,0,0,1,78,78l0,.24-.18.15a1.27,1.27,0,0,0-.39.51,2.84,2.84,0,0,0,1.11.15h.41a.4.4,0,0,0,.3-.1.91.91,0,0,0,0-.61l0-.15a37.61,37.61,0,0,1,.15-3.79,17,17,0,0,0,.1-1.7A4.49,4.49,0,0,0,79,71.09l-.12-.23.15-.22A6.64,6.64,0,0,0,79.39,68.49Z"/><path class="cls-5" d="M76.16,76.12a.24.24,0,0,0,0,.47A.24.24,0,0,0,76.16,76.12Z"/><path class="cls-5" d="M74.81,77.38a.24.24,0,0,0,0,.48A.24.24,0,0,0,74.81,77.38Z"/><path class="cls-5" d="M74,69.14a.24.24,0,0,0,0,.48A.24.24,0,0,0,74,69.14Z"/><path class="cls-5" d="M73.7,66.6a.24.24,0,0,0,0,.48A.24.24,0,0,0,73.7,66.6Z"/><path class="cls-8" d="M71.34,58.6c0,.28.1.31.17.34a.88.88,0,0,0,.24,0l.16-.85h0C71.35,58.23,71.34,58.47,71.34,58.6Z"/><path class="cls-7" d="M66.71,25.59l-.76.06c-.4,0-.8.05-1.29.11s-.72-.51-.85-.94a1.81,1.81,0,0,0-.31-.73,3.1,3.1,0,0,0-.24.67c-.12.43-.24.87-.68.87h0c-.34,0-.66,0-1-.06a2.74,2.74,0,0,1,.12.81A2.89,2.89,0,0,1,61.19,28l.77.4.11-.1a1.74,1.74,0,0,1,1.52-.58c.68.18.68.87.67,1.24a2.53,2.53,0,0,0,0,.28,7.41,7.41,0,0,1,2,1.37,10.55,10.55,0,0,0,1.08.87h0a1.42,1.42,0,0,1,1.5-.4,1.71,1.71,0,0,1,.79,1.83v0l.55.42a14.83,14.83,0,0,0,1.7,1.2c0-.1,0-.26,0-.53A9.46,9.46,0,0,0,66.71,25.59Z"/><path class="cls-5" d="M71.8,68.51a.24.24,0,0,0,0,.47A.24.24,0,0,0,71.8,68.51Z"/><path class="cls-5" d="M71.56,66.6a.24.24,0,0,0,0,.48A.24.24,0,0,0,71.56,66.6Z"/><path class="cls-5" d="M70.06,66.52a.24.24,0,0,0,0,.48A.24.24,0,0,0,70.06,66.52Z"/><path class="cls-8" d="M65.89,46.44l-.69,2.82c.29.07.59.15.88.25a.78.78,0,0,1,.47.45.75.75,0,0,1,0,.47,24.56,24.56,0,0,0,3.16,6.72c.08-.26.19-.54.3-.84a32,32,0,0,1-2.35-6.94A3.52,3.52,0,0,0,65.89,46.44Z"/><path class="cls-5" d="M68.55,80.87a.24.24,0,0,0,0,.48A.24.24,0,0,0,68.55,80.87Z"/><path class="cls-9" d="M58.68,71.57a.19.19,0,0,1,.14-.12A7.14,7.14,0,0,0,60,70.17c.51-.68,1-1.48,1.46-2.25.28-.48.57-1,.86-1.4a8.45,8.45,0,0,1,2.29-2.58,10,10,0,0,0,1.49-1.15,2.31,2.31,0,0,0,.63-2.53c-.19-.77-.46-1.55-.71-2.3-.83-2.38-1.68-4.84-.37-7.64a8.67,8.67,0,0,0-1.09-.27,13.64,13.64,0,0,0-3.43-.12c-.63.06-1.26.15-1.9.27,1.66,4.52.76,6.85,0,8.73a7.09,7.09,0,0,0-.56,1.88,9.26,9.26,0,0,0,0,1.17,12.55,12.55,0,0,1-.31,3.81A13.94,13.94,0,0,1,58,67.28a47.24,47.24,0,0,0-1.54,4.87A2.76,2.76,0,0,0,58.68,71.57Z"/><path class="cls-5" d="M66.65,81.58a.22.22,0,0,0-.22.15.25.25,0,0,0,.22.33A.24.24,0,0,0,66.65,81.58Z"/><path class="cls-9" d="M58.31,40.92a4.5,4.5,0,0,0,.19,1.33,4.83,4.83,0,0,0,4.62,3.48,5.38,5.38,0,0,0,1.38-.17,3.21,3.21,0,0,0,.66-.24h0C66.4,44.73,67,43.48,67,41.6c0-2.5-1.9-4.18-4.72-4.18S58.31,38.43,58.31,40.92Zm1.71.25h0a2.65,2.65,0,0,1,5.26,0h0v.19c0,1.86-1,3-2.64,3-1,0-2.65-.39-2.65-3a.46.46,0,0,0,0-.19Z"/><polygon class="cls-9" points="60.04 41.35 60.02 41.36 60.04 41.36 60.04 41.35"/><path class="cls-8" d="M65.9,64.15c-.23.17-.48.35-.78.55a7.37,7.37,0,0,0-2,2.21c0,.87,0,1.71,0,2.33,0,1.27,0,1.27-.12,1.42a2.75,2.75,0,0,0-.5,1.79c0,.57.08,1.09.16,1.7.11.88.24,2,.31,3.71v.08L63,78a1.45,1.45,0,0,0,0,.25.69.69,0,0,0,0,.42.16.16,0,0,0,.12,0h.27c.95,0,1.12-.19,1.12-.2a1.87,1.87,0,0,0-.59-.76l-.18-.14v-.23a14.84,14.84,0,0,1,.53-3.48,6,6,0,0,0,.27-1.46,7.84,7.84,0,0,0-.2-2.08,1.76,1.76,0,0,0-.08-.31L64.5,70a17.71,17.71,0,0,0,1.23-4.74C65.79,64.89,65.85,64.52,65.9,64.15Z"/><path class="cls-8" d="M64.31,49.1,65,46.41c-.54,1.49-1.82,1.57-3,1.65l-.66,0,.15.9A14.44,14.44,0,0,1,64.31,49.1Z"/><path class="cls-7" d="M63.86,43a3.24,3.24,0,0,1-2.47,0,1.63,1.63,0,0,0,1.28.45A1.67,1.67,0,0,0,63.86,43Z"/><path class="cls-5" d="M64.43,80.31a.19.19,0,0,0-.17.08.24.24,0,1,0,.17-.08Z"/><path class="cls-9" d="M60.94,41.24c.08.62.84,1.09,1.73,1.09s1.65-.48,1.72-1.08a1.74,1.74,0,0,0-3.45,0Z"/><path class="cls-8" d="M61.63,72.49a3.68,3.68,0,0,1,.63-2.29v-1c0-.26,0-.56,0-.88v0c-.45.75-.92,1.53-1.43,2.22a7.4,7.4,0,0,0-.07,1.32A5.79,5.79,0,0,0,61,73.35a12.34,12.34,0,0,1,.57,3.38V77l-.19.14a1.68,1.68,0,0,0-.46.48,2.57,2.57,0,0,0,1.14.16c-.07-1.62-.2-2.66-.3-3.5C61.72,73.63,61.65,73.1,61.63,72.49Z"/><path class="cls-8" d="M60.46,48.35a4,4,0,0,0-.73.85c.28-.05.57-.08.85-.11Z"/><path class="cls-6" d="M58.78,28.38a2,2,0,0,0,2-2,1.92,1.92,0,0,0-.23-.91c-.46-.06-.9-.13-1.31-.22-.62.53-1.23,1.09-1.8,1.68l-.4.44A2,2,0,0,0,58.78,28.38Z"/><path class="cls-5" d="M59.36,73.5a.24.24,0,0,0,0,.48A.24.24,0,0,0,59.36,73.5Z"/><path class="cls-6" d="M57.12,26c.35-.34.7-.67,1.06-1a4,4,0,0,1-2.62-1.78c-.33.24-.65.5-1,.77s-.42.36-.62.54A6,6,0,0,1,57.12,26Z"/><path class="cls-6" d="M53.19,30.79a31.41,31.41,0,0,1,3-3.81c.1-.12.21-.23.32-.35a4.79,4.79,0,0,0-3.44-1.22A30.17,30.17,0,0,0,50.77,28c-.39.48-.73,1-1.06,1.43A8.59,8.59,0,0,1,53.19,30.79Z"/><path class="cls-7" d="M48.56,21.85a11.61,11.61,0,0,0,1.39.49l-.12.42v0l.12-.45.53.14c.31.08.63.16,1,.27.12-.1.32-.32.45-.46.31-.36.55-.62.84-.67a.55.55,0,0,1,.43.11c.27.22.29.61.32,1.06a2.83,2.83,0,0,0,0,.29,1.37,1.37,0,0,0,.58.12,21.26,21.26,0,0,1,1.71-1.29A11.23,11.23,0,0,1,59,19a16.49,16.49,0,0,0-12.35-4.79,12.85,12.85,0,0,0-10.06,5.58c-.3.41-.3.55-.3.56a12.54,12.54,0,0,0,2.85.15h1.28a1.29,1.29,0,0,1,.45-.95,1.19,1.19,0,0,1,1-.16,1,1,0,0,1,.77,1.19l.9.08a12.34,12.34,0,0,1,2.86.49,2,2,0,0,0,.16-.24c.2-.32.62-1,1.38-.66a1.33,1.33,0,0,1,.66,1.52Z"/><path class="cls-5" d="M54.68,78.73a.24.24,0,0,0,0,.48A.24.24,0,0,0,54.68,78.73Z"/><path class="cls-5" d="M54.45,80a.24.24,0,0,0,0,.48A.24.24,0,0,0,54.45,80Z"/><path class="cls-5" d="M54.13,69.7a.24.24,0,0,0,0,.47A.24.24,0,0,0,54.13,69.7Z"/><path class="cls-7" d="M52.52,24.66q.36-.37.75-.72L53,23.82c-.32-.16-.35-.51-.37-.95h0c-.41.47-.81.91-1.28.76s-.73-.21-1.06-.29l-.48-.12h-.05c-2.92,0-9.52.75-10.54,7.41a2.4,2.4,0,0,0,0,.39,11.2,11.2,0,0,0,2-.9l.87-.43a1.07,1.07,0,0,1,0-.86,1,1,0,0,1,.7-.52.84.84,0,0,1,1.06.55c.29-.12.51-.23.73-.34a5.33,5.33,0,0,1,1.62-.59v-.09c0-.26,0-1,.76-1.08s1,.57,1.1.88c.41,0,1.09-.18,1.57-.26l.56-.1A30.06,30.06,0,0,1,52.52,24.66Z"/><path class="cls-5" d="M53.89,72.87a.24.24,0,0,0,0,.47A.24.24,0,0,0,53.89,72.87Z"/><path class="cls-6" d="M49.7,37.49a35.92,35.92,0,0,1,3-5.94,7.61,7.61,0,0,0-3.57-1.29,40.36,40.36,0,0,0-3.22,5.83A8.51,8.51,0,0,1,49.7,37.49Z"/><path class="cls-5" d="M52.78,68.74a.24.24,0,0,0,0,.48A.24.24,0,0,0,52.78,68.74Z"/><path class="cls-5" d="M52.7,79.6a.24.24,0,0,0,0,.48A.24.24,0,0,0,52.7,79.6Z"/><path class="cls-6" d="M50.29,70.19a16.5,16.5,0,0,1-6,.9h-.48c.41,1.46.9,3,1.46,4.48a7.21,7.21,0,0,1,4.52.12A6.09,6.09,0,0,1,52,74.45C51.36,73,50.8,71.59,50.29,70.19Z"/><path class="cls-6" d="M47.38,46.38a39.48,39.48,0,0,1,2-8A7,7,0,0,0,45.5,37a47.42,47.42,0,0,0-2.74,8.68A14.62,14.62,0,0,1,47.38,46.38Z"/><path class="cls-6" d="M43.51,70.17c1.11,0,4.76,0,6.48-.84-.28-.81-.52-1.55-.72-2.25-.45-1.46-.81-2.89-1.11-4.27a38.5,38.5,0,0,0-6,.69,55.33,55.33,0,0,0,1.15,5.87C43.37,69.64,43.44,69.91,43.51,70.17Z"/><path class="cls-6" d="M48,61.9a50.58,50.58,0,0,1-.89-6.41,14.66,14.66,0,0,0-5.42-.12A52.77,52.77,0,0,0,42,62.59,44.49,44.49,0,0,1,48,61.9Z"/><path class="cls-6" d="M47,54.56a43.66,43.66,0,0,1,.23-7.27,13.78,13.78,0,0,0-4.69-.71,50.83,50.83,0,0,0-.88,7.85A16.45,16.45,0,0,1,47,54.56Z"/><path class="cls-5" d="M41.13,75.16a.24.24,0,0,0,0,.48A.24.24,0,0,0,41.13,75.16Z"/><path class="cls-5" d="M40,76.51A.24.24,0,0,0,40,77,.24.24,0,0,0,40,76.51Z"/><path class="cls-5" d="M39.47,75.08a.24.24,0,0,0,0,.48A.24.24,0,0,0,39.47,75.08Z"/><path class="cls-5" d="M37.8,76.43a.24.24,0,0,0,0,.48A.24.24,0,0,0,37.8,76.43Z"/><path class="cls-5" d="M35,78.49A.24.24,0,0,0,35,79,.24.24,0,0,0,35,78.49Z"/><path class="cls-5" d="M107.84,82l-1.91,1a3.32,3.32,0,0,1-.64.27c-4.62-9-10.69-14.28-19.08-16.67.06-1.46,0-3,0-3.45.49-1.37.71-4.44-.48-6a27.81,27.81,0,0,0-.11-4.46c.21.46.38.81.45.94a10,10,0,0,0,1.69,3.66c.18.28.35.53.46.75-.44.36-1.1,1.05-.72,1.74a1,1,0,0,0,.6.49l.24,0a1.39,1.39,0,0,0,.33,0,4,4,0,0,0,.23.79c.4.93.93,1.11,1.27,1.11h.11a1.35,1.35,0,0,0,.94-.46,1.69,1.69,0,0,0,.24-1.28,7.37,7.37,0,0,0-.14-.77c0-.16-.07-.33-.1-.49a32.38,32.38,0,0,0-2.39-6.84,2,2,0,0,1-.22-.78,26.88,26.88,0,0,0-1.27-5.06c-.32-3.1-2.33-3.3-4.25-3.32a2,2,0,0,1,0-.5,2.53,2.53,0,0,0,.75-1.48A1.52,1.52,0,0,0,85,39.58,1.31,1.31,0,0,0,84,38.43c0-.11,0-.24,0-.34v-.51a2.39,2.39,0,0,0-1.09-2.39l-.09-.09h-.09a3.88,3.88,0,0,0-.57-.16l-.39-.12c-1.73-.55-4.11-1.31-4.84.93a2.07,2.07,0,0,0,.69,2.18.19.19,0,0,0,0,.08h0v.4a1.34,1.34,0,0,0-.84,1.28,1.51,1.51,0,0,0,1.26,1.52,3.53,3.53,0,0,0,.72,1.31,1.31,1.31,0,0,1,0,.22h0c-1.56,0-4,.59-4.46,2.92A19.69,19.69,0,0,0,72.64,51a34.18,34.18,0,0,0-2.12,4.13,27.6,27.6,0,0,1-1.93-5.92,4.42,4.42,0,0,0-2.27-3.59,4.94,4.94,0,0,0,1.61-4c0-3-2.31-5.09-5.62-5.09s-4.91,1.4-4.91,4.41a5.36,5.36,0,0,0,.19,1.39,3.78,3.78,0,0,0-.34,2.08c0,.26,0,.27-.15.43a1.83,1.83,0,0,0-.71,1.63c0,.33-.08.37-.36.53a1.8,1.8,0,0,0-.69.6c-.45.7-.9,3.11-.12,3.78A2.26,2.26,0,0,0,56.7,52h.21a2.62,2.62,0,0,0,1.62-1.09,9.7,9.7,0,0,1-.1,7.7,8,8,0,0,0-.61,2.12,9.38,9.38,0,0,0,0,1.3,11.62,11.62,0,0,1-.21,3.22A51.93,51.93,0,0,0,50,66.41C49.6,65,49.25,63.62,49,62.29a50.56,50.56,0,0,1-1-7.21A43.29,43.29,0,0,1,48.2,47a38.29,38.29,0,0,1,2.14-8.68,34.88,34.88,0,0,1,3.33-6.6,31.36,31.36,0,0,1,2.75-3.65,2.87,2.87,0,0,0,4.11.63,9.19,9.19,0,0,0,1.34.66c.3.08.53-.11.79-.33s.53-.46.67-.43a1.43,1.43,0,0,1,0,.39c0,.33,0,.89.5,1.09a6.47,6.47,0,0,1,1.81,1.25,10.25,10.25,0,0,0,1.43,1.1c.33.18.61,0,.83-.22s.43-.35.53-.3c.29.14.32.45.29,1a.72.72,0,0,0,.19.7l.72.54c1.25.95,1.86,1.42,2.35,1.42a.68.68,0,0,0,.31-.08c.45-.21.51-.79.53-1.36a10.52,10.52,0,0,0-4.68-8.71l.58-.12c.43-.1.46-.55.49-.87,0-.54.11-.7.29-.76a1.92,1.92,0,0,1,.18.62c.1.49.27,1.31,1,1.22a14.81,14.81,0,0,1,3.41.06c.52.05,1.05.1,1.64.13H76l.14-.12c.2-.18.21-.43.22-.78s0-.8.19-.81a.45.45,0,0,1,.3.08c.16.18.13.7.11,1s0,.84.43.92a30.7,30.7,0,0,0,4.47.56c.87,0,1.39-.17,1.68-.55a1.81,1.81,0,0,0-.1-1.84,13.2,13.2,0,0,0-8.34-6.85,20.57,20.57,0,0,0-15.31,1.32,17.42,17.42,0,0,0-13.2-5.22,13.77,13.77,0,0,0-10.75,6c-.31.43-.63,1-.38,1.47.35.67,1.39.67,3.67.67h1.63c.47,0,.52-.49.54-.68s0-.4.1-.45a.55.55,0,0,1,.3,0,1,1,0,0,1,0,.34.81.81,0,0,0,.1.62l.16.16.18,0,1.3.14a11.49,11.49,0,0,1,2.75.47c.61.18.94-.36,1.12-.65.07-.11.19-.29.26-.31s.15.14.1.6a1,1,0,0,0,.1.7C42.42,23,39,25.84,38.29,30.5a1.3,1.3,0,0,0,.3,1.29.87.87,0,0,0,.5.15,7.2,7.2,0,0,0,2.5-1l1.2-.59c.27-.14.33-.41.18-.8a2,2,0,0,1-.1-.29A.38.38,0,0,1,43,29.2a1.42,1.42,0,0,1,.08.18c.19.54.49.56.72.48A9.38,9.38,0,0,0,45,29.33a5,5,0,0,1,1.52-.53c.62-.11.6-.74.59-1v-.09a1.38,1.38,0,0,1,.13.29c.08.2.22.6.64.57.26,0,.82-.11,1.5-.24-.29.4-.58.8-.84,1.19a41.65,41.65,0,0,0-3.75,6.88,47.33,47.33,0,0,0-3,9.63,51,51,0,0,0-1,9,55,55,0,0,0,.45,8.1,53.77,53.77,0,0,0,1.15,6c-5.58,3-9.92,7.6-13.25,14.21A5,5,0,0,1,27.39,83l-1.78-1-.44.79,1.79,1a6.07,6.07,0,0,0,2.46.63,6.45,6.45,0,0,0,3.39-.63l1.68-.89,1.68.88a6.73,6.73,0,0,0,5.83,0l1.7-.89,1.65.88a6.89,6.89,0,0,0,5.87,0l1.67-.89,1.68.88a6.76,6.76,0,0,0,5.86,0l1.66-.88,1.62.88a6.12,6.12,0,0,0,3,.66,6.37,6.37,0,0,0,2.85-.65l1.68-.89,1.67.88a6.74,6.74,0,0,0,5.84,0l1.7-.89,1.65.88a6.87,6.87,0,0,0,5.86,0l1.68-.89,1.68.88a6.74,6.74,0,0,0,5.85,0l1.67-.88,1.67.89a7,7,0,0,0,4.66.45,5.43,5.43,0,0,0,1.19-.45l1.9-1Zm-6.91,1-2.09-1.11L96.75,83a5.84,5.84,0,0,1-5,0l-2.11-1.11L87.54,83a5.93,5.93,0,0,1-5,0l-2.08-1.11L78.33,83a5.81,5.81,0,0,1-5,0l-2.11-1.11L69.14,83a5.59,5.59,0,0,1-2.44.56A5.26,5.26,0,0,1,64.14,83l-2-1.12L60,83a5.84,5.84,0,0,1-5,0l-2.11-1.11L50.79,83a5.93,5.93,0,0,1-5,0L43.7,81.84,41.58,83a5.81,5.81,0,0,1-5,0l-2.1-1.11L32.39,83a5.23,5.23,0,0,1-2.3.54C33.28,77.33,37.37,73,42.57,70.15l.15.58c.45,1.65,1,3.36,1.63,5.09-.34.1-.69.22-1,.34l.33.85A13.84,13.84,0,0,1,45,76.56h.07a7,7,0,0,1,4-.16,3.94,3.94,0,0,0-.4.52l.77.48a4.61,4.61,0,0,1,.68-.8,4.92,4.92,0,0,1,2.57-1.37,4.73,4.73,0,0,1,1.68,0l.15-.89a6,6,0,0,0-1.63,0C52.17,72.63,51.52,71,51,69.39c-.27-.76-.49-1.46-.69-2.11a50.44,50.44,0,0,1,7.11-1.11c-.08.26-.16.53-.26.81-1.83,5.21-1.67,5.51-1.55,5.73l.11.2.2,0a3.87,3.87,0,0,0,1,.14,3.08,3.08,0,0,0,.61-.06.2.2,0,0,0,.15.06.22.22,0,0,0,.22-.15,4.56,4.56,0,0,0,1.93-1.19c0,.07,0,.14,0,.21a6.74,6.74,0,0,0,.33,1.63,12,12,0,0,1,.53,2.94c-.32.28-.79.8-.61,1.35s1.16.77,2,.78a1.21,1.21,0,0,0,.26.61,1,1,0,0,0,.76.34h.31c.72,0,1.71-.08,2-.79s-.36-1.31-.69-1.62a13.2,13.2,0,0,1,.49-3.07,7.65,7.65,0,0,0,.3-1.66,9.44,9.44,0,0,0-.17-2.08,17.72,17.72,0,0,0,1.25-4.61h.72c2.86,0,5.66,0,8.39.1a21.29,21.29,0,0,0,.24,2.35l.08.42.18,0a11.58,11.58,0,0,0,.14,2.42,8.38,8.38,0,0,0,0,1.85,13.23,13.23,0,0,0,.27,1.69A28.7,28.7,0,0,1,77,77.84c-.27.28-.69.81-.48,1.35s.81.75,2,.75H79a1.2,1.2,0,0,0,1-.51,1.67,1.67,0,0,0,.11-1.34,34.61,34.61,0,0,1,.16-3.64c.05-.63.1-1.17.09-1.77a5,5,0,0,0-.46-1.78,9.06,9.06,0,0,0,.43-2.41h.29l.09-.35s.15-.65.33-1.49c.3.9.63,1.73.7,1.89l.08.2.21.07.2,0A7.13,7.13,0,0,0,82,71c0,.58.06,1.1.09,1.7,0,.88.12,1.94.19,3.63a1.69,1.69,0,0,0,.17,1.34,1.21,1.21,0,0,0,1,.45h0c.85,0,2-.09,2.26-.86S85.36,76,85,75.68a13.08,13.08,0,0,1,.49-3.05A7.1,7.1,0,0,0,85.8,71a8.63,8.63,0,0,0-.15-2l.15-.08.12-.1,0-.14a7.6,7.6,0,0,0,.19-1.15c8,2.33,13.78,7.42,18.23,16A6,6,0,0,1,100.93,83ZM48,27.65c-.12-.31-.4-.94-1.1-.88s-.77.82-.76,1.08v.09a5.33,5.33,0,0,0-1.62.59c-.22.11-.44.22-.73.34a.84.84,0,0,0-1.06-.55,1,1,0,0,0-.7.52,1.07,1.07,0,0,0,0,.86l-.87.43a11.2,11.2,0,0,1-2,.9,2.4,2.4,0,0,1,0-.39c1-6.66,7.62-7.41,10.54-7.41h.05l.48.12c.33.08.67.17,1.06.29s.87-.29,1.28-.76h0c0,.44.05.79.37.95l.28.12q-.39.35-.75.72a30.06,30.06,0,0,0-2.35,2.63l-.56.1C49.13,27.47,48.45,27.6,48,27.65Zm-.13-7.36c-.76-.32-1.18.34-1.38.66a2,2,0,0,1-.16.24,12.34,12.34,0,0,0-2.86-.49l-.9-.08a1,1,0,0,0-.77-1.19,1.19,1.19,0,0,0-1,.16,1.29,1.29,0,0,0-.45.95H39.13a12.54,12.54,0,0,1-2.85-.15s0-.15.3-.56a12.85,12.85,0,0,1,10.06-5.58A16.49,16.49,0,0,1,59,19a11.23,11.23,0,0,0-3.16,2.86,21.26,21.26,0,0,0-1.71,1.29,1.37,1.37,0,0,1-.58-.12,2.83,2.83,0,0,1,0-.29c0-.45-.05-.84-.32-1.06a.55.55,0,0,0-.43-.11c-.29.05-.53.31-.84.67-.13.14-.33.36-.45.46-.37-.11-.69-.19-1-.27L50,22.33l-.12.45v0l.12-.42a11.61,11.61,0,0,1-1.39-.49v0A1.33,1.33,0,0,0,47.91,20.29Zm34.71,4.19c.32.68.22.87.2.9-.34.45-2.92,0-4.95-.3v0a2.19,2.19,0,0,0-.37-1.67,1.33,1.33,0,0,0-1-.35c-1,0-1,1.18-1.07,1.67v0l-1.24-.11a16.11,16.11,0,0,0-3.5-.07c0-.12-.09-.34-.12-.48A1.7,1.7,0,0,0,70,22.86a.84.84,0,0,0-.67-.11c-.92.2-1,1.12-1,1.56v.11a15.06,15.06,0,0,1-1.57.26c-.3,0-.58.05-.87.06s-.71.05-1.12.1c0-.09-.06-.19-.08-.27-.16-.54-.39-1.34-1.17-1.4h-.06c-.71,0-.94.84-1.08,1.35a1.33,1.33,0,0,1-.05.19c-.51,0-1-.06-1.43-.11s-1.17-.16-1.68-.27c-1.95-.44-2.75-1.1-2.88-1.59l.17-.24a10.46,10.46,0,0,1,3.42-3h0A19.77,19.77,0,0,1,74.82,18.1,12.47,12.47,0,0,1,82.62,24.48ZM71.9,34.57a14.83,14.83,0,0,1-1.7-1.2L69.65,33v0a1.71,1.71,0,0,0-.79-1.83,1.42,1.42,0,0,0-1.5.4h0a10.55,10.55,0,0,1-1.08-.87,7.41,7.41,0,0,0-2-1.37,2.53,2.53,0,0,1,0-.28c0-.37,0-1.06-.67-1.24a1.74,1.74,0,0,0-1.52.58l-.11.1-.77-.4a2.89,2.89,0,0,0,.51-1.64,2.74,2.74,0,0,0-.12-.81c.32,0,.64.05,1,.06h0c.44,0,.56-.44.68-.87a3.1,3.1,0,0,1,.24-.67,1.81,1.81,0,0,1,.31.73c.13.43.31,1,.85.94s.89-.08,1.29-.11l.76-.06A9.46,9.46,0,0,1,71.94,34C71.93,34.31,71.91,34.47,71.9,34.57ZM67,41.6c0,1.88-.63,3.13-1.87,3.72h0a3.21,3.21,0,0,1-.66.24,5.38,5.38,0,0,1-1.38.17,4.83,4.83,0,0,1-4.62-3.48,4.5,4.5,0,0,1-.19-1.33c0-2.49,1.16-3.5,4-3.5S67,39.1,67,41.6Zm6.51,9.54a18.08,18.08,0,0,1,1.63-5.07l.06-.15c.43-2.48,3.8-2.25,3.94-2.24h.12l.11-.06c.19-.09.58-.41.23-1.47l0-.1L79.52,42a2.82,2.82,0,0,1-.66-1.29h0l-.08-.37a1.61,1.61,0,0,1-.34,0,.63.63,0,0,1-.7-.64s0-.38.26-.45a6.8,6.8,0,0,0,.78.83l.07.07a2.69,2.69,0,0,0,2.09,1.34h.13c.63,0,1.31-.69,1.94-1.29a3.17,3.17,0,0,0,.73-.93.4.4,0,0,1,.34.35c0,.25-.19.55-.69.64a1.79,1.79,0,0,1-.34,0v.35h0a1.92,1.92,0,0,1-.56,1.26L82.3,42l0,.19a2.36,2.36,0,0,0,0,1.51l.15.26h.29c2,0,3.47,0,3.71,2.57l0,.12a26.09,26.09,0,0,1,1.23,4.86A3.24,3.24,0,0,0,88,52.64a30.07,30.07,0,0,1,2.32,6.59c0,.17.07.35.11.52a5.88,5.88,0,0,1,.12.69.91.91,0,0,1,0,.6.54.54,0,0,1-.33.13c-.11,0-.27-.16-.44-.55a2.89,2.89,0,0,1-.22-.89,3.51,3.51,0,0,0,.31-.27l-.63-.65a3.66,3.66,0,0,1-.4.32c-.3.2-.46.2-.5.17s.33-.52.73-.79l.29-.19-.1-.32a5.52,5.52,0,0,0-.71-1.27,9.28,9.28,0,0,1-1.57-3.41l0-.11a36.44,36.44,0,0,1-1.46-3.35c-.07-1.85.14-2.19.19-2.25l-.43-.8c-.56.31-.74,1.15-.67,3.13h0c0,.77.1,1.66.17,2.52a31,31,0,0,1,.14,4.36c-.54.09-1.72.28-3.28.42A16.13,16.13,0,0,1,77.33,57a14.94,14.94,0,0,1-.09-4,22.75,22.75,0,0,0,0-4.61h0a.13.13,0,0,1,0-.06A5.56,5.56,0,0,0,76.82,47l-.82.36a4.91,4.91,0,0,1,.27,1,22.35,22.35,0,0,1-2,4.16l0,.11a10.65,10.65,0,0,1-2,3.4,5.54,5.54,0,0,0-.84,1.28,1.31,1.31,0,0,0-.94,1.27,1.22,1.22,0,0,0,.43,1,1.42,1.42,0,0,1-.08.34,1.75,1.75,0,0,1-.44-1.69A16,16,0,0,1,71,56.45a34.44,34.44,0,0,1,2.51-5.05l.08-.12Zm-12.2-3,.66,0c1.14-.08,2.42-.16,3-1.65l-.65,2.69A14.44,14.44,0,0,0,61.49,49Zm-.88.24.12.74c-.28,0-.57.06-.85.11A4,4,0,0,1,60.46,48.35ZM75.62,62.41c0,.81,0,1.68,0,2.58-2.73-.13-5.51-.12-8.35-.1H66.7c.09-.54.17-1.1.25-1.66h0a3.2,3.2,0,0,0,.69-3.2c-.2-.8-.47-1.6-.74-2.36-.67-1.94-1.3-3.79-.82-5.78a29.48,29.48,0,0,0,3.36,6.43,2.66,2.66,0,0,0,.92,2.44.89.89,0,0,0,.48.16.8.8,0,0,0,.33-.08,1.35,1.35,0,0,0,.6-1,2,2,0,0,0,.5-.06l.28-.07L73,57.25l-.48-.06h0c.13-.19.3-.4.45-.59A11.83,11.83,0,0,0,75,53a26.59,26.59,0,0,0,1.39-2.56c0,.82,0,1.69-.09,2.55a17.13,17.13,0,0,0,0,4l-.13.44A11.36,11.36,0,0,0,75.62,62.41ZM64.28,70.06a1.76,1.76,0,0,1,.08.31,7.84,7.84,0,0,1,.2,2.08,6,6,0,0,1-.27,1.46,14.84,14.84,0,0,0-.53,3.48v.23l.18.14a1.87,1.87,0,0,1,.59.76s-.17.2-1.12.2h-.27a.16.16,0,0,1-.12,0,.69.69,0,0,1,0-.42A1.45,1.45,0,0,1,63,78l0-.07v-.08c-.07-1.73-.2-2.83-.31-3.71-.08-.61-.14-1.13-.16-1.7a2.75,2.75,0,0,1,.5-1.79c.13-.15.13-.15.12-1.42,0-.62,0-1.46,0-2.33a7.37,7.37,0,0,1,2-2.21c.3-.2.55-.38.78-.55-.05.37-.11.74-.17,1.1A17.71,17.71,0,0,1,64.5,70ZM61,77.6a1.68,1.68,0,0,1,.46-.48l.19-.14v-.25A12.34,12.34,0,0,0,61,73.35a5.79,5.79,0,0,1-.29-1.42,7.4,7.4,0,0,1,.07-1.32c.51-.69,1-1.47,1.43-2.22v0c0,.32,0,.62,0,.88v1a3.68,3.68,0,0,0-.63,2.29c0,.61.09,1.14.17,1.77.1.84.23,1.88.3,3.5A2.57,2.57,0,0,1,61,77.6ZM71.91,58.12l-.16.85a.88.88,0,0,1-.24,0c-.07,0-.17-.06-.17-.34s0-.37.54-.48Zm7,13a4.49,4.49,0,0,1,.47,1.58,17,17,0,0,1-.1,1.7,37.61,37.61,0,0,0-.15,3.79l0,.15a.91.91,0,0,1,0,.61.4.4,0,0,1-.3.1h-.41a2.84,2.84,0,0,1-1.11-.15,1.27,1.27,0,0,1,.39-.51l.18-.15L78,78a31,31,0,0,0-.52-3.55,14.24,14.24,0,0,1-.26-1.59,7.77,7.77,0,0,1,0-1.72V71a11,11,0,0,1-.12-2.43c.76,0,1.67-.07,2.31-.07a6.64,6.64,0,0,1-.4,2.15l-.15.22Zm5.94-.16a6,6,0,0,1-.27,1.46,14.25,14.25,0,0,0-.52,3.47v.24l.18.14a1.65,1.65,0,0,1,.58.7s-.19.24-1.4.25c-.13,0-.25,0-.31-.09a.85.85,0,0,1,0-.61l0-.08v-.08c-.08-1.73-.14-2.82-.19-3.71,0-.6-.07-1.12-.09-1.69a5.86,5.86,0,0,1,.21-1.88,7.69,7.69,0,0,0,1.39.15h.3A8.43,8.43,0,0,1,84.9,70.93Zm.39-8.06,0,.09v.1a37.86,37.86,0,0,1,0,3.88,8.53,8.53,0,0,1-.15,1.27l-.11,0a5.16,5.16,0,0,1-2.14-.16,3.53,3.53,0,0,1-.41-.1,15.72,15.72,0,0,1-1-3.44,11.8,11.8,0,0,0,.18-1.62h-.91a10.49,10.49,0,0,1-.17,1.51c-.2,1.15-.5,2.52-.65,3.15h0c-.63,0-2.07,0-3.14.1-.08-.6-.15-1.39-.19-2.25-.05-1.07-.05-2.1,0-3v-.12a10.12,10.12,0,0,1,.54-4.44,17.5,17.5,0,0,0,4.55.33c1.66-.15,2.89-.35,3.42-.44C85.91,59,85.72,61.76,85.29,62.87ZM69.74,57.15a24.56,24.56,0,0,1-3.16-6.72.75.75,0,0,0,0-.47.78.78,0,0,0-.47-.45c-.29-.1-.59-.18-.88-.25l.69-2.82a3.52,3.52,0,0,1,1.8,2.93A32,32,0,0,0,70,56.31C69.93,56.61,69.82,56.89,69.74,57.15ZM58.42,65.79A12.55,12.55,0,0,0,58.73,62a9.26,9.26,0,0,1,0-1.17,7.09,7.09,0,0,1,.56-1.88c.72-1.88,1.62-4.21,0-8.73.64-.12,1.27-.21,1.9-.27a13.64,13.64,0,0,1,3.43.12,8.67,8.67,0,0,1,1.09.27c-1.31,2.8-.46,5.26.37,7.64.25.75.52,1.53.71,2.3a2.31,2.31,0,0,1-.63,2.53,10,10,0,0,1-1.49,1.15,8.45,8.45,0,0,0-2.29,2.58c-.29.45-.58.92-.86,1.4-.47.77-.95,1.57-1.46,2.25a7.14,7.14,0,0,1-1.19,1.28.19.19,0,0,0-.14.12,2.76,2.76,0,0,1-2.23.58A47.24,47.24,0,0,1,58,67.28,13.94,13.94,0,0,0,58.42,65.79ZM41.66,55.37a14.66,14.66,0,0,1,5.42.12A50.58,50.58,0,0,0,48,61.9a44.49,44.49,0,0,0-5.93.69A52.77,52.77,0,0,1,41.66,55.37ZM54.6,24c.31-.27.63-.53,1-.77A4,4,0,0,0,58.18,25c-.36.32-.71.65-1.06,1A6,6,0,0,0,54,24.52C54.18,24.34,54.39,24.15,54.6,24Zm-3.83,4a30.17,30.17,0,0,1,2.28-2.58,4.79,4.79,0,0,1,3.44,1.22c-.11.12-.22.23-.32.35a31.41,31.41,0,0,0-3,3.81,8.59,8.59,0,0,0-3.48-1.37C50,29,50.38,28.47,50.77,28Zm-1.64,2.27a7.61,7.61,0,0,1,3.57,1.29,35.92,35.92,0,0,0-3,5.94,8.51,8.51,0,0,0-3.79-1.4A40.36,40.36,0,0,1,49.13,30.26ZM45.5,37a7,7,0,0,1,3.87,1.36,39.48,39.48,0,0,0-2,8,14.62,14.62,0,0,0-4.62-.71A47.42,47.42,0,0,1,45.5,37Zm-2.93,9.59a13.78,13.78,0,0,1,4.69.71A43.66,43.66,0,0,0,47,54.56a16.45,16.45,0,0,0-5.34-.13A50.83,50.83,0,0,1,42.57,46.58Zm5.59,16.23c.3,1.38.66,2.81,1.11,4.27.2.7.44,1.44.72,2.25-1.72.89-5.37.87-6.48.84-.07-.26-.14-.53-.2-.8a55.33,55.33,0,0,1-1.15-5.87A38.5,38.5,0,0,1,48.16,62.81Zm1.59,12.88a7.21,7.21,0,0,0-4.52-.12c-.56-1.52-1-3-1.46-4.48h.48a16.5,16.5,0,0,0,6-.9c.51,1.4,1.07,2.83,1.69,4.26A6.09,6.09,0,0,0,49.75,75.69Zm7.7-48.76c.57-.59,1.18-1.15,1.8-1.68.41.09.85.16,1.31.22a1.92,1.92,0,0,1,.23.91,2,2,0,0,1-2,2,2,2,0,0,1-1.73-1Z"/><path class="cls-5" d="M60,41.35h0c0,2.59,1.66,3,2.65,3,1.65,0,2.64-1.12,2.64-3v-.19h0a2.65,2.65,0,0,0-5.26,0h0a.46.46,0,0,1,0,.19Zm4.35-.1c-.07.6-.83,1.08-1.72,1.08s-1.65-.47-1.73-1.09a1.74,1.74,0,0,1,3.45,0Zm-1.72,2A3.27,3.27,0,0,0,63.86,43a1.67,1.67,0,0,1-1.19.42A1.63,1.63,0,0,1,61.39,43,3.28,3.28,0,0,0,62.67,43.24Z"/><path class="cls-2" d="M142.32,34.12a.23.23,0,0,1,.17.07l.44.48a3.44,3.44,0,0,1-1.24.92,4.16,4.16,0,0,1-1.74.33,4.08,4.08,0,0,1-1.63-.31,3.5,3.5,0,0,1-1.24-.86,4.08,4.08,0,0,1-.8-1.34,5.21,5.21,0,0,1-.28-1.72,4.73,4.73,0,0,1,.3-1.71,4,4,0,0,1,.86-1.34,3.58,3.58,0,0,1,1.31-.87,4.39,4.39,0,0,1,1.69-.31,3.72,3.72,0,0,1,2.75,1.05l-.36.51a.47.47,0,0,1-.1.1.27.27,0,0,1-.15,0,.24.24,0,0,1-.15-.06L142,29a2.27,2.27,0,0,0-.28-.18,1.84,1.84,0,0,0-.37-.17,3.7,3.7,0,0,0-.49-.14,4.19,4.19,0,0,0-.65-.05,3,3,0,0,0-1.22.23,2.64,2.64,0,0,0-.95.65,2.91,2.91,0,0,0-.62,1,4.38,4.38,0,0,0,0,2.74,3.14,3.14,0,0,0,.6,1,2.64,2.64,0,0,0,.91.64A3,3,0,0,0,140,35a4.43,4.43,0,0,0,.66-.05,3,3,0,0,0,.55-.13,2,2,0,0,0,.46-.24,3.15,3.15,0,0,0,.44-.33A.3.3,0,0,1,142.32,34.12Z"/><path class="cls-2" d="M144.24,35.83V27.32h1v3.44a3.36,3.36,0,0,1,.83-.64,2.2,2.2,0,0,1,1.05-.24A2.26,2.26,0,0,1,148,30a1.73,1.73,0,0,1,.61.45,2,2,0,0,1,.37.71,2.84,2.84,0,0,1,.13.9v3.73h-1V32.1a1.6,1.6,0,0,0-.3-1,1.15,1.15,0,0,0-.93-.37,1.79,1.79,0,0,0-.85.22,2.75,2.75,0,0,0-.73.6v4.31Z"/><path class="cls-2" d="M153,29.88a3,3,0,0,1,1.16.22,2.46,2.46,0,0,1,.88.6,2.79,2.79,0,0,1,.55.95,3.81,3.81,0,0,1,.2,1.25,3.77,3.77,0,0,1-.2,1.25,2.65,2.65,0,0,1-.55.94,2.36,2.36,0,0,1-.88.61,3,3,0,0,1-1.16.21,3.07,3.07,0,0,1-1.16-.21,2.36,2.36,0,0,1-.88-.61,2.67,2.67,0,0,1-.56-.94,3.77,3.77,0,0,1-.19-1.25,3.81,3.81,0,0,1,.19-1.25,2.81,2.81,0,0,1,.56-.95,2.46,2.46,0,0,1,.88-.6A3.07,3.07,0,0,1,153,29.88Zm0,5.23a1.53,1.53,0,0,0,1.3-.58,3.35,3.35,0,0,0,0-3.25,1.52,1.52,0,0,0-1.3-.59,1.78,1.78,0,0,0-.76.15,1.37,1.37,0,0,0-.54.44,1.83,1.83,0,0,0-.32.69,4,4,0,0,0,0,1.87,1.83,1.83,0,0,0,.32.69,1.43,1.43,0,0,0,.54.43A1.78,1.78,0,0,0,153,35.11Z"/><path class="cls-2" d="M159.46,29.88a3,3,0,0,1,1.15.22,2.38,2.38,0,0,1,.88.6,2.81,2.81,0,0,1,.56.95,3.81,3.81,0,0,1,.19,1.25,3.77,3.77,0,0,1-.19,1.25,2.67,2.67,0,0,1-.56.94,2.29,2.29,0,0,1-.88.61,3.28,3.28,0,0,1-2.31,0,2.29,2.29,0,0,1-.88-.61,2.53,2.53,0,0,1-.56-.94,3.77,3.77,0,0,1-.2-1.25,3.81,3.81,0,0,1,.2-1.25,2.66,2.66,0,0,1,.56-.95,2.38,2.38,0,0,1,.88-.6A3,3,0,0,1,159.46,29.88Zm0,5.23a1.53,1.53,0,0,0,1.29-.58,3.29,3.29,0,0,0,0-3.25,1.51,1.51,0,0,0-1.29-.59,1.82,1.82,0,0,0-.77.15,1.52,1.52,0,0,0-.54.44,2,2,0,0,0-.32.69,4,4,0,0,0,0,1.87,2,2,0,0,0,.32.69,1.61,1.61,0,0,0,.54.43A1.82,1.82,0,0,0,159.46,35.11Z"/><path class="cls-2" d="M166.86,30.94a.22.22,0,0,1-.21.13.35.35,0,0,1-.2-.07l-.27-.14a2,2,0,0,0-.38-.14,1.6,1.6,0,0,0-.52-.07,1.35,1.35,0,0,0-.46.07,1,1,0,0,0-.36.18.8.8,0,0,0-.22.27.62.62,0,0,0-.08.33.55.55,0,0,0,.13.38,1.17,1.17,0,0,0,.34.26,3.87,3.87,0,0,0,.49.19l.55.18a4.63,4.63,0,0,1,.56.21,2.18,2.18,0,0,1,.49.29,1.4,1.4,0,0,1,.34.42,1.28,1.28,0,0,1,.13.61,2,2,0,0,1-.14.75,1.76,1.76,0,0,1-.43.59,2.12,2.12,0,0,1-.69.4,3.06,3.06,0,0,1-1,.14,3,3,0,0,1-1.11-.2,2.7,2.7,0,0,1-.84-.51l.24-.39a.43.43,0,0,1,.11-.12.39.39,0,0,1,.17,0,.42.42,0,0,1,.22.08,1.7,1.7,0,0,0,.28.18,1.76,1.76,0,0,0,.39.18,2,2,0,0,0,.59.08,1.44,1.44,0,0,0,.53-.08,1,1,0,0,0,.37-.21.78.78,0,0,0,.22-.3,1,1,0,0,0,.08-.37.62.62,0,0,0-.13-.4,1.23,1.23,0,0,0-.35-.28,2.51,2.51,0,0,0-.49-.19l-.56-.18c-.19-.06-.37-.13-.56-.21a2,2,0,0,1-.48-.3,1.27,1.27,0,0,1-.35-.44,1.38,1.38,0,0,1-.13-.64,1.57,1.57,0,0,1,.14-.64,1.52,1.52,0,0,1,.4-.54,2.12,2.12,0,0,1,.66-.38,2.89,2.89,0,0,1,1.92.05,2.31,2.31,0,0,1,.79.5Z"/><path class="cls-2" d="M170.84,29.88a2.54,2.54,0,0,1,1,.18,2.25,2.25,0,0,1,.77.51,2.33,2.33,0,0,1,.51.82,3.19,3.19,0,0,1,.18,1.11.72.72,0,0,1-.05.32.22.22,0,0,1-.2.09h-3.89a2.76,2.76,0,0,0,.15,1,1.94,1.94,0,0,0,.38.68,1.44,1.44,0,0,0,.57.41,1.87,1.87,0,0,0,.76.14,2.15,2.15,0,0,0,.66-.09,3.35,3.35,0,0,0,.49-.19l.33-.2a.45.45,0,0,1,.24-.09.23.23,0,0,1,.19.1l.29.38a1.93,1.93,0,0,1-.45.4,3,3,0,0,1-.57.28,3.23,3.23,0,0,1-.63.16,3.55,3.55,0,0,1-.64.06,2.94,2.94,0,0,1-1.12-.21,2.3,2.3,0,0,1-.88-.6,2.71,2.71,0,0,1-.58-1,3.89,3.89,0,0,1-.21-1.34,3.29,3.29,0,0,1,.19-1.14,2.57,2.57,0,0,1,.54-.92,2.32,2.32,0,0,1,.86-.61A2.8,2.8,0,0,1,170.84,29.88Zm0,.76a1.58,1.58,0,0,0-1.17.43,2.08,2.08,0,0,0-.53,1.19h3.18a2.27,2.27,0,0,0-.09-.65,1.75,1.75,0,0,0-.29-.52,1.43,1.43,0,0,0-.47-.33A1.54,1.54,0,0,0,170.86,30.64Z"/><path class="cls-2" d="M178.52,37.56a.46.46,0,0,1-.13.18.33.33,0,0,1-.24.07h-.76l1.07-2.32L176.05,30h.89a.32.32,0,0,1,.2.06.48.48,0,0,1,.11.15l1.57,3.69.09.25c0,.08.05.17.07.26a2,2,0,0,1,.08-.26,1.61,1.61,0,0,1,.09-.26l1.52-3.68a.29.29,0,0,1,.12-.15A.28.28,0,0,1,181,30h.82Z"/><path class="cls-2" d="M184.94,29.88a3,3,0,0,1,1.16.22,2.38,2.38,0,0,1,.88.6,2.79,2.79,0,0,1,.55.95,3.81,3.81,0,0,1,.2,1.25,3.77,3.77,0,0,1-.2,1.25,2.65,2.65,0,0,1-.55.94,2.29,2.29,0,0,1-.88.61,3,3,0,0,1-1.16.21,3.11,3.11,0,0,1-1.16-.21,2.45,2.45,0,0,1-.88-.61,2.67,2.67,0,0,1-.56-.94,3.77,3.77,0,0,1-.19-1.25,3.81,3.81,0,0,1,.19-1.25,2.81,2.81,0,0,1,.56-.95,2.55,2.55,0,0,1,.88-.6A3.11,3.11,0,0,1,184.94,29.88Zm0,5.23a1.53,1.53,0,0,0,1.3-.58,3.35,3.35,0,0,0,0-3.25,1.52,1.52,0,0,0-1.3-.59,1.81,1.81,0,0,0-.76.15,1.37,1.37,0,0,0-.54.44,2,2,0,0,0-.32.69,4,4,0,0,0,0,1.87,2,2,0,0,0,.32.69,1.43,1.43,0,0,0,.54.43A1.81,1.81,0,0,0,184.94,35.11Z"/><path class="cls-2" d="M189.89,30v3.73a1.6,1.6,0,0,0,.3,1,1.17,1.17,0,0,0,.93.36,1.81,1.81,0,0,0,.85-.21,2.71,2.71,0,0,0,.73-.6V30h1v5.85h-.61a.26.26,0,0,1-.28-.22l-.08-.62a3.23,3.23,0,0,1-.86.67,2.11,2.11,0,0,1-1.08.26,2.08,2.08,0,0,1-.85-.16,1.52,1.52,0,0,1-.61-.45,1.92,1.92,0,0,1-.38-.69,3.28,3.28,0,0,1-.12-.91V30Z"/><path class="cls-2" d="M195.42,35.83V30H196a.33.33,0,0,1,.23.06.45.45,0,0,1,.09.22l.07.91a2.69,2.69,0,0,1,.74-1,1.63,1.63,0,0,1,1-.35,1.51,1.51,0,0,1,.44.06,1.44,1.44,0,0,1,.36.15l-.13.77a.17.17,0,0,1-.18.14,1.08,1.08,0,0,1-.25,0,1.45,1.45,0,0,0-.47-.06,1.32,1.32,0,0,0-.9.32,2.29,2.29,0,0,0-.6.9v3.73Z"/><path class="cls-2" d="M141.93,44.39H137v14h-3.47v-14h-4.9v-2.8h13.27Z"/><path class="cls-2" d="M147.51,58.36H144V41.59h3.49Z"/><path class="cls-2" d="M162.44,54.23a.65.65,0,0,1,.49.21l1.37,1.47a6.53,6.53,0,0,1-2.52,2,8.75,8.75,0,0,1-3.59.67,8.54,8.54,0,0,1-3.39-.64,7.37,7.37,0,0,1-2.55-1.78,8.06,8.06,0,0,1-1.62-2.72,10.24,10.24,0,0,1-.56-3.43,10.13,10.13,0,0,1,.27-2.37,8.08,8.08,0,0,1,.79-2.08,8.17,8.17,0,0,1,1.25-1.71,7.75,7.75,0,0,1,1.66-1.3,8,8,0,0,1,2-.82,9.18,9.18,0,0,1,2.33-.28,8.72,8.72,0,0,1,3.29.61,6.9,6.9,0,0,1,1.32.7,6.45,6.45,0,0,1,1.09.9l-1.16,1.59a1.15,1.15,0,0,1-.27.27.79.79,0,0,1-.44.11.94.94,0,0,1-.56-.2c-.19-.13-.42-.27-.69-.43a4.75,4.75,0,0,0-1-.44,5.26,5.26,0,0,0-1.57-.2,4.89,4.89,0,0,0-1.93.38,4.2,4.2,0,0,0-1.5,1.11,5,5,0,0,0-1,1.77,7.65,7.65,0,0,0-.35,2.39,7.21,7.21,0,0,0,.38,2.41,5.18,5.18,0,0,0,1,1.78,4.24,4.24,0,0,0,1.52,1.11,4.69,4.69,0,0,0,1.87.37c.39,0,.75,0,1.07,0a4.83,4.83,0,0,0,.89-.2,3.6,3.6,0,0,0,.77-.36,5,5,0,0,0,.73-.55l.27-.18A.73.73,0,0,1,162.44,54.23Z"/><path class="cls-2" d="M169.72,48.51h.68a1.42,1.42,0,0,0,1.24-.53l4.24-5.67a1.63,1.63,0,0,1,.66-.56,2.22,2.22,0,0,1,.87-.16h3l-5.34,6.88a3.6,3.6,0,0,1-1.07,1,2.57,2.57,0,0,1,.72.42,3,3,0,0,1,.63.69l5.47,7.82h-3.08a2.44,2.44,0,0,1-.51,0,1.31,1.31,0,0,1-.38-.13,1,1,0,0,1-.28-.2,2.28,2.28,0,0,1-.22-.28l-4.31-6a1.24,1.24,0,0,0-.52-.45,2.31,2.31,0,0,0-.84-.13h-1v7.27h-3.47V41.59h3.47Z"/><path class="cls-2" d="M185.8,44.31v4.31h5.59v2.62H185.8v4.4H193v2.72H182.31V41.59H193v2.72Z"/><path class="cls-2" d="M207.44,44.39h-4.9v14h-3.47v-14h-4.9v-2.8h13.27Z"/><path class="cls-2" d="M143.16,71.16a1.38,1.38,0,0,1-1.06-.39,1.54,1.54,0,0,1-.38-1.11V66.08H141a.25.25,0,0,1-.16-.06.22.22,0,0,1-.06-.17v-.41l1-.12.24-1.81a.19.19,0,0,1,.07-.14.23.23,0,0,1,.16-.06h.52v2h1.68v.75h-1.68v3.51a.76.76,0,0,0,.18.55.62.62,0,0,0,.46.18.78.78,0,0,0,.28,0l.21-.09.15-.1a.16.16,0,0,1,.1,0c.06,0,.1,0,.15.1l.3.49a2.15,2.15,0,0,1-.64.39A2.29,2.29,0,0,1,143.16,71.16Z"/><path class="cls-2" d="M148.07,65.12a2.84,2.84,0,0,1,1.15.22,2.38,2.38,0,0,1,.88.6,2.72,2.72,0,0,1,.56,1,4.21,4.21,0,0,1,0,2.5,2.67,2.67,0,0,1-.56.94,2.29,2.29,0,0,1-.88.61,3.28,3.28,0,0,1-2.31,0,2.29,2.29,0,0,1-.88-.61,2.53,2.53,0,0,1-.56-.94,4,4,0,0,1,0-2.5,2.57,2.57,0,0,1,.56-1,2.38,2.38,0,0,1,.88-.6A2.86,2.86,0,0,1,148.07,65.12Zm0,5.22a1.49,1.49,0,0,0,1.29-.58,2.62,2.62,0,0,0,.43-1.62,2.7,2.7,0,0,0-.43-1.63,1.52,1.52,0,0,0-1.29-.58,1.82,1.82,0,0,0-.77.15,1.61,1.61,0,0,0-.54.43,2.05,2.05,0,0,0-.32.7,3.83,3.83,0,0,0-.11.93,3.71,3.71,0,0,0,.11.93,1.84,1.84,0,0,0,.32.69,1.49,1.49,0,0,0,.54.43A1.82,1.82,0,0,0,148.07,70.34Z"/><path class="cls-2" d="M155.74,68v3.1h-1.11V62.79h2.44a4.64,4.64,0,0,1,1.37.18,2.46,2.46,0,0,1,1,.52,2,2,0,0,1,.57.81,2.89,2.89,0,0,1,.19,1,2.78,2.78,0,0,1-.2,1.06,2.36,2.36,0,0,1-.6.83,2.79,2.79,0,0,1-1,.54,4.19,4.19,0,0,1-1.33.19Zm0-.89h1.33a2.49,2.49,0,0,0,.85-.13,1.66,1.66,0,0,0,.61-.35,1.51,1.51,0,0,0,.38-.55,1.94,1.94,0,0,0,.13-.7,1.6,1.6,0,0,0-.49-1.23,2.13,2.13,0,0,0-1.48-.45h-1.33Z"/><path class="cls-2" d="M165.42,71.07H165a.54.54,0,0,1-.24,0,.27.27,0,0,1-.12-.2l-.12-.54a4.88,4.88,0,0,1-.45.37,2.18,2.18,0,0,1-.46.28,2.12,2.12,0,0,1-.52.17,2.77,2.77,0,0,1-.6.06,1.87,1.87,0,0,1-.64-.1,1.53,1.53,0,0,1-.52-.28,1.37,1.37,0,0,1-.35-.49,1.6,1.6,0,0,1-.13-.69,1.29,1.29,0,0,1,.19-.67,1.73,1.73,0,0,1,.62-.57,3.92,3.92,0,0,1,1.11-.41,7.36,7.36,0,0,1,1.68-.16v-.46a1.63,1.63,0,0,0-.29-1,1.08,1.08,0,0,0-.87-.35,1.67,1.67,0,0,0-.63.1,2,2,0,0,0-.44.21l-.33.22a.48.48,0,0,1-.27.09.37.37,0,0,1-.18,0,.53.53,0,0,1-.12-.14l-.19-.33a3.64,3.64,0,0,1,1-.7,3.3,3.3,0,0,1,1.24-.23,2.33,2.33,0,0,1,.87.16,1.76,1.76,0,0,1,.64.45,1.94,1.94,0,0,1,.4.7,2.92,2.92,0,0,1,.13.9Zm-2.67-.63a2,2,0,0,0,.5-.06,1.89,1.89,0,0,0,.8-.4,3.7,3.7,0,0,0,.36-.33V68.44a7,7,0,0,0-1.21.09,3.27,3.27,0,0,0-.81.24,1.11,1.11,0,0,0-.45.34.77.77,0,0,0-.14.44,1,1,0,0,0,.07.41.71.71,0,0,0,.21.27.72.72,0,0,0,.3.16A1.44,1.44,0,0,0,162.75,70.44Z"/><path class="cls-2" d="M167,71.07V65.22h.59a.33.33,0,0,1,.23.06.41.41,0,0,1,.09.22l.07.91a2.62,2.62,0,0,1,.74-1,1.68,1.68,0,0,1,1-.34,1.44,1.44,0,0,1,.43.06,1.11,1.11,0,0,1,.37.15l-.13.77a.18.18,0,0,1-.18.14,1.08,1.08,0,0,1-.25,0,1.45,1.45,0,0,0-.47-.06,1.36,1.36,0,0,0-.9.31,2.33,2.33,0,0,0-.6.91v3.73Z"/><path class="cls-2" d="M175.71,71.07h-.45a.54.54,0,0,1-.24,0,.25.25,0,0,1-.13-.2l-.11-.54-.45.37a2.46,2.46,0,0,1-.46.28,2.43,2.43,0,0,1-.52.17,2.87,2.87,0,0,1-.61.06,1.91,1.91,0,0,1-.64-.1,1.53,1.53,0,0,1-.52-.28,1.5,1.5,0,0,1-.35-.49,1.77,1.77,0,0,1-.13-.69,1.3,1.3,0,0,1,.2-.67,1.69,1.69,0,0,1,.61-.57A3.92,3.92,0,0,1,173,68a7.36,7.36,0,0,1,1.68-.16v-.46a1.57,1.57,0,0,0-.29-1,1.06,1.06,0,0,0-.86-.35,1.67,1.67,0,0,0-.63.1,2.09,2.09,0,0,0-.45.21l-.32.22a.48.48,0,0,1-.27.09.35.35,0,0,1-.18,0,.43.43,0,0,1-.13-.14l-.18-.33a3.46,3.46,0,0,1,1-.7,3.35,3.35,0,0,1,1.25-.23,2.41,2.41,0,0,1,.87.16,1.85,1.85,0,0,1,.64.45,2.08,2.08,0,0,1,.39.7,2.92,2.92,0,0,1,.13.9Zm-2.66-.63a1.88,1.88,0,0,0,.49-.06,2.19,2.19,0,0,0,.43-.15,2.26,2.26,0,0,0,.38-.25,3.61,3.61,0,0,0,.35-.33V68.44a6.83,6.83,0,0,0-1.2.09,3.14,3.14,0,0,0-.81.24,1.23,1.23,0,0,0-.46.34.77.77,0,0,0-.14.44,1,1,0,0,0,.08.41.68.68,0,0,0,.2.27.72.72,0,0,0,.3.16A1.52,1.52,0,0,0,173.05,70.44Z"/><path class="cls-2" d="M181.39,71.07a.25.25,0,0,1-.27-.22l-.1-.71a2.93,2.93,0,0,1-.85.73,2.18,2.18,0,0,1-1.11.28,2.06,2.06,0,0,1-.91-.2,1.73,1.73,0,0,1-.7-.56,2.74,2.74,0,0,1-.45-.94,5,5,0,0,1-.15-1.29A3.87,3.87,0,0,1,177,67a3,3,0,0,1,.5-1,2.32,2.32,0,0,1,1.86-.88,2,2,0,0,1,1.6.69V62.56h1v8.51Zm-2-.75a1.61,1.61,0,0,0,.88-.24,2.64,2.64,0,0,0,.7-.65V66.6a1.68,1.68,0,0,0-.62-.53,1.87,1.87,0,0,0-.75-.16,1.48,1.48,0,0,0-1.26.59,2.73,2.73,0,0,0-.44,1.66,4,4,0,0,0,.1,1,1.72,1.72,0,0,0,.29.67,1.05,1.05,0,0,0,.46.38A1.47,1.47,0,0,0,179.4,70.32Z"/><path class="cls-2" d="M185.11,63.38a.67.67,0,0,1-.06.28.91.91,0,0,1-.17.23.63.63,0,0,1-.23.16.67.67,0,0,1-.28.06.72.72,0,0,1-.51-.22.87.87,0,0,1-.16-.23.67.67,0,0,1-.06-.28.72.72,0,0,1,.06-.29.63.63,0,0,1,.16-.23.53.53,0,0,1,.23-.16.64.64,0,0,1,.28-.06.67.67,0,0,1,.28.06.53.53,0,0,1,.23.16.66.66,0,0,1,.17.23A.72.72,0,0,1,185.11,63.38Zm-.23,1.84v5.85h-1V65.22Z"/><path class="cls-2" d="M190,66.18a.24.24,0,0,1-.21.13.35.35,0,0,1-.2-.07l-.27-.14A2,2,0,0,0,189,66a1.6,1.6,0,0,0-.52-.07A1.31,1.31,0,0,0,188,66a1,1,0,0,0-.36.18,1,1,0,0,0-.23.27.72.72,0,0,0-.07.33.55.55,0,0,0,.13.38,1.17,1.17,0,0,0,.34.26,3.35,3.35,0,0,0,.49.19l.55.18a5.37,5.37,0,0,1,.56.21,2.18,2.18,0,0,1,.49.29,1.25,1.25,0,0,1,.47,1,2,2,0,0,1-.14.74,1.7,1.7,0,0,1-.43.6,1.9,1.9,0,0,1-.7.39,2.69,2.69,0,0,1-.94.15,3,3,0,0,1-1.11-.2,2.87,2.87,0,0,1-.85-.51l.25-.39a.32.32,0,0,1,.11-.12.27.27,0,0,1,.16,0,.4.4,0,0,1,.22.08l.28.18a1.85,1.85,0,0,0,.4.18,2,2,0,0,0,.59.08,1.62,1.62,0,0,0,.52-.08,1.07,1.07,0,0,0,.38-.21.89.89,0,0,0,.22-.3,1,1,0,0,0,.08-.37.67.67,0,0,0-.13-.41,1.41,1.41,0,0,0-.35-.27,2.51,2.51,0,0,0-.49-.19l-.56-.18c-.19-.06-.37-.13-.56-.21a2.22,2.22,0,0,1-.49-.3,1.48,1.48,0,0,1-.34-.44,1.41,1.41,0,0,1-.13-.64,1.57,1.57,0,0,1,.14-.64,1.66,1.66,0,0,1,.4-.55,2.1,2.1,0,0,1,.66-.37,2.62,2.62,0,0,1,.88-.14,2.84,2.84,0,0,1,1,.18,2.66,2.66,0,0,1,.79.5Z"/><path class="cls-2" d="M194,65.12a2.58,2.58,0,0,1,1,.18,2.25,2.25,0,0,1,.77.51,2.33,2.33,0,0,1,.51.82,3.15,3.15,0,0,1,.18,1.11.72.72,0,0,1,0,.32.22.22,0,0,1-.2.08h-3.89a2.82,2.82,0,0,0,.15,1,1.8,1.8,0,0,0,.38.68,1.44,1.44,0,0,0,.57.41,2.06,2.06,0,0,0,.76.14,2.15,2.15,0,0,0,.66-.09,2.82,2.82,0,0,0,.48-.19,3.08,3.08,0,0,0,.34-.2.45.45,0,0,1,.24-.09.23.23,0,0,1,.19.1l.29.38a2.47,2.47,0,0,1-.45.4,3,3,0,0,1-.57.28,3.42,3.42,0,0,1-.63.16,3.55,3.55,0,0,1-.64.06,2.9,2.9,0,0,1-1.12-.21,2.3,2.3,0,0,1-.88-.6,2.58,2.58,0,0,1-.58-1,3.93,3.93,0,0,1-.21-1.34,3.25,3.25,0,0,1,.19-1.14A2.49,2.49,0,0,1,192,66a2.32,2.32,0,0,1,.86-.61A2.8,2.8,0,0,1,194,65.12Zm0,.76a1.58,1.58,0,0,0-1.17.43,2.05,2.05,0,0,0-.53,1.19h3.18a1.93,1.93,0,0,0-.1-.65,1.53,1.53,0,0,0-.28-.52,1.43,1.43,0,0,0-.47-.33A1.54,1.54,0,0,0,194,65.88Z"/></g></g></svg>