<svg id="Layer_1" data-name="Layer 1" xmlns="http://www.w3.org/2000/svg" xmlns:xlink="http://www.w3.org/1999/xlink" width="244" height="188" viewBox="0 0 244 188"><defs><style>.cls-1{fill:none;}.cls-2{fill:#162731;}.cls-3{clip-path:url(#clip-path);}.cls-4{fill:#009ca7;}.cls-5{clip-path:url(#clip-path-2);}.cls-6{fill:url(#radial-gradient);}.cls-7{clip-path:url(#clip-path-4);}.cls-8{fill:url(#radial-gradient-2);}</style><clipPath id="clip-path"><rect class="cls-1" x="0.06" y="0.84" width="243.72" height="187.16"/></clipPath><clipPath id="clip-path-2"><path class="cls-1" d="M132,12.61c6.17-3.56,8.57-9.42,7.52-11.23a1,1,0,0,0-.32-.34l0,0c-.91-.61-2.25.42-4.55,2.27A41.37,41.37,0,0,1,129,7.34a43.88,43.88,0,0,1-6.33,2.87c-2.77,1-4.33,1.7-4.25,2.78v0a.71.71,0,0,0,.14.43c1,1.83,7.31,2.69,13.48-.86"/></clipPath><radialGradient id="radial-gradient" cx="0" cy="188" r="1" gradientTransform="matrix(0, 31.75, 31.75, 0, -5826.54, 30.98)" gradientUnits="userSpaceOnUse"><stop offset="0" stop-color="#acdee1"/><stop offset="1" stop-color="#009ca7"/></radialGradient><clipPath id="clip-path-4"><path class="cls-1" d="M125.38,52.12a39.28,39.28,0,0,0,14.66-17,43.52,43.52,0,0,0,3.76-19,44.3,44.3,0,0,0-1.28-9.24,40.67,40.67,0,0,0-1.76-4.5c.23,3.17-2.11,8.9-7.65,12.09a15.56,15.56,0,0,1-12.56,1.41A18.35,18.35,0,0,1,119.42,32c-3.21,5.6-9.58,9.29-15.59,8.51a14.85,14.85,0,0,1-12.15-9,12.23,12.23,0,0,1,.67-10.45c2.2-4,6.43-6.32,10.36-5.87a9.55,9.55,0,0,1,8.13,6.21,7.6,7.6,0,0,1-2.92,8.83c-4.59,3.22-8.06-.65-8.74-1.85a.46.46,0,0,1,.18-.64.45.45,0,0,1,.63.17,5,5,0,0,0,3,2.32,5.07,5.07,0,0,0,2.19.08,4.41,4.41,0,0,0,2-1.11,6,6,0,0,0,1.61-7,7.33,7.33,0,0,0-6.26-4.2c-2.74-.22-5.77,1.5-7.47,4.53a9.13,9.13,0,0,0-.49,7.83,11.77,11.77,0,0,0,9.61,7c4.69.65,9.89-2.31,12.62-7a15.14,15.14,0,0,0-.2-15.6A19.31,19.31,0,0,0,90.81,7.89a24.05,24.05,0,0,0-9.27,9,24.56,24.56,0,0,0-3.43,12.42c-.43,7.9,5.2,18.82,15.46,24.18C103.65,59.15,117,58,125.38,52.12"/></clipPath><radialGradient id="radial-gradient-2" cx="0" cy="188" r="1" gradientTransform="matrix(0, 31.76, 31.76, 0, -5860.87, 28.03)" xlink:href="#radial-gradient"/></defs><title>now-notag_cmyk</title><path class="cls-2" d="M50.81,140.23v-30c0-15.29-7.93-24-21.93-24s-22.37,8.66-22.37,24v30h-6V109.79c0-18,10-29,28.42-29s27.85,11,27.85,29v30.44H50.81"/><path class="cls-2" d="M101.31,141c-17.46,0-31.6-13.56-31.6-30s14.14-30.15,31.6-30.15,31.6,13.56,31.6,30.15-14.14,30.16-31.6,30m0-54.68c-14.14,0-25.68,11.11-25.68,24.53,0,13.7,11.54,24.67,25.68,24.67S127,124.5,127,110.94,115.6,86.27,101.31,86.27Z"/><path class="cls-2" d="M209.09,141c-11.68,0-18.61-4.47-20.92-12.69-2.31,8.22-9.52,12.69-21.35,12.69-12.41,0-20.92-6.92-20.92-23.37V81.36h5.91v36.07c0,13.42,6.21,18,15.73,18,10.82,0,17.6-5.77,17.6-16.59V81.36h5.92V119c0,10.53,6.63,16.45,17.31,16.45,9.67,0,16.31-4.62,16.31-18V81.36h5.91v36.22c0,16.45-8.8,23.37-21.5,23.37"/><g class="cls-3"><path class="cls-2" d="M237.49,82.23h-1.67v4.31h-.72V82.23h-1.68v-.72h4.07v.72m6.29,4.31h-.71V82.23h0l-1.71,4.31h-.47l-1.67-4.31h0v4.31h-.72v-5h1.2l1.45,3.62,1.49-3.62h1.19Z"/><path class="cls-4" d="M6.38,168.92c-3.14,0-5,2-5,5.38V181H0V174.2c0-4,2.23-6.51,6.38-6.51v1.23"/></g><path class="cls-4" d="M21.65,170.48A5.78,5.78,0,0,0,12,173.85h8.77v1.2H12A5.63,5.63,0,0,0,17.67,180a5.76,5.76,0,0,0,4-1.56l.91.94a7.08,7.08,0,0,1-4.89,1.85,6.76,6.76,0,1,1,0-13.51,7.33,7.33,0,0,1,4.92,1.88l-.94.91"/><path class="cls-4" d="M33.21,181.22a7.39,7.39,0,0,1-4.73-1.77l.75-.88A6.33,6.33,0,0,0,33.14,180c1.65,0,3.21-1,3.17-2.5,0-4-7.38-1.16-7.44-6.27,0-2,2-3.5,4.11-3.57A7.2,7.2,0,0,1,37.16,169l-.78.84a6.2,6.2,0,0,0-3.27-1c-1.46,0-2.94,1-2.94,2.33,0,3.88,7.34,1.23,7.44,6.25,0,2.14-1.91,3.76-4.4,3.78"/><path class="cls-4" d="M50.46,181.2a6.76,6.76,0,1,1,7.09-6.74,6.94,6.94,0,0,1-7.09,6.74m0-12.28a5.53,5.53,0,1,0,5.76,5.54A5.67,5.67,0,0,0,50.46,168.92Z"/><path class="cls-4" d="M70.85,168.92c-3.14,0-5,2-5,5.38V181H64.47V174.2c0-4,2.24-6.51,6.38-6.51v1.23"/><path class="cls-4" d="M77.32,174.62V164.27h1.36v3.52h5V169h-5l0,5.57c0,3.43,1.91,5.37,5,5.37v1.23c-4.14,0-6.38-2.46-6.38-6.54"/><path class="cls-4" d="M93.5,181.22a7.38,7.38,0,0,1-4.72-1.77l.74-.88A6.38,6.38,0,0,0,93.44,180c1.65,0,3.2-1,3.17-2.5,0-4-7.38-1.16-7.44-6.27,0-2,2-3.5,4.11-3.57A7.19,7.19,0,0,1,97.45,169l-.77.84a6.2,6.2,0,0,0-3.27-1c-1.46,0-3,1-3,2.33,0,3.88,7.35,1.23,7.45,6.25,0,2.14-1.91,3.76-4.41,3.78"/><path class="cls-4" d="M170.28,181.22a7.41,7.41,0,0,1-4.73-1.77l.75-.88a6.37,6.37,0,0,0,3.91,1.43c1.66,0,3.21-1,3.18-2.5,0-4-7.38-1.16-7.45-6.27,0-2,2-3.5,4.11-3.57a7.2,7.2,0,0,1,4.18,1.36l-.78.84a6.18,6.18,0,0,0-3.27-1c-1.45,0-2.94,1-2.94,2.33,0,3.88,7.34,1.23,7.44,6.25,0,2.14-1.91,3.76-4.4,3.78"/><path class="cls-4" d="M188.08,181.22a6.24,6.24,0,0,1-5.82-3.56v7.84h-1.33V174.85a7.09,7.09,0,0,1,14.17-.39,6.81,6.81,0,0,1-7,6.76M188,168.9a5.55,5.55,0,1,0,5.79,5.56A5.68,5.68,0,0,0,188,168.9Z"/><path class="cls-4" d="M226.47,181.22a7.41,7.41,0,0,1-4.73-1.77l.75-.88A6.37,6.37,0,0,0,226.4,180c1.66,0,3.21-1,3.18-2.5,0-4-7.38-1.16-7.45-6.27,0-2,2-3.5,4.11-3.57a7.2,7.2,0,0,1,4.18,1.36l-.78.84a6.18,6.18,0,0,0-3.27-1c-1.45,0-2.94,1-2.94,2.33,0,3.88,7.35,1.23,7.44,6.25,0,2.14-1.91,3.76-4.4,3.78"/><path class="cls-4" d="M153,181.29A14.85,14.85,0,0,1,140.7,188a15.71,15.71,0,0,1-9.06-2.81,10.23,10.23,0,0,1-6.86,2.81c-4.58,0-7.44-3.07-7.44-7,0-4.52,3.8-8.27,7.7-9.93,0-4.43,4-11.5,9.15-11.5a3,3,0,0,1,3.28,3.12c0,3.59-7,6.35-9.62,7.86a18.5,18.5,0,0,0,5.41,12.48c5.09-4.53,8-11.29,12.38-11.29,1.76,0,3.17,1,3.17,2.66a2.93,2.93,0,0,1-.83,1.81,3.85,3.85,0,0,0-3.64-2.08c-2.66,0-4.43,2.24-6.4,4.69-1.56,1.82-3,3.38-4.27,4.57a12.35,12.35,0,0,0,8.22,3.75c4.26,0,8.43-2.65,10.82-6.09l.26.21m-27.41,5.46a8.64,8.64,0,0,0,5.62-1.92A17.57,17.57,0,0,1,125,171.67c-3.22,1.4-4.89,5.1-4.89,8.53S122.28,186.75,125.56,186.75Zm8-26.52c-1.51,0-3.38,1.45-4.58,4.16a13.18,13.18,0,0,0-1.09,5.61c4.05-1.76,7.54-3.74,7.54-7.54C135.39,161,134.71,160.23,133.52,160.23Z"/><path class="cls-4" d="M208.25,167.83h0a6.9,6.9,0,0,0-7.05,6.7h0v0a6.79,6.79,0,0,0,7.05,6.7,6.33,6.33,0,0,0,5.89-3.58c0,.36,0,3.41,0,3.41h1.34v-6.18a6.83,6.83,0,0,0-7.19-7.08m.07,12.22a5.51,5.51,0,1,1,5.82-5.52A5.66,5.66,0,0,1,208.32,180.05Z"/><g class="cls-5"><g class="cls-3"><rect class="cls-6" x="-30.38" y="-47.5" width="304.61" height="283.84" transform="translate(-30.86 73.47) rotate(-29.95)"/></g></g><g class="cls-7"><rect class="cls-8" x="67.94" y="-10.35" width="85.71" height="82.24" transform="translate(-0.57 59.42) rotate(-29.95)"/></g></svg>