<svg xmlns="http://www.w3.org/2000/svg" xmlns:xlink="http://www.w3.org/1999/xlink" version="1.1" x="0px" y="0px" viewBox="0 0 100 100" enable-background="new 0 0 100 100" xml:space="preserve" width="100px" height="100px"><path fill="#000000" d="M70,48H35.627L49.37,34.257c0.781-0.781,0.781-2.047,0-2.828s-2.048-0.781-2.828,0L29.64,48.33  c-0.375,0.375-0.586,0.884-0.586,1.414c0,0.531,0.211,1.039,0.586,1.415l16.902,16.902c0.391,0.39,0.902,0.585,1.414,0.585  s1.024-0.195,1.414-0.585c0.781-0.781,0.781-2.048,0-2.829L36.138,52H70c1.104,0,2-0.896,2-2S71.104,48,70,48z"/><path fill="#000000" d="M50,8C27.234,8,8,27.233,8,50s19.234,42,42,42s42-19.233,42-42S72.766,8,50,8z M50,88  c-20.598,0-38-17.402-38-38s17.402-38,38-38s38,17.402,38,38S70.598,88,50,88z"/></svg>