<svg id="Layer_1" data-name="Layer 1" xmlns="http://www.w3.org/2000/svg" xmlns:xlink="http://www.w3.org/1999/xlink" width="290" height="140" viewBox="0 0 290 140"><defs><style>.cls-1{fill:none;}.cls-2{fill:#fcbd1f;}.cls-3{fill:#7e7467;}.cls-4{clip-path:url(#clip-path);}</style><clipPath id="clip-path"><rect class="cls-1" x="0.06" y="0.66" width="289.32" height="139.34"/></clipPath></defs><title>reflect-resorts-spas</title><path class="cls-2" d="M286.87,75a2.45,2.45,0,1,1,2.51-2.44A2.36,2.36,0,0,1,286.87,75m0-4.56a2.13,2.13,0,1,0,0,4.25,2.13,2.13,0,1,0,0-4.25Zm1,1.79a.7.7,0,0,1-.47.68l.48.59v.09h-.3l-.47-.6h-.86v.59H286V71.43h1C287.48,71.43,287.88,71.7,287.88,72.2Zm-1.62.49h.63c.38,0,.67-.13.67-.49s-.26-.49-.64-.49h-.66Z"/><path class="cls-3" d="M20.18,125.9h4.75a11.41,11.41,0,0,1,3.72.41,3.25,3.25,0,0,1,2.28,3.12,3.17,3.17,0,0,1-1,2.31,4.32,4.32,0,0,1-2.78,1.15c1.65.41,1.75.55,3,2.32l1.89,2.67c.75,1,.89,1.13,2,1.15v.64H31a5.44,5.44,0,0,1-1.11-1.29c-.22-.33-1.21-2-1.44-2.35-1.8-2.9-1.87-2.9-4.25-2.85v4.09a1.88,1.88,0,0,0,.37,1.43c.33.31.7.31,1.7.35v.62H20.08v-.62c1.54-.08,2-.16,2-1.74v-9.07c0-.6,0-1-.31-1.3s-.55-.32-1.62-.39v-.65m5.55,6.62a4.26,4.26,0,0,0,1.61-.25,2.75,2.75,0,0,0,1.35-2.73A2.54,2.54,0,0,0,27.48,127c-.76-.42-1.5-.42-3.33-.41v5.92Z"/><path class="cls-3" d="M40.8,125.9h10l.39,3.41h-.63c-.72-2.22-1.19-2.67-3.07-2.69H44.77V132h1.28a1.88,1.88,0,0,0,1.46-.49,2.4,2.4,0,0,0,.47-1.44h.6v4.67H48a2.94,2.94,0,0,0-.25-1.32,1.78,1.78,0,0,0-1.64-.72h-1.3v4.49c0,.67,0,1.19.82,1.5a4.56,4.56,0,0,0,1.9.24,3.89,3.89,0,0,0,2.83-.84,4.63,4.63,0,0,0,1.26-2.74h.61l-.26,4.28H40.68V139c1.63-.06,2-.14,2-1.5v-9.43a1.67,1.67,0,0,0-.29-1.16c-.29-.32-.58-.33-1.63-.37v-.65"/><path class="cls-3" d="M61,135.37a5,5,0,0,0,2.15,3.35,3.76,3.76,0,0,0,1.85.46,2.57,2.57,0,0,0,2.82-2.51,2.62,2.62,0,0,0-1.36-2.3,25.4,25.4,0,0,0-2.77-1.5c-1.56-.82-3.06-1.57-3.06-3.75a3.56,3.56,0,0,1,3.84-3.55,5.16,5.16,0,0,1,1.42.22,4.34,4.34,0,0,1,1.66.81,4.75,4.75,0,0,0,.43-.79h.44l.06,3.71h-.6a5.67,5.67,0,0,0-.76-2,3.24,3.24,0,0,0-2.61-1.33,2.06,2.06,0,0,0-2.3,2,2.13,2.13,0,0,0,.43,1.25c.45.56,1.15,1,3.62,2.24,1.58.81,3.06,1.57,3.06,4.06A4.8,4.8,0,0,1,69,137.7a3.93,3.93,0,0,1-3.68,2.3,5.4,5.4,0,0,1-1.42-.19,6.26,6.26,0,0,1-2.42-1.27c-.25.58-.27.66-.46,1.19h-.61v-4.36H61"/><path class="cls-3" d="M78.27,129.33a7.1,7.1,0,0,1,6.58-3.76,8.63,8.63,0,0,1,1.89.22,6.83,6.83,0,0,1,5.36,7A7,7,0,0,1,84.74,140a6.88,6.88,0,0,1-7.25-7.11,8.08,8.08,0,0,1,.78-3.56m3.64-2.2c-1.61,1.25-2,3.37-2,5.43a14.1,14.1,0,0,0,.21,2.51,5.42,5.42,0,0,0,1.58,3.16,4.54,4.54,0,0,0,3.08,1.07,4.66,4.66,0,0,0,3.64-1.56,8.18,8.18,0,0,0,1.34-5.12,8.77,8.77,0,0,0-.91-4.26,4.53,4.53,0,0,0-4-2.14A4.62,4.62,0,0,0,81.91,127.13Z"/><path class="cls-3" d="M100.25,125.9H105a11.41,11.41,0,0,1,3.72.41,3.25,3.25,0,0,1,2.28,3.12,3.16,3.16,0,0,1-1,2.31,4.36,4.36,0,0,1-2.79,1.15c1.66.41,1.76.55,3,2.32l1.89,2.67c.76,1,.89,1.13,2,1.15v.64H111a5.68,5.68,0,0,1-1.11-1.29c-.22-.33-1.21-2-1.44-2.35-1.79-2.9-1.87-2.9-4.25-2.85v4.09a1.84,1.84,0,0,0,.38,1.43c.33.31.7.31,1.69.35v.62h-6.14v-.62c1.54-.08,2-.16,2-1.74v-9.07c0-.6,0-1-.31-1.3s-.55-.32-1.62-.39v-.65m5.55,6.62a4.35,4.35,0,0,0,1.62-.25,2.76,2.76,0,0,0,1.34-2.73,2.54,2.54,0,0,0-1.21-2.53c-.76-.42-1.49-.42-3.33-.41v5.92Z"/><path class="cls-3" d="M119.58,125.9H131.4l.33,3.49h-.56a4.51,4.51,0,0,0-1-2,2.87,2.87,0,0,0-2.24-.69h-1.42v10.93c0,.64.11,1.14.83,1.34a8.3,8.3,0,0,0,1.17.1v.64h-6.15V139c1.57-.08,2.06-.14,2.06-1.54V126.66h-1.5c-1.2,0-1.69.12-2.22.76a5.32,5.32,0,0,0-.91,2h-.61l.39-3.49"/><path class="cls-3" d="M139.52,135.37a5,5,0,0,0,2.14,3.35,3.81,3.81,0,0,0,1.85.46,2.57,2.57,0,0,0,2.83-2.51,2.63,2.63,0,0,0-1.37-2.3,23.54,23.54,0,0,0-2.76-1.5c-1.56-.82-3.06-1.57-3.06-3.75a3.56,3.56,0,0,1,3.84-3.55,5.22,5.22,0,0,1,1.42.22,4.29,4.29,0,0,1,1.65.81,3.64,3.64,0,0,0,.43-.79h.45l.06,3.71h-.61a5.48,5.48,0,0,0-.76-2,3.23,3.23,0,0,0-2.61-1.33,2,2,0,0,0-1.86,3.24c.44.56,1.14,1,3.62,2.24,1.57.81,3.05,1.57,3.05,4.06a4.63,4.63,0,0,1-.37,1.93,3.93,3.93,0,0,1-3.67,2.3,5.51,5.51,0,0,1-1.43-.19,6.2,6.2,0,0,1-2.41-1.27c-.25.58-.27.66-.47,1.19h-.6v-4.36h.64"/><path class="cls-3" d="M179.92,138.5a3.35,3.35,0,0,1-2.67,1.5,4.08,4.08,0,0,1-1.17-.19,4.71,4.71,0,0,1-2.08-1.7,4.52,4.52,0,0,1-3.47,1.85,3.64,3.64,0,0,1-2.76-1.19,3.25,3.25,0,0,1-1-2.41c0-2.53,2.19-3.72,3.1-4.21a5,5,0,0,1-1.15-2.84,2.59,2.59,0,0,1,2.85-2.61c1.57,0,2.84,1,2.84,2.2a2.41,2.41,0,0,1-.41,1.23,5.29,5.29,0,0,1-2.36,1.67c1.35,1.93,1.77,2.53,3.08,4.34a6.4,6.4,0,0,0,1.09-2.7c0-1-.74-1.13-1.42-1.27v-.56h4.22v.5a2.78,2.78,0,0,0-2,1.72l-.47,1a11.24,11.24,0,0,1-1,1.77A10.14,10.14,0,0,0,176.2,138a2.43,2.43,0,0,0,1.65.78,2.4,2.4,0,0,0,1.68-.87l.39.56M168.8,134a3,3,0,0,0-.39,1.42c0,1.29,1.09,3.22,2.94,3.22a3.31,3.31,0,0,0,2.28-1c-1.36-1.9-1.75-2.45-3.39-5A4,4,0,0,0,168.8,134Zm4.36-5a1.58,1.58,0,0,0-1.61-1.58,1.4,1.4,0,0,0-1.48,1.38,5.3,5.3,0,0,0,1.26,2.57C172,131,173.16,130.19,173.16,129Z"/><path class="cls-3" d="M198.92,135.37a4.92,4.92,0,0,0,2.14,3.35,3.79,3.79,0,0,0,1.85.46,2.57,2.57,0,0,0,2.82-2.51,2.62,2.62,0,0,0-1.36-2.3,24.27,24.27,0,0,0-2.77-1.5c-1.55-.82-3-1.57-3-3.75a3.55,3.55,0,0,1,3.83-3.55,5.1,5.1,0,0,1,1.42.22,4.34,4.34,0,0,1,1.66.81,4.75,4.75,0,0,0,.43-.79h.45l.06,3.71h-.61a5.48,5.48,0,0,0-.76-2,3.23,3.23,0,0,0-2.61-1.33,2.06,2.06,0,0,0-2.3,2,2.13,2.13,0,0,0,.43,1.25c.45.56,1.15,1,3.63,2.24,1.57.81,3,1.57,3,4.06a4.8,4.8,0,0,1-.37,1.93,3.93,3.93,0,0,1-3.68,2.3,5.4,5.4,0,0,1-1.42-.19,6.13,6.13,0,0,1-2.41-1.27,11.66,11.66,0,0,0-.47,1.19h-.61v-4.36h.65"/><path class="cls-3" d="M219.44,133.11v4.42a1.32,1.32,0,0,0,.43,1.19,2.85,2.85,0,0,0,1.65.31v.64h-6.17V139c1.52-.08,2-.1,2-1.48V128a1.46,1.46,0,0,0-.33-1.09c-.31-.28-.56-.3-1.61-.35v-.63h6.07c1.25,0,2.69,0,3.76,1.27a3.46,3.46,0,0,1,.82,2.3,3.52,3.52,0,0,1-.94,2.49,4.55,4.55,0,0,1-3.35,1.13h-2.37m0-.64h1.2c.9,0,3.22,0,3.22-3s-1.95-3-3.12-3c-.43,0-.88,0-1.3.06Z"/><path class="cls-3" d="M238.48,125.75h.62L243.64,137c.56,1.39.84,2,2.26,2.09v.62h-5.77v-.62c1,0,1.77,0,1.77-.7a2.16,2.16,0,0,0-.25-.86l-1.11-2.81h-4.75l-1,2.5a3.37,3.37,0,0,0-.26,1c0,.66.59.82,1.56.9v.62H231.6v-.62c1.35-.16,1.72-.51,2.3-1.87l4.58-11.43m.74,5.55c-.49-1.27-.57-1.5-1-2.83L236.06,134h4.19Z"/><g class="cls-4"><path class="cls-3" d="M253.92,135.37a4.92,4.92,0,0,0,2.14,3.35,3.76,3.76,0,0,0,1.85.46,2.57,2.57,0,0,0,2.82-2.51,2.64,2.64,0,0,0-1.36-2.3,24.27,24.27,0,0,0-2.77-1.5c-1.56-.82-3.06-1.57-3.06-3.75a3.56,3.56,0,0,1,3.84-3.55,5.16,5.16,0,0,1,1.42.22,4.34,4.34,0,0,1,1.66.81,4.75,4.75,0,0,0,.43-.79h.44l.06,3.71h-.6a5.67,5.67,0,0,0-.76-2,3.24,3.24,0,0,0-2.61-1.33,2.06,2.06,0,0,0-2.3,2,2.13,2.13,0,0,0,.43,1.25c.45.56,1.15,1,3.62,2.24,1.58.81,3.06,1.57,3.06,4.06a4.8,4.8,0,0,1-.37,1.93,3.93,3.93,0,0,1-3.68,2.3,5.4,5.4,0,0,1-1.42-.19,6.26,6.26,0,0,1-2.42-1.27c-.25.58-.27.66-.46,1.19h-.61v-4.36h.65"/><path class="cls-2" d="M15.69,70.41c9.61,0,15.37,4.48,15.37,12.81,0,6.34-3.59,10.43-9,12v.19l10.12,12.29v1.09H27.28L16.72,96.09H4.48v12.74H0V70.41H15.69m-.06,4.16H4.48V91.92H16.2c6,0,10.25-2.68,10.25-8.58S22.16,74.57,15.63,74.57Z"/></g><polyline class="cls-2" points="50.85 91.99 50.85 104.67 74.54 104.67 74.54 108.83 46.37 108.83 46.37 70.41 74.54 70.41 74.54 74.57 50.85 74.57 50.85 87.83 71.73 87.83 71.73 91.99 50.85 91.99"/><polyline class="cls-2" points="116.87 70.41 116.87 74.57 93.18 74.57 93.18 87.83 114.06 87.83 114.06 91.99 93.18 91.99 93.18 108.83 88.7 108.83 88.7 70.41 116.87 70.41"/><polyline class="cls-2" points="130.51 70.41 135 70.41 135 104.67 157.41 104.67 157.41 108.83 130.51 108.83 130.51 70.41"/><polyline class="cls-2" points="174.38 91.99 174.38 104.67 198.08 104.67 198.08 108.83 169.9 108.83 169.9 70.41 198.08 70.41 198.08 74.57 174.38 74.57 174.38 87.83 195.26 87.83 195.26 91.99 174.38 91.99"/><path class="cls-2" d="M228.88,109.73c-11.91,0-20-8.84-20-20s8.13-20.11,20-20.11c9,0,13.32,4.94,13.32,4.94L239.64,78A15.82,15.82,0,0,0,229,73.8c-9.23,0-15.57,7.17-15.57,15.88S219.72,105.5,229,105.5a15.82,15.82,0,0,0,10.69-4.16l2.56,3.46s-4.29,4.93-13.32,4.93"/><polyline class="cls-2" points="282.61 70.41 282.61 74.57 269.1 74.57 269.1 108.83 264.61 108.83 264.61 74.57 251.17 74.57 251.17 70.41 282.61 70.41"/><path class="cls-2" d="M141.33,32.88l-1.1,1.1c-1.81,1.8-4.6,6.45-6.28,9.39a19,19,0,0,0,3.18,1,63.64,63.64,0,0,1,4.2-6.79,64.34,64.34,0,0,1,4.17,6.74,18.56,18.56,0,0,0,3.16-1c-1.68-2.95-4.43-7.53-6.23-9.31l-1.1-1.1"/><path class="cls-2" d="M141.28,18l1.1-1.1c1.82-1.8,4.6-6.45,6.28-9.39a17.85,17.85,0,0,0-3.18-1,63.64,63.64,0,0,1-4.2,6.79,64.34,64.34,0,0,1-4.17-6.74,18,18,0,0,0-3.16,1c1.68,3,4.44,7.53,6.23,9.31l1.1,1.1"/><path class="cls-2" d="M148.73,25.43l1.1,1.1c1.8,1.81,6.45,4.6,9.39,6.28a18.11,18.11,0,0,0,1-3.18,65.3,65.3,0,0,1-6.79-4.2,64.26,64.26,0,0,1,6.74-4.18,17.89,17.89,0,0,0-1-3.15c-2.95,1.68-7.53,4.43-9.31,6.23l-1.1,1.1"/><path class="cls-2" d="M133.88,25.48l-1.1-1.1c-1.8-1.82-6.45-4.6-9.39-6.28a17.85,17.85,0,0,0-1,3.18,63.64,63.64,0,0,1,6.79,4.2,66.06,66.06,0,0,1-6.74,4.17,18.86,18.86,0,0,0,1,3.16c3-1.68,7.53-4.44,9.31-6.24l1.1-1.09"/><path class="cls-2" d="M156.8,9.58s-12.59.71-16.23,16.24C156.1,22.17,156.8,9.59,156.8,9.58"/><path class="cls-2" d="M142,24.37s-12.59.7-16.24,16.23C141.31,37,142,24.38,142,24.37"/><path class="cls-2" d="M156.8,40.6S156.1,28,140.57,24.37c3.64,15.52,16.22,16.23,16.23,16.23"/><path class="cls-2" d="M142,25.82s-.71-12.59-16.24-16.24C129.43,25.11,142,25.82,142,25.82"/><path class="cls-2" d="M141.3,50.25a24.8,24.8,0,1,1,24.8-24.8,24.82,24.82,0,0,1-24.8,24.8m0-46.41a21.62,21.62,0,1,0,21.62,21.61A21.64,21.64,0,0,0,141.3,3.84Z"/></svg>