<svg xmlns="http://www.w3.org/2000/svg" xmlns:xlink="http://www.w3.org/1999/xlink" width="418.94" height="179.62" viewBox="0 0 418.94 179.62"><defs><style>.cls-1{fill:url(#linear-gradient);}.cls-2{fill:#fff;}</style><linearGradient id="linear-gradient" x1="209.47" y1="179.62" x2="209.47" gradientUnits="userSpaceOnUse"><stop offset="0" stop-color="#262262"/><stop offset="1" stop-color="#2b3990" stop-opacity="0"/></linearGradient></defs><title>Asset 6</title><g id="Layer_2" data-name="Layer 2"><g id="Layer_1-2" data-name="Layer 1"><polygon class="cls-1" points="239.35 179.62 418.94 0.03 254.4 0 0 0 0 179.62 74.78 179.62 239.35 179.62"/><path class="cls-2" d="M182.65,148.33a4.53,4.53,0,0,1,2.26-1.39,2.05,2.05,0,0,1,1.9.67,2.72,2.72,0,0,1,.87,1.74,3.08,3.08,0,0,1-.56,1.93l0,0a2.23,2.23,0,0,1,1.35-.33,2,2,0,0,1,1.27.64,3.2,3.2,0,0,1,1.06,2.67,4.92,4.92,0,0,1-1.58,2.89l-2.76,2.76-6.09-9.36Zm1.77,4.35.79-.79a2.1,2.1,0,0,0,.7-1.22,1.22,1.22,0,0,0-.41-1c-.49-.48-1-.43-1.63.17l-.8.81Zm2.61,4,.95-.95a2,2,0,0,0,.67-1.27,1.55,1.55,0,0,0-.5-1.21c-.57-.57-1.18-.53-1.82.11l-.88.88Z"/><path class="cls-2" d="M195.53,147.23l-2.5,2.49.93,2.75-1.69,1.69-3.71-11.8,2-2,8.53,7-1.57,1.57Zm-1.46-1.3-2-1.71c-.5-.43-1-.85-1.39-1.28l-.19-.19c.27.57.52,1.21.77,1.91l1,3Z"/><path class="cls-2" d="M205.71,140.72l-1.62,1.62-2.62-4L199,140.79l2.62,4L200,146.44l-6.09-9.36,1.62-1.61,2.38,3.66,2.49-2.49L198,133l1.61-1.61Z"/><path class="cls-2" d="M209.9,132.86l-2.5,2.5.93,2.74-1.69,1.69L202.93,128l2-2,8.53,7-1.57,1.57Zm-1.46-1.3-2-1.71c-.5-.43-1-.85-1.39-1.28l-.19-.19a18.75,18.75,0,0,1,.76,1.92l1,3Z"/><path class="cls-2" d="M216.56,126l-2.87-8.68,2.24-2.24,6.09,9.36-1.48,1.48-2.89-4.42c-.68-1.06-1.27-2-1.77-2.89l0,0,3,9-1.49,1.48-6.3-5.66,0,0c.27.35.61.83,1,1.43s1.66,2.51,3.77,5.75l-1.45,1.45-6.09-9.36,2.13-2.13,6.14,5.42Z"/><path class="cls-2" d="M226.21,116.54l-2.5,2.5.93,2.75L223,123.48l-3.71-11.8,2-2,8.53,7-1.57,1.57Zm-1.45-1.29-2-1.71c-.5-.43-1-.86-1.39-1.29l-.19-.19c.27.58.52,1.22.77,1.92l1,3Z"/><path class="cls-2" d="M233.11,108.76a3,3,0,0,1,1,2.53,4.6,4.6,0,0,1-1.47,2.76,4.81,4.81,0,0,1-2.36,1.4L228.79,114a5.54,5.54,0,0,0,2.46-1.32,2.21,2.21,0,0,0,.7-1.15,1,1,0,0,0-.28-1,1.51,1.51,0,0,0-.47-.32,1.47,1.47,0,0,0-.52-.12,7.82,7.82,0,0,0-1.2.12,5,5,0,0,1-2.06,0,3.25,3.25,0,0,1-1.4-.81,3.3,3.3,0,0,1-.89-1.55,3.13,3.13,0,0,1,.1-1.76,4.33,4.33,0,0,1,1.1-1.69,6,6,0,0,1,2.61-1.58l.66,1.81a5,5,0,0,0-1.91,1.13,1.53,1.53,0,0,0-.48,1,1.09,1.09,0,0,0,.35.9,1.25,1.25,0,0,0,.73.39,4.33,4.33,0,0,0,1.42-.14,4.33,4.33,0,0,1,1.89,0A3.14,3.14,0,0,1,233.11,108.76Z"/><path class="cls-2" d="M245.93,100.5l-1.84,1.84-.9-.13a5.27,5.27,0,0,1-1.51,2.75,3.5,3.5,0,0,1-2.21,1.18,2.66,2.66,0,0,1-2.07-.89,3,3,0,0,1-.9-1.73,6,6,0,0,1,.39-2.51,3.81,3.81,0,0,1-1.76-1,3,3,0,0,1-1-2.24,3.3,3.3,0,0,1,1.08-2.27,3,3,0,0,1,1.84-1,2.1,2.1,0,0,1,1.7.68c1,1,1.09,2.37.32,4.17l2.42.36a6.66,6.66,0,0,0-.22-1.06,8.68,8.68,0,0,0-.5-1.34l1.59-1.58a12.12,12.12,0,0,1,1,4.26Zm-8.36-1.36a3.94,3.94,0,0,0,.24-1.41,1.38,1.38,0,0,0-.37-.82.74.74,0,0,0-.59-.27.76.76,0,0,0-.51.23.91.91,0,0,0-.29.79,1.38,1.38,0,0,0,.43.82,2.82,2.82,0,0,0,.55.43A2.27,2.27,0,0,0,237.57,99.14Zm.93,2.21a2.76,2.76,0,0,0-.1,1.2,1.86,1.86,0,0,0,.51.88,1.06,1.06,0,0,0,.81.33,1.22,1.22,0,0,0,.85-.39,3.37,3.37,0,0,0,.85-1.48Z"/><path class="cls-2" d="M250.22,85.27a3.41,3.41,0,0,1,1.1,2.89,5.38,5.38,0,0,1-1.74,3.2l-.46.45,2.18,3.32-1.62,1.62-6.09-9.36,1.79-1.79a4.08,4.08,0,0,1,2.5-1.37A3,3,0,0,1,250.22,85.27Zm-2.15,4.91.3-.3a2.53,2.53,0,0,0,.82-1.54,1.74,1.74,0,0,0-.55-1.41,1.24,1.24,0,0,0-2,.08l-.39.39Z"/><path class="cls-2" d="M260.28,86.15,256,90.47l-6.09-9.36,4.32-4.32,1.06,1.63-2.71,2.7,1.34,2,2.52-2.52,1.06,1.64-2.52,2.52,1.56,2.41,2.71-2.7Z"/><path class="cls-2" d="M261.1,79.4l2.34,3.6-1.62,1.61-6.09-9.36,1.9-1.9A4,4,0,0,1,260.05,72a2.8,2.8,0,0,1,2.21.95,3.33,3.33,0,0,1,1,1.88,3.57,3.57,0,0,1-.37,2.15l4.66,1.9-1.75,1.75-4.06-1.87Zm-1.05-1.61.41-.41a2.45,2.45,0,0,0,.78-1.38,1.54,1.54,0,0,0-.54-1.3,1.1,1.1,0,0,0-.9-.4,1.65,1.65,0,0,0-1,.57l-.39.39Z"/><path class="cls-2" d="M270,76.41,268.41,78l-6.09-9.36,4.3-4.3L267.68,66,265,68.67l1.58,2.41,2.5-2.5,1,1.64-2.5,2.49Z"/><path class="cls-2" d="M278.47,68l-4.32,4.32-6.09-9.36,4.32-4.32,1.06,1.63-2.7,2.7L272.08,65l2.52-2.52,1,1.63-2.52,2.52L274.7,69l2.7-2.71Z"/><path class="cls-2" d="M278,55.43a2.83,2.83,0,0,0-.83,1.68,4.11,4.11,0,0,0,.36,2.16A6.68,6.68,0,0,0,279,61.39a2.81,2.81,0,0,0,1.68,1,2,2,0,0,0,1.58-.72,7.18,7.18,0,0,0,1.38-2.2L285,60.8a8.25,8.25,0,0,1-1.71,2.52,3.85,3.85,0,0,1-2.87,1.29,4.38,4.38,0,0,1-3-1.49,8.18,8.18,0,0,1-2-3.1,5.9,5.9,0,0,1-.3-3.23,5.31,5.31,0,0,1,1.5-2.72A7.48,7.48,0,0,1,278,53a6.4,6.4,0,0,1,1.53-.66l.7,1.94a6.35,6.35,0,0,0-1.34.52A3.61,3.61,0,0,0,278,55.43Z"/><path class="cls-2" d="M289.37,57.06l-1.61,1.61-5-7.7-1.86,1.86-1.07-1.66,5.34-5.33,1.07,1.65-1.87,1.87Z"/><path class="cls-2" d="M297.1,39.73a8.5,8.5,0,0,1,2,3.09,5.27,5.27,0,0,1,.16,3.16,6.36,6.36,0,0,1-1.74,2.88l-2.38,2.38-6.09-9.35,2.09-2.1a4.32,4.32,0,0,1,3-1.45A4.11,4.11,0,0,1,297.1,39.73Zm-.81,7.7a3.32,3.32,0,0,0,1-1.76,3.71,3.71,0,0,0-.27-2.09,6.39,6.39,0,0,0-1.45-2.11,2.6,2.6,0,0,0-1.62-.86,2,2,0,0,0-1.53.68l-.61.61,4,6.09Z"/><path class="cls-2" d="M304.84,37.91l-2.5,2.5.93,2.75-1.69,1.69-3.71-11.8,2-2,8.53,7-1.56,1.56Zm-1.45-1.29-2-1.71c-.5-.43-1-.86-1.39-1.29l-.19-.19c.27.58.52,1.22.77,1.92l1,3Z"/><path class="cls-2" d="M307.74,29.5l-1.15-5.1,1.81-1.81,1.5,8,2.33,3.59-1.61,1.6-2.32-3.59-6-3.52,1.65-1.65Z"/></g></g></svg>