<svg id="Layer_1" data-name="Layer 1" xmlns="http://www.w3.org/2000/svg" width="311.25" height="214.73" viewBox="0 0 311.25 214.73"><defs><style>.cls-1{fill:#7c3a00;}.cls-2{fill:#c3a204;}.cls-3{fill:#eedfb6;}.cls-4{fill:none;stroke:#eedfb6;stroke-width:0.5px;}.cls-5{fill:#d8be64;}.cls-6{fill:#776100;}</style></defs><title>zoetry-notag_cmyk</title><polyline class="cls-1" points="39.83 196.05 33.37 196.05 33.37 201.53 39.67 201.53 39.67 202.41 33.37 202.41 33.37 207.97 40 207.97 40 208.85 32.29 208.85 32.29 195.17 39.83 195.17 39.83 196.05"/><polyline class="cls-1" points="44.5 207.97 51.33 207.97 51.33 208.85 43.42 208.85 43.42 195.17 44.5 195.17 44.5 207.97"/><polyline class="cls-1" points="55.22 207.97 62.05 207.97 62.05 208.85 54.15 208.85 54.15 195.17 55.22 195.17 55.22 207.97"/><polyline class="cls-1" points="77.32 208.85 76.43 208.85 65.93 196.9 65.93 208.85 64.85 208.85 64.85 195.17 65.77 195.17 76.25 207.13 76.25 195.17 77.32 195.17 77.32 208.85"/><polyline class="cls-1" points="89.28 196.05 82.82 196.05 82.82 201.53 89.12 201.53 89.12 202.41 82.82 202.41 82.82 207.97 89.45 207.97 89.45 208.85 81.74 208.85 81.74 195.17 89.28 195.17 89.28 196.05"/><path class="cls-1" d="M99.38,197a5.85,5.85,0,0,0-3.1-1.05,2.72,2.72,0,0,0-2.92,2.61c0,3.65,6.59,1.91,6.59,6.7a3.85,3.85,0,0,1-4,3.75,6.47,6.47,0,0,1-3.54-1.2v-1.24c1.54,1.1,2.41,1.46,3.48,1.46a2.79,2.79,0,0,0,2.92-2.73c0-3.89-6.59-2.18-6.59-6.7a3.81,3.81,0,0,1,4-3.63,6.63,6.63,0,0,1,3.2.86V197"/><path class="cls-1" d="M110.11,197A5.85,5.85,0,0,0,107,196a2.72,2.72,0,0,0-2.92,2.61c0,3.65,6.59,1.91,6.59,6.7a3.84,3.84,0,0,1-4,3.75,6.53,6.53,0,0,1-3.55-1.2v-1.24c1.54,1.1,2.42,1.46,3.49,1.46a2.79,2.79,0,0,0,2.92-2.73c0-3.89-6.59-2.18-6.59-6.7a3.8,3.8,0,0,1,4-3.63,6.67,6.67,0,0,1,3.21.86V197"/><path class="cls-1" d="M132,213.55c-6.08,0-10.12-2.69-10.12-7.36,0-3.49,2.84-6,6.4-7.69a4.59,4.59,0,0,1,.26.48,7,7,0,0,0-3.65,6c0,4.23,2.68,7.78,7.72,7.78a10.3,10.3,0,0,0,6.28-2c.16.12.45.31.61.44a12.82,12.82,0,0,1-7.5,2.34m17,1.18c-3.43,0-8.34-1.38-14.71-8.16-5-5.41-7.54-9.7-7.54-13.51a5.72,5.72,0,0,1,5.66-5.59,3,3,0,0,0,0,.5c-2.23.1-3.26,1.61-3.26,4.2,0,4.1,4,9,7,12.19,5.69,6.24,10,9.7,14.85,9.7a9.78,9.78,0,0,0,5.49-1.89c.32-.25.71,0,.36.32C155.2,213.8,153.23,214.73,149,214.73Zm-18-17a3.47,3.47,0,0,1-.26-.45c4.2-2.21,4.37-4.61,4.37-6.21A2.82,2.82,0,0,0,132.4,188a3,3,0,0,1,0-.5c2.88,0,4.5,1.73,4.5,3.71S136.09,195.3,131,197.74Zm14.65,5c-.68,1.18-1.88,4.29-4.37,6.81a2.16,2.16,0,0,1-.42-.38,15.3,15.3,0,0,0,3.07-6.21c.43-2.11.36-2.56-2.29-2.53-.36,0-.39-.32,0-.35,1.3-.06,3.34-.1,4.18-.13,1,0,3.3-.25,3.88-.35.29-.06.36.29,0,.35C147.5,200.46,146.76,200.81,145.66,202.7Z"/><path class="cls-1" d="M167.83,197a5.82,5.82,0,0,0-3.11-1,2.72,2.72,0,0,0-2.92,2.61c0,3.65,6.59,1.9,6.59,6.7a3.84,3.84,0,0,1-4,3.75,6.47,6.47,0,0,1-3.55-1.21v-1.24c1.54,1.11,2.42,1.47,3.49,1.47a2.79,2.79,0,0,0,2.92-2.73c0-3.89-6.59-2.19-6.59-6.7a3.81,3.81,0,0,1,4-3.64,6.68,6.68,0,0,1,3.21.87V197"/><path class="cls-1" d="M175.84,195.16c3.24,0,4.52,1.65,4.52,3.62,0,1.76-1,3.67-4.63,3.67H173.1v6.4H172V195.16h3.81m-2.74,6.41h2.58c2.57,0,3.52-1.23,3.52-2.77s-1-2.75-3.41-2.75H173.1Z"/><polyline class="cls-1" points="193.62 208.85 192.5 208.85 186.93 196.79 183.56 204.12 181.37 208.85 180.26 208.85 186.64 195.07 187.23 195.07 193.62 208.85"/><path class="cls-1" d="M206.92,195.16c3.39,0,4.58,1.72,4.58,3.54,0,1.58-.87,2.69-2.63,3.33a6.09,6.09,0,0,1,1.84,2.09l3.12,4.73h-1.26l-2.41-3.75c-1.66-2.59-2.19-2.81-3.85-2.81h-1.86v6.56h-1.08V195.16h3.55m-2.47,6.24h2.29c2.43,0,3.6-1,3.6-2.68s-1.11-2.67-3.65-2.67h-2.24Z"/><polyline class="cls-1" points="223.77 196.05 217.3 196.05 217.3 201.53 223.6 201.53 223.6 202.41 217.3 202.41 217.3 207.97 223.93 207.97 223.93 208.85 216.22 208.85 216.22 195.16 223.77 195.16 223.77 196.05"/><path class="cls-1" d="M233.87,197a5.82,5.82,0,0,0-3.1-1,2.71,2.71,0,0,0-2.92,2.61c0,3.65,6.58,1.9,6.58,6.7a3.84,3.84,0,0,1-4,3.75,6.44,6.44,0,0,1-3.55-1.21v-1.24c1.54,1.11,2.41,1.47,3.49,1.47a2.79,2.79,0,0,0,2.92-2.73c0-3.89-6.59-2.19-6.59-6.7a3.8,3.8,0,0,1,4-3.64,6.68,6.68,0,0,1,3.21.87V197"/><path class="cls-1" d="M244.81,209a7,7,0,1,1,7.35-7,7.09,7.09,0,0,1-7.35,7m0-13.06a6,6,0,1,0,6.15,6A6,6,0,0,0,244.85,196Z"/><path class="cls-1" d="M259.53,195.16c3.39,0,4.59,1.72,4.59,3.54q0,2.37-2.64,3.33a6.21,6.21,0,0,1,1.85,2.09l3.11,4.73h-1.25l-2.41-3.75c-1.66-2.59-2.19-2.81-3.86-2.81h-1.86v6.56H256V195.16h3.55m-2.47,6.24h2.29c2.43,0,3.61-1,3.61-2.68s-1.11-2.67-3.65-2.67h-2.25Z"/><polyline class="cls-1" points="278.15 196.05 272.96 196.05 272.96 208.85 271.89 208.85 271.89 196.05 266.7 196.05 266.7 195.16 278.15 195.16 278.15 196.05"/><path class="cls-1" d="M287.56,197a5.82,5.82,0,0,0-3.1-1,2.72,2.72,0,0,0-2.93,2.61c0,3.65,6.59,1.9,6.59,6.7a3.84,3.84,0,0,1-4,3.75,6.47,6.47,0,0,1-3.55-1.21v-1.24c1.54,1.11,2.42,1.47,3.49,1.47a2.79,2.79,0,0,0,2.92-2.73c0-3.89-6.59-2.19-6.59-6.7a3.81,3.81,0,0,1,4-3.64,6.68,6.68,0,0,1,3.2.87V197"/><polyline class="cls-1" points="16.51 209.39 16.2 209.39 10.26 195.13 11.35 195.13 16.36 207.07 21.33 195.13 22.42 195.13 16.51 209.39"/><polyline class="cls-1" points="23.49 209.39 23.18 209.39 17.24 195.14 18.34 195.14 23.34 207.07 28.31 195.14 29.41 195.14 23.49 209.39"/><polyline class="cls-2" points="255.91 128.11 265.52 128.11 277.06 142.98 288.76 128.1 298.37 128.1 281.05 150.12 281.05 174.04 273.2 174.04 273.2 150.04 255.91 128.11"/><path class="cls-2" d="M135,123.06a1.62,1.62,0,0,1-3.23,0,1.59,1.59,0,0,1,1.63-1.63,1.55,1.55,0,0,1,1.6,1.63"/><path class="cls-2" d="M146.13,123a1.54,1.54,0,0,1-1.66,1.6,1.55,1.55,0,0,1-1.57-1.6,1.59,1.59,0,0,1,1.63-1.63,1.55,1.55,0,0,1,1.6,1.63"/><path class="cls-2" d="M81.41,173.91c-18.27,0-26.06-11.16-26.06-23s7.79-22.95,26.06-22.95,26.06,11.17,26.06,23-7.79,22.94-26.06,22.94m0-40c-10.74,0-17,6.92-17,17s6.23,17,17,17,17-6.83,17-16.88S92.14,133.92,81.41,133.92Z"/><path class="cls-2" d="M140.72,173.91c-15.75,0-26-9.17-26-23s10.3-22.95,26-22.95c7.27,0,13.25,2.43,21.21,9.7l-3.64,3.72c-6.92-6.4-13.33-7.44-18.35-7.44-8.05,0-13.77,4.59-15.5,11.77,2.86-2,8-3.9,15.93-1,10.91,3.81,13.16-.78,13.16-.78l2,2.08s-5.28,9.09-19,4.24c-10.83-3.81-12.64.7-12.64.7,0,10.13,6.23,17,16,17,5.11,0,10.91-.6,18.7-7.61l3.64,3.89c-8.31,7.53-14,9.78-21.39,9.78"/><path class="cls-2" d="M191.65,137.38v35.93H182.9V135.65c-12-3-14,1.12-14,1.12l-2.6-3s6.58-9,23.64-4.15c13.5,3.81,16.36-.78,16.36-.78l2.42,2.94s-5,6.67-17,5.63"/><path class="cls-2" d="M256.46,173.39S243,177,234.9,160.67c-5.54-11.08-9.61-10.65-10.82-10.39v23h-8.75V128.64h19.74c9.09,0,15.24,3.54,15.24,11.68,0,8.49-6.23,10.91-14.54,10.91,3.72,1.21,6.32,3.9,8.31,7.88,6.4,12.81,12.38,10.74,12.38,10.74v3.54M232.3,134.52h-8.22v12h8.57c5.63,0,8.14-2.08,8.14-6.06C240.79,136.34,238.36,134.52,232.3,134.52Z"/><path class="cls-2" d="M23.42,172.82c-13.74-4.16-20.32.88-20.32.88L0,171.37l37-41.51,12.59-5.69-.88,5.69L18.1,164.12a37.1,37.1,0,0,1,10.25,1.64c14.13,4.74,21-.77,21-.77l2.52,3.19s-10,10.26-28.45,4.64"/><path class="cls-2" d="M29.43,123.8c13.75,4.13,20.31-.91,20.31-.91l3.11,2.31L16,166.8l-11.71,0,30.5-34.33a36.73,36.73,0,0,1-10.26-1.62c-14.14-4.71-21,.82-21,.82L1,128.52s9.94-10.29,28.44-4.72"/><path class="cls-2" d="M23.42,172.82c-13.74-4.16-20.32.88-20.32.88L0,171.37l37-41.51,12.59-5.69-.88,5.69L18.1,164.12a37.1,37.1,0,0,1,10.25,1.64c14.13,4.74,21-.77,21-.77l2.52,3.19s-10,10.26-28.45,4.64"/><path class="cls-2" d="M29.43,123.8c13.75,4.13,20.31-.91,20.31-.91l3.11,2.31L16,166.8l-11.71,0,30.5-34.33a36.73,36.73,0,0,1-10.26-1.62c-14.14-4.71-21,.82-21,.82L1,128.52s9.94-10.29,28.44-4.72"/><path class="cls-3" d="M149.47,57.82c.16-.41.5-.81.71-1.22a36.19,36.19,0,0,0,1.66-3.44A41.17,41.17,0,0,0,155,41.22a33.26,33.26,0,0,0-2.15-16c-.43-1.06-.87-2.11-1.38-3.15s-1.86-3.73-2.11-4.16a17.7,17.7,0,0,1-2.12-6.79,18.84,18.84,0,0,1,.42-7.77A7.86,7.86,0,0,1,149.16,0a1.51,1.51,0,0,0-.17.2,12.21,12.21,0,0,0-1.71,3,24.83,24.83,0,0,0-1.81,7.05A44.68,44.68,0,0,0,145.76,22a72.57,72.57,0,0,0,1.61,7.86l.26.95c1.19,4.38,2.62,8.69,3,13.1.4,4.64.55,9.48-1.15,13.92"/><path class="cls-3" d="M147.12,59.81a11.89,11.89,0,0,1-.94-1.05,37.81,37.81,0,0,0-2.73-2.65,40.61,40.61,0,0,0-10.31-6.69,33,33,0,0,0-15.79-2.94c-1.13.07-2.27.17-3.41.33s-4.11.6-4.59.71a17.34,17.34,0,0,1-7.08-.11,18.66,18.66,0,0,1-7.22-2.81,7.92,7.92,0,0,1-2.7-2.5c0,.08.09.15.14.23a12.37,12.37,0,0,0,2.27,2.54,25.06,25.06,0,0,0,6.1,3.92,44.88,44.88,0,0,0,11.21,3.39,71.69,71.69,0,0,0,7.94.91l1,0c4.52.24,9,.22,13.32,1.24,4.51,1.07,9.14,2.44,12.81,5.43"/><path class="cls-4" d="M147.12,59.81a11.89,11.89,0,0,1-.94-1.05,37.81,37.81,0,0,0-2.73-2.65,40.61,40.61,0,0,0-10.31-6.69,33,33,0,0,0-15.79-2.94c-1.13.07-2.27.17-3.41.33s-4.11.6-4.59.71a17.34,17.34,0,0,1-7.08-.11,18.66,18.66,0,0,1-7.22-2.81,7.92,7.92,0,0,1-2.7-2.5c0,.08.09.15.14.23a12.37,12.37,0,0,0,2.27,2.54,25.06,25.06,0,0,0,6.1,3.92,44.88,44.88,0,0,0,11.21,3.39,71.69,71.69,0,0,0,7.94.91l1,0c4.52.24,9,.22,13.32,1.24C138.82,55.45,143.45,56.82,147.12,59.81Z"/><path class="cls-3" d="M148.07,61.86a11,11,0,0,1-1.31.56,37.73,37.73,0,0,0-3.4,1.77,41.57,41.57,0,0,0-9.7,7.71A33.43,33.43,0,0,0,125.74,86c-.3,1.09-.58,2.21-.8,3.35s-.76,4.11-.81,4.6a17.79,17.79,0,0,1-2.4,6.73,19.22,19.22,0,0,1-5,6,8,8,0,0,1-3.25,1.78l.26,0a13,13,0,0,0,3.16-1.37,25.37,25.37,0,0,0,5.69-4.58,45.22,45.22,0,0,0,6.87-9.62,69.33,69.33,0,0,0,3.44-7.28c.13-.31.25-.61.37-.92,1.69-4.23,3.14-8.55,5.5-12.32,2.49-3.95,5.28-7.94,9.32-10.49"/><path class="cls-4" d="M148.07,61.86a11,11,0,0,1-1.31.56,37.73,37.73,0,0,0-3.4,1.77,41.57,41.57,0,0,0-9.7,7.71A33.43,33.43,0,0,0,125.74,86c-.3,1.09-.58,2.21-.8,3.35s-.76,4.11-.81,4.6a17.79,17.79,0,0,1-2.4,6.73,19.22,19.22,0,0,1-5,6,8,8,0,0,1-3.25,1.78l.26,0a13,13,0,0,0,3.16-1.37,25.37,25.37,0,0,0,5.69-4.58,45.22,45.22,0,0,0,6.87-9.62,69.33,69.33,0,0,0,3.44-7.28c.13-.31.25-.61.37-.92,1.69-4.23,3.14-8.55,5.5-12.32C141.24,68.4,144,64.41,148.07,61.86Z"/><path class="cls-3" d="M150.37,61.89a10.71,10.71,0,0,1,.15,1.4c.16,1.28.39,2.52.67,3.75a41,41,0,0,0,4.46,11.47,33,33,0,0,0,11.1,11.63c1,.6,1.94,1.19,3,1.73s3.69,1.92,4.15,2.11a17.56,17.56,0,0,1,5.68,4.23,18.67,18.67,0,0,1,4.21,6.51,7.62,7.62,0,0,1,.74,3.61,2.28,2.28,0,0,0,0-.26,12.24,12.24,0,0,0-.36-3.4,24.56,24.56,0,0,0-2.66-6.74,44.87,44.87,0,0,0-7.12-9.33,70.68,70.68,0,0,0-5.92-5.38c-.25-.21-.5-.42-.76-.62-3.53-2.83-7.21-5.47-10.1-8.81-3-3.51-6-7.32-7.22-11.9"/><path class="cls-4" d="M150.37,61.89a10.71,10.71,0,0,1,.15,1.4c.16,1.28.39,2.52.67,3.75a41,41,0,0,0,4.46,11.47,33,33,0,0,0,11.1,11.63c1,.6,1.94,1.19,3,1.73s3.69,1.92,4.15,2.11a17.56,17.56,0,0,1,5.68,4.23,18.67,18.67,0,0,1,4.21,6.51,7.62,7.62,0,0,1,.74,3.61,2.28,2.28,0,0,0,0-.26,12.24,12.24,0,0,0-.36-3.4,24.56,24.56,0,0,0-2.66-6.74,44.87,44.87,0,0,0-7.12-9.33,70.68,70.68,0,0,0-5.92-5.38c-.25-.21-.5-.42-.76-.62-3.53-2.83-7.21-5.47-10.1-8.81C154.57,70.28,151.6,66.47,150.37,61.89Z"/><path class="cls-3" d="M151.23,59c.44,0,.93.25,1.38.34a35.43,35.43,0,0,0,3.78.62,41.78,41.78,0,0,0,12.4-.36A33.6,33.6,0,0,0,183.62,53c.9-.7,1.79-1.43,2.65-2.21s3.08-2.84,3.42-3.2a17.6,17.6,0,0,1,5.95-3.94,19,19,0,0,1,7.61-1.79,8,8,0,0,1,3.68.51l-.24-.1a12.49,12.49,0,0,0-3.35-.81,25.51,25.51,0,0,0-7.31.26,45.11,45.11,0,0,0-11.27,3.59,69.57,69.57,0,0,0-7.13,3.77l-.85.51c-3.89,2.38-7.64,5-11.79,6.56-4.36,1.68-9,3.2-13.76,2.82"/><path class="cls-4" d="M151.23,59c.44,0,.93.25,1.38.34a35.43,35.43,0,0,0,3.78.62,41.78,41.78,0,0,0,12.4-.36A33.6,33.6,0,0,0,183.62,53c.9-.7,1.79-1.43,2.65-2.21s3.08-2.84,3.42-3.2a17.6,17.6,0,0,1,5.95-3.94,19,19,0,0,1,7.61-1.79,8,8,0,0,1,3.68.51l-.24-.1a12.49,12.49,0,0,0-3.35-.81,25.51,25.51,0,0,0-7.31.26,45.11,45.11,0,0,0-11.27,3.59,69.57,69.57,0,0,0-7.13,3.77l-.85.51c-3.89,2.38-7.64,5-11.79,6.56C160.63,57.85,156,59.37,151.23,59Z"/><path class="cls-2" d="M146.1,54.88a8.3,8.3,0,0,1,0-1,25.58,25.58,0,0,0-.23-2.65,27,27,0,0,0-2.48-8.2,21.75,21.75,0,0,0-7.32-8.49c-.66-.45-1.33-.89-2-1.3s-2.57-1.45-2.88-1.6a11.58,11.58,0,0,1-3.87-3.12,12.23,12.23,0,0,1-2.63-4.7,5.19,5.19,0,0,1-.29-2.56,1.16,1.16,0,0,0,0,.18,8.34,8.34,0,0,0,0,2.4,16.15,16.15,0,0,0,1.48,4.83,29,29,0,0,0,4.57,6.75,46.12,46.12,0,0,0,3.95,4l.51.45a49,49,0,0,1,6.77,6.47c2,2.55,3.88,5.32,4.47,8.58"/><path class="cls-2" d="M143.57,61.82a8.77,8.77,0,0,1-.94-.33c-.86-.27-1.73-.49-2.59-.67a27,27,0,0,0-8.58-.43,22,22,0,0,0-10.49,4c-.64.47-1.29,1-1.91,1.49s-2.24,1.93-2.48,2.18a11.71,11.71,0,0,1-4.27,2.58,12,12,0,0,1-5.32.9,5.25,5.25,0,0,1-2.52-.58l.16.09a8.44,8.44,0,0,0,2.28.78,16.6,16.6,0,0,0,5.06.22,29,29,0,0,0,7.92-2A46.67,46.67,0,0,0,125,67.67l.6-.33a48.8,48.8,0,0,1,8.4-4.2c3.08-1,6.34-1.87,9.61-1.32"/><path class="cls-2" d="M148.94,65.77a8.34,8.34,0,0,1-.6.8,26.33,26.33,0,0,0-1.44,2.28A27.46,27.46,0,0,0,143.84,77a22.21,22.21,0,0,0,.59,11.34c.24.77.51,1.54.82,2.3s1.14,2.75,1.3,3.06a12,12,0,0,1,1.14,4.91,12.55,12.55,0,0,1-.79,5.4,5.33,5.33,0,0,1-1.34,2.24l.14-.13a8.51,8.51,0,0,0,1.45-2,16.76,16.76,0,0,0,1.77-4.8,29.52,29.52,0,0,0,.53-8.25,47.27,47.27,0,0,0-.71-5.61c0-.23-.08-.46-.13-.68a51.23,51.23,0,0,1-1.39-9.38c0-3.27.19-6.67,1.72-9.65"/><path class="cls-2" d="M154.74,62.27a7.83,7.83,0,0,1,.57.81c.55.73,1.12,1.42,1.72,2.07a27.2,27.2,0,0,0,6.75,5.41,22.25,22.25,0,0,0,10.94,2.92c.8,0,1.61,0,2.44-.08s3-.24,3.3-.3a12,12,0,0,1,5,.42,12.45,12.45,0,0,1,4.87,2.41,5.28,5.28,0,0,1,1.71,2c0-.06,0-.11-.07-.17a8.82,8.82,0,0,0-1.41-2,16.6,16.6,0,0,0-4-3.16,30.08,30.08,0,0,0-7.65-3,48.35,48.35,0,0,0-5.54-1l-.69-.08a50.53,50.53,0,0,1-9.32-1.56c-3.1-1-6.27-2.22-8.62-4.59"/><path class="cls-2" d="M153.39,55.8a8.61,8.61,0,0,1,.94-.3,26,26,0,0,0,2.49-1,27.11,27.11,0,0,0,7.14-4.8,21.92,21.92,0,0,0,6-9.53c.24-.77.47-1.55.65-2.35s.65-2.88.69-3.23a11.81,11.81,0,0,1,1.88-4.63A12.4,12.4,0,0,1,176.93,26a5.26,5.26,0,0,1,2.38-1l-.19,0a9.25,9.25,0,0,0-2.3.74,16.79,16.79,0,0,0-4.19,2.86A29.16,29.16,0,0,0,167.47,35a47.6,47.6,0,0,0-2.64,4.95l-.28.63A49.78,49.78,0,0,1,160.31,49c-1.87,2.65-4,5.29-6.92,6.82"/><path class="cls-5" d="M116.58,58.25a2.16,2.16,0,0,0-.29.31,8.3,8.3,0,0,1-.82.76A8.6,8.6,0,0,1,112.41,61a7.15,7.15,0,0,1-4.57-.2c-.32-.12-.64-.25-1-.41s-1.17-.56-1.3-.64a4.35,4.35,0,0,0-2-.54,3.82,3.82,0,0,0-2.11.45,1.89,1.89,0,0,0-.82.71l0-.07a2.69,2.69,0,0,1,.69-.76,5.2,5.2,0,0,1,1.81-1,9.09,9.09,0,0,1,3.26-.34,16.59,16.59,0,0,1,2.29.32l.28.06a17,17,0,0,0,3.83.63,6.37,6.37,0,0,0,3.76-1"/><path class="cls-5" d="M189.19,88.42a2.07,2.07,0,0,0-.41.07,9.22,9.22,0,0,1-4.54-.54,7.19,7.19,0,0,1-3.45-3,10,10,0,0,1-.5-.92c-.15-.3-.57-1.16-.62-1.31A4.25,4.25,0,0,0,178.42,81a3.83,3.83,0,0,0-1.94-1,1.88,1.88,0,0,0-1.07,0l.08,0a2.84,2.84,0,0,1,1-.16,5,5,0,0,1,2,.38,9,9,0,0,1,2.77,1.76,15.83,15.83,0,0,1,1.59,1.67l.18.22a17.34,17.34,0,0,0,2.61,2.89,6.34,6.34,0,0,0,3.53,1.58"/><path class="cls-5" d="M189.16,32.06a2.85,2.85,0,0,0,0,.42,9.31,9.31,0,0,1-.22,1.1,8.74,8.74,0,0,1-1.5,3.13,7.13,7.13,0,0,1-3.81,2.53c-.33.09-.67.18-1,.25s-1.27.24-1.43.25a4.27,4.27,0,0,0-2,.76,3.76,3.76,0,0,0-1.43,1.61,1.86,1.86,0,0,0-.25,1v-.08a3,3,0,0,1,.11-1,5.25,5.25,0,0,1,.89-1.84,9.2,9.2,0,0,1,2.44-2.2,15.71,15.71,0,0,1,2-1.1l.26-.12a16.35,16.35,0,0,0,3.47-1.75,6.32,6.32,0,0,0,2.46-3"/><path class="cls-5" d="M137.87,90.42a2.69,2.69,0,0,0,.19.38,8.92,8.92,0,0,1,.42,1,8.43,8.43,0,0,1,.45,3.44,7.17,7.17,0,0,1-1.8,4.21c-.23.26-.46.51-.72.76s-.94.9-1.06,1a4.13,4.13,0,0,0-1.23,1.7,3.77,3.77,0,0,0-.32,2.14,1.82,1.82,0,0,0,.37,1l0-.07a3.29,3.29,0,0,1-.47-.91,5.32,5.32,0,0,1-.25-2,9,9,0,0,1,.84-3.18,14.75,14.75,0,0,1,1.1-2l.15-.25a16.18,16.18,0,0,0,1.95-3.36,6.3,6.3,0,0,0,.43-3.85"/><path class="cls-5" d="M133.64,13.62a3.53,3.53,0,0,0,.39.15,7.83,7.83,0,0,1,1,.48,8.56,8.56,0,0,1,2.66,2.23,7.14,7.14,0,0,1,1.5,4.33c0,.34,0,.69,0,1.05s-.09,1.29-.11,1.44a4.27,4.27,0,0,0,.24,2.09,3.77,3.77,0,0,0,1.21,1.79,1.78,1.78,0,0,0,.95.5l-.08,0a3,3,0,0,1-1-.36A5.17,5.17,0,0,1,138.88,26a9,9,0,0,1-1.52-2.91,16,16,0,0,1-.56-2.24c0-.1,0-.19-.05-.28a16.74,16.74,0,0,0-.83-3.8,6.34,6.34,0,0,0-2.28-3.13"/><path class="cls-6" d="M132.05,43.9a4.54,4.54,0,0,0-.71.08,17.14,17.14,0,0,1-1.89,0,14.68,14.68,0,0,1-5.69-1.35,12,12,0,0,1-5.54-5.36c-.27-.51-.54-1-.77-1.59s-.85-2-.94-2.27a7,7,0,0,0-2-3,6.33,6.33,0,0,0-3.17-1.78,3.11,3.11,0,0,0-1.82,0l.14,0a5,5,0,0,1,1.72-.19,8.83,8.83,0,0,1,3.35.82,15.23,15.23,0,0,1,4.5,3.21,28.07,28.07,0,0,1,2.54,3l.28.39a28.71,28.71,0,0,0,4.14,5.09c1.68,1.42,3.52,2.77,5.81,3"/><path class="cls-6" d="M199.76,63.21a4.77,4.77,0,0,0-.54.48,15.61,15.61,0,0,1-1.51,1.13A14.63,14.63,0,0,1,192.28,67a12,12,0,0,1-7.62-1.18c-.52-.26-1-.53-1.55-.85s-1.86-1.15-2.07-1.31a7.18,7.18,0,0,0-3.3-1.28,6.48,6.48,0,0,0-3.62.37,3.11,3.11,0,0,0-1.49,1l.08-.11a5.12,5.12,0,0,1,1.3-1.15,8.88,8.88,0,0,1,3.21-1.27,15.13,15.13,0,0,1,5.53,0,26.24,26.24,0,0,1,3.77.93l.46.16a28.7,28.7,0,0,0,6.31,1.76c2.2.19,4.48.22,6.47-.94"/><path class="cls-6" d="M167,12.67c.06.2.22.43.31.64a15.71,15.71,0,0,1,.64,1.77,14.44,14.44,0,0,1,.57,5.82,12.1,12.1,0,0,1-3.29,7c-.4.42-.81.84-1.26,1.25s-1.63,1.45-1.84,1.61a7.08,7.08,0,0,0-2.16,2.8,6.39,6.39,0,0,0-.67,3.58,3.15,3.15,0,0,0,.57,1.73l-.08-.12a5,5,0,0,1-.74-1.57,9,9,0,0,1-.31-3.43,15.52,15.52,0,0,1,1.6-5.3,25.49,25.49,0,0,1,2-3.35c.09-.14.18-.27.28-.4A28.93,28.93,0,0,0,166,19.13c.79-2.05,1.48-4.23.93-6.46"/><path class="cls-6" d="M128.06,70.14a5.11,5.11,0,0,0-.12.7,15.66,15.66,0,0,1-3.39,6.91,12,12,0,0,1-6.7,3.81c-.57.12-1.14.23-1.75.3s-2.17.25-2.43.25a7.14,7.14,0,0,0-3.38,1,6.39,6.39,0,0,0-2.61,2.54,3,3,0,0,0-.52,1.74.71.71,0,0,1,0-.14,5.1,5.1,0,0,1,.31-1.71,8.63,8.63,0,0,1,1.72-3,15.27,15.27,0,0,1,4.35-3.42,26.48,26.48,0,0,1,3.54-1.6l.46-.17a28.74,28.74,0,0,0,6-2.53c1.84-1.22,3.65-2.61,4.49-4.75"/><path class="cls-6" d="M162.54,108.51a5.37,5.37,0,0,0-.63-.34,14.73,14.73,0,0,1-1.57-1,14.38,14.38,0,0,1-3.93-4.33,12,12,0,0,1-1.52-7.56c.06-.58.14-1.16.26-1.75s.44-2.14.52-2.39a7.11,7.11,0,0,0,.06-3.54,6.39,6.39,0,0,0-1.6-3.27,3.17,3.17,0,0,0-1.49-1.05l.14,0a5.58,5.58,0,0,1,1.53.83,8.72,8.72,0,0,1,2.29,2.57,15.13,15.13,0,0,1,1.88,5.2,25.61,25.61,0,0,1,.42,3.87c0,.16,0,.32,0,.48a28.36,28.36,0,0,0,.52,6.53c.58,2.13,1.33,4.28,3.1,5.75"/><path class="cls-2" d="M306.85,135.36a4.4,4.4,0,1,1,4.4-4.4,4.39,4.39,0,0,1-4.4,4.4m0-8.06a3.67,3.67,0,1,0,3.67,3.66A3.65,3.65,0,0,0,306.85,127.3Zm-1.92,1.37H307c1.17,0,1.57.73,1.57,1.24a1.34,1.34,0,0,1-1.35,1.36v0c.4.14.7.55,1.1,1.18l.57.91H308l-.42-.74c-.6-1.06-.82-1.26-1.41-1.26h-.45v2h-.76Zm1.86,2.06c.58,0,1-.22,1-.71s-.35-.7-.85-.7h-1.23v1.41Z"/></svg>