<svg xmlns="http://www.w3.org/2000/svg" width="97.94" height="35.79" viewBox="0 0 97.94 35.79"><defs><style>.cls-1{fill:#fff;}</style></defs><title>Asset 1</title><g id="Layer_2" data-name="Layer 2"><g id="Desktop"><g id="Tabs"><g id="Lodges"><polygon class="cls-1" points="48.99 0 52.25 6.62 59.56 7.68 54.27 12.83 55.52 20.11 48.99 16.67 42.45 20.11 43.7 12.83 38.41 7.68 45.72 6.62 48.99 0"/><path class="cls-1" d="M.84,28.7H4.09a2.53,2.53,0,0,1,1.83.62,1.61,1.61,0,0,1,.48,1.19v0A1.63,1.63,0,0,1,5.48,32a1.71,1.71,0,0,1,1.31,1.71v0c0,1.28-1,1.92-2.62,1.92H.84Zm2.92,2.83c.68,0,1.11-.22,1.11-.74v0c0-.46-.36-.72-1-.72H2.34v1.48Zm.41,2.81c.68,0,1.09-.24,1.09-.76v0c0-.47-.35-.75-1.14-.75H2.34v1.53Z" transform="translate(-0.84)"/><path class="cls-1" d="M8.31,28.7h5.28v1.37H9.84v1.42h3.3v1.37H9.84v1.46h3.8v1.37H8.31Z" transform="translate(-0.84)"/><path class="cls-1" d="M14.78,34.67l.91-1.09a3.21,3.21,0,0,0,2.09.85c.63,0,1-.25,1-.66v0c0-.39-.24-.59-1.41-.89-1.41-.35-2.32-.74-2.32-2.13v0a2.19,2.19,0,0,1,2.45-2.11,4.05,4.05,0,0,1,2.6.89l-.8,1.16A3.28,3.28,0,0,0,17.49,30c-.59,0-.9.27-.9.61v0c0,.46.3.61,1.51.92,1.42.37,2.22.88,2.22,2.09v0c0,1.39-1.06,2.17-2.57,2.17A4.45,4.45,0,0,1,14.78,34.67Z" transform="translate(-0.84)"/><path class="cls-1" d="M23.39,30.12H21.26V28.7h5.8v1.42H24.93v5.57H23.39Z" transform="translate(-0.84)"/><path class="cls-1" d="M27.27,34.09h1.62v1.6H27.27Z" transform="translate(-0.84)"/><path class="cls-1" d="M33.37,34.67l.91-1.09a3.21,3.21,0,0,0,2.09.85c.63,0,1-.25,1-.66v0c0-.39-.24-.59-1.41-.89-1.41-.35-2.32-.74-2.32-2.13v0A2.19,2.19,0,0,1,36.1,28.6a4.05,4.05,0,0,1,2.6.89l-.8,1.16A3.28,3.28,0,0,0,36.08,30c-.59,0-.9.27-.9.61v0c0,.46.3.61,1.51.92,1.42.37,2.22.88,2.22,2.09v0c0,1.39-1.06,2.17-2.57,2.17A4.45,4.45,0,0,1,33.37,34.67Z" transform="translate(-0.84)"/><path class="cls-1" d="M42.75,28.65h1.42l3,7H45.56l-.64-1.57H42l-.64,1.57H39.75Zm1.62,4.12-.93-2.27-.93,2.27Z" transform="translate(-0.84)"/><path class="cls-1" d="M48.5,28.7H50v5.59h3.49v1.4h-5Z" transform="translate(-0.84)"/><path class="cls-1" d="M54.94,28.7h5.28v1.37H56.47v1.42h3.3v1.37h-3.3v1.46h3.8v1.37H54.94Z" transform="translate(-0.84)"/><path class="cls-1" d="M61.67,34.09h1.62v1.6H61.67Z" transform="translate(-0.84)"/><path class="cls-1" d="M68.25,28.7h5.28v1.37H69.78v1.42h3.3v1.37h-3.3v1.46h3.8v1.37H68.25Z" transform="translate(-0.84)"/><path class="cls-1" d="M74.6,28.7h1.7l1.83,4.92L80,28.7h1.66l-2.83,7H77.43Z" transform="translate(-0.84)"/><path class="cls-1" d="M83,28.7h5.28v1.37H84.48v1.42h3.3v1.37h-3.3v1.46h3.8v1.37H83Z" transform="translate(-0.84)"/><path class="cls-1" d="M89.9,28.7h3.2a2.79,2.79,0,0,1,2,.71,2.2,2.2,0,0,1,.6,1.6v0a2.18,2.18,0,0,1-1.5,2.17L96,35.69h-1.8l-1.5-2.24H91.44v2.24H89.9ZM93,32.1c.75,0,1.18-.4,1.18-1v0c0-.66-.46-1-1.21-1H91.44v2Z" transform="translate(-0.84)"/><path class="cls-1" d="M97.16,34.09h1.62v1.6H97.16Z" transform="translate(-0.84)"/></g></g></g></g></svg>