<svg xmlns="http://www.w3.org/2000/svg" xmlns:xlink="http://www.w3.org/1999/xlink" width="63.64" height="104.91" viewBox="0 0 63.64 104.91"><defs><style>.cls-1{fill:none;}.cls-2{fill:#85642b;}.cls-3{fill:#fcdc00;}.cls-4{fill:#57be86;}.cls-5{fill:#c5dbdf;}.cls-6{fill:#da9a3d;}.cls-7{clip-path:url(#clip-path);}.cls-8{fill:#fff;}.cls-9{fill:#1a2954;}</style><clipPath id="clip-path" transform="translate(0 0)"><rect class="cls-1" width="63.64" height="104.91"/></clipPath></defs><title>Asset 8</title><g id="Layer_2" data-name="Layer 2"><g id="BG"><g id="Icons"><path class="cls-2" d="M7.53,43.18c2-.92,6.35,1,7.91,2.21,0,2.91,1.35,4,2.56,4.44l.94.32c1.41.47,3.54,1.17,5.91,2.06.86.32,1.76.68,2.68,1,2.3,1,4.35,1.9,6.11,2.84.38.2.74.41,1.11.62a23.4,23.4,0,0,1,4.92,3.61c1.7,1.71,2.44,3.41,2.2,5,0,.17-.09.2-.11.21-.84.35-4.31-2-5.61-2.83L35.09,62a36.81,36.81,0,0,0-3.48-2.19,27.1,27.1,0,0,0-2.9-1.22l-2.13-.75c-1.67-.55-3.54-1.14-5.34-1.7-4.85-1.51-9.86-3.08-12.07-4.46a2.9,2.9,0,0,1-1-.86c-.77-1.36-1-4.16-.66-7.68Z" transform="translate(0 0)"/><path class="cls-3" d="M7.64,42.22c.07-.54.15-1.11.26-1.72,2.18-.59,6.31,1.07,7.83,2.54-.1.46-.17.9-.22,1.33-1.74-1.13-5.43-2.82-7.87-2.15Z" transform="translate(0 0)"/><path class="cls-2" d="M15.61,28.94c.22-.07.47-.12.71-.18A32.68,32.68,0,0,1,21.52,39a103.26,103.26,0,0,1,2.9,12.13c-2.08-.76-3.92-1.38-5.18-1.8L18.3,49c-1.39-.48-2.05-1.76-2-3.82A12.53,12.53,0,0,1,16.66,43,21.66,21.66,0,0,1,18,39.09l-.83-.35A22.4,22.4,0,0,0,16,42.08c-1.83-1.46-5.48-2.88-7.9-2.49.11-.62.24-1.25.4-1.9,1-4.31,2.63-7.44,7.15-8.75Z" transform="translate(0 0)"/><path class="cls-2" d="M8.56,93.19c.72,3.67,3.73,4.9,6,5.81l.82.35.14,0a5.27,5.27,0,0,0,.68,0,9.75,9.75,0,0,0,3.91-1A15.15,15.15,0,0,0,21.27,100c1.36,1.58,2.14,2.6,1.12,3.72a1.65,1.65,0,0,1-1.3.36c-3.09-.11-8.91-3.48-10-4.92l-.6-.74C9.31,97,7.77,95.17,8.06,93.92a1.36,1.36,0,0,1,.5-.73Z" transform="translate(0 0)"/><path class="cls-2" d="M26.05,58.62c.07.32.16.63.24.94-4.45.27-11.65-1.23-16.89-2.45a13.64,13.64,0,0,1-.12-4.32C11.8,54.14,16.45,55.59,21,57c1.73.54,3.5,1.09,5.1,1.62Z" transform="translate(0 0)"/><path class="cls-4" d="M9.72,63.47c-.09-1.74-.16-3.61-.21-5.45,4.83,1.12,11.21,2.44,15.66,2.44.48,0,.93,0,1.36-.06,1.28,4.4,2.89,7.51,5,9.73a12.85,12.85,0,0,0-1,3.58C29.3,71.18,28,68.84,27,67.05c-.57-1-1-1.9-1.36-2.51l-.81.38c.32.62.79,1.48,1.37,2.53,1.19,2.17,2.82,5.15,4.36,8.29a47.85,47.85,0,0,1,4.23,11.2c.38,2.14.22,3.66-.49,4.5s-2,1.18-3.4,1.47A16.13,16.13,0,0,0,28,93.7c-1.19.47-2.35,1-3.66,1.66-.6.3-1.18.59-1.72.88-.92.47-1.78.92-2.59,1.28a8.57,8.57,0,0,1-4.4,1l-.78-.32c-2.28-.93-5.11-2.09-5.53-5.78a10.38,10.38,0,0,1,.11-2.8c1.9.34,4.07-.7,6.17-1.71a13.24,13.24,0,0,1,4.5-1.58c.2.54.36,1,.47,1.41l.87-.23c-.13-.47-.34-1.08-.59-1.77C19.16,81,15,70.93,15,70.83l-.08-.19-.2-.07a7.53,7.53,0,0,1-5-7.1Z" transform="translate(0 0)"/><path class="cls-5" d="M25.41,51.5l-.1-.49a102.62,102.62,0,0,0-2.93-12.27,33.84,33.84,0,0,0-5.09-10.17c.36-.06.72-.11,1.08-.14,2.81,2.61,6.17,11.64,7,17.45a13.38,13.38,0,0,1,.18,2.5l.9,0a12.68,12.68,0,0,0-.18-2.6,53.8,53.8,0,0,1,4.34-15,5.13,5.13,0,0,0,.47.46l-.65,2.55c-1.69,6.61-3,11.83-3.19,16.13,0,.78,0,1.53,0,2.25-.63-.25-1.24-.49-1.84-.71Z" transform="translate(0 0)"/><path class="cls-2" d="M32.23,11.83l-.89-.17a3.36,3.36,0,0,1-1.1,2,.6.6,0,0,1-.54,0,.55.55,0,0,1-.36-.35c-.19-.65.55-1.87.83-2.24l-.74-.5c-.13.18-1.31,1.82-1,3a1.38,1.38,0,0,0,.88.9,1.58,1.58,0,0,0,.63.13,1.53,1.53,0,0,0,.69-.17c1.1-.56,1.52-2.38,1.56-2.59Zm-4.91,6.69a4.46,4.46,0,0,1,.6,1.32c-2.58.36-4.85-.62-7.29-3.16l-.67.58c2.29,2.38,4.54,3.53,7,3.53A7.11,7.11,0,0,0,28,20.7,3.09,3.09,0,0,1,27.78,22l.84.33a4,4,0,0,0,.28-2.16A5,5,0,0,0,28.05,18l-.73.51Zm-1.93-3.45a2.13,2.13,0,0,1-1.74.26c-.72-.16-1.08-.56-1.08-1.18h-.91c0,1.46,1.3,2.1,2.57,2.1h0c1,0,2.05-.39,2.05-1.15h-.91v0ZM22.12,9.71c-.14.58-.68,2.2-1.48,2.66a.73.73,0,0,1-.57.09c-.18-.05-.24-.12-.27-.2-.22-.57.54-2,1.16-2.91l-.75-.49c-.29.41-1.72,2.51-1.25,3.7a1.18,1.18,0,0,0,.89.73,1.37,1.37,0,0,0,.4.05,1.76,1.76,0,0,0,.86-.23c1.26-.73,1.83-3,1.89-3.21l-.88-.19Zm.15,11.88c.3-.11,1.42.5,2.38,1.27l.58-.66c-.52-.42-2.29-1.77-3.27-1.42l.31.81ZM30,26.13a13.52,13.52,0,0,1-5.34,1.32A5.13,5.13,0,0,1,22,26.93a3.42,3.42,0,0,1-1.8-2.54,1.36,1.36,0,0,1,.15-1l-.67-.58a1.31,1.31,0,0,0-.28.52c-1.83-3.13-1.56-12.8-.59-14.22a6.1,6.1,0,0,1,4.1-2.86c3.05-.49,6,1.65,6,1.67l.14.11.19,0a5,5,0,0,1,4.34,2.15,2.45,2.45,0,0,1,0,2.89c-.24.35-.48.68-.71,1-1.28,1.81-2.2,3.11-1.74,4.08a1.69,1.69,0,0,0,1.17.82,3.5,3.5,0,0,0-.61,2.73,1.43,1.43,0,0,0,.88.85,2.18,2.18,0,0,0,.7.13,1.94,1.94,0,0,0,.81-.19A9.38,9.38,0,0,1,30,26.13Z" transform="translate(0 0)"/><path class="cls-2" d="M25.8,43.22c-1.15-5.06-3.67-11.92-6.27-14.87.7,0,1.43-.05,2.2,0h.35l0-.42a6.39,6.39,0,0,0,2.25.39h.3a14.54,14.54,0,0,0,5.12-1.16,5.61,5.61,0,0,0,.29,2.75A54.52,54.52,0,0,0,25.8,43.22Z" transform="translate(0 0)"/><path class="cls-2" d="M28,94.67c.93,1.65,3.78,2.65,5.06,3l-.06,0a8.39,8.39,0,0,0,1.32,2c1.2,1.47,1.69,2.23.94,2.86a1.76,1.76,0,0,1-1.38.18c-2.5-.37-6.4-2.88-7.09-4-.11-.19-.24-.4-.38-.62a14.76,14.76,0,0,1-1.2-2.14c1-.48,1.89-.9,2.79-1.26Z" transform="translate(0 0)"/><path class="cls-5" d="M32,69.25c-2-2.16-3.46-5.17-4.66-9.42-.08-.28-.15-.57-.23-.86l1.1.39a20.14,20.14,0,0,0,4.52,8.43c-.27.51-.51,1-.73,1.46Z" transform="translate(0 0)"/><path class="cls-2" d="M33.94,41.77a24.09,24.09,0,0,0,.36-3.64c0-.33,0-.61.05-.82l-.9-.08c0,.22,0,.51-.05.87a21,21,0,0,1-.51,4.22,9.23,9.23,0,0,1-.79,2.15,5.63,5.63,0,0,1-1.3,1.67,5.48,5.48,0,0,1-.76.55l.47.73a3.74,3.74,0,0,0,.42-.27A32.39,32.39,0,0,1,33.37,55c-1.55-.79-3.29-1.6-5.21-2.4,0-.82,0-1.68,0-2.59.16-4.21,1.49-9.39,3.17-16l.57-2.22c.41.24.84.47,1.3.69.31.15.64.3,1,.48a8.83,8.83,0,0,1,1.73,1.17c1.1,1,1.55,3.53,1.37,7.77a9.29,9.29,0,0,0-3.33-.16Z" transform="translate(0 0)"/><path class="cls-4" d="M34.57,62.74l.8.54a2.34,2.34,0,0,0-.07.45A36.1,36.1,0,0,0,33.15,67a19.24,19.24,0,0,1-3.92-7.21c.81.32,1.45.59,2,.85a39.62,39.62,0,0,1,3.38,2.13Z" transform="translate(0 0)"/><path class="cls-6" d="M40.63,82.63a10.34,10.34,0,0,1-2-.26,5.91,5.91,0,0,1-1-.34l-.39.78.56.22-2.24,3a51.3,51.3,0,0,0-4.1-10.55l.1,0a9.27,9.27,0,0,1,.95-5.22c.31-.71.68-1.47,1.13-2.28.65-1.15,1.31-2.16,1.81-2.88a7.28,7.28,0,0,0,.4,1l-2.6,3.78.75.48,2.33-3.39a14.38,14.38,0,0,0,1.78,2.26l-2.7,3.14.7.54,2.62-3.05a25.19,25.19,0,0,0,2.31,2l-2.85,3.3.7.55,2.87-3.32a28.28,28.28,0,0,0,2.82,1.76L41.8,77.22l.69.56,2.89-3.27a20.22,20.22,0,0,0,2.55,1.07l-2.93,3,.67.59,3.22-3.32a9.32,9.32,0,0,0,2.25.32l.34,0a53.85,53.85,0,0,1-6.1,4.57c-2.05,1.28-3.68,1.94-4.75,1.9Z" transform="translate(0 0)"/><path class="cls-4" d="M28.82,94.34a18,18,0,0,1,2.3-.58c1.5-.3,2.92-.59,3.93-1.78.86-1,1.09-2.65.7-5l.1.07,2.88-3.82a11.52,11.52,0,0,0,1.87.23h.13a10.34,10.34,0,0,0,4.8-1.83,5.55,5.55,0,0,1,.8,4.17,6.25,6.25,0,0,1-3.6,4.61,12.82,12.82,0,0,0-5.18,5c-.86,1.28-1.38,2-2,1.93a13.26,13.26,0,0,1-2-.39c-1.83-.5-4-1.45-4.75-2.61Z" transform="translate(0 0)"/><path class="cls-2" d="M34.33,55.49a31.74,31.74,0,0,0-2.68-8.94A6.47,6.47,0,0,0,32.83,45c1-.56,3.13-.23,4.24,0,0,.47-.09.93-.13,1.36-.11,1.11-.19,2-.21,2.61a3.73,3.73,0,0,0-1.59,0l.19.85A3.16,3.16,0,0,1,37,50a13.81,13.81,0,0,1,2.41,1.24,8.44,8.44,0,0,0,4,1.56c1.87,0,2.27-1.77,2.56-3.07.18-.77.36-1.57.73-1.62a.61.61,0,0,1,.54.16A3.42,3.42,0,0,1,47.56,51a8.82,8.82,0,0,1-.35,1.23l.85.29a8.86,8.86,0,0,0,.31-1,6,6,0,0,0,1.91-1.91c.88-1.18,1.8-2.39,3-2.14a2.9,2.9,0,0,1,1.78,1.73c.42,1.07.43,3-1.89,5.81-3.85,4.8-11.88,2.66-16.68,1.39-.49-.13-1-.26-1.37-.36-.27-.16-.55-.31-.83-.46Z" transform="translate(0 0)"/><path class="cls-3" d="M33.33,43.91a10.18,10.18,0,0,0,.38-1.18,7,7,0,0,1,3.52.08l-.09,1.33a10.41,10.41,0,0,0-3.81-.23Z" transform="translate(0 0)"/><path class="cls-2" d="M37.33,20.93a2.45,2.45,0,0,1-1.71-.08,13.38,13.38,0,0,0,1.2-3,2,2,0,0,1,1.15.58,1.6,1.6,0,0,1,.17,1.38,1.54,1.54,0,0,1-.81,1.14Z" transform="translate(0 0)"/><g class="cls-7"><path class="cls-8" d="M52.89,74.94c-1.51.8-4.21.31-7.4-1.35-3.81-2-7.4-5.12-8.73-7.69a4.09,4.09,0,0,1-.57-2v-.07c2.52,1.64,4.3,2.63,5.41,2.63a1.42,1.42,0,0,0,.52-.09,1.08,1.08,0,0,0,.65-.88,6.4,6.4,0,0,0-1.89-5.15c3.92-.23,9.85,4,12.35,8,.91,1.46,2.14,4.21.26,6.12a2.42,2.42,0,0,1-.6.45Z" transform="translate(0 0)"/><path class="cls-9" d="M9.17,51.72c2.21,1.38,7.22,3,12.07,4.46,1.8.56,3.67,1.15,5.34,1.7l2.13.75a27.1,27.1,0,0,1,2.9,1.22A36.81,36.81,0,0,1,35.09,62l1.06.71c1.3.87,4.77,3.18,5.61,2.83,0,0,.08,0,.11-.21.24-1.63-.5-3.33-2.2-5a23.4,23.4,0,0,0-4.92-3.61c-.37-.21-.73-.42-1.11-.62-1.76-.94-3.81-1.89-6.11-2.84-.92-.37-1.82-.73-2.68-1-2.37-.89-4.5-1.59-5.91-2.06L18,49.83c-1.21-.41-2.61-1.53-2.56-4.44-1.56-1.21-5.87-3.13-7.91-2.21-.34,3.52-.11,6.32.66,7.68a2.9,2.9,0,0,0,1,.86Zm.23,5.39c5.24,1.22,12.44,2.72,16.89,2.45-.08-.31-.17-.62-.24-.94-1.6-.53-3.37-1.08-5.1-1.62-4.5-1.41-9.15-2.86-11.67-4.21a13.64,13.64,0,0,0,.12,4.32ZM51.14,76.18a9.32,9.32,0,0,1-2.25-.32l-3.22,3.32L45,78.59l2.93-3a20.22,20.22,0,0,1-2.55-1.07l-2.89,3.27-.69-.56,2.77-3.13a28.28,28.28,0,0,1-2.82-1.76l-2.87,3.32-.7-.55L41,71.8a25.19,25.19,0,0,1-2.31-2L36.1,72.87l-.7-.54,2.7-3.14a14.38,14.38,0,0,1-1.78-2.26L34,70.32l-.75-.48,2.6-3.78a7.28,7.28,0,0,1-.4-1c-.5.72-1.16,1.73-1.81,2.88-.45.81-.82,1.57-1.13,2.28a9.27,9.27,0,0,0-.95,5.22l-.1,0A51.3,51.3,0,0,1,35.55,86l2.24-3-.56-.22.39-.78a5.91,5.91,0,0,0,1,.34,10.34,10.34,0,0,0,2,.26c1.07,0,2.7-.62,4.75-1.9a53.85,53.85,0,0,0,6.1-4.57l-.34,0ZM33.15,67a36.1,36.1,0,0,1,2.15-3.24,2.34,2.34,0,0,1,.07-.45l-.8-.54a39.62,39.62,0,0,0-3.38-2.13c-.51-.26-1.15-.53-2-.85A19.24,19.24,0,0,0,33.15,67Zm-6.08-8c.08.29.15.58.23.86,1.2,4.25,2.7,7.26,4.66,9.42.22-.47.46-1,.73-1.46a20.14,20.14,0,0,1-4.52-8.43L27.07,59ZM16,42.08a22.4,22.4,0,0,1,1.2-3.34l.83.35A21.66,21.66,0,0,0,16.66,43a12.53,12.53,0,0,0-.32,2.21c-.09,2.06.57,3.34,2,3.82l.94.31c1.26.42,3.1,1,5.18,1.8A103.26,103.26,0,0,0,21.52,39a32.68,32.68,0,0,0-5.2-10.24c-.24.06-.49.11-.71.18-4.52,1.31-6.13,4.44-7.15,8.75-.16.65-.29,1.28-.4,1.9,2.42-.39,6.07,1,7.9,2.49Zm-.23,1c-1.52-1.47-5.65-3.13-7.83-2.54-.11.61-.19,1.18-.26,1.72,2.44-.67,6.13,1,7.87,2.15.05-.43.12-.87.22-1.33ZM29.78,27.15a14.54,14.54,0,0,1-5.12,1.16h-.3a6.39,6.39,0,0,1-2.25-.39l0,.42h-.35c-.77,0-1.5,0-2.2,0,2.6,2.95,5.12,9.81,6.27,14.87A54.52,54.52,0,0,1,30.07,29.9a5.61,5.61,0,0,1-.29-2.75Zm2.8-4.6a1.43,1.43,0,0,1-.88-.85A3.5,3.5,0,0,1,32.31,19a1.69,1.69,0,0,1-1.17-.82c-.46-1,.46-2.27,1.74-4.08.23-.32.47-.65.71-1a2.45,2.45,0,0,0,0-2.89A5,5,0,0,0,29.25,8l-.19,0-.14-.11s-3-2.16-6-1.67a6.1,6.1,0,0,0-4.1,2.86c-1,1.42-1.24,11.09.59,14.22a1.31,1.31,0,0,1,.28-.52l.67.58a1.36,1.36,0,0,0-.15,1A3.42,3.42,0,0,0,22,26.93a5.13,5.13,0,0,0,2.62.52A13.52,13.52,0,0,0,30,26.13a9.38,9.38,0,0,0,4.13-3.64,1.94,1.94,0,0,1-.81.19,2.18,2.18,0,0,1-.7-.13ZM38,18.41a2,2,0,0,0-1.15-.58,13.38,13.38,0,0,1-1.2,3,2.45,2.45,0,0,0,1.71.08,1.54,1.54,0,0,0,.81-1.14A1.6,1.6,0,0,0,38,18.41ZM27.26,50c.16-4.3,1.5-9.52,3.19-16.13l.65-2.55a5.13,5.13,0,0,1-.47-.46,53.8,53.8,0,0,0-4.34,15,12.68,12.68,0,0,1,.18,2.6l-.9,0a13.38,13.38,0,0,0-.18-2.5c-.85-5.81-4.21-14.84-7-17.45-.36,0-.72.08-1.08.14a33.84,33.84,0,0,1,5.09,10.17A102.62,102.62,0,0,1,25.31,51l.1.49c.6.22,1.21.46,1.84.71,0-.72,0-1.47,0-2.25Zm6.45-7.23a10.18,10.18,0,0,1-.38,1.18,10.41,10.41,0,0,1,3.81.23l.09-1.33a7,7,0,0,0-3.52-.08Zm2.19-8.57A8.83,8.83,0,0,0,34.17,33c-.33-.18-.66-.33-1-.48-.46-.22-.89-.45-1.3-.69L31.33,34c-1.68,6.56-3,11.74-3.17,16,0,.91,0,1.77,0,2.59,1.92.8,3.66,1.61,5.21,2.4a32.39,32.39,0,0,0-2.44-7.83,3.74,3.74,0,0,1-.42.27L30,46.69a5.48,5.48,0,0,0,.76-.55,5.63,5.63,0,0,0,1.3-1.67,9.23,9.23,0,0,0,.79-2.15,21,21,0,0,0,.51-4.22c0-.36,0-.65.05-.87l.9.08c0,.21,0,.49-.05.82a24.09,24.09,0,0,1-.36,3.64,9.29,9.29,0,0,1,3.33.16c.18-4.24-.27-6.8-1.37-7.77ZM53.21,54.92c2.32-2.86,2.31-4.74,1.89-5.81a2.9,2.9,0,0,0-1.78-1.73c-1.24-.25-2.16,1-3,2.14a6,6,0,0,1-1.91,1.91,8.86,8.86,0,0,1-.31,1l-.85-.29A8.82,8.82,0,0,0,47.56,51a3.42,3.42,0,0,0-.28-2.73.61.61,0,0,0-.54-.16c-.37,0-.55.85-.73,1.62-.29,1.3-.69,3.07-2.56,3.07a8.44,8.44,0,0,1-4-1.56A13.81,13.81,0,0,0,37,50a3.16,3.16,0,0,0-1.71-.17l-.19-.85a3.73,3.73,0,0,1,1.59,0c0-.62.1-1.5.21-2.61,0-.43.09-.89.13-1.36-1.11-.25-3.26-.58-4.24,0a6.47,6.47,0,0,1-1.18,1.56,31.74,31.74,0,0,1,2.68,8.94c.28.15.56.3.83.46.42.1.88.23,1.37.36,4.8,1.27,12.83,3.41,16.68-1.39Zm0,13.45c-2.5-4.06-8.43-8.26-12.35-8a6.4,6.4,0,0,1,1.89,5.15,1.08,1.08,0,0,1-.65.88,1.42,1.42,0,0,1-.52.09c-1.11,0-2.89-1-5.41-2.63v.07a4.09,4.09,0,0,0,.57,2c1.33,2.57,4.92,5.73,8.73,7.69,3.19,1.66,5.89,2.15,7.4,1.35a2.42,2.42,0,0,0,.6-.45c1.88-1.91.65-4.66-.26-6.12Zm-15.68,27a12.82,12.82,0,0,1,5.18-5,6.25,6.25,0,0,0,3.6-4.61,5.55,5.55,0,0,0-.8-4.17,10.34,10.34,0,0,1-4.8,1.83H40.6a11.52,11.52,0,0,1-1.87-.23l-2.88,3.82-.1-.07c.39,2.32.16,3.95-.7,5-1,1.19-2.43,1.48-3.93,1.78a18,18,0,0,0-2.3.58c.72,1.16,2.92,2.11,4.75,2.61a13.26,13.26,0,0,0,2,.39c.64.06,1.16-.65,2-1.93Zm-10.8,3.28c.69,1.13,4.59,3.64,7.09,4a1.76,1.76,0,0,0,1.38-.18c.75-.63.26-1.39-.94-2.86a8.39,8.39,0,0,1-1.32-2l.06,0c-1.28-.37-4.13-1.37-5.06-3-.9.36-1.81.78-2.79,1.26a14.76,14.76,0,0,0,1.2,2.14c.14.22.27.43.38.62Zm-16.31-.3.6.74c1.14,1.44,7,4.81,10.05,4.92a1.65,1.65,0,0,0,1.3-.36c1-1.12.24-2.14-1.12-3.72a15.15,15.15,0,0,1-1.19-1.51,9.75,9.75,0,0,1-3.91,1,5.27,5.27,0,0,1-.68,0l-.14,0L14.53,99c-2.24-.91-5.25-2.14-6-5.81a1.36,1.36,0,0,0-.5.73c-.29,1.25,1.25,3.11,2.38,4.47Zm4.48-27.75.08.19c0,.1,4.16,10.13,5.88,14.92.25.69.46,1.3.59,1.77l-.87.23c-.11-.38-.27-.87-.47-1.41a13.24,13.24,0,0,0-4.5,1.58c-2.1,1-4.27,2-6.17,1.71a10.38,10.38,0,0,0-.11,2.8c.42,3.69,3.25,4.85,5.53,5.78l.78.32a8.57,8.57,0,0,0,4.4-1c.81-.36,1.67-.81,2.59-1.28.54-.29,1.12-.58,1.72-.88,1.31-.66,2.47-1.19,3.66-1.66a16.13,16.13,0,0,1,2.91-.79c1.45-.29,2.6-.52,3.4-1.47s.87-2.36.49-4.5a47.85,47.85,0,0,0-4.23-11.2c-1.54-3.14-3.17-6.12-4.36-8.29-.58-1-1-1.91-1.37-2.53l.81-.38c.32.61.79,1.47,1.36,2.51,1,1.79,2.26,4.13,3.55,6.66a12.85,12.85,0,0,1,1-3.58c-2.14-2.22-3.75-5.33-5-9.73-.43,0-.88.06-1.36.06-4.45,0-10.83-1.32-15.66-2.44.05,1.84.12,3.71.21,5.45a7.53,7.53,0,0,0,5,7.1l.2.07ZM7.39,51.27c-1.19-2.12-1-6.18-.74-8.41.09-.86.22-1.77.39-2.76.14-.83.32-1.7.53-2.6C8.49,33.62,10,29.84,15,28.25l-.58-2.57a1.72,1.72,0,0,1-.91.39l-.17,0a1.18,1.18,0,0,1-.92-.46c-1.13-1.37-.73-6.32-.13-8.73h-.12a1.59,1.59,0,0,1-1.07-.43C8.67,14.41,13.42,8.14,15.34,5.8a1.47,1.47,0,0,1-.76-.27,1.16,1.16,0,0,1-.4-1A1.89,1.89,0,0,1,15.24,3c1.63-1,4.89-1.13,7-.8A2.12,2.12,0,0,1,22.43,1C22.58.62,23,.19,24,0c2.19-.29,7.11.94,11.09,5.55,1.42,0,6,0,6.35,2.05a1,1,0,0,1-.33,1,2.4,2.4,0,0,1-1.86.24c1.62,2.19,5.16,7.33,4.33,9.27a1.4,1.4,0,0,1-1.1.83.94.94,0,0,1-.3.05h-.07c.57,3.21.2,6.68-1,8.15a1.65,1.65,0,0,1-1.28.72c-.47,0-.84-.43-1.14-1.07-.15,1.74-.51,3.68-1.31,4.37a1.2,1.2,0,0,1-.76.32h-.1c-.42,0-.78-.23-1.08-.77l-.57,1.71a9.64,9.64,0,0,1,1.59,1.11c1.38,1.21,1.9,4.07,1.65,9,0,.76-.1,1.5-.16,2.22s-.1,1.19-.16,1.73c-.11,1.17-.21,2.21-.21,2.81a16.69,16.69,0,0,1,2.29,1.2,7.78,7.78,0,0,0,3.53,1.44c1.06,0,1.35-.95,1.68-2.39.24-1.06.48-2.16,1.48-2.3a1.5,1.5,0,0,1,1.32.43,3.23,3.23,0,0,1,.64,2.55,10.38,10.38,0,0,0,1-1.18c1-1.26,2.13-2.84,4-2.47A3.75,3.75,0,0,1,56,48.81c.49,1.27.55,3.46-2,6.64-2,2.52-5,3.32-8.13,3.32a33.67,33.67,0,0,1-8.24-1.3,21.34,21.34,0,0,1,2.59,2.1c4.35-.79,11.07,3.84,13.86,8.36,1.78,2.89,1.83,5.43.14,7.15a3.23,3.23,0,0,1-.75.57,61.76,61.76,0,0,1-7.11,5.54A6.39,6.39,0,0,1,47.23,86a7.16,7.16,0,0,1-4.09,5.23,12,12,0,0,0-4.83,4.67c-.87,1.29-1.56,2.33-2.69,2.33h-.19A13.16,13.16,0,0,1,34.11,98c.25.37.57.77.88,1.16,1,1.24,2.29,2.79.84,4a2.14,2.14,0,0,1-1.44.45,4.39,4.39,0,0,1-.69-.06c-2.63-.39-6.86-3-7.73-4.43-.11-.18-.24-.39-.38-.6a18.79,18.79,0,0,1-1.23-2.18L23.08,97c-.76.4-1.49.77-2.18,1.1A15.59,15.59,0,0,0,22,99.42c1.25,1.46,2.67,3.11,1.1,4.84a2.38,2.38,0,0,1-1.84.65h-.17c-3.29-.11-9.36-3.51-10.74-5.27l-.6-.72c-1.3-1.58-2.93-3.54-2.54-5.19a2.33,2.33,0,0,1,1.25-1.5A12.05,12.05,0,0,1,8.65,89l.09-.49.5.16c1.67.54,3.86-.52,6-1.54a14.67,14.67,0,0,1,4.6-1.67c-1.67-4.57-5.05-12.84-5.59-14.16a8.57,8.57,0,0,1-5.42-7.81c-.09-1.89-.17-3.94-.22-5.93v0a14.38,14.38,0,0,1-.15-5.25,3.34,3.34,0,0,1-1-1Z" transform="translate(0 0)"/><path class="cls-9" d="M59.78,63.92l.15-.85a4.8,4.8,0,0,1,3.71,3.67l-.88.18a4,4,0,0,0-3-3Z" transform="translate(0 0)"/></g><path class="cls-9" d="M62,68.72h-.91a3.26,3.26,0,0,0-2.34-3.13l.23-.83a4.07,4.07,0,0,1,3,4Z" transform="translate(0 0)"/><path class="cls-9" d="M30,14.59a1.58,1.58,0,0,1-.63-.13,1.38,1.38,0,0,1-.88-.9c-.35-1.16.83-2.8,1-3l.74.5c-.28.37-1,1.59-.83,2.24a.55.55,0,0,0,.36.35.6.6,0,0,0,.54,0,3.36,3.36,0,0,0,1.1-2l.89.17c0,.21-.46,2-1.56,2.59a1.53,1.53,0,0,1-.69.17Z" transform="translate(0 0)"/><path class="cls-9" d="M21.11,13.11a1.76,1.76,0,0,1-.86.23,1.37,1.37,0,0,1-.4-.05,1.18,1.18,0,0,1-.89-.73c-.47-1.19,1-3.29,1.25-3.7l.75.49c-.62.86-1.38,2.34-1.16,2.91,0,.08.09.15.27.2a.73.73,0,0,0,.57-.09c.8-.46,1.34-2.08,1.48-2.66L23,9.9c-.06.25-.63,2.48-1.89,3.21Z" transform="translate(0 0)"/><path class="cls-9" d="M28.62,22.31,27.78,22A3.09,3.09,0,0,0,28,20.7a7.11,7.11,0,0,1-1.11.09c-2.43,0-4.68-1.15-7-3.53l.67-.58c2.44,2.54,4.71,3.52,7.29,3.16a4.46,4.46,0,0,0-.6-1.32l.73-.51a5,5,0,0,1,.85,2.14,4,4,0,0,1-.28,2.16Z" transform="translate(0 0)"/><path class="cls-9" d="M25.23,22.2l-.58.66c-1-.77-2.08-1.38-2.38-1.27L22,20.78c1-.35,2.75,1,3.27,1.42Z" transform="translate(0 0)"/><path class="cls-9" d="M24.24,16.25h0c-1.27,0-2.56-.64-2.57-2.1h.91c0,.62.36,1,1.08,1.18a2.13,2.13,0,0,0,1.74-.26v0h.91c0,.76-1,1.15-2.05,1.15Z" transform="translate(0 0)"/><g class="cls-7"><path class="cls-9" d="M3.73,59.72a3.25,3.25,0,0,0,.36,3l-.75.5A4.16,4.16,0,0,1,2.9,59.4l.83.32Z" transform="translate(0 0)"/><path class="cls-9" d="M1.89,58.35c-1,1-.56,2.82-.56,2.83l-.88.2c0-.09-.56-2.29.79-3.63l.65.6Z" transform="translate(0 0)"/><path class="cls-9" d="M4,30.25c-.9.73-.68,2.7-.52,3.4l-.89.18c0-.12-.67-3,.82-4.23l.59.65Z" transform="translate(0 0)"/><path class="cls-9" d="M1.25,28.22l.63.62C.65,30,.94,32.25.94,32.28l-.9.11c0-.11-.35-2.71,1.21-4.17Z" transform="translate(0 0)"/></g><path class="cls-9" d="M51.1,22.41c.44-1.46-1.28-3.18-1.3-3.2l.65-.6c.08.09,2.1,2.09,1.52,4l-.87-.23Z" transform="translate(0 0)"/><path class="cls-9" d="M48.12,23.12c0-.07.69-1.78-.76-2.53l.44-.76A2.8,2.8,0,0,1,49,23.43l-.84-.31Z" transform="translate(0 0)"/></g></g></g></svg>