<svg xmlns="http://www.w3.org/2000/svg" width="74.13" height="33.25" viewBox="0 0 74.13 33.25"><defs><style>.cls-1{fill:#717272;}.cls-2{fill:#717373;}</style></defs><title>Asset 5</title><g id="Layer_2" data-name="Layer 2"><g id="Desktop"><g id="Tabs"><g id="Rail"><path class="cls-1" d="M43.16,5.39l-.32-.08V3c0-.5-.4-1-1.12-1.13a10.49,10.49,0,0,0-2.29-.4.82.82,0,0,0,.29-.63.83.83,0,1,0-1.42.59h-.85A.83.83,0,1,0,36,.83a.82.82,0,0,0,.29.63,10.49,10.49,0,0,0-2.29.4c-.72.18-1.12.63-1.12,1.13V5.31l-.32.08a.56.56,0,0,0-.42.55v7a.56.56,0,0,0,.57.56H43a.56.56,0,0,0,.57-.56v-7A.56.56,0,0,0,43.16,5.39ZM34.22,3.16a15.78,15.78,0,0,1,2.88-.43V4.55A14.92,14.92,0,0,0,34.22,5Zm3.67,5.07h0a1.22,1.22,0,1,1,0-2.43h0a1.22,1.22,0,1,1,0,2.43ZM41.53,5a14.92,14.92,0,0,0-2.88-.41V2.73a15.78,15.78,0,0,1,2.88.43V5Z" transform="translate(-0.84)"/><path class="cls-1" d="M39.13,16.22H36.62l-.33.93c.52,0,1,.06,1.57.06h0c.53,0,1,0,1.57-.06Z" transform="translate(-0.84)"/><path class="cls-1" d="M43,16.11V14.67a.51.51,0,0,0-.51-.51H33.24a.51.51,0,0,0-.51.51v1.44a.51.51,0,0,0,.38.49l.44.11-.62,1.41a.6.6,0,0,0,.31.8.52.52,0,0,0,.24,0,.6.6,0,0,0,.56-.36L34.77,17l.53.09.52-1.47a.48.48,0,0,1,.45-.32h3.2a.49.49,0,0,1,.46.32L40.45,17,41,17l.73,1.66a.6.6,0,0,0,.56.36.52.52,0,0,0,.24,0,.6.6,0,0,0,.31-.8l-.62-1.41.44-.11A.51.51,0,0,0,43,16.11Z" transform="translate(-0.84)"/><path class="cls-2" d="M.84,26.13H4a2.79,2.79,0,0,1,2,.71,2.2,2.2,0,0,1,.6,1.6v0a2.17,2.17,0,0,1-1.5,2.17l1.71,2.5H5.09l-1.5-2.24H2.38v2.24H.84Zm3.1,3.4c.75,0,1.18-.4,1.18-1v0c0-.66-.46-1-1.21-1H2.38v2Z" transform="translate(-0.84)"/><path class="cls-2" d="M10.72,26.08h1.42l3,7.05H13.53l-.64-1.57h-3l-.64,1.57H7.72Zm1.62,4.12-.93-2.27-.93,2.27Z" transform="translate(-0.84)"/><path class="cls-2" d="M16.54,26.13h1.54v7H16.54Z" transform="translate(-0.84)"/><path class="cls-2" d="M20.08,26.13h1.54v5.6h3.49v1.4h-5Z" transform="translate(-0.84)"/><path class="cls-2" d="M29.29,32.11,30.2,31a3.21,3.21,0,0,0,2.09.85c.63,0,1-.25,1-.66v0c0-.39-.24-.59-1.41-.89-1.41-.36-2.32-.75-2.32-2.14v0A2.19,2.19,0,0,1,32,26a4.05,4.05,0,0,1,2.6.89l-.8,1.16A3.28,3.28,0,0,0,32,27.39c-.59,0-.9.27-.9.61v0c0,.46.3.61,1.51.92,1.42.37,2.22.88,2.22,2.1v0c0,1.39-1.06,2.17-2.57,2.17A4.45,4.45,0,0,1,29.29,32.11Z" transform="translate(-0.84)"/><path class="cls-2" d="M36.42,26.13H41.7V27.5H38v1.42h3.3v1.37H38v1.47h3.8v1.37H36.42Z" transform="translate(-0.84)"/><path class="cls-2" d="M43.37,26.13h3.2a2.79,2.79,0,0,1,2,.71,2.2,2.2,0,0,1,.6,1.6v0a2.17,2.17,0,0,1-1.5,2.17l1.71,2.5h-1.8l-1.5-2.24H44.91v2.24H43.37Zm3.1,3.4c.75,0,1.18-.4,1.18-1v0c0-.66-.46-1-1.21-1H44.91v2Z" transform="translate(-0.84)"/><path class="cls-2" d="M50.05,26.13h1.7l1.83,4.93,1.83-4.93h1.66l-2.83,7.05H52.88Z" transform="translate(-0.84)"/><path class="cls-2" d="M58.47,26.13H60v7H58.47Z" transform="translate(-0.84)"/><path class="cls-2" d="M61.7,29.65v0A3.56,3.56,0,0,1,65.35,26a3.61,3.61,0,0,1,2.76,1.08l-1,1.13a2.58,2.58,0,0,0-1.79-.79,2.07,2.07,0,0,0-2,2.18v0a2.08,2.08,0,0,0,2,2.2A2.53,2.53,0,0,0,67.18,31l1,1a3.58,3.58,0,0,1-2.87,1.25A3.53,3.53,0,0,1,61.7,29.65Z" transform="translate(-0.84)"/><path class="cls-2" d="M69.64,26.13h5.28V27.5H71.17v1.42h3.3v1.37h-3.3v1.47H75v1.37H69.64Z" transform="translate(-0.84)"/></g></g></g></g></svg>