<?xml version="1.0" encoding="utf-8"?>
<!-- Generator: Adobe Illustrator 23.1.1, SVG Export Plug-In . SVG Version: 6.00 Build 0)  -->
<svg version="1.1" id="Layer_1" xmlns="http://www.w3.org/2000/svg" xmlns:xlink="http://www.w3.org/1999/xlink" x="0px" y="0px"
	 width="545.9px" height="202.7px" viewBox="0 0 545.9 202.7" style="enable-background:new 0 0 545.9 202.7;" xml:space="preserve"
	>
<style type="text/css">
	.st0{fill:#FFFFFF;}
</style>
<g id="XMLID_1_">
	<path id="XMLID_11_" class="st0" d="M9.3,9.3h527.3v184.1H9.3V9.3z M0,0v202.7h545.9V0H0z"/>
	<polygon id="XMLID_10_" class="st0" points="146.1,53 146.1,149.6 153.7,150.6 153.7,156.2 116.2,156.2 116.2,150.6 124.3,149.6 
		124.3,105.6 76.4,105.6 76.4,149.6 83.8,150.6 83.8,156.2 46.9,156.2 46.9,150.6 54.3,149.6 54.3,53 46.9,52 46.9,46.5 83.8,46.5 
		83.8,52 76.4,53 76.4,94.3 124.3,94.3 124.3,53 116.2,52 116.2,46.5 153.7,46.5 153.7,52 	"/>
	<polygon id="XMLID_9_" class="st0" points="197.2,150.2 204.3,151.2 204.3,156.2 169.8,156.2 169.8,151.2 176.9,150.2 176.9,84.1 
		169.8,83.1 169.8,78.1 197.2,78.1 	"/>
	<polygon id="XMLID_8_" class="st0" points="219.2,151.4 226.1,150.4 226.1,52.3 219.2,51.3 219.2,46.5 246.6,46.5 246.6,150.4 
		253.7,151.4 253.7,156.2 219.2,156.2 	"/>
	<path id="XMLID_7_" class="st0" d="M295.6,78.1H314v7.3h-18.5v46.4c0,12,2.5,15.8,13.4,15.8c4,0,7.6,0,10.9-0.8v5.3
		c-9.9,3.5-18.3,5-25.4,5c-15.8,0-19.5-7.2-19.5-20.8V85.5h-14.5v-7.3h15V61.8l20-6V78.1z"/>
	<path id="XMLID_4_" class="st0" d="M406.7,117.9c0,24.3-16.5,40.6-42.4,40.6c-25.1,0-41-10.7-41-40.6c0-25.1,16.5-42,42.4-42
		C391.2,76,406.7,91.1,406.7,117.9 M384.2,117.4c0-24.6-7.4-35.5-19.3-35.5c-11.6,0-19,10.3-19,35.5c0,24.8,7.4,35.1,19,35.1
		C377.3,152.6,384.2,142.7,384.2,117.4"/>
	<path id="XMLID_3_" class="st0" d="M500.1,151.2v5h-34.5v-5l6.9-1v-44.5c0-12.3-4.5-17.8-14-17.8c-4.4,0-11.3,3-16.3,6.5v55.8
		l7.1,1v5h-34.6v-5l7.1-1V84.6l-7.1-1v-5.5h27.6V89c8.6-6.8,16.8-12.3,28.4-12.3c15.5,0,22.4,9,22.4,26.6v47L500.1,151.2z"/>
	<path id="XMLID_2_" class="st0" d="M198.2,57.5c0,6.1-5,11-11.1,11c-6.1,0-11.1-4.9-11.1-11c0-6.1,5-11,11.1-11
		C193.2,46.5,198.2,51.4,198.2,57.5"/>
</g>
</svg>
