<svg xmlns="http://www.w3.org/2000/svg" xmlns:xlink="http://www.w3.org/1999/xlink" width="418.94" height="179.62" viewBox="0 0 418.94 179.62"><defs><style>.cls-1{fill:url(#linear-gradient);}.cls-2{fill:#fff;}</style><linearGradient id="linear-gradient" x1="209.47" y1="179.62" x2="209.47" gradientUnits="userSpaceOnUse"><stop offset="0" stop-color="#262262"/><stop offset="1" stop-color="#2b3990" stop-opacity="0"/></linearGradient></defs><title>Asset 10</title><g id="Layer_2" data-name="Layer 2"><g id="Layer_1-2" data-name="Layer 1"><polygon class="cls-1" points="164.57 179.62 418.94 179.62 418.94 0 344.16 0.03 179.62 0 0 179.62 164.57 179.62"/><path class="cls-2" d="M117.13,153.63l-1.8,1.81-7.73-4,0,0,.15.19c.65.87,1.21,1.67,1.69,2.39l2.87,4.4-1.46,1.45-6.09-9.35,1.89-1.89,7.48,3.89,0,0c-.23-.31-.54-.76-.94-1.35s-1.6-2.42-3.6-5.49l1.45-1.45Z"/><path class="cls-2" d="M121.32,139.54a9,9,0,0,1,2.15,3.19,5.64,5.64,0,0,1,.35,3.22,5.27,5.27,0,0,1-1.48,2.69,4,4,0,0,1-2.89,1.33,4.21,4.21,0,0,1-2.93-1.4,9.06,9.06,0,0,1-2-3.1,6,6,0,0,1-.36-3.25,5.17,5.17,0,0,1,1.49-2.75,3.9,3.9,0,0,1,2.85-1.32A4.09,4.09,0,0,1,121.32,139.54ZM116.84,141a2.36,2.36,0,0,0-.69,1.65,4.51,4.51,0,0,0,.49,2.17,7.5,7.5,0,0,0,1.53,2.13,2.41,2.41,0,0,0,1.52.83,1.78,1.78,0,0,0,1.39-.6,2.44,2.44,0,0,0,.7-1.62,4.18,4.18,0,0,0-.47-2.12,8.14,8.14,0,0,0-1.59-2.18,2.46,2.46,0,0,0-1.51-.82A1.64,1.64,0,0,0,116.84,141Z"/><path class="cls-2" d="M126.17,138.67l2.33,3.6-1.61,1.61-6.09-9.36,1.89-1.89a4,4,0,0,1,2.42-1.35,2.79,2.79,0,0,1,2.21.95,3.38,3.38,0,0,1,1,1.88,3.65,3.65,0,0,1-.38,2.15l4.66,1.9-1.75,1.76L126.79,138Zm-1.06-1.61.42-.41a2.37,2.37,0,0,0,.77-1.38,1.53,1.53,0,0,0-.53-1.3,1.13,1.13,0,0,0-.9-.4,1.67,1.67,0,0,0-1,.57l-.39.39Z"/><path class="cls-2" d="M133.13,126.88a17,17,0,0,1,1,2.19l2.09,5.5-1.78,1.79-8-7.49,1.51-1.51,4.25,4.18.89.94c.41.44.7.76.87,1l0,0c-.15-.3-.35-.74-.6-1.31s-.4-.93-.45-1.09l-2.38-6.27,1.43-1.43,4.72,4.5c.51.52,1,1,1.39,1.49l0,0c-.3-.61-.69-1.45-1.15-2.54l-2.46-5.95,1.63-1.63,4.3,11.14-1.82,1.83-3.93-3.69-.74-.73c-.31-.31-.58-.59-.82-.85Z"/><path class="cls-2" d="M147.46,123.3l-4.31,4.32-6.09-9.36,4.32-4.32,1.05,1.63-2.7,2.7,1.34,2,2.52-2.52,1,1.63L142.12,122l1.57,2.42,2.71-2.71Z"/><path class="cls-2" d="M148.38,113.71l3-3,3.17,4.88a10.76,10.76,0,0,1-1,1.64,12.38,12.38,0,0,1-1.2,1.37,4,4,0,0,1-2.88,1.34,4.38,4.38,0,0,1-3-1.49,8,8,0,0,1-2-3.12,5.87,5.87,0,0,1-.18-3.36,6.29,6.29,0,0,1,1.75-3,6.59,6.59,0,0,1,2.69-1.65l.72,1.94a6.7,6.7,0,0,0-1.12.44,3.92,3.92,0,0,0-1,.72,3.58,3.58,0,0,0-1,1.89,4.15,4.15,0,0,0,.25,2.25,5.88,5.88,0,0,0,1.39,2.1,2.69,2.69,0,0,0,1.71,1,2.15,2.15,0,0,0,1.61-.74,6,6,0,0,0,.77-1L150.86,114l-1.42,1.41Z"/><path class="cls-2" d="M156.48,114.29l-6.08-9.37,1.61-1.61,6.08,9.37Z"/><path class="cls-2" d="M162.29,104.8l-2.5,2.5.93,2.75L159,111.74l-3.71-11.8,2-2,8.53,7-1.57,1.57Zm-1.46-1.29-2-1.72c-.5-.42-1-.85-1.39-1.28l-.19-.19c.27.58.52,1.22.77,1.92l1,3Z"/><path class="cls-2" d="M173.06,97.71l-1.81,1.8-7.72-4,0,0,.14.19c.65.88,1.22,1.67,1.7,2.39l2.86,4.4L166.75,104l-6.09-9.35,1.89-1.89,7.48,3.9,0,0c-.22-.32-.54-.77-.94-1.36s-1.6-2.42-3.59-5.49L167,88.35Z"/><path class="cls-2" d="M179.34,91.43,177.73,93l-6.09-9.36,4.3-4.3L177,81l-2.68,2.68,1.57,2.41,2.5-2.5,1,1.63-2.5,2.5Z"/><path class="cls-2" d="M184.75,90.56a5.31,5.31,0,0,1-1.13.85l-1.34-1.34a5.19,5.19,0,0,0,1-.76,1.63,1.63,0,0,0,.53-1.17,2.67,2.67,0,0,0-.54-1.48l-5.74-8.84,1.61-1.61L185,85.33a4.85,4.85,0,0,1,1,2.81A3.74,3.74,0,0,1,184.75,90.56Z"/><path class="cls-2" d="M189.38,71.47a9.17,9.17,0,0,1,2.15,3.2,5.64,5.64,0,0,1,.35,3.22,5.27,5.27,0,0,1-1.48,2.69,4,4,0,0,1-2.89,1.33,4.17,4.17,0,0,1-2.92-1.4,9,9,0,0,1-2.06-3.1,6,6,0,0,1-.36-3.25,5.12,5.12,0,0,1,1.5-2.75,3.91,3.91,0,0,1,2.84-1.33A4.17,4.17,0,0,1,189.38,71.47Zm-4.48,1.44a2.36,2.36,0,0,0-.69,1.65,4.51,4.51,0,0,0,.49,2.17,7.5,7.5,0,0,0,1.53,2.13,2.43,2.43,0,0,0,1.52.83,1.78,1.78,0,0,0,1.39-.6,2.44,2.44,0,0,0,.7-1.62,4.18,4.18,0,0,0-.47-2.12,8.14,8.14,0,0,0-1.59-2.18,2.41,2.41,0,0,0-1.51-.82A1.64,1.64,0,0,0,184.9,72.91Z"/><path class="cls-2" d="M194.23,70.61l2.33,3.6L195,75.82l-6.09-9.36,1.9-1.9a4,4,0,0,1,2.41-1.34,2.79,2.79,0,0,1,2.21,1,3.35,3.35,0,0,1,1,1.88A3.64,3.64,0,0,1,196,68.2l4.66,1.9-1.76,1.75L194.85,70ZM193.17,69l.42-.41a2.37,2.37,0,0,0,.77-1.38,1.53,1.53,0,0,0-.53-1.3,1.13,1.13,0,0,0-.9-.4,1.67,1.67,0,0,0-1,.57l-.39.39Z"/><path class="cls-2" d="M203.44,57.72a8.37,8.37,0,0,1,2.06,3.09,5.24,5.24,0,0,1,.16,3.15,6.34,6.34,0,0,1-1.74,2.89l-2.38,2.38-6.09-9.36,2.09-2.09a4.32,4.32,0,0,1,3-1.45A4.09,4.09,0,0,1,203.44,57.72Zm-.8,7.7a3.32,3.32,0,0,0,1-1.76,3.7,3.7,0,0,0-.27-2.09,6.55,6.55,0,0,0-1.45-2.11,2.55,2.55,0,0,0-1.63-.86,2,2,0,0,0-1.52.68l-.61.6,4,6.1Z"/><path class="cls-2" d="M211.29,54.91a3,3,0,0,1,1,2.53,4.68,4.68,0,0,1-1.48,2.76,4.76,4.76,0,0,1-2.36,1.4L207,60.15a5.54,5.54,0,0,0,2.46-1.32,2.25,2.25,0,0,0,.7-1.15,1,1,0,0,0-.28-.94,1.27,1.27,0,0,0-.47-.33,1.58,1.58,0,0,0-.53-.12,7.84,7.84,0,0,0-1.19.12,5,5,0,0,1-2.06,0,3.14,3.14,0,0,1-1.4-.81,3.3,3.3,0,0,1-.89-1.55,3,3,0,0,1,.1-1.76,4.3,4.3,0,0,1,1.09-1.69A6.1,6.1,0,0,1,207.13,49l.66,1.81A5.22,5.22,0,0,0,205.87,52a1.53,1.53,0,0,0-.48,1,1.09,1.09,0,0,0,.35.9,1.28,1.28,0,0,0,.74.39,4.33,4.33,0,0,0,1.42-.14,4.33,4.33,0,0,1,1.89,0A3.07,3.07,0,0,1,211.29,54.91Z"/></g></g></svg>