<svg xmlns="http://www.w3.org/2000/svg" xmlns:xlink="http://www.w3.org/1999/xlink" width="174.25" height="166.03" viewBox="0 0 174.25 166.03"><defs><style>.cls-1,.cls-4{fill:none;}.cls-2{fill:#1a2954;}.cls-3{clip-path:url(#clip-path);}.cls-4{stroke:#1a2954;stroke-miterlimit:10;stroke-width:2.61px;}.cls-5{fill:#85642b;}.cls-6{fill:#da9a3d;}.cls-7{fill:#fcd10d;}.cls-8{fill:#f5a0c5;}.cls-9{fill:#c5dbdf;}.cls-10{fill:#fcdc00;}.cls-11{fill:#ed3f76;}</style><clipPath id="clip-path" transform="translate(0 0)"><rect class="cls-1" width="174.25" height="166.03"/></clipPath></defs><title>Asset 5</title><g id="Layer_2" data-name="Layer 2"><g id="BG"><g id="Icons"><path class="cls-2" d="M63.32,4.23a114.63,114.63,0,0,1-2.24,14.48c-.79,3.91-6.36,8.09-5.85,12.47,1.82,15.35-5.55,17.9-11.26,18.1-10.89.4,7.49-45,7.49-45" transform="translate(0 0)"/><g class="cls-3"><path class="cls-4" d="M63.32,4.23a114.63,114.63,0,0,1-2.24,14.48c-.79,3.91-6.36,8.09-5.85,12.47,1.82,15.35-5.55,17.9-11.26,18.1-10.89.4,7.49-45,7.49-45" transform="translate(0 0)"/></g><path class="cls-5" d="M170.94,76.2a10.28,10.28,0,0,0-12.1-4.82,8.25,8.25,0,0,0-1.11.5,12.59,12.59,0,0,1,5.59.14l1.14.33L164,73.46c-.52,1.32,1,2.51,3.23,4.05,1.61,1.11,3,2.07,3.18,3.42a2.13,2.13,0,0,1-.55,1.72l-.18.18c-1.15.84-2.53,2.41-2.19,3h0a5.5,5.5,0,0,1,2.14-2.54c2-1.55,3.65-2.88,1.28-7.15Z" transform="translate(0 0)"/><path class="cls-6" d="M141.51,102.5a.73.73,0,0,1,0-1.45.73.73,0,0,1,0,1.45Zm-.73,13.17a.73.73,0,0,1,0-1.45.73.73,0,0,1,0,1.45Zm12.65-29.59L155,84.6c1.7,1.84,5.23,1,5.26,1l.55,2.11a11.07,11.07,0,0,1-2.47.28,6.57,6.57,0,0,1-4.94-1.86ZM157,76.42a.73.73,0,0,1,0,1.45.73.73,0,0,1,0-1.45Zm5.62,3.72a.73.73,0,0,1,0,1.45.73.73,0,0,1,0-1.45ZM157.5,96.36l-1.26-.57L162,88.34l0,0,.7-1a4,4,0,0,0,.66.38,1.74,1.74,0,0,0,2-.1.68.68,0,0,0,.17-.77c-1.25-2.39,1.76-5,2.64-5.66-.09-.46-1.41-1.37-2.21-1.92A18.16,18.16,0,0,1,163.1,77c-1.65,1.06-3.95,2.85-4.51,4.16a.8.8,0,0,0-.08.58c0,.08.21.37,1,.66l-.74,2a3.69,3.69,0,0,1-2.28-1.85,2.83,2.83,0,0,1,.08-2.3c.91-2.11,4-4.27,5.36-5.14a3.12,3.12,0,0,1-.21-1.21c-1.43-.2-3.29-.15-3.7.16l-.17.09a12.56,12.56,0,0,0-2.4,1.73,9,9,0,0,0-3,8.28,9,9,0,0,0,1.07,3.38c.89,1.49,2.26,1.82,4.48,1.9l-.08,2.17c-1.84-.06-3.87-.3-5.39-1.83l-3.76,4.5-.83-1.08c-.75-1-4.6-1.08-7.41-1.15-4.73-.11-9.2-.22-9.7-3.21a8.54,8.54,0,0,1,.44-3.35L130.81,84a10.88,10.88,0,0,0,1.57-.57c1.79-.79,2.64-1.75,2.81-2.32a.67.67,0,0,0,0-.44,3.8,3.8,0,0,0-1.06.29l-.4-1h0l.42,1a11.34,11.34,0,0,0-1.69.86l-1.15-1.85a14.46,14.46,0,0,1,1.52-.81c.6-2.07.68-3.84.21-4.68a1.14,1.14,0,0,0-.78-.56.91.91,0,0,0-.78.19c-1.33.9-3.06,4.35-3.9,10-.64,4.35-.11,7.46,1.6,9.51,1.39,1.68,6.47,2.39,9.72,2.48A13.42,13.42,0,0,1,140,94.75l1.61,1.46a14.71,14.71,0,0,0-1.22,1.62c-3.29,5-7.67,15.77-7.38,22a23.18,23.18,0,0,0,16.47,1.07c.3-1.57,1.11-5.75,2.11-9.78a10.74,10.74,0,0,1-2.45-4.49c-.19-.85-.72-3.82.61-5.68a3,3,0,0,1,2.19-1.29c1.36-.16,2.36.86,3.18,2.06a2.65,2.65,0,0,1,.5-.46L156,101l.43.07a4.94,4.94,0,0,1,3.48,2,4.73,4.73,0,0,1,.46,3.79,2.25,2.25,0,0,1-1.57,1.64,2.28,2.28,0,0,1-.63.09,2.23,2.23,0,0,1-1.56-.63,14.1,14.1,0,0,1-2.25-3.31l-.18-.32h0c-.36-.62-1.44-2.49-2-2.49h0a.89.89,0,0,0-.66.39,5.64,5.64,0,0,0-.26,4,9.1,9.1,0,0,0,2.32,3.93c1.51,1.59,3.9,3.16,6.09,2.77,1.56-.28,2.84-1.55,3.79-3.77,3.58-8.32-5.55-12.55-5.94-12.72Z" transform="translate(0 0)"/><path class="cls-6" d="M158,127.26a5.84,5.84,0,0,0-2.39,1.79c-1.38,1.36-3,3-5.51,3.23-.46,1.82-.95,3.49-1.33,4.7,2.77.54,6.34-2.45,8.55-4.5l-.47-.44,1.52-1.56s.51.5,1.28,1.19c2.8,2.55,4.43,3.53,5.14,3.79-.1-1.27-1.48-4.15-3.63-6.36-1.23-1.27-2.41-1.95-3.16-1.84Z" transform="translate(0 0)"/><path class="cls-2" d="M162.57,81.59a.73.73,0,0,0,0-1.45.73.73,0,0,0,0,1.45Z" transform="translate(0 0)"/><path class="cls-6" d="M145,140.21a14.75,14.75,0,0,1-2.65.29,12.61,12.61,0,0,1-1.57-.11c1.19,2.57,2.68,4.31,4.45,5.15,3,1.42,6.38.2,8.86-.68a9.34,9.34,0,0,1,3.14-.79l1,0,.07,1a14.81,14.81,0,0,0,1,4.7,15.79,15.79,0,0,0,1.21-7.23,3.78,3.78,0,0,0-1.24-2.79c-.48-.15-2.37.6-3.62,1.09-2.91,1.13-6.2,2.42-8.67,1.28a4.3,4.3,0,0,1-2-1.91Z" transform="translate(0 0)"/><path class="cls-2" d="M157,77.87a.73.73,0,0,0,0-1.45.73.73,0,0,0,0,1.45Z" transform="translate(0 0)"/><path class="cls-7" d="M132.49,122c-.67,2.28-.16,6.36.42,8.79a9.1,9.1,0,0,0,3.59,3.6,24.87,24.87,0,0,1,1-6.5l2,.75a27,27,0,0,0-.88,7.37c0,.6,0,1.1,0,1.46a4.52,4.52,0,0,0,.78.36,9.79,9.79,0,0,0,6,.11c.3-.07.61-.16.92-.26l0-.13c.42-1.27,1.2-3.78,1.88-6.55a34.65,34.65,0,0,0,1.19-7.85,25.34,25.34,0,0,1-6.86,1A24.45,24.45,0,0,1,132.49,122Z" transform="translate(0 0)"/><path class="cls-2" d="M141.51,101.05a.73.73,0,0,0,0,1.45.73.73,0,0,0,0-1.45Z" transform="translate(0 0)"/><path class="cls-2" d="M140.78,114.22a.73.73,0,0,0,0,1.45.73.73,0,0,0,0-1.45Z" transform="translate(0 0)"/><path class="cls-8" d="M126,56.79l1.09-1.89a16,16,0,0,1,2,1.42,18.48,18.48,0,0,0,.92-5.8,18.73,18.73,0,0,0-7.64-15.06A8.56,8.56,0,0,1,121,36c1.33,2.26,2,5.9,1.8,10.43-.29,7.55-3,16.9-8.32,22.58a18.71,18.71,0,0,0,13.8-10.48A12.26,12.26,0,0,0,126,56.79Z" transform="translate(0 0)"/><path class="cls-9" d="M120.59,46.31c.18-4.7-.61-8.46-2-10l-.43,0a10.88,10.88,0,0,1-6-1.74C98.39,41.15,99.2,61.63,99.44,65a18.71,18.71,0,0,0,11.48,4.22c6.24-4.81,9.36-14.92,9.67-22.93Z" transform="translate(0 0)"/><path class="cls-9" d="M112.38,31.84a.87.87,0,0,0,.11.18l.05,0,.09.21a2.68,2.68,0,0,0,.29.31,8.39,8.39,0,0,0,6,1.61,8.51,8.51,0,0,0,1-.18,18.56,18.56,0,0,0-7.58-2.1Z" transform="translate(0 0)"/><path class="cls-10" d="M97.18,62.8c-.1-6.67.95-23.45,13.32-29.86a3.2,3.2,0,0,1-.39-1.08A18.68,18.68,0,0,0,97.18,62.8Z" transform="translate(0 0)"/><path class="cls-6" d="M81.12,16.91A18,18,0,0,0,67.84,21a42.84,42.84,0,0,0-3.74,4.13c-5.18,6.14-9.48,10.89-12.84,11a28,28,0,0,1-1,4.09c1.54-1.19,3.14-2.31,4.54-3.29a42.34,42.34,0,0,0,3.83-2.86,29.38,29.38,0,0,1,8.55-5.2c.81-.94,1.61-2,2.39-3.09q.82-1.14,1.59-2.1l.19-1.15s.52.08,1.23.13c3.16.27,4.53-.19,4.69-.45,0-.17,0-.21-.07-.24-.66-.64-4-.63-5.63-.62V19.17c3.41,0,5.43.12,6.62.83,2-.42,5.14-1.13,6.13-1.76a6,6,0,0,0-3.22-1.33Z" transform="translate(0 0)"/><path class="cls-6" d="M68.29,30.77a27.32,27.32,0,0,0-8.16,4.89,45,45,0,0,1-4.06,3,63.22,63.22,0,0,0-7.56,5.89,17.78,17.78,0,0,0-1.45,1.58l-1.7-1.36a18.62,18.62,0,0,1,1.48-1.63,30.69,30.69,0,0,0,2.44-8.35A7.62,7.62,0,0,0,48.61,30a2.63,2.63,0,0,0-1.83-1.24,1.5,1.5,0,0,0-.37,0c-2.25,0-4.73,4-5.89,9.53-1.2,5.79-.64,12.34,2.79,13.09a8.43,8.43,0,0,0,3.09.06c5.06-.76,10-5.59,13.55-9.12,1-1,1.83-1.8,2.59-2.48a7.23,7.23,0,0,1,2.54-1.69,23.84,23.84,0,0,0,3-1.31c5.77-2.94,9.27-6.07,9.15-6.93a1.39,1.39,0,0,0-.16-.11c-1.53-.9-4.88-.51-8.75,1Z" transform="translate(0 0)"/><path class="cls-6" d="M69.83,39.27a1.61,1.61,0,0,0-1.08-.4c-.72.36-1.38.66-2,.9a18.33,18.33,0,0,0,3.31-.15,1.57,1.57,0,0,0-.27-.35Z" transform="translate(0 0)"/><path class="cls-6" d="M55.22,17.9l-1.95-1a5.11,5.11,0,0,0,.64-2.77l-.16-.06a5.8,5.8,0,0,0-1.68,2.69L50,16.09c.18-.53,1.16-3.19,2.82-4a2.24,2.24,0,0,1,1.81-.07,2.2,2.2,0,0,1,1.3,1.32c.64,1.65-.49,4-.72,4.52Zm-2.48,7.9a9.17,9.17,0,0,1-5.93-2.92,4.1,4.1,0,0,0-.24.56l-2.06-.71a4.73,4.73,0,0,1,2-2.63,2.9,2.9,0,0,1,2.69-.05l-.67,1.44c1.08,1.4,3.26,2,4.6,2.16l-.34,2.15ZM58,17.42c-.2-.92.21-2.21,1.23-5.19a6.61,6.61,0,0,1-.77-.44,19.81,19.81,0,0,1-1.87-1.5C54.15,8.2,52.25,6.81,49.9,8c-2,1-2.3,2.86-2.56,4.81a7.31,7.31,0,0,1-1.2,3.74,5.27,5.27,0,0,1-2.91,1.69c-1.07.3-1.66.47-2.11,1.82a3.84,3.84,0,0,0,0,2.2,10.17,10.17,0,0,1-.67,6.12c2.69-1.64,4.92-2.22,6.72-1.76h.07l0,0h0A4.83,4.83,0,0,1,50,28.29c2.76.1,5.12-3.77,6.26-6.26l-.55-.15.62-2.09a13.14,13.14,0,0,0,1.62.4,2.3,2.3,0,0,0,1.24,0,8.42,8.42,0,0,0-.85-1.87,4.37,4.37,0,0,1-.41-.9Z" transform="translate(0 0)"/><path class="cls-11" d="M42.85,53.46c-5.07-1.11-5.87-8.9-4.46-15.66a24.39,24.39,0,0,1,2.67-7.27c-.79.51-1.63,1.1-2.6,1.87l-.63-.78,0-.06h0l.68.85C32,37.54,25.38,45.91,22.83,49.26c-3.5,4.59-5.54,7.85-6,9-1.07,2.7-3.39,4.09-5.62,5.44a14,14,0,0,0-4.38,3.48q.76.07,1.74.24A61.43,61.43,0,0,1,22.78,71.9a27.86,27.86,0,0,1,5.88,3.54c2.14,1.78,3.22,3.64,3.22,5.51v.17s-.06.38-.15,1c1.07-1,1.51-5.18,1.86-8.6C34.24,67.2,35,60,39,56.48l.4-.35.51.09A4.46,4.46,0,0,0,45,53.68a10.42,10.42,0,0,1-2.16-.22Z" transform="translate(0 0)"/><path class="cls-6" d="M33.59,159.71l.41,0h0a14.44,14.44,0,0,0,6-1.87h0l.07,0a1.78,1.78,0,0,1,.27-.17l.05,0a3.39,3.39,0,0,0,1.63-2.15.31.31,0,0,0,0-.17c-.53-.45-2.74-.19-4.2,0a18.09,18.09,0,0,1-4.53.18A5.29,5.29,0,0,1,32,155l.45-.94h0c-3.6-15.09-2.56-25.19-1.94-28.83a9.67,9.67,0,0,0,.12-2.28c0-.16,0-.26,0-.35L27.74,93.33a17.22,17.22,0,0,0-5.23.32,50,50,0,0,0-10.3,3.73l-1.07.47c.23,5.92,3.53,14.81,6.31,21.31,1.93,4.49,3.58,7.76,3.6,7.8l.22.45-.2.46s-.25.6-.52,1.52a14.62,14.62,0,0,0-.56,4.36c0,1.18,1,3.45,2,5.86,1.33,3.26,3,7.33,3.54,11.15a22.26,22.26,0,0,1,0,5.36c-.14,1.59-.19,2.52.27,2.93a4.16,4.16,0,0,0,2.12.63h0a3,3,0,0,1,.41,0h0a31.28,31.28,0,0,0,5.12,0h0l.16,0Z" transform="translate(0 0)"/><path class="cls-6" d="M33.52,160.82h0l0-.09v.1Z" transform="translate(0 0)"/><path class="cls-6" d="M30.93,92.27c0,.09,0,.19,0,.28v1.36l-1-.22,2.7,27.56c4.16-1.9,7.68-3.54,8.39-4.83,1.34-2.41-3.82-15.69-8.11-24.87-.56.18-1.27.43-2,.72Z" transform="translate(0 0)"/><path class="cls-9" d="M31,89.92c1-.35,1.78-.6,2.2-.72L31.37,85c-.15,1.43-.3,3.13-.38,4.9Z" transform="translate(0 0)"/><path class="cls-9" d="M28.77,91.25c.07-3,.37-6,.61-8,.16-1.22.28-2.08.32-2.36A4.75,4.75,0,0,0,28,77.81,11,11,0,0,1,22,81.11a41.3,41.3,0,0,0,1.18,10.23,17.9,17.9,0,0,1,5.64-.09Z" transform="translate(0 0)"/><path class="cls-9" d="M22.06,78.9a9.15,9.15,0,0,0,4.27-2.49,26.06,26.06,0,0,0-3.41-2,22.14,22.14,0,0,0-.86,4.5Z" transform="translate(0 0)"/><path class="cls-9" d="M8.35,94.74c.07.68.13,1.34.23,1.85l.9-.38,1.83-.82A57.89,57.89,0,0,1,21,91.76,42.14,42.14,0,0,1,19.79,80a24.34,24.34,0,0,1,1.15-6.55A59.89,59.89,0,0,0,8.63,69.68a14.16,14.16,0,0,0-5,8.27,7.93,7.93,0,0,0,1.2,6.27A19.66,19.66,0,0,1,8.35,94.74Z" transform="translate(0 0)"/><path class="cls-6" d="M18.89,127.5c-.44-.88-1.47-3-2.71-5.81-2.93,3.66-6.53,7.31-11.72,8.55-1.89.46-2.22,3.84-2.27,5.28-.22,5.8,2.22,12.55,4.14,13.17a.57.57,0,0,0,.44,0c.37-.15.17-2.37.07-3.43-.25-2.73-.56-6.13,1.17-8.77l.15-.18a56.45,56.45,0,0,1,10.43-7.9c.11-.35.21-.66.3-.88Z" transform="translate(0 0)"/><path class="cls-2" d="M114.44,69c5.34-5.68,8-15,8.32-22.58.18-4.53-.47-8.17-1.8-10.43a8.56,8.56,0,0,0,1.42-.51A18.73,18.73,0,0,1,130,50.52a18.48,18.48,0,0,1-.92,5.8,16,16,0,0,0-2-1.42L126,56.79a12.26,12.26,0,0,1,2.27,1.71A18.71,18.71,0,0,1,114.44,69Zm-4.33-37.12a3.2,3.2,0,0,0,.39,1.08C98.13,39.35,97.08,56.13,97.18,62.8a18.68,18.68,0,0,1,12.93-30.94Zm8.82,2.26a8.39,8.39,0,0,1-6-1.61,2.68,2.68,0,0,1-.29-.31l-.09-.21-.05,0a.87.87,0,0,1-.11-.18,18.56,18.56,0,0,1,7.58,2.1,8.51,8.51,0,0,1-1,.18Zm-6.87.48a10.88,10.88,0,0,0,6,1.74l.43,0c1.44,1.53,2.23,5.29,2,10-.31,8-3.43,18.12-9.67,22.93A18.71,18.71,0,0,1,99.44,65c-.24-3.39-1-23.87,12.62-30.42ZM129.8,60.26a10.59,10.59,0,0,1,1.92,5.32h2.17A12.6,12.6,0,0,0,130.8,58a20.9,20.9,0,1,0-33.12,8.39l.7-.81h0l-.71.82a20.91,20.91,0,0,0,32.12-6.14Z" transform="translate(0 0)"/><path class="cls-2" d="M139.22,63.3l2.14-.4c-.82-4.36-3.34-7.24-7.1-8.11l-.5,2.11c3.69.86,5,4,5.46,6.4Z" transform="translate(0 0)"/><g class="cls-3"><path class="cls-2" d="M160.84,87.66l-.55-2.11s-3.56.89-5.26-1l-1.6,1.48a6.57,6.57,0,0,0,4.94,1.86,11.07,11.07,0,0,0,2.47-.28Z" transform="translate(0 0)"/><path class="cls-2" d="M156.32,103.73a3.09,3.09,0,0,1,.25-.41,2.46,2.46,0,0,1,1.48.91,2.69,2.69,0,0,1,.17,2.07l-.14,0h0a12.23,12.23,0,0,1-1.76-2.62ZM147,142.12c2.47,1.14,5.76-.15,8.67-1.28,1.25-.49,3.14-1.24,3.62-1.09a3.78,3.78,0,0,1,1.24,2.79,15.79,15.79,0,0,1-1.21,7.23,14.81,14.81,0,0,1-1-4.7l-.07-1-1,0a9.34,9.34,0,0,0-3.14.79c-2.48.88-5.88,2.1-8.86.68-1.77-.84-3.26-2.58-4.45-5.15a12.61,12.61,0,0,0,1.57.11,14.75,14.75,0,0,0,2.65-.29,4.3,4.3,0,0,0,2,1.91Zm12.68-10.45c-.77-.69-1.28-1.18-1.28-1.19L156.89,132l.47.44c-2.21,2.05-5.78,5-8.55,4.5.38-1.21.87-2.88,1.33-4.7,2.47-.24,4.13-1.87,5.51-3.23a5.84,5.84,0,0,1,2.39-1.79c.75-.11,1.93.57,3.16,1.84,2.15,2.21,3.53,5.09,3.63,6.36-.71-.26-2.34-1.24-5.14-3.79ZM148.23,131c-.68,2.77-1.46,5.28-1.88,6.55l0,.13c-.31.1-.62.19-.92.26a9.79,9.79,0,0,1-6-.11,4.52,4.52,0,0,1-.78-.36c0-.36,0-.86,0-1.46a27,27,0,0,1,.88-7.37l-2-.75a24.87,24.87,0,0,0-1,6.5,9.1,9.1,0,0,1-3.59-3.6c-.58-2.43-1.09-6.51-.42-8.79a24.45,24.45,0,0,0,10.07,2.12,25.34,25.34,0,0,0,6.86-1,34.65,34.65,0,0,1-1.19,7.85Zm15.21-21.9c-.95,2.22-2.23,3.49-3.79,3.77-2.19.39-4.58-1.18-6.09-2.77a9.1,9.1,0,0,1-2.32-3.93,5.64,5.64,0,0,1,.26-4,.89.89,0,0,1,.66-.39h0c.52,0,1.6,1.87,2,2.49h0l.18.32a14.1,14.1,0,0,0,2.25,3.31,2.23,2.23,0,0,0,1.56.63,2.28,2.28,0,0,0,.63-.09,2.25,2.25,0,0,0,1.57-1.64,4.73,4.73,0,0,0-.46-3.79,4.94,4.94,0,0,0-3.48-2L156,101l-.36.25a2.65,2.65,0,0,0-.5.46c-.82-1.2-1.82-2.22-3.18-2.06a3,3,0,0,0-2.19,1.29c-1.33,1.86-.8,4.83-.61,5.68a10.74,10.74,0,0,0,2.45,4.49c-1,4-1.81,8.21-2.11,9.78A23.18,23.18,0,0,1,133,119.81c-.29-6.21,4.09-17,7.38-22a14.71,14.71,0,0,1,1.22-1.62L140,94.75a13.42,13.42,0,0,0-1.07,1.37c-3.25-.09-8.33-.8-9.72-2.48-1.71-2-2.24-5.16-1.6-9.51.84-5.7,2.57-9.15,3.9-10a.91.91,0,0,1,.78-.19,1.14,1.14,0,0,1,.78.56c.47.84.39,2.61-.21,4.68a14.46,14.46,0,0,0-1.52.81l1.15,1.85a11.34,11.34,0,0,1,1.69-.86l-.42-1h0l.4,1a3.8,3.8,0,0,1,1.06-.29.67.67,0,0,1,0,.44c-.17.57-1,1.53-2.81,2.32a10.88,10.88,0,0,1-1.57.57l.44,1.55a8.54,8.54,0,0,0-.44,3.35c.5,3,5,3.1,9.7,3.21,2.81.07,6.66.17,7.41,1.15l.83,1.08,3.76-4.5c1.52,1.53,3.55,1.77,5.39,1.83l.08-2.17c-2.22-.08-3.59-.41-4.48-1.9a9,9,0,0,1-1.07-3.38,9,9,0,0,1,3-8.28,12.56,12.56,0,0,1,2.4-1.73l.17-.09c.41-.31,2.27-.36,3.7-.16a3.12,3.12,0,0,0,.21,1.21c-1.37.87-4.45,3-5.36,5.14a2.83,2.83,0,0,0-.08,2.3,3.69,3.69,0,0,0,2.28,1.85l.74-2c-.81-.29-1-.58-1-.66a.8.8,0,0,1,.08-.58c.56-1.31,2.86-3.1,4.51-4.16A18.16,18.16,0,0,0,166,79.3c.8.55,2.12,1.46,2.21,1.92-.88.68-3.89,3.27-2.64,5.66a.68.68,0,0,1-.17.77,1.74,1.74,0,0,1-2,.1,4,4,0,0,1-.66-.38l-.7,1,0,0-5.75,7.45,1.26.57c.39.17,9.52,4.4,5.94,12.72Zm6.22-25.73a5.5,5.5,0,0,0-2.14,2.54h0c-.34-.65,1-2.22,2.19-3.06l.18-.18a2.13,2.13,0,0,0,.55-1.72c-.18-1.35-1.57-2.31-3.18-3.42C165,76,163.51,74.78,164,73.46l.43-1.11L163.32,72a12.59,12.59,0,0,0-5.59-.14,8.25,8.25,0,0,1,1.11-.5,10.28,10.28,0,0,1,12.1,4.82c2.37,4.27.68,5.6-1.28,7.15Zm3.18-8.21a12.5,12.5,0,0,0-14.7-5.82c-2.91,1-4.57,3-4.51,5.34a11,11,0,0,0-3.35,9.85,12.37,12.37,0,0,0,1,3.54l-.1-.08L148.64,91c-1.75-1-4.73-1.06-8.08-1.14-2.94-.07-7.4-.18-7.61-1.4a9.14,9.14,0,0,1,.71-3.31,6.53,6.53,0,0,0,3.61-3.48,2.83,2.83,0,0,0-.29-2.39,1.85,1.85,0,0,0-1.73-.85c.34-1.66.49-3.67-.31-5.08a3.28,3.28,0,0,0-2.17-1.61,3.09,3.09,0,0,0-2.5.51c-2.17,1.46-4,5.77-4.83,11.53-.74,5,0,8.67,2.08,11.22,2,2.35,7.17,3,10,3.2-3.4,5.86-7.16,15.91-6.72,22-1.82,3.46-.22,10.34,0,11.14l.07.2a10.94,10.94,0,0,0,5.54,5.15c0,.79,0,1.3,0,1.3v.49l.37.32a6.42,6.42,0,0,0,1.34.78c1.48,4,3.56,6.62,6.18,7.87,3.79,1.8,7.84.35,10.52-.6.49-.18,1-.36,1.4-.48.22,1.7.74,4.35,1.93,5.33a1.93,1.93,0,0,0,1.24.48h.19c1.1-.11,2-1.61,2.66-4.46.86-3.69.83-8.21-1.83-9.86-1.25-.78-3.15,0-5.55.9s-5.34,2.08-7,1.33a2.06,2.06,0,0,1-.67-.52l.3-.08.47-.18.12-.31a5.71,5.71,0,0,0,1.36.18c3.51,0,7.09-3,9.48-5.28,3.63,3.17,5.31,3.77,6.16,3.77a1.85,1.85,0,0,0,.64-.11,1.79,1.79,0,0,0,1.18-1.44c.39-2.14-1.85-6.17-4.2-8.59-1.8-1.85-3.55-2.71-5.06-2.47s-2.46,1.27-3.59,2.39a8.81,8.81,0,0,1-3.43,2.5,25.84,25.84,0,0,0,.83-8.24c.14-.78.89-4.76,1.87-8.9a9.22,9.22,0,0,0,5.59,2.22A6.23,6.23,0,0,0,160,115c1.6-.29,3.84-1.4,5.41-5,3.2-7.44-1.88-12.69-5.84-15l2.56-3.31h.09a8.78,8.78,0,0,0,4.14-1.37c1-.62,2.78-1.93,3.19-3.8.08-.4.77-.94,1.43-1.46,1.91-1.51,5.11-4,1.83-9.92Z" transform="translate(0 0)"/><path class="cls-2" d="M146.69,161.39a13.13,13.13,0,0,0-7.85-1.59l.32,2.15a12,12,0,0,1,7.14,1.68,20.55,20.55,0,0,1,3.5,2.4l1.46-1.61a21.14,21.14,0,0,0-2.44-1.82,14,14,0,0,1,8.7-1.5l.26-2.16c-6-.7-9.7,1.44-11.09,2.45Z" transform="translate(0 0)"/><path class="cls-2" d="M33.43,159.73a31.28,31.28,0,0,1-5.12,0h0a3,3,0,0,0-.41,0h0a4.16,4.16,0,0,1-2.12-.63c-.46-.41-.41-1.34-.27-2.93a22.26,22.26,0,0,0,0-5.36c-.54-3.82-2.21-7.89-3.54-11.15-1-2.41-1.92-4.68-2-5.86a14.62,14.62,0,0,1,.56-4.36c.27-.92.52-1.51.52-1.52l.2-.46-.22-.45s-1.67-3.31-3.6-7.8c-2.78-6.5-6.08-15.39-6.31-21.31l1.07-.47a50,50,0,0,1,10.3-3.73,17.22,17.22,0,0,1,5.23-.32l2.87,29.27c0,.09,0,.19,0,.35a9.67,9.67,0,0,1-.12,2.28c-.62,3.64-1.66,13.74,1.94,28.83h0L32,155a5.29,5.29,0,0,0,1.28.37,18.09,18.09,0,0,0,4.53-.18c1.46-.17,3.67-.43,4.2,0a.31.31,0,0,1,0,.17,3.39,3.39,0,0,1-1.63,2.15l-.05,0a1.78,1.78,0,0,0-.27.17l-.07,0h0a14.44,14.44,0,0,1-6,1.87h0l-.41,0h0l-.16,0Zm33.36-120c.58-.24,1.24-.54,2-.9a1.61,1.61,0,0,1,1.08.4,1.57,1.57,0,0,1,.27.35,18.33,18.33,0,0,1-3.31.15ZM58,20.19a13.14,13.14,0,0,1-1.62-.4l-.62,2.09.55.15c-1.14,2.49-3.5,6.36-6.26,6.26a4.83,4.83,0,0,0-2.75-1.65h0l0,0h-.07c-1.8-.46-4,.12-6.72,1.76a10.17,10.17,0,0,0,.67-6.12,3.84,3.84,0,0,1,0-2.2c.45-1.35,1-1.52,2.11-1.82a5.27,5.27,0,0,0,2.91-1.69,7.31,7.31,0,0,0,1.2-3.74c.26-2,.51-3.79,2.56-4.81,2.35-1.18,4.25.21,6.66,2.3a19.81,19.81,0,0,0,1.87,1.5,6.61,6.61,0,0,0,.77.44c-1,3-1.43,4.27-1.23,5.19a4.37,4.37,0,0,0,.41.9,8.42,8.42,0,0,1,.85,1.87,2.3,2.3,0,0,1-1.24,0ZM41.05,116.42c-.71,1.29-4.23,2.93-8.39,4.83L30,93.69l1,.22V92.55c0-.09,0-.19,0-.28.74-.29,1.45-.54,2-.72,4.29,9.18,9.45,22.46,8.11,24.87ZM3.64,78a14.16,14.16,0,0,1,5-8.27,59.89,59.89,0,0,1,12.31,3.79A24.34,24.34,0,0,0,19.79,80,42.14,42.14,0,0,0,21,91.76a57.89,57.89,0,0,0-9.69,3.63l-1.83.82-.9.38c-.1-.51-.16-1.17-.23-1.85A19.66,19.66,0,0,0,4.84,84.22,7.93,7.93,0,0,1,3.64,78ZM31,89.92c.08-1.77.23-3.47.38-4.9l1.82,4.18c-.42.12-1.24.37-2.2.72Zm-8.93-11a22.14,22.14,0,0,1,.86-4.5,26.06,26.06,0,0,1,3.41,2,9.15,9.15,0,0,1-4.27,2.49Zm1.07,12.44A41.3,41.3,0,0,1,22,81.11,11,11,0,0,0,28,77.81a4.75,4.75,0,0,1,1.69,3.06c0,.28-.16,1.14-.32,2.36-.24,2-.54,5-.61,8a17.9,17.9,0,0,0-5.64.09ZM8,136.46c-1.73,2.64-1.42,6-1.17,8.77.1,1.06.3,3.28-.07,3.43a.57.57,0,0,1-.44,0c-1.92-.62-4.36-7.37-4.14-13.17.05-1.44.38-4.82,2.27-5.28,5.19-1.24,8.79-4.89,11.72-8.55,1.24,2.79,2.27,4.93,2.71,5.81-.09.22-.19.53-.3.88a56.45,56.45,0,0,0-10.43,7.9l-.15.18ZM39.93,56.22l-.51-.09-.4.35C35,60,34.24,67.2,33.58,73.54c-.35,3.42-.79,7.61-1.86,8.6.09-.64.15-1,.15-1V81c0-1.87-1.08-3.73-3.22-5.51a27.86,27.86,0,0,0-5.88-3.54A61.43,61.43,0,0,0,8.56,67.46q-1-.17-1.74-.24a14,14,0,0,1,4.38-3.48c2.23-1.35,4.55-2.74,5.62-5.44.47-1.19,2.51-4.45,6-9C25.38,45.91,32,37.54,38.45,32.42l-.68-.85h0l0,.06.63.78c1-.77,1.81-1.36,2.6-1.87a24.39,24.39,0,0,0-2.67,7.27c-1.41,6.76-.61,14.55,4.46,15.66a10.42,10.42,0,0,0,2.16.22,4.46,4.46,0,0,1-5.08,2.54ZM77.2,29.86c.12.86-3.38,4-9.15,6.93a23.84,23.84,0,0,1-3,1.31,7.23,7.23,0,0,0-2.54,1.69c-.76.68-1.63,1.53-2.59,2.48-3.58,3.53-8.49,8.36-13.55,9.12a8.43,8.43,0,0,1-3.09-.06c-3.43-.75-4-7.3-2.79-13.09,1.16-5.57,3.64-9.53,5.89-9.53a1.5,1.5,0,0,1,.37,0A2.63,2.63,0,0,1,48.61,30a7.62,7.62,0,0,1,.67,4.84,30.69,30.69,0,0,1-2.44,8.35,18.62,18.62,0,0,0-1.48,1.63l1.7,1.36a17.78,17.78,0,0,1,1.45-1.58,63.22,63.22,0,0,1,7.56-5.89,45,45,0,0,0,4.06-3,27.32,27.32,0,0,1,8.16-4.89c3.87-1.53,7.22-1.92,8.75-1a1.39,1.39,0,0,1,.16.11Zm1-9.86c-1.19-.71-3.21-.84-6.62-.83v2.17c1.61,0,5,0,5.63.62,0,0,.08.07.07.24-.16.26-1.53.72-4.69.45-.71,0-1.21-.13-1.23-.13l-.19,1.15q-.77,1-1.59,2.1c-.78,1.06-1.58,2.15-2.39,3.09a29.38,29.38,0,0,0-8.55,5.2,42.34,42.34,0,0,1-3.83,2.86c-1.4,1-3,2.1-4.54,3.29a28,28,0,0,0,1-4.09c3.36-.08,7.66-4.83,12.84-11A42.84,42.84,0,0,1,67.84,21a18,18,0,0,1,13.28-4.11,6,6,0,0,1,3.22,1.33c-1,.63-4.18,1.34-6.13,1.76Zm3.23-5.24a20.26,20.26,0,0,0-15,4.56,39.76,39.76,0,0,0-4,4.43c-2.94,3.48-8.26,9.72-10.94,10.17a10.47,10.47,0,0,0-.37-3.53c3.88-.79,6.49-6,7.36-8h.25A2.59,2.59,0,0,0,61,21.5c.92-1.3-.07-3.13-.66-4.22a2.58,2.58,0,0,0-.2-.33,21,21,0,0,1,1.17-4.07,4.15,4.15,0,0,0,3.12-.78c.83-.65,1.77-2,1.57-4.67C65.5,1.29,57.88.24,50.49,0c-8-.24-10.24,4.64-13.24,11.4-.28.63-.57,1.29-.88,2-1.9,4.2-3.19,5.09-4.56,6a12.15,12.15,0,0,0-3.86,4,12.67,12.67,0,0,0-1.56,5.33,14,14,0,0,1-1.49,5.37c-.52.91-1.86,1.34-3.28,1.79-1.78.56-3.79,1.2-4.43,3.13-1.22,3.67,0,7.12,3.27,9.83a52.77,52.77,0,0,0-5.66,8.7c-.8,2-2.71,3.16-4.72,4.38s-4.5,2.7-5.79,5.35a.94.94,0,0,0-.07.22h0a.09.09,0,0,1,0,0,2,2,0,0,0,0,.24.13.13,0,0,1,0,.06,4.23,4.23,0,0,0,.68,2.62A16.75,16.75,0,0,0,1.5,77.55a9.94,9.94,0,0,0,1.59,8c2.5,3.37,2.84,6.88,3.09,9.45A8.21,8.21,0,0,0,7,98.62l.47.7.8-.29L9,98.75c.47,6,3.49,14.34,6.17,20.67-2.95,3.8-6.28,7.51-11.25,8.71-2.38.58-3.78,3.17-3.94,7.3-.2,5.31,2,14.13,5.67,15.33a2.83,2.83,0,0,0,.85.13,3,3,0,0,0,1.09-.22c1.83-.78,1.61-3.14,1.38-5.64s-.48-5.28.77-7.28a52.48,52.48,0,0,1,8.18-6.4,14.33,14.33,0,0,0-.14,2.49c.06,1.56,1,3.78,2.12,6.59,1.36,3.32,2.9,7.08,3.4,10.63a20.33,20.33,0,0,1,0,4.87,16.28,16.28,0,0,0-.1,2.15,8.79,8.79,0,0,0-8.13.19l1.12,1.87c.81-.48,3.69-1.8,7.64.75A21.46,21.46,0,0,0,21,162.8l1.38,1.69c.85-.7,3.62-2.64,5.34-2.64a.88.88,0,0,1,.28,0l.22-1.07-.09,1.09c1,.08,1.95.11,2.89.11s1.75,0,2.58-.1l-.09-1.08v-.1l0,.09.25,1v.06h0l.24,0,.19,0c1.77-.11,4.51.61,4.8,2l2.13-.43A4.09,4.09,0,0,0,39,160.71a12.47,12.47,0,0,0,2.23-1.08l-.44-.7.41.46.09.18,0,0h0l.1-.06.17-.11h0l0,0c1.81-.9,6.89-1.59,9,1.08l1.71-1.34c-1.92-2.45-5.42-3-8.29-2.61a3.72,3.72,0,0,0,.21-1,2.33,2.33,0,0,0-.8-1.92c-1.24-1.06-3.48-.8-5.85-.52a26.74,26.74,0,0,1-3.07.25c-3.42-14.54-2.44-24.2-1.85-27.68a10.75,10.75,0,0,0,.15-2l.27-.13c5.29-2.41,8.79-4,9.87-6,.42-.75,2-5.53-7.9-26.54l1.13-.3-3-6.9c1.68-1.58,2.09-5.35,2.57-10,.56-5.44,1.26-12.17,4.36-15.31,3.44.36,6.19-1.53,7.34-5.05,5.47-1.16,10.39-6,14-9.58.77-.77,1.47-1.44,2.11-2,1.57.13,2.86.19,3.91.19,4.1,0,4.52-.85,4.73-1.28a2.47,2.47,0,0,0-.34-2.34,3.87,3.87,0,0,0-.72-.79c3.12-1.78,8.12-5,8.2-7.64a2.28,2.28,0,0,0-1.23-2.06c-1.94-1.14-4.82-.83-7.23-.23l.44-.59c.59-.8,1.14-1.55,1.67-2.2.48,0,1,.06,1.39.06,2,0,3.48-.34,4.27-1a2.15,2.15,0,0,0,.78-1.54,2.54,2.54,0,0,0,0-.39c4.37-1,6.56-1.66,7.11-3a1.74,1.74,0,0,0-.21-1.64,7.11,7.11,0,0,0-4.91-2.51Z" transform="translate(0 0)"/></g><path class="cls-2" d="M48.48,21.49l.67-1.44a2.9,2.9,0,0,0-2.69.05,4.73,4.73,0,0,0-2,2.63l2.06.71a4.1,4.1,0,0,1,.24-.56,9.17,9.17,0,0,0,5.93,2.92l.34-2.15c-1.34-.21-3.52-.76-4.6-2.16Z" transform="translate(0 0)"/><path class="cls-2" d="M54.64,12.06a2.24,2.24,0,0,0-1.81.07c-1.66.77-2.64,3.43-2.82,4l2.06.7a5.8,5.8,0,0,1,1.68-2.69l.16.06a5.11,5.11,0,0,1-.64,2.77l1.95,1c.23-.47,1.36-2.87.72-4.52a2.2,2.2,0,0,0-1.3-1.32Z" transform="translate(0 0)"/><path class="cls-2" d="M4.38,155.07a6.17,6.17,0,0,0-4,1.23l1.44,1.63a4.09,4.09,0,0,1,2.58-.68c2.32,0,4.41.89,4.77,1.38l1.75-1.31c-1.05-1.39-4.2-2.25-6.52-2.25Z" transform="translate(0 0)"/></g></g></g></svg>