<?xml version="1.0" encoding="utf-8"?>
<!-- Generator: Adobe Illustrator 24.0.1, SVG Export Plug-In . SVG Version: 6.00 Build 0)  -->
<svg version="1.1" id="Capa_1" xmlns="http://www.w3.org/2000/svg" xmlns:xlink="http://www.w3.org/1999/xlink" x="0px" y="0px"
	 viewBox="0 0 532.1 193" style="enable-background:new 0 0 532.1 193;" xml:space="preserve">
<style type="text/css">
	.st0{fill-rule:evenodd;clip-rule:evenodd;fill:#B99517;}
	.st1{fill:#004280;}
	.st2{fill-rule:evenodd;clip-rule:evenodd;fill:#004280;}
</style>
<g>
	<g>
		<path class="st0" d="M304.5,52.7c0,0-0.5-7.7-4.3-14.1c-5.3-8.8-11.2-11.4-13.3-12.7c0,0,1.5-1.5,4.8-2.2c4.8-1,9.4,0.4,9.4,0.4
			s-4.3-5.8-14.9-6.9c-9.2-1-12.8,2.5-12.8,2.5s0.9-3,5.1-5.2c3.8-2.1,8.9-1.8,8.9-1.8s-2.7-0.9-6.6-1.4c-5.4-0.8-16-1.4-22.3,3.6
			c-6.6,5.3-4.7,11.6-4.7,11.6s8-2.6,16.5,0c9.9,3.1,18.2,10.6,18.2,25.4c0,17.7-18.3,30-18.3,30c39.7-1.1,71.1-19,71.1-41
			c0-22.6-33.7-41-75.2-41c-41.5,0-75.2,18.4-75.2,41c0,10.7,8,20.7,18.5,26.9c11.4,6.8,36.2,10.4,51.1,2.2
			c14-7.8,18.2-23.7,10.8-32.9c-6.5-8.1-18-7.6-25.5-4.6c-7.6,3-9.8,7.1-9.8,7.1c8.6-3.4,19.6-2.7,20.7,2.9c1,5.1-4.8,8.5-15.2,9.2
			c-4.6,0.3-9.4,0-13.9-0.9c0,0-5.6-0.7-11.4-3.8c-0.4-0.3-0.8-0.5-1.2-0.8c-5.9-4-9.3-8.8-9.3-13.9c0-14.4,27-26,60.4-26
			c33.4,0,60.4,11.7,60.4,26C326.4,40.7,318,47.9,304.5,52.7L304.5,52.7z"/>
	</g>
	<path class="st1" d="M32.9,107c-3-0.6-6-1-9.1-1C9.9,106,0,113.8,0,126.2c0,11.6,8.7,19.7,23.5,19.7c4.7,0,9.2-0.9,13.8-1.7
		c-0.3-0.8-0.3-1.7-0.3-2.6v-13.3c0-0.9,0-1.8,0.3-2.5v-0.2h-8.8v0.2c2.6,1,2.7,3.9,2.7,6.5v8.3c-2.6,0.8-5.4,1.1-8,1.1
		c-9.1,0-16.5-7-16.5-16.3s6.9-15.2,15.9-15.2c3.5,0,7.9,0.8,10.3,3.5h0.2V107L32.9,107z"/>
	<path class="st1" d="M40.9,107v0.2c2.9,1.1,2.5,5.3,2.5,8v21.8c0,2.6,0.4,6.9-2.5,7.9v0.2h11v-0.2c-2.9-1-2.6-5.3-2.6-7.9V111
		c1.3-0.2,2.6-0.4,3.9-0.5c3.9-0.2,7.4,2.3,7.4,6.4c0,5.4-5.4,7.6-10,8.3l5.3,8.1l7,8.7c1.7,2.1,3.6,2.9,6.7,2.9h5.3
		c-3.3-2.1-6.9-5.1-9.3-8.1l-8.3-10.4c4.7-1.1,9.2-5.1,9.2-10.2c0-5.3-4.2-9.3-11.9-9.3H40.9L40.9,107z"/>
	<path class="st2" d="M97.8,130.7l3.1,8.1c1.6,4,2,4.7-0.8,5.9v0.2h11.8v-0.2c-3.3-1.7-4.3-4.9-5.7-8.2l-12-29.6h-9.1v0.2
		c2.8,0.9,1.7,3.3,0.9,5.4l-9.6,24.1c-1.3,3.3-2.3,6.5-5.6,8.2v0.2h10.6v-0.2c-2.8-1-2.4-2.7-1.2-5.9l3-8.1H97.8L97.8,130.7z
		 M96.1,126.4H84.7l5.7-14.5L96.1,126.4L96.1,126.4z"/>
	<path class="st1" d="M121.8,115.1l19.8,25.1c2.5,3.3,4.3,5.2,8.4,6.6v-32.4c0-3.2,0-5.5,3-7.3V107h-10.2v0.2c3.1,1.7,3,4,3,7.3
		v21.9l-21.1-26.7l-0.8-1.2c-0.4-0.5-0.6-0.8-0.9-1.4V107h-8.4v0.2c3,1.7,3,4,3,7.3v23c0,3.2,0,5.5-3.1,7.3v0.2h10.2v-0.2
		c-3.1-1.8-3-4.1-3-7.3V115.1L121.8,115.1z"/>
	<path class="st2" d="M159.5,136.6c0,3.4,0.3,6.2-2.5,8.1v0.2h13.8c12.9,0,21.6-8,21.6-19.3c0-11.5-8.2-18.6-21.3-18.6h-14.1v0.2
		c2.9,0.9,2.5,5.1,2.5,7.7V136.6L159.5,136.6z M165.4,111.8c1.7-0.4,3.5-0.6,5.2-0.6c9.6,0,15.3,5.1,15.3,15.2
		c0,10-7.7,14.5-16.3,14.5c-1.4,0-2.8-0.1-4.2-0.4V111.8L165.4,111.8z"/>
	<path class="st1" d="M214.1,107v0.2c2.9,1.2,2.5,5.4,2.5,8v21.8c0,2.6,0.3,6.9-2.6,7.9v0.2h11.5v-0.2c-3.1-1.7-3-4-3-7.3v-26
		c1.3-0.2,2.7-0.3,4-0.3c4.6,0,8.2,2,8.2,7.1c0,5.5-5.4,8.6-10.3,8.9c1.3,0.6,2.8,0.8,4.2,0.8c6.5,0,12.7-4.2,12.7-10.8
		c0-6.5-5.7-10.1-13.2-10.1H214.1L214.1,107z"/>
	<path class="st2" d="M266.3,130.7l3.1,8.1c1.6,4,2,4.7-0.8,5.9v0.2h11.8v-0.2c-3.3-1.7-4.3-4.9-5.7-8.2l-12-29.6h-9.1v0.2
		c2.8,0.9,1.7,3.3,0.9,5.4l-9.6,24.1c-1.3,3.3-2.2,6.5-5.6,8.2v0.2H250v-0.2c-2.8-1-2.4-2.7-1.2-5.9l3-8.1H266.3L266.3,130.7z
		 M264.7,126.4h-11.4l5.7-14.5L264.7,126.4L264.7,126.4z"/>
	<path class="st2" d="M294,140.3v-25.2c0-2.6-0.4-6.9,2.5-8V107h-11v0.2c2.9,1.1,2.6,5.3,2.6,8v21.8c0,2.6,0.3,6.9-2.6,7.9v0.2h23.7
		l3-7.7h-0.2c-2.9,2.4-6.3,3.8-10.2,3.5L294,140.3L294,140.3z"/>
	<path class="st2" d="M322.8,140.3v-25.2c0-2.6-0.4-6.9,2.5-8V107h-11v0.2c2.9,1.1,2.6,5.3,2.6,8v21.8c0,2.6,0.3,6.9-2.6,7.9v0.2
		h23.7l3-7.7h-0.2c-2.9,2.4-6.3,3.8-10.2,3.5L322.8,140.3L322.8,140.3z"/>
	<path class="st2" d="M369.8,130.7l3.1,8.1c1.6,4,2,4.7-0.8,5.9v0.2h11.8v-0.2c-3.3-1.7-4.3-4.9-5.7-8.2l-12-29.6h-9.1v0.2
		c2.8,0.9,1.7,3.3,0.9,5.4l-9.6,24.1c-1.3,3.3-2.3,6.5-5.6,8.2v0.2h10.6v-0.2c-2.8-1-2.4-2.7-1.2-5.9l3-8.1H369.8L369.8,130.7z
		 M368.1,126.4h-11.4l5.7-14.5L368.1,126.4L368.1,126.4z"/>
	<path class="st2" d="M389.3,136.6c0,3.4,0.3,6.2-2.5,8.1v0.2h13.8c12.9,0,21.6-8,21.6-19.3c0-11.5-8.2-18.6-21.3-18.6h-14.1v0.2
		c2.9,0.9,2.5,5.1,2.5,7.7V136.6L389.3,136.6z M395.2,111.8c1.7-0.4,3.5-0.6,5.2-0.6c9.6,0,15.3,5.1,15.3,15.2
		c0,10-7.7,14.5-16.3,14.5c-1.4,0-2.8-0.1-4.2-0.4V111.8L395.2,111.8z"/>
	<path class="st1" d="M429.3,136.9c0,2.6,0.3,6.9-2.5,7.9v0.2h11v-0.2c-2.9-1.1-2.5-5.3-2.5-7.9v-21.8c0-2.6-0.3-6.9,2.5-8V107h-11
		v0.2c2.9,1.1,2.5,5.3,2.5,8V136.9L429.3,136.9z"/>
	<path class="st1" d="M468.8,144.9h8.5v-0.2c-2.9-1.1-2.6-5.3-2.6-7.9v-21.8c0-2.7-0.3-6.9,2.6-8l-0.1-0.2h-11v0.2
		c2.9,1.1,2.5,5.3,2.5,7.9v17.4c0,2.1,0.1,3.5-1.2,5.3c-1.9,2.7-5.2,4-8.4,4c-5.9,0-9.2-3.6-9.2-11.3V115c0-2.6-0.3-6.8,2.5-7.9V107
		h-11v0.2c2.9,1.1,2.5,5.3,2.5,7.9v15.4c0,4.2-0.1,8,2.9,11.4c2.6,2.8,6.6,4,10.4,4c4,0,8.8-1.4,11.3-4.7V144.9L468.8,144.9z"/>
	<path class="st1" d="M506.7,135.1l-10.8-25.4c-0.3-0.8-0.8-1.7-0.8-2.6V107H485v0.2c2.7,1.4,2,3.8,1.8,5.4l-3.3,24.2
		c-0.5,3.1-0.8,5.9-3.2,8.1v0.2h9.4v-0.2c-2.7-1.2-2.3-3.8-1.8-7.3l3.3-24.8l11,26c1.4,3.2,2.2,4.8,5.1,7l12.9-33.1l3.3,27.8
		c0,2-0.3,3.7-2.4,4.3v0.2h11.1v-0.2c-2.3-1.6-2.6-3.2-2.9-5.9l-3.8-28.3c0-1.3,0.4-3,1.8-3.4V107h-10v0.1c0,1.2-0.4,2.4-0.9,3.6
		L506.7,135.1L506.7,135.1z"/>
	<g>
		<path class="st1" d="M138.4,181.8h-12v6c0,1.3,0,2.2,0.1,2.6c0.2,1,0.7,1.7,1.4,2v0.1h-6.3v-0.1c0.7-0.3,1.2-0.9,1.4-2
			c0.1-0.4,0.1-1.3,0.1-2.6v-12.6c0-1.4,0-2.2-0.1-2.6c-0.2-1-0.6-1.7-1.4-2v-0.1h6.3v0.1c-0.7,0.3-1.2,0.9-1.4,2
			c-0.1,0.4-0.1,1.3-0.1,2.6v4.1h12v-4.1c0-1.4,0-2.3-0.1-2.6c-0.2-1-0.6-1.7-1.4-2v-0.1h6.3v0.1c-0.7,0.3-1.2,0.9-1.4,2
			c-0.1,0.4-0.1,1.3-0.1,2.6v12.6c0,1.3,0,2.2,0.1,2.6c0.2,1,0.7,1.7,1.4,2v0.1h-6.3v-0.1c0.7-0.3,1.2-0.9,1.4-2
			c0.1-0.4,0.1-1.2,0.1-2.6V181.8z"/>
		<path class="st1" d="M157.6,170c3.4,0,6.3,1.2,8.6,3.4c2.2,2.2,3.3,4.8,3.3,7.8c0,3.3-1.2,6.1-3.6,8.3c-2.4,2.2-5.3,3.3-8.6,3.3
			c-3.4,0-6.2-1.1-8.5-3.2c-2.4-2.2-3.6-5-3.6-8.3c0-3.2,1.2-5.9,3.6-8.1C151.2,171.1,154.2,170,157.6,170z M157.4,172.4
			c-2.5,0-4.6,0.8-6.1,2.5c-1.5,1.6-2.3,3.7-2.3,6.3c0,2.5,0.8,4.6,2.3,6.4c1.6,2,3.7,3,6.2,3c2.5,0,4.5-0.8,6-2.5
			c1.5-1.6,2.2-3.7,2.2-6.2c0-2.6-0.7-4.8-2.2-6.6C162,173.4,159.9,172.4,157.4,172.4z"/>
		<path class="st1" d="M179.6,173v15.1c0,1.2,0.1,2,0.2,2.4c0.2,0.7,0.7,1.3,1.5,1.8v0.1h-6.6v-0.1c0.7-0.3,1.2-0.9,1.4-2
			c0.1-0.4,0.1-1.3,0.1-2.6V173h-2.9c-1.7,0-3,0.4-4,1.3h-0.1l1.2-4h0.1c0.1,0.1,0.5,0.1,1.3,0.3h13.2c0.7,0,1.2-0.1,1.5-0.3h0.1
			l-1.1,4h-0.1c-0.3-0.9-1.3-1.3-2.9-1.3H179.6z"/>
		<path class="st1" d="M192,181.8v7.9l4.2,0.4c0.2,0,0.5,0,0.8,0c2.1,0,3.9-0.7,5.4-2h0.1l-1.5,4.4h-13.8v-0.1
			c0.7-0.3,1.2-0.9,1.4-1.9c0.1-0.4,0.1-1.3,0.1-2.6v-12.5c0-1.3,0-2.2-0.1-2.6c-0.2-1-0.7-1.7-1.4-2v-0.1h10.6
			c0.8,0,1.4-0.1,1.6-0.2h0.1v3.9h-0.1c-0.8-0.9-2.1-1.3-3.9-1.3c-1.4,0-2.6,0.1-3.4,0.2v6.2h4c0.7,0,1.2-0.1,1.5-0.2h0.1v3.5h-0.1
			c-0.3-0.6-1.3-0.9-3-0.9H192z"/>
		<path class="st1" d="M209.4,189.7l4.5,0.3c2.1,0.1,4.1-0.5,5.9-2h0.1l-1.7,4.4h-13.6v-0.1c0.7-0.3,1.2-0.9,1.4-1.9
			c0.1-0.4,0.1-1.3,0.1-2.6v-12.5c0-1.3,0-2.2-0.1-2.6c-0.2-1-0.7-1.7-1.4-2v-0.1h6.3v0.1c-0.7,0.3-1.2,0.9-1.4,2
			c-0.1,0.4-0.1,1.3-0.1,2.6V189.7z"/>
		<path class="st1" d="M234.6,170.8v3.8c-1.4-1.4-3.1-2.1-5.2-2.1c-1.1,0-2.1,0.2-2.9,0.7c-1,0.5-1.4,1.3-1.4,2.4c0,1.2,1,2.4,3,3.4
			c1.8,0.9,3.7,1.8,5.5,2.7c2,1.3,3,2.8,3,4.5c0,1.8-0.8,3.4-2.5,4.8c-1.7,1.4-3.9,2.1-6.4,2.1c-2.2,0-4.2-0.3-5.9-1l-1-4.2
			c2.1,1.8,4.5,2.8,7.3,2.8c1.1,0,2.1-0.3,3.1-0.9c1.1-0.7,1.7-1.5,1.7-2.6c0-1.4-1-2.6-3-3.7c-1.8-0.9-3.7-1.8-5.5-2.7
			c-2-1.3-3-2.9-3-4.9c0-1.9,0.9-3.4,2.7-4.4c1.5-0.9,3.4-1.3,5.7-1.3C231.4,170.1,233.1,170.3,234.6,170.8z"/>
		<path class="st1" d="M273.9,192.4h-3.6c-1.4,0-2.4-0.2-3.1-0.5c-1.4-0.7-2.7-1.7-4-2.9c-1.6,2.6-3.9,3.9-6.9,3.9
			c-2,0-3.7-0.5-5.1-1.6c-1.6-1.2-2.4-2.8-2.4-4.7c0-1.5,0.5-2.8,1.4-4.1c0.6-0.9,1.7-1.9,3.2-3.1c-1.8-1.8-2.7-3.4-2.7-4.7
			c0-1.3,0.5-2.4,1.6-3.4c1-0.8,2.2-1.3,3.6-1.3s2.5,0.4,3.4,1.3c0.9,0.9,1.4,2,1.4,3.3c0,1-0.3,1.9-0.9,2.8c-0.4,0.6-1.1,1.3-2,2.2
			c4,3.9,6.6,6.2,7.6,7.1c3,2.5,5.8,4.4,8.5,5.7V192.4z M261.9,187.8l-6.5-6.4c-2,1.4-3,3.1-3,4.9c0,1.3,0.4,2.4,1.3,3.2
			c0.9,0.8,2,1.2,3.3,1.2C258.8,190.7,260.4,189.7,261.9,187.8z M255.9,177.6c1.4-1,2.2-2.1,2.2-3.3c0-0.6-0.2-1.1-0.7-1.5
			c-0.4-0.4-1-0.5-1.6-0.5c-1.5,0-2.2,0.6-2.2,1.9C253.6,175.1,254.3,176.2,255.9,177.6z"/>
		<path class="st1" d="M283.7,170.6h7.9c2.2,0,3.9,0.5,5.1,1.5c1.2,1,1.8,2.2,1.8,3.8c0,1.4-0.5,2.7-1.6,3.8c-1,1-2.2,1.7-3.7,2.1
			l4.8,6c1.3,1.7,3.1,3.2,5.4,4.6h-3.1c-1.7,0-3-0.6-3.9-1.7l-4.1-5l-3.1-4.7c3.8-0.6,5.7-2.2,5.7-4.7c0-1.2-0.4-2.1-1.3-2.8
			c-0.8-0.6-1.8-0.9-3-0.9c-0.7,0-1.4,0.1-2.3,0.3v14.9c0,1.4,0,2.2,0.1,2.6c0.2,1,0.7,1.7,1.4,1.9v0.1h-6.3v-0.1
			c0.7-0.3,1.2-0.9,1.4-1.9c0.1-0.4,0.1-1.3,0.1-2.6v-12.5c0-1.4,0-2.3-0.1-2.6C284.9,171.6,284.4,170.9,283.7,170.6L283.7,170.6z"
			/>
		<path class="st1" d="M306.7,181.8v7.9l4.2,0.4c0.2,0,0.5,0,0.8,0c2.1,0,3.9-0.7,5.4-2h0.1l-1.5,4.4h-13.8v-0.1
			c0.7-0.3,1.2-0.9,1.4-1.9c0.1-0.4,0.1-1.3,0.1-2.6v-12.5c0-1.3,0-2.2-0.1-2.6c-0.2-1-0.7-1.7-1.4-2v-0.1h10.6
			c0.8,0,1.4-0.1,1.6-0.2h0.1v3.9H314c-0.8-0.9-2.1-1.3-3.9-1.3c-1.4,0-2.6,0.1-3.4,0.2v6.2h4c0.7,0,1.2-0.1,1.5-0.2h0.1v3.5h-0.1
			c-0.3-0.6-1.3-0.9-3-0.9H306.7z"/>
		<path class="st1" d="M332,170.8v3.8c-1.3-1.4-3.1-2.1-5.2-2.1c-1.1,0-2.1,0.2-2.9,0.7c-1,0.5-1.4,1.3-1.4,2.4c0,1.2,1,2.4,3,3.4
			c1.8,0.9,3.7,1.8,5.5,2.7c2,1.3,3,2.8,3,4.5c0,1.8-0.8,3.4-2.5,4.8c-1.7,1.4-3.9,2.1-6.4,2.1c-2.2,0-4.2-0.3-5.9-1l-1-4.2
			c2.1,1.8,4.5,2.8,7.3,2.8c1.1,0,2.1-0.3,3.1-0.9c1.1-0.7,1.7-1.5,1.7-2.6c0-1.4-1-2.6-3-3.7c-1.8-0.9-3.7-1.8-5.5-2.7
			c-2-1.3-3-2.9-3-4.9c0-1.9,0.9-3.4,2.7-4.4c1.5-0.9,3.4-1.3,5.7-1.3C328.8,170.1,330.4,170.3,332,170.8z"/>
		<path class="st1" d="M348.3,170c3.4,0,6.3,1.2,8.6,3.4c2.2,2.2,3.3,4.8,3.3,7.8c0,3.3-1.2,6.1-3.6,8.3c-2.4,2.2-5.3,3.3-8.6,3.3
			c-3.4,0-6.2-1.1-8.5-3.2c-2.4-2.2-3.6-5-3.6-8.3c0-3.2,1.2-5.9,3.6-8.1C341.9,171.1,344.8,170,348.3,170z M348.1,172.4
			c-2.5,0-4.6,0.8-6.1,2.5c-1.5,1.6-2.3,3.7-2.3,6.3c0,2.5,0.8,4.6,2.3,6.4c1.6,2,3.7,3,6.2,3c2.5,0,4.5-0.8,6-2.5
			c1.5-1.6,2.2-3.7,2.2-6.2c0-2.6-0.7-4.8-2.2-6.6C352.6,173.4,350.6,172.4,348.1,172.4z"/>
		<path class="st1" d="M362.3,170.6h7.9c2.2,0,3.9,0.5,5.1,1.5c1.2,1,1.8,2.2,1.8,3.8c0,1.4-0.5,2.7-1.6,3.8c-1,1-2.2,1.7-3.7,2.1
			l4.8,6c1.3,1.7,3.1,3.2,5.4,4.6h-3.1c-1.7,0-3-0.6-3.9-1.7l-4-5l-3.1-4.7c3.8-0.6,5.7-2.2,5.7-4.7c0-1.2-0.4-2.1-1.3-2.8
			c-0.8-0.6-1.8-0.9-3-0.9c-0.7,0-1.4,0.1-2.3,0.3v14.9c0,1.4,0,2.2,0.1,2.6c0.2,1,0.7,1.7,1.4,1.9v0.1h-6.3v-0.1
			c0.7-0.3,1.2-0.9,1.4-1.9c0.1-0.4,0.1-1.3,0.1-2.6v-12.5c0-1.4,0-2.3-0.1-2.6C363.5,171.6,363.1,170.9,362.3,170.6L362.3,170.6z"
			/>
		<path class="st1" d="M388.2,173v15.1c0,1.2,0.1,2,0.2,2.4c0.2,0.7,0.7,1.3,1.5,1.8v0.1h-6.6v-0.1c0.7-0.3,1.2-0.9,1.4-2
			c0.1-0.4,0.1-1.3,0.1-2.6V173h-2.9c-1.7,0-3,0.4-4,1.3h-0.1l1.2-4h0.1c0.1,0.1,0.5,0.1,1.3,0.3h13.2c0.7,0,1.2-0.1,1.5-0.3h0.1
			l-1.1,4H394c-0.3-0.9-1.3-1.3-2.9-1.3H388.2z"/>
		<path class="st1" d="M408.6,170.8v3.8c-1.3-1.4-3.1-2.1-5.2-2.1c-1.1,0-2.1,0.2-2.9,0.7c-1,0.5-1.4,1.3-1.4,2.4c0,1.2,1,2.4,3,3.4
			c1.8,0.9,3.7,1.8,5.5,2.7c2,1.3,3,2.8,3,4.5c0,1.8-0.8,3.4-2.5,4.8c-1.7,1.4-3.9,2.1-6.4,2.1c-2.2,0-4.2-0.3-5.9-1l-1-4.2
			c2.1,1.8,4.5,2.8,7.3,2.8c1.1,0,2.1-0.3,3.1-0.9c1.1-0.7,1.7-1.5,1.7-2.6c0-1.4-1-2.6-3-3.7c-1.8-0.9-3.7-1.8-5.5-2.7
			c-2-1.3-3-2.9-3-4.9c0-1.9,0.9-3.4,2.7-4.4c1.5-0.9,3.4-1.3,5.7-1.3C405.4,170.1,407.1,170.3,408.6,170.8z"/>
	</g>
</g>
</svg>
