<svg xmlns="http://www.w3.org/2000/svg" width="36.03" height="35.56" viewBox="0 0 36.03 35.56"><defs><style>.cls-1{fill:#fff;}</style></defs><title>Asset 6</title><g id="Layer_2" data-name="Layer 2"><g id="Desktop"><g id="Tabs"><g id="Tours"><path class="cls-1" d="M19.18,3.32a1.66,1.66,0,1,0-1.66-1.66A1.66,1.66,0,0,0,19.18,3.32Z" transform="translate(-0.34)"/><path class="cls-1" d="M25.1,8.57a.85.85,0,0,0-.85-.85h-2.9L19.72,5.4v0a1.7,1.7,0,0,0-1.45-1.89A1.73,1.73,0,0,0,17,3.86V1.93a.6.6,0,0,0-.6-.6H14.71a.6.6,0,0,0-.6.6V9.08a1.67,1.67,0,0,0,1.52,1.66l-.13.3-1,3.81-2.27,3a1,1,0,0,0,.21,1.44,1,1,0,0,0,.61.2,1.05,1.05,0,0,0,.83-.41l2.39-3.21a1.11,1.11,0,0,0,.16-.35l.69-2.6L19,14.7l-.25,3.75a1,1,0,0,0,1,1.09h.07a1,1,0,0,0,1-.95l.29-4.24a1,1,0,0,0-.33-.83L18.8,11.74l.59-3.83.82,1.16a.87.87,0,0,0,.7.36h3L24,19.25a.35.35,0,0,0,.69,0l-.06-9.89A.87.87,0,0,0,25.1,8.57Z" transform="translate(-0.34)"/><path class="cls-1" d="M2.47,29.86H.34V28.44h5.8v1.42H4v5.58H2.47Z" transform="translate(-0.34)"/><path class="cls-1" d="M7,32v0a3.62,3.62,0,0,1,3.73-3.62,3.59,3.59,0,0,1,3.71,3.6v0a3.62,3.62,0,0,1-3.73,3.62A3.59,3.59,0,0,1,7,32Zm5.83,0v0a2.13,2.13,0,0,0-2.12-2.2,2.09,2.09,0,0,0-2.1,2.18v0a2.13,2.13,0,0,0,2.12,2.2A2.09,2.09,0,0,0,12.79,32Z" transform="translate(-0.34)"/><path class="cls-1" d="M15.91,32.44v-4h1.54v4c0,1.14.57,1.73,1.51,1.73s1.51-.57,1.51-1.68v-4H22v3.95a2.82,2.82,0,0,1-3.07,3.16A2.78,2.78,0,0,1,15.91,32.44Z" transform="translate(-0.34)"/><path class="cls-1" d="M23.83,28.44H27a2.79,2.79,0,0,1,2,.71,2.2,2.2,0,0,1,.6,1.6v0a2.17,2.17,0,0,1-1.5,2.17l1.71,2.5h-1.8l-1.5-2.24H25.37v2.24H23.83Zm3.1,3.4c.75,0,1.18-.4,1.18-1v0c0-.66-.46-1-1.21-1H25.37v2Z" transform="translate(-0.34)"/><path class="cls-1" d="M30.83,34.42l.91-1.09a3.21,3.21,0,0,0,2.09.85c.63,0,1-.25,1-.66v0c0-.39-.24-.59-1.41-.89-1.41-.36-2.32-.75-2.32-2.14v0a2.19,2.19,0,0,1,2.45-2.11,4.05,4.05,0,0,1,2.6.89l-.8,1.16a3.28,3.28,0,0,0-1.82-.69c-.59,0-.9.27-.9.61v0c0,.46.3.61,1.51.92,1.42.37,2.22.88,2.22,2.1v0c0,1.39-1.06,2.17-2.57,2.17A4.45,4.45,0,0,1,30.83,34.42Z" transform="translate(-0.34)"/></g></g></g></g></svg>