<svg id="Layer_1" data-name="Layer 1" xmlns="http://www.w3.org/2000/svg" width="254.11" height="149.33" viewBox="0 0 254.11 149.33"><defs><style>.cls-1{fill:#ef373e;}</style></defs><title>RIU_Logo_Print_CMYK</title><path class="cls-1" d="M73.58,77.23c-3.65-6.38-6.44-10.82-8.49-13.87,12.48-4.72,21.23-15.61,21.23-29.89C86.32,8.18,65.58,0,45.28,0H0V103H21.2V65.88H31.5c1.64,0,3.24,0,4.84.07a12.44,12.44,0,0,1,9.92,6.34c3.25,5.37,5,9,9.87,17.17,5.37,8.91,10.78,15.2,20.33,15.2,12,0,13.66-11.67,13.66-11.67-7.54-2.45-12.92-9.44-16.54-15.76m-26-28H21.2V18.48H47.55c9.69,0,16.67,5.3,16.67,15.44C64.22,43.46,57.24,49.22,47.55,49.22ZM115.32,0V103h21.2V15.75C136.52-.67,115.32,0,115.32,0ZM232.91,0V58c0,15.9-5.17,26.95-22.18,26.95S189,73.9,189,58V15.75C189-.67,167.79,0,167.79,0V59.53c0,26.2,12.17,45.13,42.94,45.13s43.38-20.9,43.38-45.13V0ZM.09,128a6.87,6.87,0,0,1,.78-.06,1.72,1.72,0,0,1,1.93,2v7h9.91V128a7.21,7.21,0,0,1,.78-.06,1.72,1.72,0,0,1,1.94,2v19H12.71V139.2H2.8v9.67H.09Zm37.65,10.35c0,3.41-.79,6.09-2.37,8.06a8.14,8.14,0,0,1-6.73,2.94A8.56,8.56,0,0,1,23.79,148a8.27,8.27,0,0,1-3-3.82,15.14,15.14,0,0,1-1-5.83,13.66,13.66,0,0,1,1.12-5.73,8.29,8.29,0,0,1,3.18-3.74,9,9,0,0,1,4.86-1.28,8.56,8.56,0,0,1,4.8,1.29,8,8,0,0,1,3,3.71A14.47,14.47,0,0,1,37.74,138.33Zm-2.83,0a10.53,10.53,0,0,0-1.55-6.2,5.17,5.17,0,0,0-4.5-2.15,5.41,5.41,0,0,0-4.64,2.13,10.33,10.33,0,0,0-1.59,6.22,10.88,10.88,0,0,0,1.57,6.34,5.23,5.23,0,0,0,4.57,2.23,5.24,5.24,0,0,0,4.56-2.24A10.93,10.93,0,0,0,34.91,138.36Zm10.59-8H38.9a3.69,3.69,0,0,1-.1-.87,1.33,1.33,0,0,1,.53-1.08A2.15,2.15,0,0,1,40.7,128H55a5.46,5.46,0,0,1,.06.72,1.52,1.52,0,0,1-.51,1.2,2,2,0,0,1-1.39.45H48.25v18.49H45.5ZM57.82,128h12a3.52,3.52,0,0,1,.06.66c0,1.12-.64,1.68-1.9,1.68H60.53v6.42H67.6v2.4H60.53v7.36h7.91a2.12,2.12,0,0,1,1.44.43,1.58,1.58,0,0,1,.5,1.25,5.07,5.07,0,0,1,0,.66H57.82Zm15.86,0a6.87,6.87,0,0,1,.78-.06,1.72,1.72,0,0,1,1.93,2V146.5h7.23a2,2,0,0,1,1.39.43,1.57,1.57,0,0,1,.48,1.22q0,.34,0,.72H73.68Zm24.72,3.4a6.52,6.52,0,0,0-1.93-1,7.16,7.16,0,0,0-2.28-.37,4.4,4.4,0,0,0-2.87.82,2.83,2.83,0,0,0-1,2.29,2.81,2.81,0,0,0,.39,1.49,3.55,3.55,0,0,0,1.3,1.15,16.35,16.35,0,0,0,2.9,1.14,9,9,0,0,1,4.14,2.38,5.34,5.34,0,0,1,1.31,3.69,5.94,5.94,0,0,1-1.89,4.66,7.36,7.36,0,0,1-5.15,1.7,13,13,0,0,1-3.2-.37,6.52,6.52,0,0,1-2.32-1,1.4,1.4,0,0,1-.78-1.15,2,2,0,0,1,.27-.83,6.49,6.49,0,0,1,.67-1,9.08,9.08,0,0,0,2.57,1.49,7.59,7.59,0,0,0,2.79.53,4.63,4.63,0,0,0,3.15-1,3.32,3.32,0,0,0,1.09-2.63,3.93,3.93,0,0,0-.38-1.78A3.29,3.29,0,0,0,96,140.31a11.29,11.29,0,0,0-2.53-1.08,14,14,0,0,1-3.54-1.45,5,5,0,0,1-1.79-1.85,5.41,5.41,0,0,1-.59-2.59,5.24,5.24,0,0,1,3.19-5.05,8.47,8.47,0,0,1,3.48-.68,10.84,10.84,0,0,1,2.55.31,7.7,7.7,0,0,1,2.19.84,3.4,3.4,0,0,1,.9.73,1.22,1.22,0,0,1,.28.77,2.81,2.81,0,0,1-1,1.68l-.29-.26ZM122.68,146a11.2,11.2,0,0,1-3.12,2.46,7.42,7.42,0,0,1-3.37.78,7.86,7.86,0,0,1-3.61-.77,5.32,5.32,0,0,1-2.29-2.16,6.49,6.49,0,0,1-.8-3.24,6.83,6.83,0,0,1,1.36-4.24A8.92,8.92,0,0,1,114.7,136a6.8,6.8,0,0,1-1.08-1.82,5.67,5.67,0,0,1-.29-1.86,4.2,4.2,0,0,1,.73-2.44,4.81,4.81,0,0,1,2-1.66,6.34,6.34,0,0,1,2.7-.57,6.56,6.56,0,0,1,3.77,1,1.39,1.39,0,0,1,.69,1.12,3,3,0,0,1-.94,1.62h-.31a5.73,5.73,0,0,0-1.53-1.11,3.77,3.77,0,0,0-1.59-.32,2.77,2.77,0,0,0-2,.68,2.34,2.34,0,0,0-.75,1.81,3.23,3.23,0,0,0,.3,1.35,7.76,7.76,0,0,0,1,1.64l1.7,2.11,1.79,2.21,1.72,2.1a13,13,0,0,0,1-4.83q0-1.12,0-1.65h5v2h-2.74a15.73,15.73,0,0,1-1.62,6.49l4,4.89a3.66,3.66,0,0,1-1.53.38,2.68,2.68,0,0,1-2.06-.94ZM116,137.83a7.07,7.07,0,0,0-2.93,2.09,4.6,4.6,0,0,0-1,2.93,3.94,3.94,0,0,0,1.14,2.93,4.09,4.09,0,0,0,3,1.12,5.07,5.07,0,0,0,2.58-.64,8.06,8.06,0,0,0,2.28-2.13Zm22.28-9.75a34.52,34.52,0,0,1,4.9-.29c2.78,0,4.81.48,6.09,1.42a5.28,5.28,0,0,1,1.92,4.54,6.69,6.69,0,0,1-.58,2.85,5.49,5.49,0,0,1-1.62,2.09,6,6,0,0,1-2.38,1.14l5.7,9a3.25,3.25,0,0,1-1.47.28,2.53,2.53,0,0,1-2.21-1.22l-4.86-7.6H141v8.54h-2.72Zm4.93,9.94q5.15,0,5.14-4.12a3.43,3.43,0,0,0-1.15-2.91,6.68,6.68,0,0,0-4-.89,14,14,0,0,0-2.24.13V138Zm12.37-10h12a3.52,3.52,0,0,1,.06.66c0,1.12-.64,1.68-1.9,1.68h-7.49v6.42h7.08v2.4h-7.08v7.36h7.92a2.14,2.14,0,0,1,1.44.43,1.58,1.58,0,0,1,.49,1.25q0,.31,0,.66H155.62Zm25.66,3.37a6.46,6.46,0,0,0-1.94-1,7.06,7.06,0,0,0-2.27-.37,4.38,4.38,0,0,0-2.87.82,3.09,3.09,0,0,0-.61,3.78,3.47,3.47,0,0,0,1.3,1.15,16.18,16.18,0,0,0,2.89,1.14,9,9,0,0,1,4.15,2.38,5.39,5.39,0,0,1,1.31,3.69,5.94,5.94,0,0,1-1.89,4.66,7.37,7.37,0,0,1-5.16,1.7A13,13,0,0,1,173,149a6.52,6.52,0,0,1-2.32-1,1.4,1.4,0,0,1-.78-1.15,2.07,2.07,0,0,1,.26-.83,7.27,7.27,0,0,1,.67-1,9.27,9.27,0,0,0,2.58,1.49,7.57,7.57,0,0,0,2.78.53,4.62,4.62,0,0,0,3.15-1,3.29,3.29,0,0,0,1.09-2.63,3.93,3.93,0,0,0-.37-1.78,3.25,3.25,0,0,0-1.22-1.29,11.18,11.18,0,0,0-2.52-1.08,14,14,0,0,1-3.54-1.45,4.94,4.94,0,0,1-1.79-1.85,5.3,5.3,0,0,1-.59-2.59,5.24,5.24,0,0,1,3.19-5.05,8.47,8.47,0,0,1,3.48-.68,10.84,10.84,0,0,1,2.55.31,7.63,7.63,0,0,1,2.18.84,3.31,3.31,0,0,1,.91.73,1.22,1.22,0,0,1,.28.77,2.81,2.81,0,0,1-1,1.68,2.81,2.81,0,0,0-.3-.26A4.2,4.2,0,0,0,181.28,131.38Zm23.12,7c0,3.41-.79,6.09-2.37,8.06a8.14,8.14,0,0,1-6.73,2.94,8.56,8.56,0,0,1-4.85-1.32,8.21,8.21,0,0,1-3-3.82,15.14,15.14,0,0,1-1-5.83,13.66,13.66,0,0,1,1.12-5.73,8.29,8.29,0,0,1,3.18-3.74,9,9,0,0,1,4.86-1.28,8.56,8.56,0,0,1,4.8,1.29,8,8,0,0,1,3,3.71A14.47,14.47,0,0,1,204.4,138.33Zm-2.83,0a10.53,10.53,0,0,0-1.55-6.2,5.18,5.18,0,0,0-4.5-2.15,5.44,5.44,0,0,0-4.65,2.13,10.4,10.4,0,0,0-1.59,6.22,10.87,10.87,0,0,0,1.58,6.34,5.78,5.78,0,0,0,9.13,0A10.93,10.93,0,0,0,201.57,138.36Zm7.2-10.28a34.37,34.37,0,0,1,4.89-.29c2.78,0,4.82.48,6.09,1.42a5.28,5.28,0,0,1,1.92,4.54,6.69,6.69,0,0,1-.58,2.85,5.49,5.49,0,0,1-1.62,2.09,6,6,0,0,1-2.38,1.14l5.7,9a3.24,3.24,0,0,1-1.46.28,2.54,2.54,0,0,1-2.22-1.22l-4.86-7.6h-2.77v8.54h-2.71Zm4.92,9.94q5.15,0,5.14-4.12a3.43,3.43,0,0,0-1.15-2.91,6.68,6.68,0,0,0-4-.89,14.1,14.1,0,0,0-2.24.13V138ZM230,130.38h-6.61a4.28,4.28,0,0,1-.09-.87,1.33,1.33,0,0,1,.53-1.08,2.13,2.13,0,0,1,1.37-.42h14.31a5.46,5.46,0,0,1,.06.72,1.52,1.52,0,0,1-.51,1.2,2.06,2.06,0,0,1-1.39.45H232.7v18.49H230Zm22.1,1a6.4,6.4,0,0,0-1.93-1,7.16,7.16,0,0,0-2.28-.37,4.42,4.42,0,0,0-2.87.82,3.11,3.11,0,0,0-.6,3.78,3.51,3.51,0,0,0,1.29,1.15,16.35,16.35,0,0,0,2.9,1.14,9,9,0,0,1,4.14,2.38A5.34,5.34,0,0,1,254,143a6,6,0,0,1-1.88,4.66,7.4,7.4,0,0,1-5.16,1.7,13.06,13.06,0,0,1-3.2-.37,6.6,6.6,0,0,1-2.32-1,1.4,1.4,0,0,1-.78-1.15A2,2,0,0,1,241,146a6.49,6.49,0,0,1,.67-1,9.22,9.22,0,0,0,2.57,1.49A7.59,7.59,0,0,0,247,147a4.63,4.63,0,0,0,3.15-1,3.32,3.32,0,0,0,1.09-2.63,3.93,3.93,0,0,0-.38-1.78,3.29,3.29,0,0,0-1.21-1.29,11.09,11.09,0,0,0-2.53-1.08,13.76,13.76,0,0,1-3.53-1.45,5,5,0,0,1-1.8-1.85,5.41,5.41,0,0,1-.59-2.59,5.23,5.23,0,0,1,3.2-5.05,8.39,8.39,0,0,1,3.47-.68,11,11,0,0,1,2.56.31,7.75,7.75,0,0,1,2.18.84,3.1,3.1,0,0,1,.9.73,1.22,1.22,0,0,1,.28.77,2.81,2.81,0,0,1-1,1.68l-.29-.26Z"/></svg>