<svg xmlns="http://www.w3.org/2000/svg" width="42.96" height="35.63" viewBox="0 0 42.96 35.63"><defs><style>.cls-1{fill:#fff;}</style></defs><title>Asset 7</title><g id="Layer_2" data-name="Layer 2"><g id="Desktop"><g id="Tabs"><g id="Best_Sail_Ever" data-name="Best Sail Ever"><path class="cls-1" d="M21.09.73c-1,.93-8.12,8.07-8.42,8.47a.81.81,0,0,0-.18.71.91.91,0,0,0,.26.66,1.14,1.14,0,0,0,1.62.07c.3-.24.3-.25.56-.11s1,.12,7.38.12,7.14,0,7.38-.12.26-.13.56.1a1.1,1.1,0,0,0,1.54,0c.27-.22.28-.24.28-.8V9.26L28.59,5.74c-1.92-1.92-4-4-4.66-4.62L22.75,0h-.86Zm3.4,4.17.38.39H19.75l.38-.39.39-.39h3.59ZM27.54,8a2,2,0,0,1,.33.38s-2.53.07-5.61.07H16.64L17.06,8l.42-.43,4.87,0,4.86,0Z" transform="translate(-0.84)"/><path class="cls-1" d="M14.14,11.57a1.13,1.13,0,0,0-.45,1.53c.25.53.3.54,2.65.57l2.11,0,0,.35a1.36,1.36,0,0,1,0,.39s-.95,0-2.06,0c-1.89,0-2,0-2.28.15a1.21,1.21,0,0,0-.41,1.61c.27.45.4.48,2.67.54l2.07,0v.66l-1.33,0c-.74,0-1.67.06-2.07.06-.83,0-1.08.09-1.33.49A1.19,1.19,0,0,0,14,19.58c.21.16.21.16,8.31.16s8.1,0,8.31-.16a1.21,1.21,0,0,0,.31-1.46c-.25-.44-.55-.55-1.36-.55-.4,0-1.34,0-2.07-.06l-1.34,0v-.66l2.08,0c2.31-.06,2.4-.09,2.67-.59a1.12,1.12,0,0,0-.34-1.49c-.24-.18-.3-.18-2.38-.21l-2.12,0,0-.29a2.73,2.73,0,0,0,.05-.39c0-.07.47-.09,2.07-.09H30.3l.27-.2a1.1,1.1,0,0,0-.14-1.91c-.25-.14-.8-.14-8.16-.14C14.69,11.43,14.37,11.43,14.14,11.57Zm10.46,4v2.65H20V13H24.6Z" transform="translate(-0.84)"/><path class="cls-1" d="M.84,28.52H2.38v5.59H5.87v1.4h-5Z" transform="translate(-0.84)"/><path class="cls-1" d="M6.57,32v0A3.62,3.62,0,0,1,10.3,28.4,3.58,3.58,0,0,1,14,32v0a3.61,3.61,0,0,1-3.72,3.62A3.59,3.59,0,0,1,6.57,32Zm5.83,0v0a2.12,2.12,0,0,0-2.12-2.19A2.09,2.09,0,0,0,8.18,32v0a2.13,2.13,0,0,0,2.12,2.2A2.09,2.09,0,0,0,12.4,32Z" transform="translate(-0.84)"/><path class="cls-1" d="M15.63,28.52h2.73A3.49,3.49,0,0,1,22.08,32v0a3.5,3.5,0,0,1-3.72,3.5H15.63Zm2.73,5.6A2,2,0,0,0,20.47,32v0a2,2,0,0,0-2.11-2.1H17.17v4.21Z" transform="translate(-0.84)"/><path class="cls-1" d="M23.39,32v0a3.59,3.59,0,0,1,3.67-3.61,3.84,3.84,0,0,1,2.75,1l-1,1.17A2.58,2.58,0,0,0,27,29.82,2.1,2.1,0,0,0,25,32v0a2.1,2.1,0,0,0,2.12,2.22,2.46,2.46,0,0,0,1.45-.42v-1H27V31.48h3v3a4.54,4.54,0,0,1-3,1.11A3.5,3.5,0,0,1,23.39,32Z" transform="translate(-0.84)"/><path class="cls-1" d="M31.79,28.52h5.28v1.37H33.32v1.42h3.3v1.36h-3.3v1.47h3.8v1.37H31.79Z" transform="translate(-0.84)"/><path class="cls-1" d="M38.26,34.49l.91-1.09a3.21,3.21,0,0,0,2.09.85c.63,0,1-.25,1-.66v0c0-.39-.24-.59-1.41-.89-1.41-.36-2.32-.75-2.32-2.13v0A2.19,2.19,0,0,1,41,28.42a4.05,4.05,0,0,1,2.6.89l-.8,1.16A3.28,3.28,0,0,0,41,29.78c-.59,0-.9.27-.9.61v0c0,.46.3.6,1.51.92,1.42.36,2.22.87,2.22,2.09v0c0,1.39-1.06,2.17-2.57,2.17A4.45,4.45,0,0,1,38.26,34.49Z" transform="translate(-0.84)"/></g></g></g></g></svg>